<?xml version="1.0" encoding="UTF-8"?>
<!DOCTYPE svg PUBLIC "-//W3C//DTD SVG 1.1//EN" "http://www.w3.org/Graphics/SVG/1.1/DTD/svg11.dtd">
<svg version="1.2" width="20mm" height="20mm" viewBox="0 0 2000 2000" preserveAspectRatio="xMidYMid" fill-rule="evenodd" stroke-width="28.222" stroke-linejoin="round" xmlns="http://www.w3.org/2000/svg" xmlns:ooo="http://xml.openoffice.org/svg/export" xmlns:xlink="http://www.w3.org/1999/xlink" xmlns:presentation="http://sun.com/xmlns/staroffice/presentation" xmlns:smil="http://www.w3.org/2001/SMIL20/" xmlns:anim="urn:oasis:names:tc:opendocument:xmlns:animation:1.0" xmlns:svg="urn:oasis:names:tc:opendocument:xmlns:svg-compatible:1.0" xml:space="preserve">
 <defs class="ClipPathGroup">
  <clipPath id="presentation_clip_path" clipPathUnits="userSpaceOnUse">
   <rect x="0" y="0" width="2000" height="2000"/>
  </clipPath>
  <clipPath id="presentation_clip_path_shrink" clipPathUnits="userSpaceOnUse">
   <rect x="2" y="2" width="1996" height="1996"/>
  </clipPath>
 </defs>
 <defs class="TextShapeIndex">
  <g ooo:slide="id1" ooo:id-list="id3 id4 id5 id6 id7 id8 id9 id10"/>
 </defs>
 <defs class="EmbeddedBulletChars">
  <g id="bullet-char-template-57356" transform="scale(0.00048828125,-0.00048828125)">
   <path d="M 580,1141 L 1163,571 580,0 -4,571 580,1141 Z"/>
  </g>
  <g id="bullet-char-template-57354" transform="scale(0.00048828125,-0.00048828125)">
   <path d="M 8,1128 L 1137,1128 1137,0 8,0 8,1128 Z"/>
  </g>
  <g id="bullet-char-template-10146" transform="scale(0.00048828125,-0.00048828125)">
   <path d="M 174,0 L 602,739 174,1481 1456,739 174,0 Z M 1358,739 L 309,1346 659,739 1358,739 Z"/>
  </g>
  <g id="bullet-char-template-10132" transform="scale(0.00048828125,-0.00048828125)">
   <path d="M 2015,739 L 1276,0 717,0 1260,543 174,543 174,936 1260,936 717,1481 1274,1481 2015,739 Z"/>
  </g>
  <g id="bullet-char-template-10007" transform="scale(0.00048828125,-0.00048828125)">
   <path d="M 0,-2 C -7,14 -16,27 -25,37 L 356,567 C 262,823 215,952 215,954 215,979 228,992 255,992 264,992 276,990 289,987 310,991 331,999 354,1012 L 381,999 492,748 772,1049 836,1024 860,1049 C 881,1039 901,1025 922,1006 886,937 835,863 770,784 769,783 710,716 594,584 L 774,223 C 774,196 753,168 711,139 L 727,119 C 717,90 699,76 672,76 641,76 570,178 457,381 L 164,-76 C 142,-110 111,-127 72,-127 30,-127 9,-110 8,-76 1,-67 -2,-52 -2,-32 -2,-23 -1,-13 0,-2 Z"/>
  </g>
  <g id="bullet-char-template-10004" transform="scale(0.00048828125,-0.00048828125)">
   <path d="M 285,-33 C 182,-33 111,30 74,156 52,228 41,333 41,471 41,549 55,616 82,672 116,743 169,778 240,778 293,778 328,747 346,684 L 369,508 C 377,444 397,411 428,410 L 1163,1116 C 1174,1127 1196,1133 1229,1133 1271,1133 1292,1118 1292,1087 L 1292,965 C 1292,929 1282,901 1262,881 L 442,47 C 390,-6 338,-33 285,-33 Z"/>
  </g>
  <g id="bullet-char-template-9679" transform="scale(0.00048828125,-0.00048828125)">
   <path d="M 813,0 C 632,0 489,54 383,161 276,268 223,411 223,592 223,773 276,916 383,1023 489,1130 632,1184 813,1184 992,1184 1136,1130 1245,1023 1353,916 1407,772 1407,592 1407,412 1353,268 1245,161 1136,54 992,0 813,0 Z"/>
  </g>
  <g id="bullet-char-template-8226" transform="scale(0.00048828125,-0.00048828125)">
   <path d="M 346,457 C 273,457 209,483 155,535 101,586 74,649 74,723 74,796 101,859 155,911 209,963 273,989 346,989 419,989 480,963 531,910 582,859 608,796 608,723 608,648 583,586 532,535 482,483 420,457 346,457 Z"/>
  </g>
  <g id="bullet-char-template-8211" transform="scale(0.00048828125,-0.00048828125)">
   <path d="M -4,459 L 1135,459 1135,606 -4,606 -4,459 Z"/>
  </g>
  <g id="bullet-char-template-61548" transform="scale(0.00048828125,-0.00048828125)">
   <path d="M 173,740 C 173,903 231,1043 346,1159 462,1274 601,1332 765,1332 928,1332 1067,1274 1183,1159 1299,1043 1357,903 1357,740 1357,577 1299,437 1183,322 1067,206 928,148 765,148 601,148 462,206 346,322 231,437 173,577 173,740 Z"/>
  </g>
 </defs>
 <g>
  <g id="id2" class="Master_Slide">
   <g id="bg-id2" class="Background"/>
   <g id="bo-id2" class="BackgroundObjects"/>
  </g>
 </g>
 <g class="SlideGroup">
  <g>
   <g id="container-id1">
    <g id="id1" class="Slide" clip-path="url(#presentation_clip_path)">
     <g class="Page">
      <g class="com.sun.star.drawing.PolyPolygonShape">
       <g id="id3">
        <rect class="BoundingBox" stroke="none" fill="none" x="1107" y="66" width="580" height="863"/>
        <g>
         <defs>
          <linearGradient id="gradient1" x1="1038" y1="138" x2="1757" y2="857" gradientUnits="userSpaceOnUse">
           <stop offset="0.3" style="stop-color:rgb(255,123,89)"/>
           <stop offset="1" style="stop-color:rgb(73,35,0)"/>
          </linearGradient>
         </defs>
         <path style="fill:url(#gradient1)" d="M 1108,850 L 1511,67 1538,67 1594,82 1650,103 1683,130 1686,150 1291,928 1108,850 Z"/>
        </g>
       </g>
      </g>
      <g class="com.sun.star.drawing.CustomShape">
       <g id="id4">
        <rect class="BoundingBox" stroke="none" fill="none" x="689" y="853" width="777" height="495"/>
        <g>
         <defs>
          <linearGradient id="gradient2" x1="741" y1="818" x2="1413" y2="1382" gradientUnits="userSpaceOnUse">
           <stop offset="0.36" style="stop-color:rgb(255,233,148)"/>
           <stop offset="1" style="stop-color:rgb(129,55,9)"/>
          </linearGradient>
         </defs>
         <path style="fill:url(#gradient2)" d="M 1452,1132 L 1451,1139 1451,1147 1450,1154 1449,1162 1447,1169 1445,1176 1442,1183 1439,1190 1432,1204 1423,1218 1413,1231 1402,1243 1389,1255 1375,1266 1359,1277 1342,1286 1325,1295 1306,1303 1286,1310 1265,1317 1243,1322 1221,1326 1198,1330 1175,1332 1151,1334 1127,1334 1102,1333 1078,1332 1053,1329 1029,1326 1004,1321 981,1316 957,1309 934,1302 912,1294 890,1285 869,1275 849,1265 830,1254 812,1242 796,1229 780,1216 766,1203 753,1189 741,1174 731,1160 722,1145 715,1130 710,1114 706,1099 704,1091 703,1084 703,1076 702,1068 703,1061 703,1053 704,1046 705,1038 707,1031 709,1024 712,1017 715,1010 722,996 731,982 741,969 752,957 765,945 779,934 795,923 812,914 829,905 848,897 868,890 889,883 911,878 933,874 956,870 979,868 1003,866 1027,866 1052,867 1076,868 1101,871 1125,874 1150,879 1173,884 1197,891 1220,898 1242,906 1264,915 1285,925 1305,935 1324,946 1342,958 1358,971 1374,984 1388,997 1401,1011 1413,1026 1423,1040 1432,1055 1439,1070 1444,1086 1448,1101 1450,1109 1451,1116 1451,1124 1452,1132 1452,1132 Z"/>
        </g>
        <path fill="none" stroke="rgb(184,92,0)" stroke-width="25" stroke-linejoin="round" d="M 1452,1132 C 1452,1172 1435,1211 1402,1243 1369,1276 1322,1301 1265,1317 1208,1332 1143,1337 1078,1332 1012,1326 947,1310 890,1285 833,1260 786,1227 753,1189 720,1151 702,1109 702,1068 702,1028 719,989 752,957 785,924 832,899 889,883 946,868 1011,863 1076,868 1142,874 1207,890 1264,915 1321,940 1368,973 1401,1011 1434,1049 1452,1091 1452,1132 L 1452,1132 Z"/>
       </g>
      </g>
      <g class="com.sun.star.drawing.CustomShape">
       <g id="id5">
        <rect class="BoundingBox" stroke="none" fill="none" x="113" y="1161" width="776" height="661"/>
        <g>
         <defs>
          <linearGradient id="gradient3" x1="124" y1="1175" x2="876" y2="1807" gradientUnits="userSpaceOnUse">
           <stop offset="0.36" style="stop-color:rgb(255,233,148)"/>
           <stop offset="1" style="stop-color:rgb(129,55,9)"/>
          </linearGradient>
         </defs>
         <path style="fill:url(#gradient3)" d="M 644,1174 L 875,1188 356,1808 126,1794 644,1174 Z"/>
        </g>
        <path fill="none" stroke="rgb(184,92,0)" stroke-width="25" stroke-linejoin="round" d="M 644,1174 L 875,1188 356,1808 126,1794 644,1174 Z"/>
       </g>
      </g>
      <g class="com.sun.star.drawing.CustomShape">
       <g id="id6">
        <rect class="BoundingBox" stroke="none" fill="none" x="313" y="1204" width="778" height="678"/>
        <g>
         <defs>
          <linearGradient id="gradient4" x1="320" y1="1223" x2="1082" y2="1862" gradientUnits="userSpaceOnUse">
           <stop offset="0.36" style="stop-color:rgb(255,233,148)"/>
           <stop offset="1" style="stop-color:rgb(129,55,9)"/>
          </linearGradient>
         </defs>
         <path style="fill:url(#gradient4)" d="M 845,1217 L 1077,1217 557,1868 326,1868 845,1217 Z"/>
        </g>
        <path fill="none" stroke="rgb(184,92,0)" stroke-width="25" stroke-linejoin="round" d="M 845,1217 L 1077,1217 557,1868 326,1868 845,1217 Z"/>
       </g>
      </g>
      <g class="com.sun.star.drawing.CustomShape">
       <g id="id7">
        <rect class="BoundingBox" stroke="none" fill="none" x="510" y="1214" width="734" height="726"/>
        <g>
         <defs>
          <linearGradient id="gradient5" x1="497" y1="1258" x2="1256" y2="1895" gradientUnits="userSpaceOnUse">
           <stop offset="0.36" style="stop-color:rgb(255,233,148)"/>
           <stop offset="1" style="stop-color:rgb(129,55,9)"/>
          </linearGradient>
         </defs>
         <path style="fill:url(#gradient5)" d="M 998,1242 L 1230,1227 754,1911 523,1926 998,1242 Z"/>
        </g>
        <path fill="none" stroke="rgb(184,92,0)" stroke-width="25" stroke-linejoin="round" d="M 998,1242 L 1230,1227 754,1911 523,1926 998,1242 Z"/>
       </g>
      </g>
      <g class="com.sun.star.drawing.CustomShape">
       <g id="id8">
        <rect class="BoundingBox" stroke="none" fill="none" x="762" y="1208" width="664" height="756"/>
        <g>
         <defs>
          <linearGradient id="gradient6" x1="727" y1="1278" x2="1460" y2="1893" gradientUnits="userSpaceOnUse">
           <stop offset="0.36" style="stop-color:rgb(255,233,148)"/>
           <stop offset="1" style="stop-color:rgb(129,55,9)"/>
          </linearGradient>
         </defs>
         <path style="fill:url(#gradient6)" d="M 1191,1246 L 1412,1221 995,1925 775,1950 1191,1246 Z"/>
        </g>
        <path fill="none" stroke="rgb(184,92,0)" stroke-width="25" stroke-linejoin="round" d="M 1191,1246 L 1412,1221 995,1925 775,1950 1191,1246 Z"/>
       </g>
      </g>
      <g class="com.sun.star.drawing.CustomShape">
       <g id="id9">
        <rect class="BoundingBox" stroke="none" fill="none" x="1082" y="836" width="221" height="121"/>
        <g>
         <defs>
          <linearGradient id="gradient7" x1="1112" y1="829" x2="1272" y2="963" gradientUnits="userSpaceOnUse">
           <stop offset="0.36" style="stop-color:rgb(255,233,148)"/>
           <stop offset="1" style="stop-color:rgb(129,55,9)"/>
          </linearGradient>
         </defs>
         <path style="fill:url(#gradient7)" d="M 1115,849 L 1116,849 1115,849 1115,849 1115,849 1114,849 1114,849 1114,849 1113,849 1113,849 1112,849 1112,849 1111,849 1111,849 1111,849 1110,849 1110,850 1110,850 1109,850 1109,850 1109,851 1108,851 1108,851 1108,851 1108,852 1107,852 1096,873 1096,873 1096,873 1095,873 1095,874 1095,874 1095,874 1095,875 1095,875 1095,876 1095,876 1095,876 1095,877 1095,877 1095,877 1096,878 1096,878 1096,878 1096,878 1096,879 1097,879 1097,879 1097,879 1098,880 1098,880 1098,880 1268,942 1269,942 1269,942 1269,942 1270,943 1270,943 1271,943 1271,943 1271,943 1272,943 1272,943 1273,942 1273,942 1273,942 1274,942 1274,942 1274,942 1275,941 1275,941 1275,941 1276,941 1276,940 1276,940 1277,940 1277,939 1277,939 1288,917 1289,919 1289,919 1289,918 1289,918 1289,918 1289,917 1289,917 1289,916 1289,916 1289,916 1289,915 1289,915 1289,915 1289,914 1289,914 1289,914 1289,913 1288,913 1288,913 1288,913 1288,912 1287,912 1287,912 1287,912 1286,912 1286,911 1115,849 Z"/>
        </g>
        <path fill="none" stroke="rgb(184,92,0)" stroke-width="25" stroke-linejoin="round" d="M 1115,849 L 1116,849 C 1115,849 1114,848 1113,849 1112,849 1111,849 1110,850 1109,850 1108,851 1107,852 L 1096,873 1096,873 C 1095,874 1095,875 1095,876 1095,876 1095,877 1096,878 1097,879 1097,879 1098,880 L 1268,942 1269,942 C 1270,943 1271,943 1272,943 1273,942 1274,942 1275,941 1276,941 1276,940 1277,939 L 1288,917 1289,919 1289,919 C 1289,918 1289,917 1289,916 1289,915 1289,914 1288,913 1288,912 1287,912 1286,911 L 1115,849 Z"/>
       </g>
      </g>
      <g class="com.sun.star.drawing.PolyPolygonShape">
       <g id="id10">
        <rect class="BoundingBox" stroke="none" fill="none" x="625" y="999" width="792" height="363"/>
        <g>
         <defs>
          <linearGradient id="gradient8" x1="713" y1="922" x2="1327" y2="1438" gradientUnits="userSpaceOnUse">
           <stop offset="0.36" style="stop-color:rgb(255,233,148)"/>
           <stop offset="1" style="stop-color:rgb(129,55,9)"/>
          </linearGradient>
         </defs>
         <path style="fill:url(#gradient8)" d="M 643,1105 L 668,1041 721,1012 825,1042 844,1088 873,1049 994,1082 1005,1128 1031,1089 1177,1137 1189,1180 1225,1153 1388,1210 1403,1248 1380,1330 1349,1348 1171,1329 1164,1278 1113,1318 985,1290 985,1239 944,1279 818,1241 835,1175 775,1222 653,1180 638,1148 643,1105 Z"/>
        </g>
        <path fill="none" stroke="rgb(184,92,0)" stroke-width="25" stroke-linejoin="round" d="M 643,1105 L 668,1041 721,1012 825,1042 844,1088 873,1049 994,1082 1005,1128 1031,1089 1177,1137 1189,1180 1225,1153 1388,1210 1403,1248 1380,1330 1349,1348 1171,1329 1164,1278 1113,1318 985,1290 985,1239 944,1279 818,1241 835,1175 775,1222 653,1180 638,1148 643,1105 Z"/>
       </g>
      </g>
     </g>
    </g>
   </g>
  </g>
 </g>
</svg>