<?xml version="1.0" encoding="UTF-8" standalone="no"?>
<!--part of the matt icon theme by sixsixfive released under CC0 (https://creativecommons.org/publicdomain/zero/1.0/) on openclipart-->
<svg xmlns="http://www.w3.org/2000/svg" xmlns:xlink="http://www.w3.org/1999/xlink" viewBox="0 0 128 128">
 <defs id="0">
  <linearGradient id="3">
   <stop id="F" stop-color="#f0ff80"/>
   <stop id="G" offset="1" stop-color="#e3ad00"/>
  </linearGradient>
  <linearGradient id="4">
   <stop id="H"/>
   <stop id="I" offset="1" stop-opacity="0"/>
  </linearGradient>
  <linearGradient id="5">
   <stop id="J" stop-color="#fff"/>
   <stop id="K" offset="1" stop-color="#fff" stop-opacity="0"/>
  </linearGradient>
  <radialGradient cx="105.81" cy="121.8" r="17.636" id="6" xlink:href="#4" gradientUnits="userSpaceOnUse" gradientTransform="matrix(1,0,0,0.1351351,0,105.34372)"/>
  <linearGradient y1="6.969" x2="0" y2="121.03" id="7" xlink:href="#3" gradientUnits="userSpaceOnUse"/>
  <linearGradient y1="3.565" x2="0" y2="9.54" id="8" xlink:href="#5" gradientUnits="userSpaceOnUse" gradientTransform="matrix(0.804546,-0.5310962,0.5285503,0.8084212,-24.135476,55.344293)"/>
 </defs>
 <path d="m 123.44987,121.80367 a 17.635696,2.3832021 0 1 1 -35.271388,0 17.635696,2.3832021 0 1 1 35.271388,0 z" transform="matrix(1.2027027,0,0,2.0200496,-22.64042,-126.58121)" id="1" opacity="0.547" fill="url(#6)"/>
 <g transform="translate(0,-3.29991)" id="2">
  <path d="m 56.546719,4.000219 c -0.326925,-0.00458 -0.562159,0.063823 -0.770518,0.1005024 -0.03372,0.00498 -0.237121,0.016741 -0.335008,0.033501 -0.02576,0.00706 -0.06154,0.021341 -0.100502,0.033501 -0.01076,0.00211 -0.02232,0.031225 -0.0335,0.033501 -0.129254,0.026317 -0.200865,0.012348 -0.368509,0.067002 -0.272037,0.088695 -0.469,0.1874228 -0.670015,0.301507 2.57e-4,-1.162e-4 -0.174268,0.1264813 -0.301507,0.2010046 -0.198432,0.087886 -0.36675,0.1396968 -0.670016,0.301507 -0.69465,0.3706472 -1.543072,0.8748521 -2.579559,1.4740342 -2.062179,1.1921326 -4.758601,2.74341 -7.437173,4.3551008 -2.678807,1.611833 -5.3696,3.245624 -7.403671,4.489104 -1.008775,0.616693 -1.888318,1.15783 -2.512558,1.541037 -0.304166,0.186719 -0.533654,0.330819 -0.703516,0.435509 -0.08493,0.05235 -0.156901,0.07326 -0.201005,0.100503 -0.02204,0.01362 -0.02173,0.02621 -0.0335,0.0335 -5.3e-5,4e-5 -0.129158,0.0976 -0.134003,0.100503 -0.113506,0.06808 -1.414912,0.829127 -3.383578,2.010047 -2.052757,1.23137 -4.737449,2.834428 -7.403671,4.455603 -2.650025,1.611329 -5.333614,3.234876 -7.370171,4.522605 -1.032478,0.652845 -1.8291,1.188228 -2.445557,1.608037 -0.304101,0.207098 -0.594449,0.428554 -0.904521,0.670015 -0.150802,0.117433 -0.251808,0.225249 -0.368509,0.335008 -0.03533,0.02703 -0.0768,0.05254 -0.134003,0.100502 -0.01305,0.01094 -0.05315,0.05512 -0.067,0.067 -0.156087,0.133957 -0.3597182,0.281445 -0.5695134,0.569513 -0.00304,0.0042 -0.2685101,0.464347 -0.4690109,0.938022 -0.287174,0.678463 -0.3463498,1.312676 -0.3350077,1.876043 0.012714,0.631084 0.1190269,1.300538 0.4690108,1.976546 0.1294149,0.24997 0.2319861,0.427727 0.3350078,0.569513 0.044307,0.06097 0.093759,0.117744 0.1340031,0.167503 0.00656,0.0081 0.026865,0.02543 0.033501,0.0335 0.023703,0.02883 0.030521,0.05742 0.1005024,0.134004 0.017506,0.01915 0.1002559,0.100258 0.1005019,0.100502 1.29e-4,1.21e-4 0.20094,0.167451 0.201005,0.167504 10e-6,4e-6 0.06084,0.03108 0.067,0.0335 0.03061,0.02593 0.07137,0.07722 0.100503,0.100502 0.02224,0.01777 0.04564,0.05049 0.067,0.067 0.09394,0.07258 0.158445,0.165829 0.268006,0.234505 0.09491,0.0852 0.02704,0.0431 0.201005,0.167504 0.422839,0.302352 0.702101,0.456076 0.938022,0.603014 0.664945,0.414141 1.538977,0.941045 2.579559,1.541035 2.071249,1.194262 4.774338,2.676647 7.504174,4.187598 2.727286,1.509539 5.468871,3.035428 7.571176,4.187597 1.051131,0.576071 1.984586,1.097571 2.61306,1.440533 0.314243,0.17148 0.56589,0.308774 0.737017,0.402009 0.171127,0.09324 0.503552,0.248697 0.234506,0.100503 -0.143576,-0.07908 5.670946,3.13715 11.122257,6.130642 2.712127,1.489314 5.466083,3.061578 7.604676,4.187596 1.090754,0.574301 1.993602,0.990653 2.646561,1.306531 0.355045,0.171752 0.659093,0.328137 1.005024,0.469011 -0.495726,-0.201869 0.184474,0.09735 0.670015,0.234505 -0.0056,-0.0016 0.134175,0.02412 0.167505,0.0335 0.172713,0.06171 0.242846,0.05224 0.301506,0.067 0.142505,0.03162 0.142848,0.07994 0.335008,0.100502 0.238729,0.03576 0.517628,0.03598 0.904521,0 0.619378,-0.05761 1.324292,-0.262465 1.943048,-0.636515 0.622457,-0.376277 1.219549,-0.900866 1.641538,-1.675039 0.290591,-0.480264 0.400234,-1.021894 0.502512,-1.574537 0.07419,-0.447483 0.09164,-0.735821 0.100503,-0.87102 0.03106,-0.473486 0.02736,-0.93335 0.0335,-1.507535 0.01312,-1.226687 -0.0374,-2.827027 -0.067,-4.589605 -0.03639,-2.166365 -0.07273,-4.658765 -0.134004,-7.068665 9.474053,-0.04952 18.733445,4.190703 24.321564,12.696795 2.913902,4.435465 4.468582,9.350574 4.75711,14.27133 l 0.0335,1.072025 0.067,42.713486 0,2.31155 c 0,2.96951 2.390615,5.36013 5.360123,5.36013 l 17.386906,0 c 2.96951,0 5.36013,-2.39062 5.36013,-5.36013 l 0,-22.110506 c 0,-0.27839 -0.0265,-0.537295 -0.067,-0.804018 l 0,-24.824075 -0.134,-1.139026 C 118.33842,60.24477 115.34538,51.317428 109.74596,42.794118 98.646037,25.898114 80.034427,17.249161 61.236831,17.534533 c -0.02421,-1.670949 -0.0724,-3.453003 -0.100503,-4.790612 -0.02623,-1.24809 -0.02178,-2.347794 -0.067,-3.249575 -0.02409,-0.480474 -0.06881,-0.8572453 -0.100503,-1.1390261 0.01316,0.1169991 -0.02718,-0.211192 -0.0335,-0.3015073 -0.004,-0.075217 0.0036,-0.1007451 0,-0.1340029 -0.0072,-0.066516 0.0049,-0.1025363 0,-0.134003 -0.01235,-0.079314 -0.02181,-0.1142849 -0.0335,-0.1675039 -0.0069,-0.031238 -0.02534,-0.06675 -0.0335,-0.1005024 -0.01557,-0.064416 -0.04539,-0.1610585 -0.067,-0.2345054 -0.0094,-0.031827 -0.02271,-0.066864 -0.0335,-0.1005023 C 60.739197,7.0706224 60.67597,6.9982135 60.633816,6.8812857 60.549513,6.6474291 60.460547,6.3474366 60.231807,6.0102655 59.851288,5.4493629 59.275108,4.9619794 58.62377,4.6032329 57.955576,4.2351691 57.300577,4.0107817 56.546719,4.000219 z" id="9" fill="#ba8e00"/>
  <path d="m 118.6875,86.125 0,21.6875 c 0.0378,-0.2488 0.0625,-0.49031 0.0625,-0.75 l 0,-20.1875 c 0,-0.259687 -0.0247,-0.501197 -0.0625,-0.75 z" id="A" fill="#638000"/>
  <path d="m 23.59375,59.375 c -0.307539,0.288851 -0.644217,0.623506 -0.71875,0.78125 0.07301,-0.131888 0.281775,-0.43818 0.28125,-0.4375 -3.07e-4,3.96e-4 0.224631,-0.166585 0.4375,-0.34375 z" id="B" fill="#638000"/>
  <path d="m 25.075154,63.580679 c 0.03236,0.139958 0.0854,0.354191 0.149963,0.633399 -0.06803,-0.139934 -0.09194,-0.154204 -0.159967,-0.294138 l 0.01,-0.339261 z" id="C" opacity="0.634" fill="#ac4311"/>
  <path d="m 56.5,6.96875 c 0.297925,0.011533 -0.550147,0.1048628 -0.40625,0.0625 -0.0081,0.00231 -0.02413,-0.00202 -0.03125,0 C 56.04483,7.03636 56.01142,7.059259 56,7.0625 55.98365,7.06714 55.90635,7.093731 55.90625,7.09375 55.731853,7.129258 55.91355,7.112436 55.875,7.125 55.85093,7.142648 55.7784,7.136172 55.75,7.15625 55.67222,7.211246 55.61854,7.256019 55.46875,7.34375 55.37788,7.400862 55.283996,7.4530214 55.1875,7.5 c -0.480662,0.2128864 -0.394399,0.1478293 -0.46875,0.1875 -0.618775,0.3301626 -1.463199,0.8381364 -2.5,1.4375 -2.054554,1.187725 -4.751673,2.746497 -7.40625,4.34375 -2.682146,1.613842 -5.360992,3.206285 -7.375,4.4375 -0.968936,0.592339 -1.815951,1.142577 -2.5,1.5625 -0.304507,0.186928 -0.547058,0.320125 -0.6875,0.40625 -0.0076,0.0046 -0.02432,0.02698 -0.03125,0.03125 -0.01442,0.0097 -0.05869,0.0078 -0.09375,0.03125 -0.07004,0.05385 -0.04669,0.04526 -0.125,0.09375 -0.04113,0.02723 -0.08311,0.05611 -0.09375,0.0625 -0.0385,0.0231 -0.07996,0.05423 -0.09375,0.0625 -0.03846,0.02307 -1.40205,0.84776 -3.375,2.03125 -2.069249,1.241263 -4.731551,2.798922 -7.375,4.40625 -2.651186,1.612036 -5.347057,3.268727 -7.34375,4.53125 -1.006375,0.63634 -1.756247,1.131159 -2.34375,1.53125 -0.156515,0.10659 -0.403783,0.292892 -0.75,0.5625 -0.14047,0.109387 -0.174674,0.112937 -0.1875,0.125 -0.01017,0.02096 -0.02059,0.04179 -0.03125,0.0625 -0.0054,0.0056 -0.108178,0.07419 -0.125,0.09375 -0.0026,0.0029 0.0048,0.02661 0,0.03125 -0.01085,0.01151 -0.03521,0.0062 -0.0625,0.03125 -0.01584,0.0132 -0.01495,0.01759 -0.03125,0.03125 -0.02735,0.0241 0.0077,-0.0022 -0.03125,0.03125 -0.07228,0.06203 -0.0036,-0.02306 -0.03125,0 -0.0042,0.008 0.0043,0.0229 0,0.03125 -0.06407,0.123378 -0.139451,0.261486 -0.1875,0.375 -0.0936,0.221139 -0.130622,0.377024 -0.125,0.65625 0.0068,0.339523 0.05814,0.466747 0.15625,0.65625 0.07776,0.150203 0.06162,0.150691 0.0625,0.15625 0.02351,0.02597 -0.0062,0.01784 0.03125,0.0625 0.0071,0.0053 0.03125,0.03125 0.03125,0.03125 0.01326,0.0159 0.01642,-0.01805 0.03125,0 0.01769,0.02152 -0.01522,0.01272 0,0.03125 0.01142,0.0139 0.02116,-0.0123 0.03125,0 0.02096,0.01017 0.04179,0.02059 0.0625,0.03125 0.48384,0.409889 0.566064,0.489904 0.03125,0.0625 0.581188,0.464318 0.606182,0.499598 0,0.03125 0.0058,0.0076 0.07179,0.07308 0.0625,0.0625 0.144144,0.0923 0.280063,0.196855 0.40625,0.3125 0.218253,0.149304 0.348428,0.226317 0.6875,0.4375 0.656112,0.408641 1.535612,0.925924 2.53125,1.5 2.025197,1.167711 4.702037,2.673434 7.4375,4.1875 2.733695,1.513086 5.478043,3.013863 7.5625,4.15625 1.051575,0.576312 2.162511,1.185119 2.625,1.4375 1.17001,0.648129 -0.0094,0.01767 1.1875,0.625 0.155765,0.08595 0.382484,0.238016 0.6875,0.40625 0.610032,0.336467 1.504016,0.823 2.5625,1.40625 2.116969,1.1665 4.932574,2.691841 7.65625,4.1875 2.744611,1.507153 5.474926,3.104799 7.53125,4.1875 1.01742,0.53569 1.898349,0.91359 2.59375,1.25 0.265851,0.128603 0.37634,0.208661 0.53125,0.28125 0.04323,0.02026 0.118173,0.0457 0.15625,0.0625 0.153195,0.05554 0.414669,0.132146 0.5,0.15625 0.0031,8.97e-4 -0.0031,0.03034 0,0.03125 0.659697,0.10326 0.02804,0.0367 0.59375,0.09375 0.213351,-0.01984 0.530201,-0.12366 0.6875,-0.21875 0.288142,-0.174183 0.442461,-0.342279 0.5625,-0.5625 0.04935,-0.09054 -0.0045,0.09223 0.0625,-0.15625 0.0099,-0.03142 0.02032,-0.06267 0.03125,-0.09375 0.01017,-0.02096 0.02059,-0.04179 0.03125,-0.0625 0.0069,-0.08374 0.01731,-0.167145 0.03125,-0.25 0.0074,-0.03654 0.02233,-0.02659 0.03125,-0.0625 0.0017,-0.01014 -0.002,-0.02083 0,-0.03125 0.03972,-0.246268 0.04645,-0.286497 0.0625,-0.53125 0.02076,-0.316557 0.0247,-0.76238 0.03125,-1.375 0.01203,-1.124979 -0.03252,-2.684111 -0.0625,-4.46875 -0.03662,-2.180059 -0.0645,-4.714031 -0.125,-7.09375 -0.01406,-0.797339 0.292179,-1.567022 0.850167,-2.136757 0.557988,-0.569734 1.321124,-0.89194 2.118583,-0.894493 10.377446,-0.05424 20.646878,4.677347 26.8125,14.0625 3.200198,4.871256 4.900548,10.260667 5.21875,15.6875 5.5e-5,0.01042 5.5e-5,0.02083 0,0.03125 l 0.0625,1.09375 c 0.0014,0.05207 0.0014,0.104176 0,0.15625 l 0.0625,42.71875 0,2.28125 c 0,1.38192 1.013981,2.40625 2.375,2.40625 l 17.40625,0 c 1.36102,0 2.375,-1.02433 2.375,-2.40625 l 0,-22.09375 c 0,-0.121765 -0.0111,-0.24266 -0.0312,-0.375 -0.0212,-0.144867 -0.0316,-0.291097 -0.0312,-0.4375 l 0,-24.5 L 116,70.0625 c -8.7e-4,-0.04166 -8.7e-4,-0.08334 0,-0.125 -0.58759,-9.01636 -3.40668,-17.397763 -8.75,-25.53125 C 96.732739,28.397154 79.136744,20.22893 61.28125,20.5 c -1.637412,0.01184 -2.977368,-1.300202 -3,-2.9375 -0.0234,-1.615123 -0.09579,-3.359832 -0.125,-4.75 -0.0273,-1.299075 -0.02433,-2.395106 -0.0625,-3.15625 C 58.07673,9.3167844 58.05464,9.0674266 58.03125,8.84375 58.026699,8.8002267 58.004358,8.7262444 58,8.6875 57.9979,8.670323 58.0025,8.646153 58,8.625 57.9913,8.55131 57.98009,8.4809796 57.96875,8.34375 c -0.0045,-0.013182 0.0054,-0.04666 0,-0.0625 C 57.928934,8.1645145 57.90527,8.1323276 57.8125,7.875 57.686476,7.5254094 57.722867,7.6475055 57.75,7.6875 57.684937,7.5915951 57.475959,7.3463785 57.1875,7.1875 56.828571,6.9897901 56.71218,6.971723 56.5,6.96875 z" id="D" fill="url(#7)"/>
  <path d="m 13.53839,33.802364 c -0.157367,0.158578 -0.233897,0.380777 -0.207748,0.603171 0.02615,0.222397 0.152105,0.420557 0.341916,0.537921 0.138473,0.08423 0.160056,0.08777 0.290882,0.169648 0.6108,0.382253 1.435662,0.903734 2.451304,1.492165 2.04001,1.18192 4.748332,2.671771 7.497605,4.200807 5.490981,3.053867 10.994567,6.076616 11.271912,6.230123 0.183925,0.101792 1.467203,0.818135 3.566014,1.985984 2.098743,1.167812 4.876055,2.711338 7.622581,4.226806 2.751342,1.518125 5.536079,3.059979 7.614689,4.159685 1.031501,0.545728 1.857043,0.990276 2.510945,1.308128 0.181656,0.0883 0.265471,0.128715 0.316024,0.153051 0.225324,0.1099 0.491017,0.09588 0.703642,-0.03714 0.212626,-0.133014 0.342406,-0.366396 0.343699,-0.618065 0.0158,-0.297211 0.02723,-0.57356 0.03174,-0.997443 0.01196,-1.124298 -0.03985,-2.719077 -0.0698,-4.510899 -0.05351,-3.201095 -0.129271,-7.103039 -0.212668,-10.564893 -0.0075,-0.622627 0.434278,-1.139309 1.051005,-1.200117 0.0053,0.0085 0.01084,0.01696 0.01652,0.02526 12.111713,-1.272538 24.469894,3.955423 31.621882,14.894437 10.244526,15.669069 5.925872,36.739342 -9.669201,47.033947 -15.595121,10.29465 -36.579713,5.92922 -46.825006,-9.741034 -4.115337,-6.294437 -5.703366,-13.479811 -5.319082,-20.46715 0.01086,-0.389729 -0.283992,-0.71971 -0.670778,-0.750699 -4.208128,-0.246004 -6.757893,-0.40318 -7.898175,-0.464402 -0.600333,-0.03223 -0.855186,-0.05987 -1.050838,-0.06582 -0.04633,-0.0014 -0.116496,0.0026 0.01652,0.02526 0.01663,0.0028 0.08392,0.01752 0.08332,0.01733 -2.99e-4,-9.1e-5 0.100019,0.04268 0.09984,0.0426 -9.2e-5,-4.5e-5 0.0999,0.04264 0.09983,0.0426 -6.4e-5,-4.4e-5 0.149425,0.118429 0.149387,0.118385 -3.7e-5,-4.4e-5 0.131414,0.311131 0.131405,0.311088 -10e-6,-4.3e-5 -0.0029,0.435975 -0.0029,0.435932 1.6e-5,-4.4e-5 -0.160251,0.250466 -0.16021,0.250424 3.9e-5,-4.3e-5 -0.150918,0.09962 -0.150854,0.09958 1.3e-4,-8.5e-5 -0.125931,0.08307 -0.12571,0.08298 2.23e-4,-8.3e-5 -0.05019,0.0036 -0.0668,0.0079 -0.132912,0.03455 -0.109774,0.04056 -0.117085,0.04112 -0.01462,0.0011 -0.0024,-0.02537 -0.01652,-0.02526 -0.0035,2.7e-5 -0.0043,0.01742 -0.02514,0.0166 -0.01044,-4.1e-4 -0.08364,-0.01738 -0.08332,-0.01733 1.64e-4,2.2e-5 -0.166705,-0.03469 -0.166637,-0.03467 0,0 -0.07469,-0.05919 -0.07469,-0.05919 0,0 -0.132871,-0.09312 -0.132871,-0.09312 0,0 0.479164,-0.533303 0.479164,-0.533303 -4.4e-5,1.7e-5 -0.178688,-0.713847 -0.178759,-0.713829 -0.02067,0.0011 -0.0461,0.008 -0.0668,0.0079 -0.4373,-0.01182 -0.48223,-0.05461 -1.025696,-0.08241 C 16.454016,71.29129 13.890383,71.190807 9.7927195,70.958607 9.5990414,70.946745 9.4086476,71.012957 9.2637015,71.14258 9.118756,71.272202 9.0312183,71.45454 9.0204756,71.649213 8.4304479,82.676079 10.993289,93.98979 17.489118,103.9252 33.664005,128.66479 66.747148,135.56836 91.367502,119.31599 115.98793,103.06357 122.86814,69.779636 106.69316,45.03991 95.726322,28.266084 76.991075,20.05222 58.384545,21.413799 c -0.31815,0.02329 -0.682816,-0.08734 -0.915772,-0.299645 -0.232955,-0.212303 -0.33624,-0.515797 -0.344664,-0.857475 -0.05324,-2.870598 -0.10859,-5.788405 -0.15482,-7.999089 -0.02705,-1.293227 -0.04962,-2.4078333 -0.08722,-3.1612443 -0.0084,-0.1684109 -0.03692,-0.2904822 -0.04735,-0.4027383 -0.02725,-0.2385709 -0.169133,-0.4485744 -0.379748,-0.5620555 -0.210617,-0.1134815 -0.463213,-0.1160283 -0.676053,-0.00682 -0.09031,0.04861 -0.12676,0.065013 -0.267938,0.1407043 -0.627376,0.3363639 -1.510308,0.8245604 -2.529258,1.4164462 -2.042936,1.1866976 -4.691899,2.7763106 -7.38021,4.4016546 -2.688871,1.625684 -5.373655,3.283064 -7.431228,4.543832 -2.057557,1.26076 -3.258206,1.984139 -3.527048,2.14744 -0.228377,0.138722 -5.617983,3.393146 -10.974793,6.666007 -2.68241,1.638879 -5.376708,3.272998 -7.364425,4.535901 -0.988359,0.627958 -1.792252,1.16869 -2.388495,1.576692 -0.104564,0.07155 -0.165778,0.105339 -0.276564,0.182564 -0.03529,0.01931 -0.06892,0.04151 -0.100567,0.06639 l 0,0 z" id="E" opacity="0.601" fill="none" stroke="url(#8)" stroke-linejoin="round" stroke-linecap="round" stroke-width="2.581"/>
 </g>
</svg>
