<?xml version="1.0" encoding="UTF-8"?>
<!DOCTYPE svg PUBLIC "-//W3C//DTD SVG 1.1//EN" "http://www.w3.org/Graphics/SVG/1.1/DTD/svg11.dtd">
<svg version="1.2" width="20mm" height="20mm" viewBox="0 0 2000 2000" preserveAspectRatio="xMidYMid" fill-rule="evenodd" stroke-width="28.222" stroke-linejoin="round" xmlns="http://www.w3.org/2000/svg" xmlns:ooo="http://xml.openoffice.org/svg/export" xmlns:xlink="http://www.w3.org/1999/xlink" xmlns:presentation="http://sun.com/xmlns/staroffice/presentation" xmlns:smil="http://www.w3.org/2001/SMIL20/" xmlns:anim="urn:oasis:names:tc:opendocument:xmlns:animation:1.0" xmlns:svg="urn:oasis:names:tc:opendocument:xmlns:svg-compatible:1.0" xml:space="preserve">
 <defs class="ClipPathGroup">
  <clipPath id="presentation_clip_path" clipPathUnits="userSpaceOnUse">
   <rect x="0" y="0" width="2000" height="2000"/>
  </clipPath>
  <clipPath id="presentation_clip_path_shrink" clipPathUnits="userSpaceOnUse">
   <rect x="2" y="2" width="1996" height="1996"/>
  </clipPath>
 </defs>
 <defs class="TextShapeIndex">
  <g ooo:slide="id1" ooo:id-list="id3 id4 id5 id6 id7 id8 id9 id10 id11 id12 id13 id14 id15 id16 id17 id18 id19 id20 id21 id22 id23 id24 id25 id26"/>
 </defs>
 <defs class="EmbeddedBulletChars">
  <g id="bullet-char-template-57356" transform="scale(0.00048828125,-0.00048828125)">
   <path d="M 580,1141 L 1163,571 580,0 -4,571 580,1141 Z"/>
  </g>
  <g id="bullet-char-template-57354" transform="scale(0.00048828125,-0.00048828125)">
   <path d="M 8,1128 L 1137,1128 1137,0 8,0 8,1128 Z"/>
  </g>
  <g id="bullet-char-template-10146" transform="scale(0.00048828125,-0.00048828125)">
   <path d="M 174,0 L 602,739 174,1481 1456,739 174,0 Z M 1358,739 L 309,1346 659,739 1358,739 Z"/>
  </g>
  <g id="bullet-char-template-10132" transform="scale(0.00048828125,-0.00048828125)">
   <path d="M 2015,739 L 1276,0 717,0 1260,543 174,543 174,936 1260,936 717,1481 1274,1481 2015,739 Z"/>
  </g>
  <g id="bullet-char-template-10007" transform="scale(0.00048828125,-0.00048828125)">
   <path d="M 0,-2 C -7,14 -16,27 -25,37 L 356,567 C 262,823 215,952 215,954 215,979 228,992 255,992 264,992 276,990 289,987 310,991 331,999 354,1012 L 381,999 492,748 772,1049 836,1024 860,1049 C 881,1039 901,1025 922,1006 886,937 835,863 770,784 769,783 710,716 594,584 L 774,223 C 774,196 753,168 711,139 L 727,119 C 717,90 699,76 672,76 641,76 570,178 457,381 L 164,-76 C 142,-110 111,-127 72,-127 30,-127 9,-110 8,-76 1,-67 -2,-52 -2,-32 -2,-23 -1,-13 0,-2 Z"/>
  </g>
  <g id="bullet-char-template-10004" transform="scale(0.00048828125,-0.00048828125)">
   <path d="M 285,-33 C 182,-33 111,30 74,156 52,228 41,333 41,471 41,549 55,616 82,672 116,743 169,778 240,778 293,778 328,747 346,684 L 369,508 C 377,444 397,411 428,410 L 1163,1116 C 1174,1127 1196,1133 1229,1133 1271,1133 1292,1118 1292,1087 L 1292,965 C 1292,929 1282,901 1262,881 L 442,47 C 390,-6 338,-33 285,-33 Z"/>
  </g>
  <g id="bullet-char-template-9679" transform="scale(0.00048828125,-0.00048828125)">
   <path d="M 813,0 C 632,0 489,54 383,161 276,268 223,411 223,592 223,773 276,916 383,1023 489,1130 632,1184 813,1184 992,1184 1136,1130 1245,1023 1353,916 1407,772 1407,592 1407,412 1353,268 1245,161 1136,54 992,0 813,0 Z"/>
  </g>
  <g id="bullet-char-template-8226" transform="scale(0.00048828125,-0.00048828125)">
   <path d="M 346,457 C 273,457 209,483 155,535 101,586 74,649 74,723 74,796 101,859 155,911 209,963 273,989 346,989 419,989 480,963 531,910 582,859 608,796 608,723 608,648 583,586 532,535 482,483 420,457 346,457 Z"/>
  </g>
  <g id="bullet-char-template-8211" transform="scale(0.00048828125,-0.00048828125)">
   <path d="M -4,459 L 1135,459 1135,606 -4,606 -4,459 Z"/>
  </g>
  <g id="bullet-char-template-61548" transform="scale(0.00048828125,-0.00048828125)">
   <path d="M 173,740 C 173,903 231,1043 346,1159 462,1274 601,1332 765,1332 928,1332 1067,1274 1183,1159 1299,1043 1357,903 1357,740 1357,577 1299,437 1183,322 1067,206 928,148 765,148 601,148 462,206 346,322 231,437 173,577 173,740 Z"/>
  </g>
 </defs>
 <g>
  <g id="id2" class="Master_Slide">
   <g id="bg-id2" class="Background"/>
   <g id="bo-id2" class="BackgroundObjects"/>
  </g>
 </g>
 <g class="SlideGroup">
  <g>
   <g id="container-id1">
    <g id="id1" class="Slide" clip-path="url(#presentation_clip_path)">
     <g class="Page">
      <g class="com.sun.star.drawing.CustomShape">
       <g id="id3">
        <rect class="BoundingBox" stroke="none" fill="none" x="100" y="99" width="371" height="334"/>
        <path fill="rgb(114,159,207)" stroke="none" d="M 285,412 L 120,412 120,119 450,119 450,412 285,412 Z"/>
        <path fill="none" stroke="rgb(128,128,128)" stroke-width="40" stroke-linejoin="miter" stroke-linecap="square" d="M 285,412 L 120,412 120,119 450,119 450,412 285,412 Z"/>
       </g>
      </g>
      <g class="com.sun.star.drawing.CustomShape">
       <g id="id4">
        <rect class="BoundingBox" stroke="none" fill="none" x="429" y="99" width="518" height="334"/>
        <path fill="rgb(114,159,207)" stroke="none" d="M 688,412 L 449,412 449,119 926,119 926,412 688,412 Z"/>
        <path fill="none" stroke="rgb(128,128,128)" stroke-width="40" stroke-linejoin="miter" stroke-linecap="square" d="M 688,412 L 449,412 449,119 926,119 926,412 688,412 Z"/>
       </g>
      </g>
      <g class="com.sun.star.drawing.CustomShape">
       <g id="id5">
        <rect class="BoundingBox" stroke="none" fill="none" x="907" y="99" width="515" height="334"/>
        <path fill="rgb(114,159,207)" stroke="none" d="M 1164,412 L 927,412 927,119 1401,119 1401,412 1164,412 Z"/>
        <path fill="none" stroke="rgb(128,128,128)" stroke-width="40" stroke-linejoin="miter" stroke-linecap="square" d="M 1164,412 L 927,412 927,119 1401,119 1401,412 1164,412 Z"/>
       </g>
      </g>
      <g class="com.sun.star.drawing.CustomShape">
       <g id="id6">
        <rect class="BoundingBox" stroke="none" fill="none" x="1382" y="99" width="518" height="334"/>
        <path fill="rgb(114,159,207)" stroke="none" d="M 1641,412 L 1402,412 1402,119 1879,119 1879,412 1641,412 Z"/>
        <path fill="none" stroke="rgb(128,128,128)" stroke-width="40" stroke-linejoin="miter" stroke-linecap="square" d="M 1641,412 L 1402,412 1402,119 1879,119 1879,412 1641,412 Z"/>
       </g>
      </g>
      <g class="com.sun.star.drawing.CustomShape">
       <g id="id7">
        <rect class="BoundingBox" stroke="none" fill="none" x="100" y="393" width="371" height="334"/>
        <path fill="rgb(114,159,207)" stroke="none" d="M 285,706 L 120,706 120,413 450,413 450,706 285,706 Z"/>
        <path fill="none" stroke="rgb(128,128,128)" stroke-width="40" stroke-linejoin="miter" stroke-linecap="square" d="M 285,706 L 120,706 120,413 450,413 450,706 285,706 Z"/>
       </g>
      </g>
      <g class="com.sun.star.drawing.CustomShape">
       <g id="id8">
        <rect class="BoundingBox" stroke="none" fill="none" x="100" y="687" width="371" height="334"/>
        <path fill="rgb(114,159,207)" stroke="none" d="M 285,1000 L 120,1000 120,707 450,707 450,1000 285,1000 Z"/>
        <path fill="none" stroke="rgb(128,128,128)" stroke-width="40" stroke-linejoin="miter" stroke-linecap="square" d="M 285,1000 L 120,1000 120,707 450,707 450,1000 285,1000 Z"/>
       </g>
      </g>
      <g class="com.sun.star.drawing.CustomShape">
       <g id="id9">
        <rect class="BoundingBox" stroke="none" fill="none" x="100" y="981" width="371" height="334"/>
        <g>
         <defs>
          <linearGradient id="gradient1" x1="285" y1="1001" x2="285" y2="1294" gradientUnits="userSpaceOnUse">
           <stop offset="0" style="stop-color:rgb(255,166,166)"/>
           <stop offset="1" style="stop-color:rgb(255,0,0)"/>
          </linearGradient>
         </defs>
         <path style="fill:url(#gradient1)" d="M 285,1294 L 120,1294 120,1001 450,1001 450,1294 285,1294 Z"/>
        </g>
        <path fill="none" stroke="rgb(128,128,128)" stroke-width="40" stroke-linejoin="miter" stroke-linecap="square" d="M 285,1294 L 120,1294 120,1001 450,1001 450,1294 285,1294 Z"/>
       </g>
      </g>
      <g class="com.sun.star.drawing.CustomShape">
       <g id="id10">
        <rect class="BoundingBox" stroke="none" fill="none" x="100" y="1275" width="371" height="334"/>
        <path fill="rgb(114,159,207)" stroke="none" d="M 285,1588 L 120,1588 120,1295 450,1295 450,1588 285,1588 Z"/>
        <path fill="none" stroke="rgb(128,128,128)" stroke-width="40" stroke-linejoin="miter" stroke-linecap="square" d="M 285,1588 L 120,1588 120,1295 450,1295 450,1588 285,1588 Z"/>
       </g>
      </g>
      <g class="com.sun.star.drawing.CustomShape">
       <g id="id11">
        <rect class="BoundingBox" stroke="none" fill="none" x="100" y="1569" width="371" height="334"/>
        <path fill="rgb(114,159,207)" stroke="none" d="M 285,1882 L 120,1882 120,1589 450,1589 450,1882 285,1882 Z"/>
        <path fill="none" stroke="rgb(128,128,128)" stroke-width="40" stroke-linejoin="miter" stroke-linecap="square" d="M 285,1882 L 120,1882 120,1589 450,1589 450,1882 285,1882 Z"/>
       </g>
      </g>
      <g class="com.sun.star.drawing.CustomShape">
       <g id="id12">
        <rect class="BoundingBox" stroke="none" fill="none" x="429" y="396" width="518" height="334"/>
        <path fill="rgb(238,238,238)" stroke="none" d="M 688,709 L 449,709 449,416 926,416 926,709 688,709 Z"/>
        <path fill="none" stroke="rgb(128,128,128)" stroke-width="40" stroke-linejoin="miter" stroke-linecap="square" d="M 688,709 L 449,709 449,416 926,416 926,709 688,709 Z"/>
       </g>
      </g>
      <g class="com.sun.star.drawing.CustomShape">
       <g id="id13">
        <rect class="BoundingBox" stroke="none" fill="none" x="907" y="396" width="515" height="334"/>
        <path fill="rgb(238,238,238)" stroke="none" d="M 1164,709 L 927,709 927,416 1401,416 1401,709 1164,709 Z"/>
        <path fill="none" stroke="rgb(128,128,128)" stroke-width="40" stroke-linejoin="miter" stroke-linecap="square" d="M 1164,709 L 927,709 927,416 1401,416 1401,709 1164,709 Z"/>
       </g>
      </g>
      <g class="com.sun.star.drawing.CustomShape">
       <g id="id14">
        <rect class="BoundingBox" stroke="none" fill="none" x="1382" y="396" width="518" height="334"/>
        <path fill="rgb(238,238,238)" stroke="none" d="M 1641,709 L 1402,709 1402,416 1879,416 1879,709 1641,709 Z"/>
        <path fill="none" stroke="rgb(128,128,128)" stroke-width="40" stroke-linejoin="miter" stroke-linecap="square" d="M 1641,709 L 1402,709 1402,416 1879,416 1879,709 1641,709 Z"/>
       </g>
      </g>
      <g class="com.sun.star.drawing.CustomShape">
       <g id="id15">
        <rect class="BoundingBox" stroke="none" fill="none" x="428" y="690" width="518" height="334"/>
        <path fill="rgb(238,238,238)" stroke="none" d="M 687,1003 L 448,1003 448,710 925,710 925,1003 687,1003 Z"/>
        <path fill="none" stroke="rgb(128,128,128)" stroke-width="40" stroke-linejoin="miter" stroke-linecap="square" d="M 687,1003 L 448,1003 448,710 925,710 925,1003 687,1003 Z"/>
       </g>
      </g>
      <g class="com.sun.star.drawing.CustomShape">
       <g id="id16">
        <rect class="BoundingBox" stroke="none" fill="none" x="906" y="690" width="515" height="334"/>
        <path fill="rgb(238,238,238)" stroke="none" d="M 1163,1003 L 926,1003 926,710 1400,710 1400,1003 1163,1003 Z"/>
        <path fill="none" stroke="rgb(128,128,128)" stroke-width="40" stroke-linejoin="miter" stroke-linecap="square" d="M 1163,1003 L 926,1003 926,710 1400,710 1400,1003 1163,1003 Z"/>
       </g>
      </g>
      <g class="com.sun.star.drawing.CustomShape">
       <g id="id17">
        <rect class="BoundingBox" stroke="none" fill="none" x="1381" y="690" width="518" height="334"/>
        <path fill="rgb(238,238,238)" stroke="none" d="M 1640,1003 L 1401,1003 1401,710 1878,710 1878,1003 1640,1003 Z"/>
        <path fill="none" stroke="rgb(128,128,128)" stroke-width="40" stroke-linejoin="miter" stroke-linecap="square" d="M 1640,1003 L 1401,1003 1401,710 1878,710 1878,1003 1640,1003 Z"/>
       </g>
      </g>
      <g class="com.sun.star.drawing.CustomShape">
       <g id="id18">
        <rect class="BoundingBox" stroke="none" fill="none" x="428" y="984" width="518" height="334"/>
        <g>
         <defs>
          <linearGradient id="gradient2" x1="686" y1="1004" x2="686" y2="1297" gradientUnits="userSpaceOnUse">
           <stop offset="0" style="stop-color:rgb(255,166,166)"/>
           <stop offset="1" style="stop-color:rgb(255,0,0)"/>
          </linearGradient>
         </defs>
         <path style="fill:url(#gradient2)" d="M 687,1297 L 448,1297 448,1004 925,1004 925,1297 687,1297 Z"/>
        </g>
        <path fill="none" stroke="rgb(128,128,128)" stroke-width="40" stroke-linejoin="miter" stroke-linecap="square" d="M 687,1297 L 448,1297 448,1004 925,1004 925,1297 687,1297 Z"/>
       </g>
      </g>
      <g class="com.sun.star.drawing.CustomShape">
       <g id="id19">
        <rect class="BoundingBox" stroke="none" fill="none" x="906" y="984" width="515" height="334"/>
        <g>
         <defs>
          <linearGradient id="gradient3" x1="1163" y1="1004" x2="1163" y2="1297" gradientUnits="userSpaceOnUse">
           <stop offset="0" style="stop-color:rgb(255,166,166)"/>
           <stop offset="1" style="stop-color:rgb(255,0,0)"/>
          </linearGradient>
         </defs>
         <path style="fill:url(#gradient3)" d="M 1163,1297 L 926,1297 926,1004 1400,1004 1400,1297 1163,1297 Z"/>
        </g>
        <path fill="none" stroke="rgb(128,128,128)" stroke-width="40" stroke-linejoin="miter" stroke-linecap="square" d="M 1163,1297 L 926,1297 926,1004 1400,1004 1400,1297 1163,1297 Z"/>
       </g>
      </g>
      <g class="com.sun.star.drawing.CustomShape">
       <g id="id20">
        <rect class="BoundingBox" stroke="none" fill="none" x="1381" y="984" width="518" height="334"/>
        <g>
         <defs>
          <linearGradient id="gradient4" x1="1639" y1="1004" x2="1639" y2="1297" gradientUnits="userSpaceOnUse">
           <stop offset="0" style="stop-color:rgb(255,166,166)"/>
           <stop offset="1" style="stop-color:rgb(255,0,0)"/>
          </linearGradient>
         </defs>
         <path style="fill:url(#gradient4)" d="M 1640,1297 L 1401,1297 1401,1004 1878,1004 1878,1297 1640,1297 Z"/>
        </g>
        <path fill="none" stroke="rgb(128,128,128)" stroke-width="40" stroke-linejoin="miter" stroke-linecap="square" d="M 1640,1297 L 1401,1297 1401,1004 1878,1004 1878,1297 1640,1297 Z"/>
       </g>
      </g>
      <g class="com.sun.star.drawing.CustomShape">
       <g id="id21">
        <rect class="BoundingBox" stroke="none" fill="none" x="428" y="1275" width="518" height="334"/>
        <path fill="rgb(238,238,238)" stroke="none" d="M 687,1588 L 448,1588 448,1295 925,1295 925,1588 687,1588 Z"/>
        <path fill="none" stroke="rgb(128,128,128)" stroke-width="40" stroke-linejoin="miter" stroke-linecap="square" d="M 687,1588 L 448,1588 448,1295 925,1295 925,1588 687,1588 Z"/>
       </g>
      </g>
      <g class="com.sun.star.drawing.CustomShape">
       <g id="id22">
        <rect class="BoundingBox" stroke="none" fill="none" x="906" y="1275" width="515" height="334"/>
        <path fill="rgb(238,238,238)" stroke="none" d="M 1163,1588 L 926,1588 926,1295 1400,1295 1400,1588 1163,1588 Z"/>
        <path fill="none" stroke="rgb(128,128,128)" stroke-width="40" stroke-linejoin="miter" stroke-linecap="square" d="M 1163,1588 L 926,1588 926,1295 1400,1295 1400,1588 1163,1588 Z"/>
       </g>
      </g>
      <g class="com.sun.star.drawing.CustomShape">
       <g id="id23">
        <rect class="BoundingBox" stroke="none" fill="none" x="1381" y="1275" width="518" height="334"/>
        <path fill="rgb(238,238,238)" stroke="none" d="M 1640,1588 L 1401,1588 1401,1295 1878,1295 1878,1588 1640,1588 Z"/>
        <path fill="none" stroke="rgb(128,128,128)" stroke-width="40" stroke-linejoin="miter" stroke-linecap="square" d="M 1640,1588 L 1401,1588 1401,1295 1878,1295 1878,1588 1640,1588 Z"/>
       </g>
      </g>
      <g class="com.sun.star.drawing.CustomShape">
       <g id="id24">
        <rect class="BoundingBox" stroke="none" fill="none" x="428" y="1568" width="518" height="334"/>
        <path fill="rgb(238,238,238)" stroke="none" d="M 687,1881 L 448,1881 448,1588 925,1588 925,1881 687,1881 Z"/>
        <path fill="none" stroke="rgb(128,128,128)" stroke-width="40" stroke-linejoin="miter" stroke-linecap="square" d="M 687,1881 L 448,1881 448,1588 925,1588 925,1881 687,1881 Z"/>
       </g>
      </g>
      <g class="com.sun.star.drawing.CustomShape">
       <g id="id25">
        <rect class="BoundingBox" stroke="none" fill="none" x="906" y="1568" width="515" height="334"/>
        <path fill="rgb(238,238,238)" stroke="none" d="M 1163,1881 L 926,1881 926,1588 1400,1588 1400,1881 1163,1881 Z"/>
        <path fill="none" stroke="rgb(128,128,128)" stroke-width="40" stroke-linejoin="miter" stroke-linecap="square" d="M 1163,1881 L 926,1881 926,1588 1400,1588 1400,1881 1163,1881 Z"/>
       </g>
      </g>
      <g class="com.sun.star.drawing.CustomShape">
       <g id="id26">
        <rect class="BoundingBox" stroke="none" fill="none" x="1381" y="1568" width="518" height="334"/>
        <path fill="rgb(238,238,238)" stroke="none" d="M 1640,1881 L 1401,1881 1401,1588 1878,1588 1878,1881 1640,1881 Z"/>
        <path fill="none" stroke="rgb(128,128,128)" stroke-width="40" stroke-linejoin="miter" stroke-linecap="square" d="M 1640,1881 L 1401,1881 1401,1588 1878,1588 1878,1881 1640,1881 Z"/>
       </g>
      </g>
     </g>
    </g>
   </g>
  </g>
 </g>
</svg>