<?xml version="1.0" encoding="UTF-8"?>
<!DOCTYPE svg PUBLIC "-//W3C//DTD SVG 1.1//EN" "http://www.w3.org/Graphics/SVG/1.1/DTD/svg11.dtd">
<svg version="1.2" width="20mm" height="20mm" viewBox="0 0 2000 2000" preserveAspectRatio="xMidYMid" fill-rule="evenodd" stroke-width="28.222" stroke-linejoin="round" xmlns="http://www.w3.org/2000/svg" xmlns:ooo="http://xml.openoffice.org/svg/export" xmlns:xlink="http://www.w3.org/1999/xlink" xmlns:presentation="http://sun.com/xmlns/staroffice/presentation" xmlns:smil="http://www.w3.org/2001/SMIL20/" xmlns:anim="urn:oasis:names:tc:opendocument:xmlns:animation:1.0" xmlns:svg="urn:oasis:names:tc:opendocument:xmlns:svg-compatible:1.0" xml:space="preserve">
 <defs class="ClipPathGroup">
  <clipPath id="presentation_clip_path" clipPathUnits="userSpaceOnUse">
   <rect x="0" y="0" width="2000" height="2000"/>
  </clipPath>
  <clipPath id="presentation_clip_path_shrink" clipPathUnits="userSpaceOnUse">
   <rect x="2" y="2" width="1996" height="1996"/>
  </clipPath>
 </defs>
 <defs class="TextShapeIndex">
  <g ooo:slide="id1" ooo:id-list="id3 id4 id5 id6 id7"/>
 </defs>
 <defs class="EmbeddedBulletChars">
  <g id="bullet-char-template-57356" transform="scale(0.00048828125,-0.00048828125)">
   <path d="M 580,1141 L 1163,571 580,0 -4,571 580,1141 Z"/>
  </g>
  <g id="bullet-char-template-57354" transform="scale(0.00048828125,-0.00048828125)">
   <path d="M 8,1128 L 1137,1128 1137,0 8,0 8,1128 Z"/>
  </g>
  <g id="bullet-char-template-10146" transform="scale(0.00048828125,-0.00048828125)">
   <path d="M 174,0 L 602,739 174,1481 1456,739 174,0 Z M 1358,739 L 309,1346 659,739 1358,739 Z"/>
  </g>
  <g id="bullet-char-template-10132" transform="scale(0.00048828125,-0.00048828125)">
   <path d="M 2015,739 L 1276,0 717,0 1260,543 174,543 174,936 1260,936 717,1481 1274,1481 2015,739 Z"/>
  </g>
  <g id="bullet-char-template-10007" transform="scale(0.00048828125,-0.00048828125)">
   <path d="M 0,-2 C -7,14 -16,27 -25,37 L 356,567 C 262,823 215,952 215,954 215,979 228,992 255,992 264,992 276,990 289,987 310,991 331,999 354,1012 L 381,999 492,748 772,1049 836,1024 860,1049 C 881,1039 901,1025 922,1006 886,937 835,863 770,784 769,783 710,716 594,584 L 774,223 C 774,196 753,168 711,139 L 727,119 C 717,90 699,76 672,76 641,76 570,178 457,381 L 164,-76 C 142,-110 111,-127 72,-127 30,-127 9,-110 8,-76 1,-67 -2,-52 -2,-32 -2,-23 -1,-13 0,-2 Z"/>
  </g>
  <g id="bullet-char-template-10004" transform="scale(0.00048828125,-0.00048828125)">
   <path d="M 285,-33 C 182,-33 111,30 74,156 52,228 41,333 41,471 41,549 55,616 82,672 116,743 169,778 240,778 293,778 328,747 346,684 L 369,508 C 377,444 397,411 428,410 L 1163,1116 C 1174,1127 1196,1133 1229,1133 1271,1133 1292,1118 1292,1087 L 1292,965 C 1292,929 1282,901 1262,881 L 442,47 C 390,-6 338,-33 285,-33 Z"/>
  </g>
  <g id="bullet-char-template-9679" transform="scale(0.00048828125,-0.00048828125)">
   <path d="M 813,0 C 632,0 489,54 383,161 276,268 223,411 223,592 223,773 276,916 383,1023 489,1130 632,1184 813,1184 992,1184 1136,1130 1245,1023 1353,916 1407,772 1407,592 1407,412 1353,268 1245,161 1136,54 992,0 813,0 Z"/>
  </g>
  <g id="bullet-char-template-8226" transform="scale(0.00048828125,-0.00048828125)">
   <path d="M 346,457 C 273,457 209,483 155,535 101,586 74,649 74,723 74,796 101,859 155,911 209,963 273,989 346,989 419,989 480,963 531,910 582,859 608,796 608,723 608,648 583,586 532,535 482,483 420,457 346,457 Z"/>
  </g>
  <g id="bullet-char-template-8211" transform="scale(0.00048828125,-0.00048828125)">
   <path d="M -4,459 L 1135,459 1135,606 -4,606 -4,459 Z"/>
  </g>
  <g id="bullet-char-template-61548" transform="scale(0.00048828125,-0.00048828125)">
   <path d="M 173,740 C 173,903 231,1043 346,1159 462,1274 601,1332 765,1332 928,1332 1067,1274 1183,1159 1299,1043 1357,903 1357,740 1357,577 1299,437 1183,322 1067,206 928,148 765,148 601,148 462,206 346,322 231,437 173,577 173,740 Z"/>
  </g>
 </defs>
 <g>
  <g id="id2" class="Master_Slide">
   <g id="bg-id2" class="Background"/>
   <g id="bo-id2" class="BackgroundObjects"/>
  </g>
 </g>
 <g class="SlideGroup">
  <g>
   <g id="container-id1">
    <g id="id1" class="Slide" clip-path="url(#presentation_clip_path)">
     <g class="Page">
      <g class="Group">
       <g class="com.sun.star.drawing.PolyPolygonShape">
        <g id="id3">
         <rect class="BoundingBox" stroke="none" fill="none" x="666" y="76" width="856" height="1430"/>
         <g>
          <defs>
           <linearGradient id="gradient1" x1="695" y1="99" x2="1494" y2="1482" gradientUnits="userSpaceOnUse">
            <stop offset="0" style="stop-color:rgb(114,159,207)"/>
            <stop offset="1" style="stop-color:rgb(180,199,220)"/>
           </linearGradient>
          </defs>
          <path style="fill:url(#gradient1)" d="M 1433,101 L 692,1214 867,1480 1433,429 1496,233 1433,101 Z"/>
         </g>
         <path fill="none" stroke="rgb(51,51,51)" stroke-width="50" stroke-linejoin="round" d="M 1433,101 L 692,1214 867,1480 1433,429 1496,233 1433,101 Z"/>
        </g>
       </g>
       <g class="com.sun.star.drawing.CustomShape">
        <g id="id4">
         <rect class="BoundingBox" stroke="none" fill="none" x="138" y="1025" width="751" height="844"/>
         <g>
          <defs>
           <linearGradient id="gradient2" x1="254" y1="997" x2="773" y2="1895" gradientUnits="userSpaceOnUse">
            <stop offset="0" style="stop-color:rgb(255,123,89)"/>
            <stop offset="1" style="stop-color:rgb(255,0,0)"/>
           </linearGradient>
          </defs>
          <path style="fill:url(#gradient2)" d="M 863,1447 L 862,1473 860,1498 856,1524 851,1549 844,1574 836,1598 827,1622 816,1645 804,1667 791,1688 776,1708 760,1727 744,1745 726,1761 708,1776 688,1790 668,1802 647,1813 625,1822 604,1829 581,1835 559,1840 536,1842 513,1843 490,1842 467,1840 445,1835 422,1829 401,1822 379,1813 358,1802 338,1790 318,1776 300,1761 282,1745 266,1727 250,1708 235,1688 222,1667 210,1645 199,1622 190,1598 182,1574 175,1549 170,1524 166,1498 164,1473 163,1447 164,1420 166,1395 170,1369 175,1344 182,1319 190,1295 199,1271 210,1248 222,1226 235,1205 250,1185 266,1166 282,1148 300,1132 318,1117 338,1103 358,1091 379,1080 401,1071 422,1064 445,1058 467,1053 490,1051 513,1050 536,1051 559,1053 581,1058 604,1064 625,1071 647,1080 668,1091 688,1103 708,1117 726,1132 744,1148 760,1166 776,1185 791,1205 804,1226 816,1248 827,1271 836,1295 844,1319 851,1344 856,1369 860,1395 862,1420 863,1446 863,1447 Z M 688,1447 L 688,1460 686,1472 685,1485 682,1498 679,1510 675,1522 670,1534 665,1546 658,1557 652,1567 645,1577 637,1587 628,1596 620,1604 610,1611 601,1618 590,1624 580,1630 569,1634 558,1638 547,1641 536,1643 524,1644 513,1645 502,1644 490,1643 479,1641 468,1638 457,1634 446,1630 436,1624 426,1618 416,1611 406,1604 398,1596 389,1587 381,1577 374,1567 368,1557 361,1546 356,1534 351,1522 347,1510 344,1498 341,1485 340,1472 338,1460 338,1447 338,1433 340,1421 341,1408 344,1395 347,1383 351,1371 356,1359 361,1347 368,1336 374,1326 381,1316 389,1306 398,1297 406,1289 416,1282 425,1275 436,1269 446,1263 457,1259 468,1255 479,1252 490,1250 502,1249 513,1248 524,1249 536,1250 547,1252 558,1255 569,1259 580,1263 590,1269 600,1275 610,1282 620,1289 628,1297 637,1306 645,1316 652,1326 658,1336 665,1347 670,1359 675,1371 679,1383 682,1395 685,1408 686,1421 688,1433 688,1446 688,1447 Z"/>
         </g>
         <path fill="none" stroke="rgb(51,51,51)" stroke-width="50" stroke-linejoin="round" d="M 863,1447 C 863,1516 847,1584 816,1645 785,1705 741,1755 688,1790 635,1825 574,1843 513,1843 452,1843 391,1825 338,1790 285,1755 241,1705 210,1645 179,1584 163,1516 163,1447 163,1377 179,1309 210,1248 241,1188 285,1138 338,1103 391,1068 452,1050 513,1050 574,1050 635,1068 688,1103 741,1138 785,1188 816,1248 847,1309 863,1377 863,1446 L 863,1447 Z"/>
         <path fill="none" stroke="rgb(51,51,51)" stroke-width="50" stroke-linejoin="round" d="M 688,1447 C 688,1481 680,1515 665,1546 649,1576 627,1601 601,1618 574,1636 544,1645 513,1645 482,1645 452,1636 426,1618 399,1601 377,1576 361,1546 346,1515 338,1481 338,1447 338,1412 346,1378 361,1347 377,1317 399,1292 425,1275 452,1257 482,1248 513,1248 544,1248 574,1257 600,1275 627,1292 649,1317 665,1347 680,1378 688,1412 688,1446"/>
        </g>
       </g>
       <g class="com.sun.star.drawing.PolyPolygonShape">
        <g id="id5">
         <rect class="BoundingBox" stroke="none" fill="none" x="470" y="78" width="856" height="1430"/>
         <g>
          <defs>
           <linearGradient id="gradient3" x1="498" y1="101" x2="1297" y2="1484" gradientUnits="userSpaceOnUse">
            <stop offset="0" style="stop-color:rgb(114,159,207)"/>
            <stop offset="1" style="stop-color:rgb(180,199,220)"/>
           </linearGradient>
          </defs>
          <path style="fill:url(#gradient3)" d="M 558,103 L 1299,1216 1124,1482 558,431 495,235 558,103 Z"/>
         </g>
         <path fill="none" stroke="rgb(51,51,51)" stroke-width="50" stroke-linejoin="round" d="M 558,103 L 1299,1216 1124,1482 558,431 495,235 558,103 Z"/>
        </g>
       </g>
       <g class="com.sun.star.drawing.CustomShape">
        <g id="id6">
         <rect class="BoundingBox" stroke="none" fill="none" x="1102" y="1027" width="751" height="844"/>
         <g>
          <defs>
           <linearGradient id="gradient4" x1="1218" y1="999" x2="1737" y2="1897" gradientUnits="userSpaceOnUse">
            <stop offset="0" style="stop-color:rgb(255,123,89)"/>
            <stop offset="1" style="stop-color:rgb(255,0,0)"/>
           </linearGradient>
          </defs>
          <path style="fill:url(#gradient4)" d="M 1127,1449 L 1128,1475 1130,1500 1134,1526 1139,1551 1146,1576 1154,1600 1163,1624 1174,1647 1186,1669 1199,1690 1214,1710 1230,1729 1246,1747 1264,1763 1282,1778 1302,1792 1322,1804 1343,1815 1365,1824 1386,1831 1409,1837 1431,1842 1454,1844 1477,1845 1500,1844 1523,1842 1545,1837 1568,1831 1589,1824 1611,1815 1632,1804 1652,1792 1672,1778 1690,1763 1708,1747 1724,1729 1740,1710 1755,1690 1768,1669 1780,1647 1791,1624 1800,1600 1808,1576 1815,1551 1820,1526 1824,1500 1826,1475 1827,1449 1826,1422 1824,1397 1820,1371 1815,1346 1808,1321 1800,1297 1791,1273 1780,1250 1768,1228 1755,1207 1740,1187 1724,1168 1708,1150 1690,1134 1672,1119 1652,1105 1632,1093 1611,1082 1589,1073 1568,1066 1545,1060 1523,1055 1500,1053 1477,1052 1454,1053 1431,1055 1409,1060 1386,1066 1365,1073 1343,1082 1322,1093 1302,1105 1282,1119 1264,1134 1246,1150 1230,1168 1214,1187 1199,1207 1186,1228 1174,1250 1163,1273 1154,1297 1146,1321 1139,1346 1134,1371 1130,1397 1128,1422 1127,1448 1127,1449 Z M 1302,1449 L 1302,1462 1304,1474 1305,1487 1308,1500 1311,1512 1315,1524 1320,1536 1325,1548 1332,1559 1338,1569 1345,1579 1353,1589 1362,1598 1370,1606 1380,1613 1390,1620 1400,1626 1410,1632 1421,1636 1432,1640 1443,1643 1454,1645 1466,1646 1477,1647 1488,1646 1500,1645 1511,1643 1522,1640 1533,1636 1544,1632 1554,1626 1564,1620 1574,1613 1584,1606 1592,1598 1601,1589 1609,1579 1616,1569 1622,1559 1629,1548 1634,1536 1639,1524 1643,1512 1646,1500 1649,1487 1650,1474 1652,1462 1652,1449 1652,1435 1650,1423 1649,1410 1646,1397 1643,1385 1639,1373 1634,1361 1629,1349 1622,1338 1616,1328 1609,1318 1601,1308 1592,1299 1584,1291 1574,1284 1564,1277 1554,1271 1544,1265 1533,1261 1522,1257 1511,1254 1500,1252 1488,1251 1477,1250 1466,1251 1454,1252 1443,1254 1432,1257 1421,1261 1410,1265 1400,1271 1390,1277 1380,1284 1370,1291 1362,1299 1353,1308 1345,1318 1338,1328 1332,1338 1325,1349 1320,1361 1315,1373 1311,1385 1308,1397 1305,1410 1304,1423 1302,1435 1302,1448 1302,1449 Z"/>
         </g>
         <path fill="none" stroke="rgb(51,51,51)" stroke-width="50" stroke-linejoin="round" d="M 1127,1449 C 1127,1518 1143,1586 1174,1647 1205,1707 1249,1757 1302,1792 1355,1827 1416,1845 1477,1845 1538,1845 1599,1827 1652,1792 1705,1757 1749,1707 1780,1647 1811,1586 1827,1518 1827,1449 1827,1379 1811,1311 1780,1250 1749,1190 1705,1140 1652,1105 1599,1070 1538,1052 1477,1052 1416,1052 1355,1070 1302,1105 1249,1140 1205,1190 1174,1250 1143,1311 1127,1379 1127,1448 L 1127,1449 Z"/>
         <path fill="none" stroke="rgb(51,51,51)" stroke-width="50" stroke-linejoin="round" d="M 1302,1449 C 1302,1483 1310,1517 1325,1548 1341,1578 1363,1603 1390,1620 1416,1638 1446,1647 1477,1647 1508,1647 1538,1638 1564,1620 1591,1603 1613,1578 1629,1548 1644,1517 1652,1483 1652,1449 1652,1414 1644,1380 1629,1349 1613,1319 1591,1294 1564,1277 1538,1259 1508,1250 1477,1250 1446,1250 1416,1259 1390,1277 1363,1294 1341,1319 1325,1349 1310,1380 1302,1414 1302,1448"/>
        </g>
       </g>
       <g class="com.sun.star.drawing.CustomShape">
        <g id="id7">
         <rect class="BoundingBox" stroke="none" fill="none" x="913" y="892" width="156" height="170"/>
         <g>
          <defs>
           <linearGradient id="gradient5" x1="952" y1="909" x2="1029" y2="1044" gradientUnits="userSpaceOnUse">
            <stop offset="0" style="stop-color:rgb(114,159,207)"/>
            <stop offset="1" style="stop-color:rgb(180,199,220)"/>
           </linearGradient>
          </defs>
          <path style="fill:url(#gradient5)" d="M 1043,977 L 1043,980 1043,984 1042,988 1041,992 1040,996 1039,999 1038,1003 1036,1006 1034,1010 1032,1013 1030,1016 1028,1019 1025,1021 1022,1024 1020,1026 1017,1028 1014,1030 1011,1031 1007,1033 1004,1034 1001,1035 997,1035 994,1036 990,1036 987,1036 984,1035 980,1035 977,1034 974,1033 970,1031 967,1030 964,1028 961,1026 959,1024 956,1021 953,1019 951,1016 949,1013 947,1010 945,1006 943,1003 942,999 941,996 940,992 939,988 938,984 938,980 938,977 938,973 938,969 939,965 940,961 941,957 942,954 943,950 945,947 947,943 949,940 951,937 953,934 956,932 959,929 961,927 964,925 967,923 970,922 974,920 977,919 980,918 984,918 987,917 990,917 994,917 997,918 1001,918 1004,919 1007,920 1011,922 1014,923 1017,925 1020,927 1022,929 1025,932 1028,934 1030,937 1032,940 1034,943 1036,947 1038,950 1039,954 1040,957 1041,961 1042,965 1043,969 1043,973 1043,977 Z"/>
         </g>
         <path fill="none" stroke="rgb(51,51,51)" stroke-width="50" stroke-linejoin="round" d="M 1043,977 C 1043,987 1041,997 1036,1006 1031,1015 1025,1023 1017,1028 1009,1033 1000,1036 990,1036 981,1036 972,1033 964,1028 956,1023 950,1015 945,1006 940,997 938,987 938,977 938,966 940,956 945,947 950,938 956,930 964,925 972,920 981,917 990,917 1000,917 1009,920 1017,925 1025,930 1031,938 1036,947 1041,956 1043,966 1043,977 Z"/>
        </g>
       </g>
      </g>
     </g>
    </g>
   </g>
  </g>
 </g>
</svg>