<?xml version="1.0" encoding="UTF-8"?>
<!DOCTYPE svg PUBLIC "-//W3C//DTD SVG 1.1//EN" "http://www.w3.org/Graphics/SVG/1.1/DTD/svg11.dtd">
<svg version="1.2" width="20mm" height="20mm" viewBox="0 0 2000 2000" preserveAspectRatio="xMidYMid" fill-rule="evenodd" stroke-width="28.222" stroke-linejoin="round" xmlns="http://www.w3.org/2000/svg" xmlns:ooo="http://xml.openoffice.org/svg/export" xmlns:xlink="http://www.w3.org/1999/xlink" xmlns:presentation="http://sun.com/xmlns/staroffice/presentation" xmlns:smil="http://www.w3.org/2001/SMIL20/" xmlns:anim="urn:oasis:names:tc:opendocument:xmlns:animation:1.0" xmlns:svg="urn:oasis:names:tc:opendocument:xmlns:svg-compatible:1.0" xml:space="preserve">
 <defs class="ClipPathGroup">
  <clipPath id="presentation_clip_path" clipPathUnits="userSpaceOnUse">
   <rect x="0" y="0" width="2000" height="2000"/>
  </clipPath>
  <clipPath id="presentation_clip_path_shrink" clipPathUnits="userSpaceOnUse">
   <rect x="2" y="2" width="1996" height="1996"/>
  </clipPath>
 </defs>
 <defs class="TextShapeIndex">
  <g ooo:slide="id1" ooo:id-list="id3 id4 id5 id6 id7 id8 id9 id10 id11 id12 id13 id14 id15"/>
 </defs>
 <defs class="EmbeddedBulletChars">
  <g id="bullet-char-template-57356" transform="scale(0.00048828125,-0.00048828125)">
   <path d="M 580,1141 L 1163,571 580,0 -4,571 580,1141 Z"/>
  </g>
  <g id="bullet-char-template-57354" transform="scale(0.00048828125,-0.00048828125)">
   <path d="M 8,1128 L 1137,1128 1137,0 8,0 8,1128 Z"/>
  </g>
  <g id="bullet-char-template-10146" transform="scale(0.00048828125,-0.00048828125)">
   <path d="M 174,0 L 602,739 174,1481 1456,739 174,0 Z M 1358,739 L 309,1346 659,739 1358,739 Z"/>
  </g>
  <g id="bullet-char-template-10132" transform="scale(0.00048828125,-0.00048828125)">
   <path d="M 2015,739 L 1276,0 717,0 1260,543 174,543 174,936 1260,936 717,1481 1274,1481 2015,739 Z"/>
  </g>
  <g id="bullet-char-template-10007" transform="scale(0.00048828125,-0.00048828125)">
   <path d="M 0,-2 C -7,14 -16,27 -25,37 L 356,567 C 262,823 215,952 215,954 215,979 228,992 255,992 264,992 276,990 289,987 310,991 331,999 354,1012 L 381,999 492,748 772,1049 836,1024 860,1049 C 881,1039 901,1025 922,1006 886,937 835,863 770,784 769,783 710,716 594,584 L 774,223 C 774,196 753,168 711,139 L 727,119 C 717,90 699,76 672,76 641,76 570,178 457,381 L 164,-76 C 142,-110 111,-127 72,-127 30,-127 9,-110 8,-76 1,-67 -2,-52 -2,-32 -2,-23 -1,-13 0,-2 Z"/>
  </g>
  <g id="bullet-char-template-10004" transform="scale(0.00048828125,-0.00048828125)">
   <path d="M 285,-33 C 182,-33 111,30 74,156 52,228 41,333 41,471 41,549 55,616 82,672 116,743 169,778 240,778 293,778 328,747 346,684 L 369,508 C 377,444 397,411 428,410 L 1163,1116 C 1174,1127 1196,1133 1229,1133 1271,1133 1292,1118 1292,1087 L 1292,965 C 1292,929 1282,901 1262,881 L 442,47 C 390,-6 338,-33 285,-33 Z"/>
  </g>
  <g id="bullet-char-template-9679" transform="scale(0.00048828125,-0.00048828125)">
   <path d="M 813,0 C 632,0 489,54 383,161 276,268 223,411 223,592 223,773 276,916 383,1023 489,1130 632,1184 813,1184 992,1184 1136,1130 1245,1023 1353,916 1407,772 1407,592 1407,412 1353,268 1245,161 1136,54 992,0 813,0 Z"/>
  </g>
  <g id="bullet-char-template-8226" transform="scale(0.00048828125,-0.00048828125)">
   <path d="M 346,457 C 273,457 209,483 155,535 101,586 74,649 74,723 74,796 101,859 155,911 209,963 273,989 346,989 419,989 480,963 531,910 582,859 608,796 608,723 608,648 583,586 532,535 482,483 420,457 346,457 Z"/>
  </g>
  <g id="bullet-char-template-8211" transform="scale(0.00048828125,-0.00048828125)">
   <path d="M -4,459 L 1135,459 1135,606 -4,606 -4,459 Z"/>
  </g>
  <g id="bullet-char-template-61548" transform="scale(0.00048828125,-0.00048828125)">
   <path d="M 173,740 C 173,903 231,1043 346,1159 462,1274 601,1332 765,1332 928,1332 1067,1274 1183,1159 1299,1043 1357,903 1357,740 1357,577 1299,437 1183,322 1067,206 928,148 765,148 601,148 462,206 346,322 231,437 173,577 173,740 Z"/>
  </g>
 </defs>
 <g>
  <g id="id2" class="Master_Slide">
   <g id="bg-id2" class="Background"/>
   <g id="bo-id2" class="BackgroundObjects"/>
  </g>
 </g>
 <g class="SlideGroup">
  <g>
   <g id="container-id1">
    <g id="id1" class="Slide" clip-path="url(#presentation_clip_path)">
     <g class="Page">
      <g class="Group">
       <g class="com.sun.star.drawing.PolyPolygonShape">
        <g id="id3">
         <rect class="BoundingBox" stroke="none" fill="none" x="117" y="149" width="1501" height="1702"/>
         <g>
          <defs>
           <linearGradient id="gradient1" x1="312" y1="38" x2="1423" y2="1962" gradientUnits="userSpaceOnUse">
            <stop offset="0" style="stop-color:rgb(221,221,221)"/>
            <stop offset="1" style="stop-color:rgb(128,128,128)"/>
           </linearGradient>
          </defs>
          <path style="fill:url(#gradient1)" d="M 867,1850 L 694,1850 694,1065 117,150 1617,150 1040,1065 1040,1850 867,1850 Z"/>
         </g>
        </g>
       </g>
       <g class="com.sun.star.drawing.LineShape">
        <g id="id4">
         <rect class="BoundingBox" stroke="none" fill="none" x="79" y="112" width="1577" height="77"/>
         <path fill="none" stroke="rgb(204,204,204)" stroke-width="75" stroke-linejoin="round" d="M 117,150 L 1617,150"/>
        </g>
       </g>
       <g class="com.sun.star.drawing.LineShape">
        <g id="id5">
         <rect class="BoundingBox" stroke="none" fill="none" x="79" y="112" width="654" height="992"/>
         <path fill="none" stroke="rgb(51,51,51)" stroke-width="75" stroke-linejoin="round" stroke-linecap="round" d="M 117,150 L 694,1065"/>
        </g>
       </g>
       <g class="com.sun.star.drawing.LineShape">
        <g id="id6">
         <rect class="BoundingBox" stroke="none" fill="none" x="656" y="1027" width="77" height="862"/>
         <path fill="none" stroke="rgb(51,51,51)" stroke-width="75" stroke-linejoin="round" stroke-linecap="round" d="M 694,1850 L 694,1065"/>
        </g>
       </g>
       <g class="com.sun.star.drawing.LineShape">
        <g id="id7">
         <rect class="BoundingBox" stroke="none" fill="none" x="1002" y="112" width="654" height="992"/>
         <path fill="none" stroke="rgb(51,51,51)" stroke-width="75" stroke-linejoin="round" stroke-linecap="round" d="M 1617,150 L 1040,1065"/>
        </g>
       </g>
       <g class="com.sun.star.drawing.LineShape">
        <g id="id8">
         <rect class="BoundingBox" stroke="none" fill="none" x="1002" y="1027" width="77" height="862"/>
         <path fill="none" stroke="rgb(51,51,51)" stroke-width="75" stroke-linejoin="round" stroke-linecap="round" d="M 1040,1850 L 1040,1065"/>
        </g>
       </g>
       <g class="com.sun.star.drawing.LineShape">
        <g id="id9">
         <rect class="BoundingBox" stroke="none" fill="none" x="656" y="1812" width="423" height="77"/>
         <path fill="none" stroke="rgb(51,51,51)" stroke-width="75" stroke-linejoin="round" stroke-linecap="round" d="M 694,1850 L 1040,1850"/>
        </g>
       </g>
       <g class="com.sun.star.drawing.LineShape">
        <g id="id10">
         <rect class="BoundingBox" stroke="none" fill="none" x="79" y="112" width="298" height="78"/>
         <path fill="none" stroke="rgb(51,51,51)" stroke-width="75" stroke-linejoin="round" stroke-linecap="round" d="M 117,151 L 338,150"/>
        </g>
       </g>
       <g class="com.sun.star.drawing.LineShape">
        <g id="id11">
         <rect class="BoundingBox" stroke="none" fill="none" x="1358" y="112" width="298" height="78"/>
         <path fill="none" stroke="rgb(51,51,51)" stroke-width="75" stroke-linejoin="round" stroke-linecap="round" d="M 1396,151 L 1617,150"/>
        </g>
       </g>
       <g class="com.sun.star.drawing.LineShape">
        <g id="id12">
         <rect class="BoundingBox" stroke="none" fill="none" x="432" y="112" width="253" height="78"/>
         <path fill="none" stroke="rgb(51,51,51)" stroke-width="75" stroke-linejoin="round" stroke-linecap="round" d="M 470,151 L 646,150"/>
        </g>
       </g>
       <g class="com.sun.star.drawing.LineShape">
        <g id="id13">
         <rect class="BoundingBox" stroke="none" fill="none" x="1050" y="111" width="253" height="78"/>
         <path fill="none" stroke="rgb(51,51,51)" stroke-width="75" stroke-linejoin="round" stroke-linecap="round" d="M 1088,150 L 1264,149"/>
        </g>
       </g>
       <g class="com.sun.star.drawing.LineShape">
        <g id="id14">
         <rect class="BoundingBox" stroke="none" fill="none" x="741" y="111" width="253" height="78"/>
         <path fill="none" stroke="rgb(51,51,51)" stroke-width="75" stroke-linejoin="round" stroke-linecap="round" d="M 779,150 L 955,149"/>
        </g>
       </g>
      </g>
      <g class="com.sun.star.drawing.CustomShape">
       <g id="id15">
        <rect class="BoundingBox" stroke="none" fill="none" x="1204" y="1082" width="759" height="799"/>
        <g>
         <defs>
          <linearGradient id="gradient2" x1="1323" y1="1042" x2="1830" y2="1920" gradientUnits="userSpaceOnUse">
           <stop offset="0" style="stop-color:rgb(221,221,221)"/>
           <stop offset="1" style="stop-color:rgb(128,128,128)"/>
          </linearGradient>
         </defs>
         <path style="fill:url(#gradient2)" d="M 1656,1501 L 1663,1503 1669,1505 1676,1507 1682,1509 1689,1513 1694,1515 1700,1520 1705,1523 1711,1527 1716,1534 1723,1540 1728,1547 1742,1566 1757,1587 1930,1862 1722,1862 1606,1669 1592,1646 1579,1626 1566,1609 1558,1601 1552,1594 1544,1587 1538,1582 1530,1577 1522,1573 1514,1569 1506,1566 1498,1563 1489,1562 1482,1560 1473,1560 1411,1560 1411,1862 1222,1862 1222,1100 1496,1100 1541,1100 1583,1103 1621,1106 1656,1113 1687,1119 1702,1124 1715,1129 1728,1134 1741,1139 1752,1146 1763,1152 1772,1159 1781,1165 1790,1173 1798,1182 1805,1191 1812,1200 1817,1210 1823,1220 1828,1231 1833,1242 1838,1266 1843,1292 1844,1321 1843,1340 1840,1358 1837,1376 1832,1392 1825,1407 1816,1421 1812,1428 1806,1434 1801,1440 1795,1446 1789,1452 1782,1457 1776,1462 1769,1467 1761,1471 1754,1475 1745,1480 1736,1483 1719,1489 1699,1494 1678,1499 1656,1501 Z M 1411,1226 L 1411,1434 1501,1434 1520,1434 1538,1432 1553,1430 1568,1428 1581,1424 1588,1422 1594,1420 1599,1418 1604,1415 1609,1412 1613,1409 1618,1406 1621,1403 1625,1400 1629,1395 1631,1391 1634,1387 1636,1382 1639,1377 1643,1367 1645,1356 1647,1343 1647,1330 1647,1317 1645,1304 1643,1293 1639,1283 1636,1277 1634,1273 1631,1269 1628,1264 1624,1261 1621,1257 1618,1254 1613,1251 1609,1248 1604,1244 1599,1243 1594,1240 1588,1238 1581,1236 1568,1232 1554,1230 1538,1228 1520,1226 1501,1226 1411,1226 Z"/>
        </g>
        <path fill="none" stroke="rgb(0,0,0)" stroke-width="35" stroke-linejoin="miter" d="M 1656,1501 L 1663,1503 1669,1505 1676,1507 1682,1509 1689,1513 1694,1515 1700,1520 1705,1523 1711,1527 1716,1534 1723,1540 1728,1547 1742,1566 1757,1587 1930,1862 1722,1862 1606,1669 1592,1646 1579,1626 1566,1609 1558,1601 1552,1594 1544,1587 1538,1582 1530,1577 1522,1573 1514,1569 1506,1566 1498,1563 1489,1562 1482,1560 1473,1560 1411,1560 1411,1862 1222,1862 1222,1100 1496,1100 1541,1100 1583,1103 1621,1106 1656,1113 1687,1119 1702,1124 1715,1129 1728,1134 1741,1139 1752,1146 1763,1152 1772,1159 1781,1165 1790,1173 1798,1182 1805,1191 1812,1200 1817,1210 1823,1220 1828,1231 1833,1242 1838,1266 1843,1292 1844,1321 1843,1340 1840,1358 1837,1376 1832,1392 1825,1407 1816,1421 1812,1428 1806,1434 1801,1440 1795,1446 1789,1452 1782,1457 1776,1462 1769,1467 1761,1471 1754,1475 1745,1480 1736,1483 1719,1489 1699,1494 1678,1499 1656,1501 Z"/>
        <path fill="none" stroke="rgb(0,0,0)" stroke-width="35" stroke-linejoin="miter" d="M 1411,1226 L 1411,1434 1501,1434 1520,1434 1538,1432 1553,1430 1568,1428 1581,1424 1588,1422 1594,1420 1599,1418 1604,1415 1609,1412 1613,1409 1618,1406 1621,1403 1625,1400 1629,1395 1631,1391 1634,1387 1636,1382 1639,1377 1643,1367 1645,1356 1647,1343 1647,1330 1647,1317 1645,1304 1643,1293 1639,1283 1636,1277 1634,1273 1631,1269 1628,1264 1624,1261 1621,1257 1618,1254 1613,1251 1609,1248 1604,1244 1599,1243 1594,1240 1588,1238 1581,1236 1568,1232 1554,1230 1538,1228 1520,1226 1501,1226 1411,1226 Z"/>
       </g>
      </g>
     </g>
    </g>
   </g>
  </g>
 </g>
</svg>