<?xml version="1.0" encoding="UTF-8"?>
<!DOCTYPE svg PUBLIC "-//W3C//DTD SVG 1.1//EN" "http://www.w3.org/Graphics/SVG/1.1/DTD/svg11.dtd">
<svg version="1.2" width="20mm" height="20mm" viewBox="0 0 2000 2000" preserveAspectRatio="xMidYMid" fill-rule="evenodd" stroke-width="28.222" stroke-linejoin="round" xmlns="http://www.w3.org/2000/svg" xmlns:ooo="http://xml.openoffice.org/svg/export" xmlns:xlink="http://www.w3.org/1999/xlink" xmlns:presentation="http://sun.com/xmlns/staroffice/presentation" xmlns:smil="http://www.w3.org/2001/SMIL20/" xmlns:anim="urn:oasis:names:tc:opendocument:xmlns:animation:1.0" xmlns:svg="urn:oasis:names:tc:opendocument:xmlns:svg-compatible:1.0" xml:space="preserve">
 <defs class="ClipPathGroup">
  <clipPath id="presentation_clip_path" clipPathUnits="userSpaceOnUse">
   <rect x="0" y="0" width="2000" height="2000"/>
  </clipPath>
  <clipPath id="presentation_clip_path_shrink" clipPathUnits="userSpaceOnUse">
   <rect x="2" y="2" width="1996" height="1996"/>
  </clipPath>
 </defs>
 <defs class="TextShapeIndex">
  <g ooo:slide="id1" ooo:id-list="id3 id4 id5 id6 id7 id8 id9 id10 id11 id12 id13 id14 id15"/>
 </defs>
 <defs class="EmbeddedBulletChars">
  <g id="bullet-char-template-57356" transform="scale(0.00048828125,-0.00048828125)">
   <path d="M 580,1141 L 1163,571 580,0 -4,571 580,1141 Z"/>
  </g>
  <g id="bullet-char-template-57354" transform="scale(0.00048828125,-0.00048828125)">
   <path d="M 8,1128 L 1137,1128 1137,0 8,0 8,1128 Z"/>
  </g>
  <g id="bullet-char-template-10146" transform="scale(0.00048828125,-0.00048828125)">
   <path d="M 174,0 L 602,739 174,1481 1456,739 174,0 Z M 1358,739 L 309,1346 659,739 1358,739 Z"/>
  </g>
  <g id="bullet-char-template-10132" transform="scale(0.00048828125,-0.00048828125)">
   <path d="M 2015,739 L 1276,0 717,0 1260,543 174,543 174,936 1260,936 717,1481 1274,1481 2015,739 Z"/>
  </g>
  <g id="bullet-char-template-10007" transform="scale(0.00048828125,-0.00048828125)">
   <path d="M 0,-2 C -7,14 -16,27 -25,37 L 356,567 C 262,823 215,952 215,954 215,979 228,992 255,992 264,992 276,990 289,987 310,991 331,999 354,1012 L 381,999 492,748 772,1049 836,1024 860,1049 C 881,1039 901,1025 922,1006 886,937 835,863 770,784 769,783 710,716 594,584 L 774,223 C 774,196 753,168 711,139 L 727,119 C 717,90 699,76 672,76 641,76 570,178 457,381 L 164,-76 C 142,-110 111,-127 72,-127 30,-127 9,-110 8,-76 1,-67 -2,-52 -2,-32 -2,-23 -1,-13 0,-2 Z"/>
  </g>
  <g id="bullet-char-template-10004" transform="scale(0.00048828125,-0.00048828125)">
   <path d="M 285,-33 C 182,-33 111,30 74,156 52,228 41,333 41,471 41,549 55,616 82,672 116,743 169,778 240,778 293,778 328,747 346,684 L 369,508 C 377,444 397,411 428,410 L 1163,1116 C 1174,1127 1196,1133 1229,1133 1271,1133 1292,1118 1292,1087 L 1292,965 C 1292,929 1282,901 1262,881 L 442,47 C 390,-6 338,-33 285,-33 Z"/>
  </g>
  <g id="bullet-char-template-9679" transform="scale(0.00048828125,-0.00048828125)">
   <path d="M 813,0 C 632,0 489,54 383,161 276,268 223,411 223,592 223,773 276,916 383,1023 489,1130 632,1184 813,1184 992,1184 1136,1130 1245,1023 1353,916 1407,772 1407,592 1407,412 1353,268 1245,161 1136,54 992,0 813,0 Z"/>
  </g>
  <g id="bullet-char-template-8226" transform="scale(0.00048828125,-0.00048828125)">
   <path d="M 346,457 C 273,457 209,483 155,535 101,586 74,649 74,723 74,796 101,859 155,911 209,963 273,989 346,989 419,989 480,963 531,910 582,859 608,796 608,723 608,648 583,586 532,535 482,483 420,457 346,457 Z"/>
  </g>
  <g id="bullet-char-template-8211" transform="scale(0.00048828125,-0.00048828125)">
   <path d="M -4,459 L 1135,459 1135,606 -4,606 -4,459 Z"/>
  </g>
  <g id="bullet-char-template-61548" transform="scale(0.00048828125,-0.00048828125)">
   <path d="M 173,740 C 173,903 231,1043 346,1159 462,1274 601,1332 765,1332 928,1332 1067,1274 1183,1159 1299,1043 1357,903 1357,740 1357,577 1299,437 1183,322 1067,206 928,148 765,148 601,148 462,206 346,322 231,437 173,577 173,740 Z"/>
  </g>
 </defs>
 <g>
  <g id="id2" class="Master_Slide">
   <g id="bg-id2" class="Background"/>
   <g id="bo-id2" class="BackgroundObjects"/>
  </g>
 </g>
 <g class="SlideGroup">
  <g>
   <g id="container-id1">
    <g id="id1" class="Slide" clip-path="url(#presentation_clip_path)">
     <g class="Page">
      <g class="Group">
       <g class="Group">
        <g class="com.sun.star.drawing.CustomShape">
         <g id="id3">
          <rect class="BoundingBox" stroke="none" fill="none" x="908" y="37" width="451" height="251"/>
          <g>
           <defs>
            <linearGradient id="gradient1" x1="1040" y1="0" x2="1227" y2="324" gradientUnits="userSpaceOnUse">
             <stop offset="0" style="stop-color:rgb(255,219,182)"/>
             <stop offset="1" style="stop-color:rgb(255,166,166)"/>
            </linearGradient>
           </defs>
           <path style="fill:url(#gradient1)" d="M 1133,262 L 933,262 933,62 1333,62 1333,262 1133,262 Z"/>
          </g>
          <path fill="none" stroke="rgb(255,123,89)" stroke-width="50" stroke-linejoin="round" d="M 1133,262 L 933,262 933,62 1333,62 1333,262 1133,262 Z"/>
         </g>
        </g>
        <g class="com.sun.star.drawing.PolyPolygonShape">
         <g id="id4">
          <rect class="BoundingBox" stroke="none" fill="none" x="473" y="36" width="481" height="261"/>
          <g>
           <defs>
            <linearGradient id="gradient2" x1="614" y1="-6" x2="813" y2="338" gradientUnits="userSpaceOnUse">
             <stop offset="0" style="stop-color:rgb(255,219,182)"/>
             <stop offset="1" style="stop-color:rgb(255,166,166)"/>
            </linearGradient>
           </defs>
           <path style="fill:url(#gradient2)" d="M 522,82 L 667,81 702,104 745,61 926,62 928,265 580,271 549,254 516,206 498,138 502,99 522,82 Z"/>
          </g>
          <path fill="none" stroke="rgb(255,123,89)" stroke-width="50" stroke-linejoin="round" d="M 522,82 L 667,81 702,104 745,61 926,62 928,265 580,271 549,254 516,206 498,138 502,99 522,82 Z"/>
         </g>
        </g>
       </g>
       <g class="com.sun.star.drawing.PolyPolygonShape">
        <g id="id5">
         <rect class="BoundingBox" stroke="none" fill="none" x="967" y="35" width="993" height="817"/>
         <g>
          <defs>
           <linearGradient id="gradient3" x1="1180" y1="-48" x2="1747" y2="934" gradientUnits="userSpaceOnUse">
            <stop offset="0" style="stop-color:rgb(255,219,182)"/>
            <stop offset="1" style="stop-color:rgb(255,166,166)"/>
           </linearGradient>
          </defs>
          <path style="fill:url(#gradient3)" d="M 1178,60 L 1445,60 1806,108 1898,158 1934,214 1934,573 1934,725 1756,725 1655,826 1542,826 993,277 1098,60 1178,60 Z"/>
         </g>
         <path fill="none" stroke="rgb(255,123,89)" stroke-width="50" stroke-linejoin="round" d="M 1178,60 L 1445,60 1806,108 1898,158 1934,214 1934,573 1934,725 1756,725 1655,826 1542,826 993,277 1098,60 1178,60 Z"/>
        </g>
       </g>
       <g class="com.sun.star.drawing.LineShape">
        <g id="id6">
         <rect class="BoundingBox" stroke="none" fill="none" x="975" y="56" width="140" height="226"/>
         <path fill="none" stroke="rgb(255,170,149)" stroke-width="60" stroke-linejoin="round" d="M 1084,86 L 1005,251"/>
        </g>
       </g>
       <g class="Group">
        <g class="com.sun.star.drawing.CustomShape">
         <g id="id7">
          <rect class="BoundingBox" stroke="none" fill="none" x="354" y="565" width="476" height="476"/>
          <g>
           <defs>
            <linearGradient id="gradient4" x1="446" y1="551" x2="736" y2="1053" gradientUnits="userSpaceOnUse">
             <stop offset="0" style="stop-color:rgb(255,219,182)"/>
             <stop offset="1" style="stop-color:rgb(255,166,166)"/>
            </linearGradient>
           </defs>
           <path style="fill:url(#gradient4)" d="M 662,873 L 520,1014 379,873 662,590 803,732 662,873 Z"/>
          </g>
          <path fill="none" stroke="rgb(255,123,89)" stroke-width="50" stroke-linejoin="round" d="M 662,873 L 520,1014 379,873 662,590 803,732 662,873 Z"/>
         </g>
        </g>
        <g class="com.sun.star.drawing.CustomShape">
         <g id="id8">
          <rect class="BoundingBox" stroke="none" fill="none" x="637" y="245" width="511" height="512"/>
          <g>
           <defs>
            <linearGradient id="gradient5" x1="736" y1="229" x2="1049" y2="772" gradientUnits="userSpaceOnUse">
             <stop offset="0" style="stop-color:rgb(255,219,182)"/>
             <stop offset="1" style="stop-color:rgb(255,166,166)"/>
            </linearGradient>
           </defs>
           <path style="fill:url(#gradient5)" d="M 963,571 L 803,730 662,589 980,271 1122,412 963,571 Z"/>
          </g>
          <path fill="none" stroke="rgb(255,123,89)" stroke-width="50" stroke-linejoin="round" d="M 963,571 L 803,730 662,589 980,271 1122,412 963,571 Z"/>
         </g>
        </g>
        <g class="com.sun.star.drawing.PolyPolygonShape">
         <g id="id9">
          <rect class="BoundingBox" stroke="none" fill="none" x="348" y="797" width="252" height="253"/>
          <g>
           <defs>
            <linearGradient id="gradient6" x1="405" y1="804" x2="542" y2="1042" gradientUnits="userSpaceOnUse">
             <stop offset="0" style="stop-color:rgb(255,219,182)"/>
             <stop offset="1" style="stop-color:rgb(255,216,206)"/>
            </linearGradient>
           </defs>
           <path style="fill:url(#gradient6)" d="M 403,994 L 373,964 379,900 450,829 515,823 573,882 567,946 497,1017 432,1023 403,994 Z"/>
          </g>
          <path fill="none" stroke="rgb(255,123,89)" stroke-width="50" stroke-linejoin="round" d="M 403,994 L 373,964 379,900 450,829 515,823 573,882 567,946 497,1017 432,1023 403,994 Z"/>
         </g>
        </g>
        <g class="com.sun.star.drawing.PolyPolygonShape">
         <g id="id10">
          <rect class="BoundingBox" stroke="none" fill="none" x="829" y="386" width="462" height="471"/>
          <g>
           <defs>
            <linearGradient id="gradient7" x1="917" y1="375" x2="1201" y2="867" gradientUnits="userSpaceOnUse">
             <stop offset="0" style="stop-color:rgb(255,219,182)"/>
             <stop offset="1" style="stop-color:rgb(255,166,166)"/>
            </linearGradient>
           </defs>
           <path style="fill:url(#gradient7)" d="M 1119,412 L 854,682 857,738 891,796 944,830 992,830 1265,556 1119,412 Z"/>
          </g>
          <path fill="none" stroke="rgb(255,123,89)" stroke-width="50" stroke-linejoin="round" d="M 1119,412 L 854,682 857,738 891,796 944,830 992,830 1265,556 1119,412 Z"/>
         </g>
        </g>
        <g class="com.sun.star.drawing.PolyPolygonShape">
         <g id="id11">
          <rect class="BoundingBox" stroke="none" fill="none" x="987" y="528" width="436" height="444"/>
          <g>
           <defs>
            <linearGradient id="gradient8" x1="1071" y1="519" x2="1337" y2="979" gradientUnits="userSpaceOnUse">
             <stop offset="0" style="stop-color:rgb(255,219,182)"/>
             <stop offset="1" style="stop-color:rgb(255,166,166)"/>
            </linearGradient>
           </defs>
           <path style="fill:url(#gradient8)" d="M 1260,553 L 1012,806 1015,859 1046,913 1095,945 1141,944 1396,688 1260,553 Z"/>
          </g>
          <path fill="none" stroke="rgb(255,123,89)" stroke-width="50" stroke-linejoin="round" d="M 1260,553 L 1012,806 1015,859 1046,913 1095,945 1141,944 1396,688 1260,553 Z"/>
         </g>
        </g>
        <g class="com.sun.star.drawing.PolyPolygonShape">
         <g id="id12">
          <rect class="BoundingBox" stroke="none" fill="none" x="1144" y="661" width="408" height="415"/>
          <g>
           <defs>
            <linearGradient id="gradient9" x1="1224" y1="654" x2="1471" y2="1081" gradientUnits="userSpaceOnUse">
             <stop offset="0" style="stop-color:rgb(255,219,182)"/>
             <stop offset="1" style="stop-color:rgb(255,166,166)"/>
            </linearGradient>
           </defs>
           <path style="fill:url(#gradient9)" d="M 1393,686 L 1169,915 1173,965 1204,1016 1252,1048 1295,1049 1526,817 1393,686 Z"/>
          </g>
          <path fill="none" stroke="rgb(255,123,89)" stroke-width="50" stroke-linejoin="round" d="M 1393,686 L 1169,915 1173,965 1204,1016 1252,1048 1295,1049 1526,817 1393,686 Z"/>
         </g>
        </g>
       </g>
       <g class="com.sun.star.drawing.LineShape">
        <g id="id13">
         <rect class="BoundingBox" stroke="none" fill="none" x="973" y="254" width="571" height="580"/>
         <path fill="none" stroke="rgb(255,170,149)" stroke-width="60" stroke-linejoin="round" d="M 1003,284 L 1513,803"/>
        </g>
       </g>
       <g class="com.sun.star.drawing.LineShape">
        <g id="id14">
         <rect class="BoundingBox" stroke="none" fill="none" x="649" y="575" width="171" height="171"/>
         <path fill="none" stroke="rgb(255,170,149)" stroke-width="60" stroke-linejoin="round" d="M 679,605 L 789,715"/>
        </g>
       </g>
       <g class="com.sun.star.drawing.LineShape">
        <g id="id15">
         <rect class="BoundingBox" stroke="none" fill="none" x="897" y="54" width="64" height="216"/>
         <path fill="none" stroke="rgb(255,170,149)" stroke-width="60" stroke-linejoin="round" d="M 927,84 L 930,239"/>
        </g>
       </g>
      </g>
     </g>
    </g>
   </g>
  </g>
 </g>
</svg>