<?xml version="1.0" encoding="UTF-8" standalone="no"?>
<!--part of the rodentia icon theme by sixsixfive released under CC0 (https://creativecommons.org/publicdomain/zero/1.0/) on openclipart-->

<svg
   xmlns:dc="http://purl.org/dc/elements/1.1/"
   xmlns:cc="http://creativecommons.org/ns#"
   xmlns:rdf="http://www.w3.org/1999/02/22-rdf-syntax-ns#"
   xmlns:svg="http://www.w3.org/2000/svg"
   xmlns="http://www.w3.org/2000/svg"
   xmlns:xlink="http://www.w3.org/1999/xlink"
   xmlns:sodipodi="http://sodipodi.sourceforge.net/DTD/sodipodi-0.dtd"
   xmlns:inkscape="http://www.inkscape.org/namespaces/inkscape"
   viewBox="0 0 48 48"
   version="1.1"
   id="svg26"
   sodipodi:docname="attr_close_shadow.svg"
   inkscape:version="1.0 (4035a4fb49, 2020-05-01)">
  <metadata
     id="metadata30">
    <rdf:RDF>
      <cc:Work
         rdf:about="">
        <dc:format>image/svg+xml</dc:format>
        <dc:type
           rdf:resource="http://purl.org/dc/dcmitype/StillImage" />
        <dc:title></dc:title>
      </cc:Work>
    </rdf:RDF>
  </metadata>
  <sodipodi:namedview
     pagecolor="#ffffff"
     bordercolor="#666666"
     borderopacity="1"
     objecttolerance="10"
     gridtolerance="10"
     guidetolerance="10"
     inkscape:pageopacity="0"
     inkscape:pageshadow="2"
     inkscape:window-width="640"
     inkscape:window-height="480"
     id="namedview28"
     showgrid="false"
     inkscape:zoom="21"
     inkscape:cx="24"
     inkscape:cy="24"
     inkscape:current-layer="svg26" />
  <defs
     id="0">
    <linearGradient
       id="2">
      <stop
         id="F"
         stop-color="#555753"
         stop-opacity="0.709" />
      <stop
         id="G"
         offset="0.5"
         stop-color="#555753"
         stop-opacity="0.474" />
      <stop
         id="H"
         offset="1"
         stop-color="#555753"
         stop-opacity="0" />
    </linearGradient>
    <linearGradient
       id="3">
      <stop
         id="I"
         stop-color="#fff" />
      <stop
         id="J"
         offset="1"
         stop-color="#fff"
         stop-opacity="0" />
    </linearGradient>
    <linearGradient
       id="4">
      <stop
         id="K"
         stop-color="#eee"
         stop-opacity="0.8" />
      <stop
         id="L"
         offset="1"
         stop-color="#eee"
         stop-opacity="0" />
    </linearGradient>
    <radialGradient
       cx="60.05"
       cy="51.39"
       r="15.03"
       id="5"
       xlink:href="#6"
       gradientUnits="userSpaceOnUse"
       gradientTransform="matrix(-1.404511,1.1888571,-1,-1.1813958,199.73811,11.750541)" />
    <linearGradient
       id="6">
      <stop
         id="M"
         stop-color="#eee" />
      <stop
         id="N"
         offset="1"
         stop-color="#dcdcdc" />
    </linearGradient>
    <linearGradient
       y1="3.702"
       x2="0"
       y2="43.08"
       id="7"
       xlink:href="#4"
       gradientUnits="userSpaceOnUse" />
    <linearGradient
       x1="10.563"
       y1="-42.01"
       x2="27.975"
       y2="23.878"
       id="8"
       xlink:href="#3"
       gradientUnits="userSpaceOnUse" />
    <radialGradient
       cx="26.5"
       cy="46.749"
       r="20.905"
       id="9"
       xlink:href="#2"
       gradientUnits="userSpaceOnUse"
       gradientTransform="matrix(1,0,0,0.1091549,0,41.645774)" />
    <filter
       style="color-interpolation-filters:sRGB;"
       inkscape:label="Drop Shadow"
       id="filter961">
      <feFlood
         flood-opacity="1"
         flood-color="rgb(0,0,0)"
         result="flood"
         id="feFlood951" />
      <feComposite
         in="flood"
         in2="SourceGraphic"
         operator="in"
         result="composite1"
         id="feComposite953" />
      <feGaussianBlur
         in="composite1"
         stdDeviation="1.5"
         result="blur"
         id="feGaussianBlur955" />
      <feOffset
         dx="0"
         dy="0"
         result="offset"
         id="feOffset957" />
      <feComposite
         in="SourceGraphic"
         in2="offset"
         operator="over"
         result="composite2"
         id="feComposite959" />
    </filter>
  </defs>
  <g
     id="1"
     style="filter:url(#filter961)">
    <path
       d="m 37.625,2.40625 c -0.78978,0 -1.585235,0.3039847 -2.1875,0.90625 L 24.125,14.625 12.84375,3.3125 c -0.603944,-0.6039441 -1.400749,-0.875 -2.1875,-0.875 -0.7867505,0 -1.6113831,0.2676332 -2.21875,0.875 l -4.375,4.40625 c -1.204531,1.2045302 -1.2045307,3.170469 0,4.375 L 15.375,23.375 4.0625,34.6875 c -1.2045279,1.204529 -1.2045308,3.170468 0,4.375 l 4.40625,4.40625 c 1.2062408,1.206243 3.172183,1.171563 4.375,-0.03125 L 24.125,32.15625 35.46875,43.46875 c 1.204532,1.20453 3.142641,1.169855 4.34375,-0.03125 l 4.375,-4.375 c 1.201104,-1.201109 1.235782,-3.139218 0.03125,-4.34375 L 32.90625,23.375 44.1875,12.09375 c 1.202816,-1.202819 1.237494,-3.1687592 0.03125,-4.375 L 39.8125,3.3125 C 39.210235,2.7102347 38.41478,2.40625 37.625,2.40625 Z"
       id="B"
       fill="#2e3436" />
    <path
       d="m 10.645675,3.6551357 c -0.472794,0 -0.9567101,0.1748774 -1.3247719,0.5429393 L 4.9448117,8.5741664 c -0.7351717,0.7351715 -0.7351721,1.9035136 0,2.6386856 L 16.433409,22.701449 c 0.374967,0.378997 0.374967,0.98921 0,1.368207 L 4.9448117,35.558253 c -0.7351688,0.73517 -0.7351716,1.903513 0,2.638686 l 4.3978089,4.397809 c 0.7374174,0.737417 1.8750504,0.731055 2.6169674,-0.01084 L 23.448186,31.095292 c 0.378997,-0.374967 0.989209,-0.374967 1.368207,0 l 11.510315,11.499456 c 0.735172,0.735173 1.888153,0.72881 2.627826,-0.01084 l 4.376092,-4.38695 c 0.744169,-0.744169 0.75689,-1.881795 0.02172,-2.616968 L 31.842028,24.069674 c -0.374967,-0.378998 -0.374967,-0.98921 0,-1.368208 L 43.330626,11.212869 C 44.074795,10.4687 44.087513,9.3310708 43.352343,8.5959013 L 38.954534,4.198075 c -0.732925,-0.7329235 -1.916619,-0.7329235 -2.649544,0 L 24.816393,15.686672 c -0.378998,0.374967 -0.98921,0.374967 -1.368207,0 L 11.959588,4.198075 C 11.587029,3.8255153 11.11847,3.6551357 10.645675,3.6551357 Z"
       id="C"
       fill="#555753" />
    <path
       d="m 10.65625,4.25 c -0.311622,0 -0.623425,0.1546746 -0.875,0.40625 l -4.375,4.375 c -0.5066724,0.506672 -0.5066729,1.243327 0,1.75 L 16.875,22.25 a 0.28846848,0.28846848 0 0 1 0,0.03125 c 0.610366,0.616929 0.610368,1.601821 0,2.21875 a 0.28846848,0.28846848 0 0 1 0,0.03125 L 5.40625,36 c -0.5066678,0.506666 -0.506671,1.243329 0,1.75 l 4.375,4.40625 C 10.296529,42.671529 10.971725,42.653257 11.5,42.125 L 23,30.65625 a 0.28846848,0.28846848 0 0 1 0.03125,0 c 0.612683,-0.606167 1.574815,-0.606168 2.1875,0 a 0.28846848,0.28846848 0 0 1 0.03125,0 l 11.53125,11.5 C 37.290686,42.665685 37.97749,42.647493 38.5,42.125 l 4.375,-4.375 c 0.531331,-0.531333 0.543432,-1.206567 0.03125,-1.71875 l -11.5,-11.5 a 0.28846848,0.28846848 0 0 1 0,-0.03125 c -0.610369,-0.616929 -0.610368,-1.601822 0,-2.21875 a 0.28846848,0.28846848 0 0 1 0,-0.03125 L 42.875,10.78125 c 0.527947,-0.527947 0.539974,-1.2412761 0.03125,-1.75 L 38.5,4.65625 C 38.246002,4.4022551 37.939613,4.25 37.625,4.25 c -0.31461,-1e-7 -0.621014,0.1522619 -0.875,0.40625 L 25.25,16.125 a 0.28846848,0.28846848 0 0 1 -0.03125,0 c -0.612685,0.606167 -1.574816,0.606168 -2.1875,0 A 0.28846848,0.28846848 0 0 1 23,16.125 L 11.5,4.65625 C 11.232377,4.3886263 10.974021,4.25 10.65625,4.25 Z"
       id="D"
       opacity="0.8"
       fill="none"
       stroke="url(#7)"
       stroke-width="1.095" />
    <path
       d="m 10.65625,3.65625 c -0.472794,10e-8 -0.9756882,0.1631881 -1.34375,0.53125 l -4.375,4.375 c -0.7351718,0.7351716 -0.7351721,1.921078 0,2.65625 l 10.96875,10.9375 C 23.684795,19.400874 31.570533,16.775195 39.625,14.9375 l 3.71875,-3.71875 c 0.744168,-0.744169 0.73517,-1.8898305 0,-2.625 l -4.375,-4.40625 c -0.732924,-0.7329233 -1.923325,-0.7329235 -2.65625,0 l -11.5,11.5 c -0.378998,0.374967 -0.996003,0.374967 -1.375,0 L 11.96875,4.1875 C 11.596191,3.8149405 11.129045,3.65625 10.65625,3.65625 Z"
       id="E"
       opacity="0.8"
       fill="url(#8)" />
  </g>
</svg>
