<?xml version="1.0" encoding="UTF-8"?>
<!DOCTYPE svg PUBLIC "-//W3C//DTD SVG 1.1//EN" "http://www.w3.org/Graphics/SVG/1.1/DTD/svg11.dtd">
<svg version="1.2" width="20mm" height="20mm" viewBox="0 0 2000 2000" preserveAspectRatio="xMidYMid" fill-rule="evenodd" stroke-width="28.222" stroke-linejoin="round" xmlns="http://www.w3.org/2000/svg" xmlns:ooo="http://xml.openoffice.org/svg/export" xmlns:xlink="http://www.w3.org/1999/xlink" xmlns:presentation="http://sun.com/xmlns/staroffice/presentation" xmlns:smil="http://www.w3.org/2001/SMIL20/" xmlns:anim="urn:oasis:names:tc:opendocument:xmlns:animation:1.0" xmlns:svg="urn:oasis:names:tc:opendocument:xmlns:svg-compatible:1.0" xml:space="preserve">
 <defs class="ClipPathGroup">
  <clipPath id="presentation_clip_path" clipPathUnits="userSpaceOnUse">
   <rect x="0" y="0" width="2000" height="2000"/>
  </clipPath>
  <clipPath id="presentation_clip_path_shrink" clipPathUnits="userSpaceOnUse">
   <rect x="2" y="2" width="1996" height="1996"/>
  </clipPath>
 </defs>
 <defs class="TextShapeIndex">
  <g ooo:slide="id1" ooo:id-list="id3 id4 id5 id6 id7 id8 id9 id10"/>
 </defs>
 <defs class="EmbeddedBulletChars">
  <g id="bullet-char-template-57356" transform="scale(0.00048828125,-0.00048828125)">
   <path d="M 580,1141 L 1163,571 580,0 -4,571 580,1141 Z"/>
  </g>
  <g id="bullet-char-template-57354" transform="scale(0.00048828125,-0.00048828125)">
   <path d="M 8,1128 L 1137,1128 1137,0 8,0 8,1128 Z"/>
  </g>
  <g id="bullet-char-template-10146" transform="scale(0.00048828125,-0.00048828125)">
   <path d="M 174,0 L 602,739 174,1481 1456,739 174,0 Z M 1358,739 L 309,1346 659,739 1358,739 Z"/>
  </g>
  <g id="bullet-char-template-10132" transform="scale(0.00048828125,-0.00048828125)">
   <path d="M 2015,739 L 1276,0 717,0 1260,543 174,543 174,936 1260,936 717,1481 1274,1481 2015,739 Z"/>
  </g>
  <g id="bullet-char-template-10007" transform="scale(0.00048828125,-0.00048828125)">
   <path d="M 0,-2 C -7,14 -16,27 -25,37 L 356,567 C 262,823 215,952 215,954 215,979 228,992 255,992 264,992 276,990 289,987 310,991 331,999 354,1012 L 381,999 492,748 772,1049 836,1024 860,1049 C 881,1039 901,1025 922,1006 886,937 835,863 770,784 769,783 710,716 594,584 L 774,223 C 774,196 753,168 711,139 L 727,119 C 717,90 699,76 672,76 641,76 570,178 457,381 L 164,-76 C 142,-110 111,-127 72,-127 30,-127 9,-110 8,-76 1,-67 -2,-52 -2,-32 -2,-23 -1,-13 0,-2 Z"/>
  </g>
  <g id="bullet-char-template-10004" transform="scale(0.00048828125,-0.00048828125)">
   <path d="M 285,-33 C 182,-33 111,30 74,156 52,228 41,333 41,471 41,549 55,616 82,672 116,743 169,778 240,778 293,778 328,747 346,684 L 369,508 C 377,444 397,411 428,410 L 1163,1116 C 1174,1127 1196,1133 1229,1133 1271,1133 1292,1118 1292,1087 L 1292,965 C 1292,929 1282,901 1262,881 L 442,47 C 390,-6 338,-33 285,-33 Z"/>
  </g>
  <g id="bullet-char-template-9679" transform="scale(0.00048828125,-0.00048828125)">
   <path d="M 813,0 C 632,0 489,54 383,161 276,268 223,411 223,592 223,773 276,916 383,1023 489,1130 632,1184 813,1184 992,1184 1136,1130 1245,1023 1353,916 1407,772 1407,592 1407,412 1353,268 1245,161 1136,54 992,0 813,0 Z"/>
  </g>
  <g id="bullet-char-template-8226" transform="scale(0.00048828125,-0.00048828125)">
   <path d="M 346,457 C 273,457 209,483 155,535 101,586 74,649 74,723 74,796 101,859 155,911 209,963 273,989 346,989 419,989 480,963 531,910 582,859 608,796 608,723 608,648 583,586 532,535 482,483 420,457 346,457 Z"/>
  </g>
  <g id="bullet-char-template-8211" transform="scale(0.00048828125,-0.00048828125)">
   <path d="M -4,459 L 1135,459 1135,606 -4,606 -4,459 Z"/>
  </g>
  <g id="bullet-char-template-61548" transform="scale(0.00048828125,-0.00048828125)">
   <path d="M 173,740 C 173,903 231,1043 346,1159 462,1274 601,1332 765,1332 928,1332 1067,1274 1183,1159 1299,1043 1357,903 1357,740 1357,577 1299,437 1183,322 1067,206 928,148 765,148 601,148 462,206 346,322 231,437 173,577 173,740 Z"/>
  </g>
 </defs>
 <g>
  <g id="id2" class="Master_Slide">
   <g id="bg-id2" class="Background"/>
   <g id="bo-id2" class="BackgroundObjects"/>
  </g>
 </g>
 <g class="SlideGroup">
  <g>
   <g id="container-id1">
    <g id="id1" class="Slide" clip-path="url(#presentation_clip_path)">
     <g class="Page">
      <g class="com.sun.star.drawing.PolyPolygonShape">
       <g id="id3">
        <rect class="BoundingBox" stroke="none" fill="none" x="1388" y="1170" width="351" height="602"/>
        <g>
         <defs>
          <linearGradient id="gradient1" x1="1350" y1="1257" x2="1776" y2="1683" gradientUnits="userSpaceOnUse">
           <stop offset="0" style="stop-color:rgb(232,242,161)"/>
           <stop offset="1" style="stop-color:rgb(18,118,34)"/>
          </linearGradient>
         </defs>
         <path style="fill:url(#gradient1)" d="M 1413,1195 L 1413,1295 1613,1495 1613,1745 1713,1445 1413,1195 Z"/>
        </g>
        <path fill="none" stroke="rgb(30,106,57)" stroke-width="50" stroke-linejoin="round" d="M 1413,1195 L 1413,1295 1613,1495 1613,1745 1713,1445 1413,1195 Z"/>
       </g>
      </g>
      <g class="com.sun.star.drawing.CustomShape">
       <g id="id4">
        <rect class="BoundingBox" stroke="none" fill="none" x="1125" y="825" width="801" height="1101"/>
        <g>
         <defs>
          <linearGradient id="gradient2" x1="1204" y1="819" x2="1846" y2="1931" gradientUnits="userSpaceOnUse">
           <stop offset="0" style="stop-color:rgb(238,238,238)"/>
           <stop offset="1" style="stop-color:rgb(204,204,204)"/>
          </linearGradient>
         </defs>
         <path style="fill:url(#gradient2)" d="M 1525,1900 L 1150,1900 1150,850 1900,850 1900,1900 1525,1900 Z"/>
        </g>
        <path fill="none" stroke="rgb(102,102,102)" stroke-width="50" stroke-linejoin="round" d="M 1525,1900 L 1150,1900 1150,850 1900,850 1900,1900 1525,1900 Z"/>
       </g>
      </g>
      <g class="com.sun.star.drawing.CustomShape">
       <g id="id5">
        <rect class="BoundingBox" stroke="none" fill="none" x="1249" y="973" width="153" height="152"/>
        <path fill="rgb(0,169,51)" stroke="none" d="M 1401,1049 C 1401,1062 1398,1075 1391,1086 1384,1098 1375,1107 1363,1114 1352,1121 1339,1124 1325,1124 1312,1124 1299,1121 1288,1114 1276,1107 1267,1098 1260,1086 1253,1075 1250,1062 1250,1049 1250,1035 1253,1022 1260,1011 1267,999 1276,990 1288,983 1299,976 1312,973 1325,973 1339,973 1352,976 1363,983 1375,990 1384,999 1391,1011 1398,1022 1401,1035 1401,1049 L 1401,1049 Z"/>
       </g>
      </g>
      <g class="com.sun.star.drawing.LineShape">
       <g id="id6">
        <rect class="BoundingBox" stroke="none" fill="none" x="1462" y="1012" width="377" height="77"/>
        <path fill="none" stroke="rgb(0,0,0)" stroke-width="75" stroke-linejoin="round" d="M 1500,1050 L 1800,1050"/>
       </g>
      </g>
      <g class="com.sun.star.drawing.CustomShape">
       <g id="id7">
        <rect class="BoundingBox" stroke="none" fill="none" x="1252" y="1273" width="152" height="152"/>
        <path fill="rgb(255,0,0)" stroke="none" d="M 1403,1349 C 1403,1362 1400,1375 1393,1386 1386,1398 1377,1407 1365,1414 1354,1421 1341,1424 1328,1424 1314,1424 1301,1421 1290,1414 1278,1407 1269,1398 1262,1386 1255,1375 1252,1362 1252,1349 1252,1335 1255,1322 1262,1311 1269,1299 1278,1290 1290,1283 1301,1276 1314,1273 1328,1273 1341,1273 1354,1276 1365,1283 1377,1290 1386,1299 1393,1311 1400,1322 1403,1335 1403,1349 L 1403,1349 Z"/>
       </g>
      </g>
      <g class="com.sun.star.drawing.LineShape">
       <g id="id8">
        <rect class="BoundingBox" stroke="none" fill="none" x="1464" y="1312" width="377" height="77"/>
        <path fill="none" stroke="rgb(0,0,0)" stroke-width="75" stroke-linejoin="round" d="M 1502,1350 L 1802,1350"/>
       </g>
      </g>
      <g class="com.sun.star.drawing.CustomShape">
       <g id="id9">
        <rect class="BoundingBox" stroke="none" fill="none" x="1255" y="1573" width="152" height="152"/>
        <path fill="rgb(114,159,207)" stroke="none" d="M 1406,1649 C 1406,1662 1403,1675 1396,1686 1389,1698 1380,1707 1368,1714 1357,1721 1344,1724 1331,1724 1317,1724 1304,1721 1293,1714 1281,1707 1272,1698 1265,1686 1258,1675 1255,1662 1255,1649 1255,1635 1258,1622 1265,1611 1272,1599 1281,1590 1293,1583 1304,1576 1317,1573 1331,1573 1344,1573 1357,1576 1368,1583 1380,1590 1389,1599 1396,1611 1403,1622 1406,1635 1406,1649 L 1406,1649 Z"/>
       </g>
      </g>
      <g class="com.sun.star.drawing.LineShape">
       <g id="id10">
        <rect class="BoundingBox" stroke="none" fill="none" x="1467" y="1612" width="377" height="77"/>
        <path fill="none" stroke="rgb(0,0,0)" stroke-width="75" stroke-linejoin="round" d="M 1505,1650 L 1805,1650"/>
       </g>
      </g>
     </g>
    </g>
   </g>
  </g>
 </g>
</svg>