<?xml version="1.0" encoding="UTF-8"?>
<!DOCTYPE svg PUBLIC "-//W3C//DTD SVG 1.1//EN" "http://www.w3.org/Graphics/SVG/1.1/DTD/svg11.dtd">
<svg version="1.2" width="20mm" height="20mm" viewBox="0 0 2000 2000" preserveAspectRatio="xMidYMid" fill-rule="evenodd" stroke-width="28.222" stroke-linejoin="round" xmlns="http://www.w3.org/2000/svg" xmlns:ooo="http://xml.openoffice.org/svg/export" xmlns:xlink="http://www.w3.org/1999/xlink" xmlns:presentation="http://sun.com/xmlns/staroffice/presentation" xmlns:smil="http://www.w3.org/2001/SMIL20/" xmlns:anim="urn:oasis:names:tc:opendocument:xmlns:animation:1.0" xmlns:svg="urn:oasis:names:tc:opendocument:xmlns:svg-compatible:1.0" xml:space="preserve">
 <defs class="ClipPathGroup">
  <clipPath id="presentation_clip_path" clipPathUnits="userSpaceOnUse">
   <rect x="0" y="0" width="2000" height="2000"/>
  </clipPath>
  <clipPath id="presentation_clip_path_shrink" clipPathUnits="userSpaceOnUse">
   <rect x="2" y="2" width="1996" height="1996"/>
  </clipPath>
 </defs>
 <defs class="TextShapeIndex">
  <g ooo:slide="id1" ooo:id-list="id3 id4 id5 id6 id7 id8 id9"/>
 </defs>
 <defs class="EmbeddedBulletChars">
  <g id="bullet-char-template-57356" transform="scale(0.00048828125,-0.00048828125)">
   <path d="M 580,1141 L 1163,571 580,0 -4,571 580,1141 Z"/>
  </g>
  <g id="bullet-char-template-57354" transform="scale(0.00048828125,-0.00048828125)">
   <path d="M 8,1128 L 1137,1128 1137,0 8,0 8,1128 Z"/>
  </g>
  <g id="bullet-char-template-10146" transform="scale(0.00048828125,-0.00048828125)">
   <path d="M 174,0 L 602,739 174,1481 1456,739 174,0 Z M 1358,739 L 309,1346 659,739 1358,739 Z"/>
  </g>
  <g id="bullet-char-template-10132" transform="scale(0.00048828125,-0.00048828125)">
   <path d="M 2015,739 L 1276,0 717,0 1260,543 174,543 174,936 1260,936 717,1481 1274,1481 2015,739 Z"/>
  </g>
  <g id="bullet-char-template-10007" transform="scale(0.00048828125,-0.00048828125)">
   <path d="M 0,-2 C -7,14 -16,27 -25,37 L 356,567 C 262,823 215,952 215,954 215,979 228,992 255,992 264,992 276,990 289,987 310,991 331,999 354,1012 L 381,999 492,748 772,1049 836,1024 860,1049 C 881,1039 901,1025 922,1006 886,937 835,863 770,784 769,783 710,716 594,584 L 774,223 C 774,196 753,168 711,139 L 727,119 C 717,90 699,76 672,76 641,76 570,178 457,381 L 164,-76 C 142,-110 111,-127 72,-127 30,-127 9,-110 8,-76 1,-67 -2,-52 -2,-32 -2,-23 -1,-13 0,-2 Z"/>
  </g>
  <g id="bullet-char-template-10004" transform="scale(0.00048828125,-0.00048828125)">
   <path d="M 285,-33 C 182,-33 111,30 74,156 52,228 41,333 41,471 41,549 55,616 82,672 116,743 169,778 240,778 293,778 328,747 346,684 L 369,508 C 377,444 397,411 428,410 L 1163,1116 C 1174,1127 1196,1133 1229,1133 1271,1133 1292,1118 1292,1087 L 1292,965 C 1292,929 1282,901 1262,881 L 442,47 C 390,-6 338,-33 285,-33 Z"/>
  </g>
  <g id="bullet-char-template-9679" transform="scale(0.00048828125,-0.00048828125)">
   <path d="M 813,0 C 632,0 489,54 383,161 276,268 223,411 223,592 223,773 276,916 383,1023 489,1130 632,1184 813,1184 992,1184 1136,1130 1245,1023 1353,916 1407,772 1407,592 1407,412 1353,268 1245,161 1136,54 992,0 813,0 Z"/>
  </g>
  <g id="bullet-char-template-8226" transform="scale(0.00048828125,-0.00048828125)">
   <path d="M 346,457 C 273,457 209,483 155,535 101,586 74,649 74,723 74,796 101,859 155,911 209,963 273,989 346,989 419,989 480,963 531,910 582,859 608,796 608,723 608,648 583,586 532,535 482,483 420,457 346,457 Z"/>
  </g>
  <g id="bullet-char-template-8211" transform="scale(0.00048828125,-0.00048828125)">
   <path d="M -4,459 L 1135,459 1135,606 -4,606 -4,459 Z"/>
  </g>
  <g id="bullet-char-template-61548" transform="scale(0.00048828125,-0.00048828125)">
   <path d="M 173,740 C 173,903 231,1043 346,1159 462,1274 601,1332 765,1332 928,1332 1067,1274 1183,1159 1299,1043 1357,903 1357,740 1357,577 1299,437 1183,322 1067,206 928,148 765,148 601,148 462,206 346,322 231,437 173,577 173,740 Z"/>
  </g>
 </defs>
 <g>
  <g id="id2" class="Master_Slide">
   <g id="bg-id2" class="Background"/>
   <g id="bo-id2" class="BackgroundObjects"/>
  </g>
 </g>
 <g class="SlideGroup">
  <g>
   <g id="container-id1">
    <g id="id1" class="Slide" clip-path="url(#presentation_clip_path)">
     <g class="Page">
      <g class="Group">
       <g class="com.sun.star.drawing.CustomShape">
        <g id="id3">
         <rect class="BoundingBox" stroke="none" fill="none" x="1568" y="517" width="422" height="420"/>
         <g>
          <defs>
           <linearGradient id="gradient1" x1="1593" y1="541" x2="1963" y2="911" gradientUnits="userSpaceOnUse">
            <stop offset="0" style="stop-color:rgb(255,109,109)"/>
            <stop offset="1" style="stop-color:rgb(167,7,75)"/>
           </linearGradient>
          </defs>
          <path style="fill:url(#gradient1)" d="M 1881,829 L 1800,910 1593,705 1757,542 1963,747 1881,829 Z"/>
         </g>
         <path fill="none" stroke="rgb(134,17,65)" stroke-width="50" stroke-linejoin="round" d="M 1881,829 L 1800,910 1593,705 1757,542 1963,747 1881,829 Z"/>
        </g>
       </g>
       <g class="com.sun.star.drawing.CustomShape">
        <g id="id4">
         <rect class="BoundingBox" stroke="none" fill="none" x="708" y="843" width="954" height="955"/>
         <path fill="rgb(255,255,166)" stroke="none" d="M 1287,1422 L 938,1771 733,1566 1430,869 1635,1074 1287,1422 Z"/>
         <path fill="none" stroke="rgb(123,61,0)" stroke-width="50" stroke-linejoin="round" d="M 1287,1422 L 938,1771 733,1566 1430,869 1635,1074 1287,1422 Z"/>
        </g>
       </g>
       <g class="com.sun.star.drawing.PolyPolygonShape">
        <g id="id5">
         <rect class="BoundingBox" stroke="none" fill="none" x="538" y="1540" width="427" height="427"/>
         <g>
          <defs>
           <linearGradient id="gradient2" x1="562" y1="1565" x2="938" y2="1941" gradientUnits="userSpaceOnUse">
            <stop offset="0" style="stop-color:rgb(255,255,215)"/>
            <stop offset="1" style="stop-color:rgb(255,182,108)"/>
           </linearGradient>
          </defs>
          <path style="fill:url(#gradient2)" d="M 734,1565 L 904,1736 938,1770 563,1941 734,1565 Z"/>
         </g>
         <path fill="none" stroke="rgb(123,61,0)" stroke-width="50" stroke-linejoin="round" d="M 734,1565 L 904,1736 938,1770 563,1941 734,1565 Z"/>
        </g>
       </g>
       <g class="com.sun.star.drawing.PolyPolygonShape">
        <g id="id6">
         <rect class="BoundingBox" stroke="none" fill="none" x="510" y="1825" width="171" height="171"/>
         <path fill="rgb(102,102,102)" stroke="none" d="M 587,1826 L 664,1903 680,1918 510,1995 587,1826 Z"/>
        </g>
       </g>
       <g class="com.sun.star.drawing.LineShape">
        <g id="id7">
         <rect class="BoundingBox" stroke="none" fill="none" x="856" y="955" width="797" height="798"/>
         <path fill="none" stroke="rgb(255,151,47)" stroke-width="100" stroke-linejoin="round" d="M 906,1702 L 1602,1006"/>
        </g>
       </g>
       <g class="com.sun.star.drawing.LineShape">
        <g id="id8">
         <rect class="BoundingBox" stroke="none" fill="none" x="801" y="901" width="798" height="797"/>
         <path fill="none" stroke="rgb(255,182,108)" stroke-width="100" stroke-linejoin="round" d="M 852,1647 L 1547,951"/>
        </g>
       </g>
       <g class="com.sun.star.drawing.CustomShape">
        <g id="id9">
         <rect class="BoundingBox" stroke="none" fill="none" x="1405" y="679" width="419" height="421"/>
         <g>
          <defs>
           <linearGradient id="gradient3" x1="1428" y1="704" x2="1798" y2="1074" gradientUnits="userSpaceOnUse">
            <stop offset="0" style="stop-color:rgb(221,221,221)"/>
            <stop offset="1" style="stop-color:rgb(128,128,128)"/>
           </linearGradient>
          </defs>
          <path style="fill:url(#gradient3)" d="M 1716,992 L 1634,1074 1430,868 1593,704 1797,910 1716,992 Z"/>
         </g>
         <path fill="none" stroke="rgb(51,51,51)" stroke-width="50" stroke-linejoin="round" d="M 1716,992 L 1634,1074 1430,868 1593,704 1797,910 1716,992 Z"/>
        </g>
       </g>
      </g>
     </g>
    </g>
   </g>
  </g>
 </g>
</svg>