<?xml version="1.0" encoding="UTF-8" standalone="no"?>
<svg
   xmlns:ooo="http://xml.openoffice.org/svg/export"
   xmlns:dc="http://purl.org/dc/elements/1.1/"
   xmlns:cc="http://creativecommons.org/ns#"
   xmlns:rdf="http://www.w3.org/1999/02/22-rdf-syntax-ns#"
   xmlns:svg="http://www.w3.org/2000/svg"
   xmlns="http://www.w3.org/2000/svg"
   xmlns:sodipodi="http://sodipodi.sourceforge.net/DTD/sodipodi-0.dtd"
   xmlns:inkscape="http://www.inkscape.org/namespaces/inkscape"
   version="1.2"
   width="20mm"
   height="20mm"
   viewBox="0 0 2000 2000"
   preserveAspectRatio="xMidYMid"
   fill-rule="evenodd"
   stroke-width="28.222"
   stroke-linejoin="round"
   xml:space="preserve"
   id="svg137"
   sodipodi:docname="attr_list_shadow.svg"
   inkscape:version="1.0 (4035a4fb49, 2020-05-01)"><metadata
   id="metadata141"><rdf:RDF><cc:Work
       rdf:about=""><dc:format>image/svg+xml</dc:format><dc:type
         rdf:resource="http://purl.org/dc/dcmitype/StillImage" /><dc:title></dc:title></cc:Work></rdf:RDF></metadata><sodipodi:namedview
   pagecolor="#ffffff"
   bordercolor="#666666"
   borderopacity="1"
   objecttolerance="10"
   gridtolerance="10"
   guidetolerance="10"
   inkscape:pageopacity="0"
   inkscape:pageshadow="2"
   inkscape:window-width="3440"
   inkscape:window-height="1377"
   id="namedview139"
   showgrid="false"
   inkscape:zoom="13.335"
   inkscape:cx="37.795276"
   inkscape:cy="37.795276"
   inkscape:window-x="-8"
   inkscape:window-y="-8"
   inkscape:window-maximized="1"
   inkscape:current-layer="svg137" />
 <defs
   class="ClipPathGroup"
   id="defs8">
  <clipPath
   id="presentation_clip_path"
   clipPathUnits="userSpaceOnUse">
   <rect
   x="0"
   y="0"
   width="2000"
   height="2000"
   id="rect2" />
  </clipPath>
  <clipPath
   id="presentation_clip_path_shrink"
   clipPathUnits="userSpaceOnUse">
   <rect
   x="2"
   y="2"
   width="1996"
   height="1996"
   id="rect5" />
  </clipPath>
 <filter
   style="color-interpolation-filters:sRGB;"
   inkscape:label="Drop Shadow"
   id="filter976"><feFlood
     flood-opacity="1"
     flood-color="rgb(0,0,0)"
     result="flood"
     id="feFlood966" /><feComposite
     in="flood"
     in2="SourceGraphic"
     operator="in"
     result="composite1"
     id="feComposite968" /><feGaussianBlur
     in="composite1"
     stdDeviation="47.3054"
     result="blur"
     id="feGaussianBlur970" /><feOffset
     dx="0"
     dy="0"
     result="offset"
     id="feOffset972" /><feComposite
     in="SourceGraphic"
     in2="offset"
     operator="over"
     result="composite2"
     id="feComposite974" /></filter></defs>
 <defs
   class="TextShapeIndex"
   id="defs12">
  <g
   ooo:slide="id1"
   ooo:id-list="id3 id4 id5 id6 id7 id8 id9 id10"
   id="g10" />
 </defs>
 <defs
   class="EmbeddedBulletChars"
   id="defs44">
  <g
   id="bullet-char-template-57356"
   transform="scale(0.00048828125,-0.00048828125)">
   <path
   d="M 580,1141 L 1163,571 580,0 -4,571 580,1141 Z"
   id="path14" />
  </g>
  <g
   id="bullet-char-template-57354"
   transform="scale(0.00048828125,-0.00048828125)">
   <path
   d="M 8,1128 L 1137,1128 1137,0 8,0 8,1128 Z"
   id="path17" />
  </g>
  <g
   id="bullet-char-template-10146"
   transform="scale(0.00048828125,-0.00048828125)">
   <path
   d="M 174,0 L 602,739 174,1481 1456,739 174,0 Z M 1358,739 L 309,1346 659,739 1358,739 Z"
   id="path20" />
  </g>
  <g
   id="bullet-char-template-10132"
   transform="scale(0.00048828125,-0.00048828125)">
   <path
   d="M 2015,739 L 1276,0 717,0 1260,543 174,543 174,936 1260,936 717,1481 1274,1481 2015,739 Z"
   id="path23" />
  </g>
  <g
   id="bullet-char-template-10007"
   transform="scale(0.00048828125,-0.00048828125)">
   <path
   d="M 0,-2 C -7,14 -16,27 -25,37 L 356,567 C 262,823 215,952 215,954 215,979 228,992 255,992 264,992 276,990 289,987 310,991 331,999 354,1012 L 381,999 492,748 772,1049 836,1024 860,1049 C 881,1039 901,1025 922,1006 886,937 835,863 770,784 769,783 710,716 594,584 L 774,223 C 774,196 753,168 711,139 L 727,119 C 717,90 699,76 672,76 641,76 570,178 457,381 L 164,-76 C 142,-110 111,-127 72,-127 30,-127 9,-110 8,-76 1,-67 -2,-52 -2,-32 -2,-23 -1,-13 0,-2 Z"
   id="path26" />
  </g>
  <g
   id="bullet-char-template-10004"
   transform="scale(0.00048828125,-0.00048828125)">
   <path
   d="M 285,-33 C 182,-33 111,30 74,156 52,228 41,333 41,471 41,549 55,616 82,672 116,743 169,778 240,778 293,778 328,747 346,684 L 369,508 C 377,444 397,411 428,410 L 1163,1116 C 1174,1127 1196,1133 1229,1133 1271,1133 1292,1118 1292,1087 L 1292,965 C 1292,929 1282,901 1262,881 L 442,47 C 390,-6 338,-33 285,-33 Z"
   id="path29" />
  </g>
  <g
   id="bullet-char-template-9679"
   transform="scale(0.00048828125,-0.00048828125)">
   <path
   d="M 813,0 C 632,0 489,54 383,161 276,268 223,411 223,592 223,773 276,916 383,1023 489,1130 632,1184 813,1184 992,1184 1136,1130 1245,1023 1353,916 1407,772 1407,592 1407,412 1353,268 1245,161 1136,54 992,0 813,0 Z"
   id="path32" />
  </g>
  <g
   id="bullet-char-template-8226"
   transform="scale(0.00048828125,-0.00048828125)">
   <path
   d="M 346,457 C 273,457 209,483 155,535 101,586 74,649 74,723 74,796 101,859 155,911 209,963 273,989 346,989 419,989 480,963 531,910 582,859 608,796 608,723 608,648 583,586 532,535 482,483 420,457 346,457 Z"
   id="path35" />
  </g>
  <g
   id="bullet-char-template-8211"
   transform="scale(0.00048828125,-0.00048828125)">
   <path
   d="M -4,459 L 1135,459 1135,606 -4,606 -4,459 Z"
   id="path38" />
  </g>
  <g
   id="bullet-char-template-61548"
   transform="scale(0.00048828125,-0.00048828125)">
   <path
   d="M 173,740 C 173,903 231,1043 346,1159 462,1274 601,1332 765,1332 928,1332 1067,1274 1183,1159 1299,1043 1357,903 1357,740 1357,577 1299,437 1183,322 1067,206 928,148 765,148 601,148 462,206 346,322 231,437 173,577 173,740 Z"
   id="path41" />
  </g>
 </defs>
 <g
   id="g49">
  <g
   id="id2"
   class="Master_Slide">
   <g
   id="bg-id2"
   class="Background" />
   <g
   id="bo-id2"
   class="BackgroundObjects" />
  </g>
 </g>
 <g
   class="SlideGroup"
   id="g135"
   style="filter:url(#filter976)">
  <g
   id="g133">
   <g
   id="container-id1">
    <g
   id="id1"
   class="Slide"
   clip-path="url(#presentation_clip_path)">
     <g
   class="Page"
   id="g129">
      <g
   class="com.sun.star.drawing.PolyPolygonShape"
   id="g67">
       <g
   id="id3">
        <rect
   class="BoundingBox"
   stroke="none"
   fill="none"
   x="1388"
   y="1170"
   width="351"
   height="602"
   id="rect51" />
        <g
   id="g62">
         <defs
   id="defs58">
          <linearGradient
   id="gradient1"
   x1="1350"
   y1="1257"
   x2="1776"
   y2="1683"
   gradientUnits="userSpaceOnUse">
           <stop
   offset="0"
   style="stop-color:rgb(232,242,161)"
   id="stop53" />
           <stop
   offset="1"
   style="stop-color:rgb(18,118,34)"
   id="stop55" />
          </linearGradient>
         </defs>
         <path
   style="fill:url(#gradient1)"
   d="m 1413,1195 v 100 l 200,200 v 250 l 100,-300 z"
   id="path60" />
        </g>
        <path
   fill="none"
   stroke="#1e6a39"
   stroke-width="50"
   stroke-linejoin="round"
   d="m 1413,1195 v 100 l 200,200 v 250 l 100,-300 z"
   id="path64" />
       </g>
      </g>
      <g
   class="com.sun.star.drawing.CustomShape"
   id="g85">
       <g
   id="id4">
        <rect
   class="BoundingBox"
   stroke="none"
   fill="none"
   x="1125"
   y="825"
   width="801"
   height="1101"
   id="rect69" />
        <g
   id="g80">
         <defs
   id="defs76">
          <linearGradient
   id="gradient2"
   x1="1204"
   y1="819"
   x2="1846"
   y2="1931"
   gradientUnits="userSpaceOnUse">
           <stop
   offset="0"
   style="stop-color:rgb(238,238,238)"
   id="stop71" />
           <stop
   offset="1"
   style="stop-color:rgb(204,204,204)"
   id="stop73" />
          </linearGradient>
         </defs>
         <path
   style="fill:url(#gradient2)"
   d="M 1525,1900 H 1150 V 850 h 750 v 1050 z"
   id="path78" />
        </g>
        <path
   fill="none"
   stroke="#666666"
   stroke-width="50"
   stroke-linejoin="round"
   d="M 1525,1900 H 1150 V 850 h 750 v 1050 z"
   id="path82" />
       </g>
      </g>
      <g
   class="com.sun.star.drawing.CustomShape"
   id="g92">
       <g
   id="id5">
        <rect
   class="BoundingBox"
   stroke="none"
   fill="none"
   x="1249"
   y="973"
   width="153"
   height="152"
   id="rect87" />
        <path
   fill="#00a933"
   stroke="none"
   d="m 1401,1049 c 0,13 -3,26 -10,37 -7,12 -16,21 -28,28 -11,7 -24,10 -38,10 -13,0 -26,-3 -37,-10 -12,-7 -21,-16 -28,-28 -7,-11 -10,-24 -10,-37 0,-14 3,-27 10,-38 7,-12 16,-21 28,-28 11,-7 24,-10 37,-10 14,0 27,3 38,10 12,7 21,16 28,28 7,11 10,24 10,38 z"
   id="path89" />
       </g>
      </g>
      <g
   class="com.sun.star.drawing.LineShape"
   id="g99">
       <g
   id="id6">
        <rect
   class="BoundingBox"
   stroke="none"
   fill="none"
   x="1462"
   y="1012"
   width="377"
   height="77"
   id="rect94" />
        <path
   fill="none"
   stroke="#000000"
   stroke-width="75"
   stroke-linejoin="round"
   d="m 1500,1050 h 300"
   id="path96" />
       </g>
      </g>
      <g
   class="com.sun.star.drawing.CustomShape"
   id="g106">
       <g
   id="id7">
        <rect
   class="BoundingBox"
   stroke="none"
   fill="none"
   x="1252"
   y="1273"
   width="152"
   height="152"
   id="rect101" />
        <path
   fill="#ff0000"
   stroke="none"
   d="m 1403,1349 c 0,13 -3,26 -10,37 -7,12 -16,21 -28,28 -11,7 -24,10 -37,10 -14,0 -27,-3 -38,-10 -12,-7 -21,-16 -28,-28 -7,-11 -10,-24 -10,-37 0,-14 3,-27 10,-38 7,-12 16,-21 28,-28 11,-7 24,-10 38,-10 13,0 26,3 37,10 12,7 21,16 28,28 7,11 10,24 10,38 z"
   id="path103" />
       </g>
      </g>
      <g
   class="com.sun.star.drawing.LineShape"
   id="g113">
       <g
   id="id8">
        <rect
   class="BoundingBox"
   stroke="none"
   fill="none"
   x="1464"
   y="1312"
   width="377"
   height="77"
   id="rect108" />
        <path
   fill="none"
   stroke="#000000"
   stroke-width="75"
   stroke-linejoin="round"
   d="m 1502,1350 h 300"
   id="path110" />
       </g>
      </g>
      <g
   class="com.sun.star.drawing.CustomShape"
   id="g120">
       <g
   id="id9">
        <rect
   class="BoundingBox"
   stroke="none"
   fill="none"
   x="1255"
   y="1573"
   width="152"
   height="152"
   id="rect115" />
        <path
   fill="#729fcf"
   stroke="none"
   d="m 1406,1649 c 0,13 -3,26 -10,37 -7,12 -16,21 -28,28 -11,7 -24,10 -37,10 -14,0 -27,-3 -38,-10 -12,-7 -21,-16 -28,-28 -7,-11 -10,-24 -10,-37 0,-14 3,-27 10,-38 7,-12 16,-21 28,-28 11,-7 24,-10 38,-10 13,0 26,3 37,10 12,7 21,16 28,28 7,11 10,24 10,38 z"
   id="path117" />
       </g>
      </g>
      <g
   class="com.sun.star.drawing.LineShape"
   id="g127">
       <g
   id="id10">
        <rect
   class="BoundingBox"
   stroke="none"
   fill="none"
   x="1467"
   y="1612"
   width="377"
   height="77"
   id="rect122" />
        <path
   fill="none"
   stroke="#000000"
   stroke-width="75"
   stroke-linejoin="round"
   d="m 1505,1650 h 300"
   id="path124" />
       </g>
      </g>
     </g>
    </g>
   </g>
  </g>
 </g>
</svg>
