<?xml version="1.0" encoding="UTF-8"?>
<!DOCTYPE svg PUBLIC "-//W3C//DTD SVG 1.1//EN" "http://www.w3.org/Graphics/SVG/1.1/DTD/svg11.dtd">
<svg version="1.2" width="20mm" height="20mm" viewBox="0 0 2000 2000" preserveAspectRatio="xMidYMid" fill-rule="evenodd" stroke-width="28.222" stroke-linejoin="round" xmlns="http://www.w3.org/2000/svg" xmlns:ooo="http://xml.openoffice.org/svg/export" xmlns:xlink="http://www.w3.org/1999/xlink" xmlns:presentation="http://sun.com/xmlns/staroffice/presentation" xmlns:smil="http://www.w3.org/2001/SMIL20/" xmlns:anim="urn:oasis:names:tc:opendocument:xmlns:animation:1.0" xmlns:svg="urn:oasis:names:tc:opendocument:xmlns:svg-compatible:1.0" xml:space="preserve">
 <defs class="ClipPathGroup">
  <clipPath id="presentation_clip_path" clipPathUnits="userSpaceOnUse">
   <rect x="0" y="0" width="2000" height="2000"/>
  </clipPath>
  <clipPath id="presentation_clip_path_shrink" clipPathUnits="userSpaceOnUse">
   <rect x="2" y="2" width="1996" height="1996"/>
  </clipPath>
 </defs>
 <defs class="TextShapeIndex">
  <g ooo:slide="id1" ooo:id-list="id3 id4 id5 id6 id7 id8 id9 id10"/>
 </defs>
 <defs class="EmbeddedBulletChars">
  <g id="bullet-char-template-57356" transform="scale(0.00048828125,-0.00048828125)">
   <path d="M 580,1141 L 1163,571 580,0 -4,571 580,1141 Z"/>
  </g>
  <g id="bullet-char-template-57354" transform="scale(0.00048828125,-0.00048828125)">
   <path d="M 8,1128 L 1137,1128 1137,0 8,0 8,1128 Z"/>
  </g>
  <g id="bullet-char-template-10146" transform="scale(0.00048828125,-0.00048828125)">
   <path d="M 174,0 L 602,739 174,1481 1456,739 174,0 Z M 1358,739 L 309,1346 659,739 1358,739 Z"/>
  </g>
  <g id="bullet-char-template-10132" transform="scale(0.00048828125,-0.00048828125)">
   <path d="M 2015,739 L 1276,0 717,0 1260,543 174,543 174,936 1260,936 717,1481 1274,1481 2015,739 Z"/>
  </g>
  <g id="bullet-char-template-10007" transform="scale(0.00048828125,-0.00048828125)">
   <path d="M 0,-2 C -7,14 -16,27 -25,37 L 356,567 C 262,823 215,952 215,954 215,979 228,992 255,992 264,992 276,990 289,987 310,991 331,999 354,1012 L 381,999 492,748 772,1049 836,1024 860,1049 C 881,1039 901,1025 922,1006 886,937 835,863 770,784 769,783 710,716 594,584 L 774,223 C 774,196 753,168 711,139 L 727,119 C 717,90 699,76 672,76 641,76 570,178 457,381 L 164,-76 C 142,-110 111,-127 72,-127 30,-127 9,-110 8,-76 1,-67 -2,-52 -2,-32 -2,-23 -1,-13 0,-2 Z"/>
  </g>
  <g id="bullet-char-template-10004" transform="scale(0.00048828125,-0.00048828125)">
   <path d="M 285,-33 C 182,-33 111,30 74,156 52,228 41,333 41,471 41,549 55,616 82,672 116,743 169,778 240,778 293,778 328,747 346,684 L 369,508 C 377,444 397,411 428,410 L 1163,1116 C 1174,1127 1196,1133 1229,1133 1271,1133 1292,1118 1292,1087 L 1292,965 C 1292,929 1282,901 1262,881 L 442,47 C 390,-6 338,-33 285,-33 Z"/>
  </g>
  <g id="bullet-char-template-9679" transform="scale(0.00048828125,-0.00048828125)">
   <path d="M 813,0 C 632,0 489,54 383,161 276,268 223,411 223,592 223,773 276,916 383,1023 489,1130 632,1184 813,1184 992,1184 1136,1130 1245,1023 1353,916 1407,772 1407,592 1407,412 1353,268 1245,161 1136,54 992,0 813,0 Z"/>
  </g>
  <g id="bullet-char-template-8226" transform="scale(0.00048828125,-0.00048828125)">
   <path d="M 346,457 C 273,457 209,483 155,535 101,586 74,649 74,723 74,796 101,859 155,911 209,963 273,989 346,989 419,989 480,963 531,910 582,859 608,796 608,723 608,648 583,586 532,535 482,483 420,457 346,457 Z"/>
  </g>
  <g id="bullet-char-template-8211" transform="scale(0.00048828125,-0.00048828125)">
   <path d="M -4,459 L 1135,459 1135,606 -4,606 -4,459 Z"/>
  </g>
  <g id="bullet-char-template-61548" transform="scale(0.00048828125,-0.00048828125)">
   <path d="M 173,740 C 173,903 231,1043 346,1159 462,1274 601,1332 765,1332 928,1332 1067,1274 1183,1159 1299,1043 1357,903 1357,740 1357,577 1299,437 1183,322 1067,206 928,148 765,148 601,148 462,206 346,322 231,437 173,577 173,740 Z"/>
  </g>
 </defs>
 <g>
  <g id="id2" class="Master_Slide">
   <g id="bg-id2" class="Background"/>
   <g id="bo-id2" class="BackgroundObjects"/>
  </g>
 </g>
 <g class="SlideGroup">
  <g>
   <g id="container-id1">
    <g id="id1" class="Slide" clip-path="url(#presentation_clip_path)">
     <g class="Page">
      <g class="com.sun.star.drawing.PolyPolygonShape">
       <g id="id3">
        <rect class="BoundingBox" stroke="none" fill="none" x="175" y="1524" width="301" height="352"/>
        <path fill="rgb(175,208,149)" stroke="none" d="M 450,1850 L 200,1650 200,1550 450,1750 450,1850 Z"/>
        <path fill="none" stroke="rgb(6,154,46)" stroke-width="50" stroke-linejoin="round" d="M 450,1850 L 200,1650 200,1550 450,1750 450,1850 Z"/>
       </g>
      </g>
      <g class="com.sun.star.drawing.CustomShape">
       <g id="id4">
        <rect class="BoundingBox" stroke="none" fill="none" x="425" y="325" width="1401" height="1551"/>
        <path fill="rgb(175,208,149)" stroke="none" d="M 1125,1850 L 450,1850 450,350 1800,350 1800,1850 1125,1850 Z"/>
        <path fill="none" stroke="rgb(6,154,46)" stroke-width="50" stroke-linejoin="round" d="M 1125,1850 L 450,1850 450,350 1800,350 1800,1850 1125,1850 Z"/>
       </g>
      </g>
      <g class="com.sun.star.drawing.PolyPolygonShape">
       <g id="id5">
        <rect class="BoundingBox" stroke="none" fill="none" x="195" y="1595" width="1561" height="211"/>
        <path fill="rgb(255,255,255)" stroke="none" d="M 1500,1600 L 1750,1800 450,1800 200,1600 1500,1600 Z"/>
        <path fill="none" stroke="rgb(153,153,153)" stroke-width="10" stroke-linejoin="round" d="M 1500,1600 L 1750,1800 450,1800 200,1600 1500,1600 Z"/>
       </g>
      </g>
      <g class="com.sun.star.drawing.PolyPolygonShape">
       <g id="id6">
        <rect class="BoundingBox" stroke="none" fill="none" x="1494" y="195" width="262" height="1611"/>
        <path fill="rgb(255,255,255)" stroke="none" d="M 1500,1600 L 1750,1800 1750,400 1500,200 1500,1600 Z"/>
        <path fill="none" stroke="rgb(153,153,153)" stroke-width="10" stroke-linejoin="round" d="M 1500,1600 L 1750,1800 1750,400 1500,200 1500,1600 Z"/>
       </g>
      </g>
      <g class="com.sun.star.drawing.CustomShape">
       <g id="id7">
        <rect class="BoundingBox" stroke="none" fill="none" x="175" y="125" width="1401" height="1551"/>
        <path fill="rgb(175,208,149)" stroke="none" d="M 875,1650 L 200,1650 200,150 1550,150 1550,1650 875,1650 Z"/>
        <path fill="none" stroke="rgb(6,154,46)" stroke-width="50" stroke-linejoin="round" d="M 875,1650 L 200,1650 200,150 1550,150 1550,1650 875,1650 Z"/>
       </g>
      </g>
      <g class="com.sun.star.drawing.CustomShape">
       <g id="id8">
        <rect class="BoundingBox" stroke="none" fill="none" x="373" y="681" width="995" height="476"/>
        <path fill="rgb(77,77,77)" stroke="none" d="M 636,751 L 549,976 722,976 636,751 Z M 586,699 L 685,699 872,1138 786,1138 742,1024 529,1024 485,1138 400,1138 586,699 Z M 1037,928 L 1037,1089 1134,1089 1151,1089 1167,1088 1182,1087 1196,1084 1207,1082 1213,1081 1219,1079 1223,1077 1228,1075 1232,1073 1237,1071 1240,1068 1244,1066 1247,1063 1250,1060 1252,1057 1256,1054 1258,1050 1260,1047 1261,1043 1263,1039 1265,1030 1267,1021 1267,1011 1267,1001 1265,992 1263,982 1261,978 1259,974 1257,970 1255,966 1251,963 1249,960 1246,957 1242,954 1239,950 1235,948 1230,946 1226,944 1221,941 1217,939 1211,938 1205,936 1193,933 1181,931 1166,929 1151,928 1134,928 1037,928 Z M 1037,747 L 1037,880 1132,880 1147,880 1160,879 1172,877 1184,875 1194,873 1199,872 1203,871 1207,868 1211,867 1216,865 1219,863 1222,861 1225,858 1228,856 1230,854 1232,851 1235,848 1237,845 1239,842 1240,838 1242,835 1243,827 1245,819 1245,810 1245,802 1243,794 1242,788 1240,785 1239,781 1237,778 1235,775 1232,773 1230,770 1228,768 1225,765 1222,764 1219,762 1216,760 1211,759 1208,757 1204,756 1194,753 1184,751 1172,750 1161,748 1147,747 1132,747 1037,747 Z M 954,699 L 1134,699 1157,699 1179,700 1199,702 1217,706 1233,710 1250,715 1258,718 1264,721 1271,724 1278,727 1284,731 1289,735 1295,740 1300,743 1304,748 1308,753 1313,758 1316,763 1319,768 1321,773 1323,779 1325,785 1326,791 1327,797 1328,810 1328,820 1326,829 1325,838 1322,846 1318,854 1316,858 1314,861 1311,864 1308,867 1305,871 1302,874 1299,877 1295,879 1291,882 1287,884 1278,888 1268,893 1259,896 1247,899 1235,901 1222,903 1237,905 1250,907 1263,911 1276,915 1286,920 1297,926 1307,933 1316,940 1324,947 1330,956 1337,965 1341,974 1345,984 1347,995 1349,1006 1349,1017 1348,1032 1346,1046 1344,1052 1342,1058 1339,1064 1336,1069 1333,1075 1328,1081 1324,1085 1319,1090 1314,1095 1308,1099 1302,1103 1296,1107 1288,1111 1281,1114 1274,1118 1265,1121 1248,1126 1228,1130 1207,1133 1185,1136 1161,1137 1134,1138 954,1138 954,699 Z"/>
        <path fill="none" stroke="rgb(77,77,77)" stroke-width="35" stroke-linejoin="miter" d="M 636,751 L 549,976 722,976 636,751 Z"/>
        <path fill="none" stroke="rgb(77,77,77)" stroke-width="35" stroke-linejoin="miter" d="M 586,699 L 685,699 872,1138 786,1138 742,1024 529,1024 485,1138 400,1138 586,699 Z"/>
        <path fill="none" stroke="rgb(77,77,77)" stroke-width="35" stroke-linejoin="miter" d="M 1037,928 L 1037,1089 1134,1089 1151,1089 1167,1088 1182,1087 1196,1084 1207,1082 1213,1081 1219,1079 1223,1077 1228,1075 1232,1073 1237,1071 1240,1068 1244,1066 1247,1063 1250,1060 1252,1057 1256,1054 1258,1050 1260,1047 1261,1043 1263,1039 1265,1030 1267,1021 1267,1011 1267,1001 1265,992 1263,982 1261,978 1259,974 1257,970 1255,966 1251,963 1249,960 1246,957 1242,954 1239,950 1235,948 1230,946 1226,944 1221,941 1217,939 1211,938 1205,936 1193,933 1181,931 1166,929 1151,928 1134,928 1037,928 Z"/>
        <path fill="none" stroke="rgb(77,77,77)" stroke-width="35" stroke-linejoin="miter" d="M 1037,747 L 1037,880 1132,880 1147,880 1160,879 1172,877 1184,875 1194,873 1199,872 1203,871 1207,868 1211,867 1216,865 1219,863 1222,861 1225,858 1228,856 1230,854 1232,851 1235,848 1237,845 1239,842 1240,838 1242,835 1243,827 1245,819 1245,810 1245,802 1243,794 1242,788 1240,785 1239,781 1237,778 1235,775 1232,773 1230,770 1228,768 1225,765 1222,764 1219,762 1216,760 1211,759 1208,757 1204,756 1194,753 1184,751 1172,750 1161,748 1147,747 1132,747 1037,747 Z"/>
        <path fill="none" stroke="rgb(77,77,77)" stroke-width="35" stroke-linejoin="miter" d="M 954,699 L 1134,699 1157,699 1179,700 1199,702 1217,706 1233,710 1250,715 1258,718 1264,721 1271,724 1278,727 1284,731 1289,735 1295,740 1300,743 1304,748 1308,753 1313,758 1316,763 1319,768 1321,773 1323,779 1325,785 1326,791 1327,797 1328,810 1328,820 1326,829 1325,838 1322,846 1318,854 1316,858 1314,861 1311,864 1308,867 1305,871 1302,874 1299,877 1295,879 1291,882 1287,884 1278,888 1268,893 1259,896 1247,899 1235,901 1222,903 1237,905 1250,907 1263,911 1276,915 1286,920 1297,926 1307,933 1316,940 1324,947 1330,956 1337,965 1341,974 1345,984 1347,995 1349,1006 1349,1017 1348,1032 1346,1046 1344,1052 1342,1058 1339,1064 1336,1069 1333,1075 1328,1081 1324,1085 1319,1090 1314,1095 1308,1099 1302,1103 1296,1107 1288,1111 1281,1114 1274,1118 1265,1121 1248,1126 1228,1130 1207,1133 1185,1136 1161,1137 1134,1138 954,1138 954,699 Z"/>
       </g>
      </g>
      <g class="com.sun.star.drawing.PolyPolygonShape">
       <g id="id9">
        <rect class="BoundingBox" stroke="none" fill="none" x="596" y="1252" width="587" height="294"/>
        <path fill="rgb(77,77,77)" stroke="none" d="M 689,1270 L 1139,1270 889,1520 639,1270 689,1270 Z"/>
        <path fill="none" stroke="rgb(77,77,77)" stroke-width="35" stroke-linejoin="miter" d="M 689,1270 L 1139,1270 889,1520 639,1270 689,1270 Z"/>
       </g>
      </g>
      <g class="com.sun.star.drawing.PolyPolygonShape">
       <g id="id10">
        <rect class="BoundingBox" stroke="none" fill="none" x="596" y="300" width="587" height="294"/>
        <path fill="rgb(77,77,77)" stroke="none" d="M 689,575 L 1139,575 889,325 639,575 689,575 Z"/>
        <path fill="none" stroke="rgb(77,77,77)" stroke-width="35" stroke-linejoin="miter" d="M 689,575 L 1139,575 889,325 639,575 689,575 Z"/>
       </g>
      </g>
     </g>
    </g>
   </g>
  </g>
 </g>
</svg>