<?xml version="1.0" encoding="UTF-8"?>
<!DOCTYPE svg PUBLIC "-//W3C//DTD SVG 1.1//EN" "http://www.w3.org/Graphics/SVG/1.1/DTD/svg11.dtd">
<svg version="1.2" width="20mm" height="20mm" viewBox="0 0 2000 2000" preserveAspectRatio="xMidYMid" fill-rule="evenodd" stroke-width="28.222" stroke-linejoin="round" xmlns="http://www.w3.org/2000/svg" xmlns:ooo="http://xml.openoffice.org/svg/export" xmlns:xlink="http://www.w3.org/1999/xlink" xmlns:presentation="http://sun.com/xmlns/staroffice/presentation" xmlns:smil="http://www.w3.org/2001/SMIL20/" xmlns:anim="urn:oasis:names:tc:opendocument:xmlns:animation:1.0" xmlns:svg="urn:oasis:names:tc:opendocument:xmlns:svg-compatible:1.0" xml:space="preserve">
 <defs class="ClipPathGroup">
  <clipPath id="presentation_clip_path" clipPathUnits="userSpaceOnUse">
   <rect x="0" y="0" width="2000" height="2000"/>
  </clipPath>
  <clipPath id="presentation_clip_path_shrink" clipPathUnits="userSpaceOnUse">
   <rect x="2" y="2" width="1996" height="1996"/>
  </clipPath>
 </defs>
 <defs class="TextShapeIndex">
  <g ooo:slide="id1" ooo:id-list="id3 id4 id5 id6 id7"/>
 </defs>
 <defs class="EmbeddedBulletChars">
  <g id="bullet-char-template-57356" transform="scale(0.00048828125,-0.00048828125)">
   <path d="M 580,1141 L 1163,571 580,0 -4,571 580,1141 Z"/>
  </g>
  <g id="bullet-char-template-57354" transform="scale(0.00048828125,-0.00048828125)">
   <path d="M 8,1128 L 1137,1128 1137,0 8,0 8,1128 Z"/>
  </g>
  <g id="bullet-char-template-10146" transform="scale(0.00048828125,-0.00048828125)">
   <path d="M 174,0 L 602,739 174,1481 1456,739 174,0 Z M 1358,739 L 309,1346 659,739 1358,739 Z"/>
  </g>
  <g id="bullet-char-template-10132" transform="scale(0.00048828125,-0.00048828125)">
   <path d="M 2015,739 L 1276,0 717,0 1260,543 174,543 174,936 1260,936 717,1481 1274,1481 2015,739 Z"/>
  </g>
  <g id="bullet-char-template-10007" transform="scale(0.00048828125,-0.00048828125)">
   <path d="M 0,-2 C -7,14 -16,27 -25,37 L 356,567 C 262,823 215,952 215,954 215,979 228,992 255,992 264,992 276,990 289,987 310,991 331,999 354,1012 L 381,999 492,748 772,1049 836,1024 860,1049 C 881,1039 901,1025 922,1006 886,937 835,863 770,784 769,783 710,716 594,584 L 774,223 C 774,196 753,168 711,139 L 727,119 C 717,90 699,76 672,76 641,76 570,178 457,381 L 164,-76 C 142,-110 111,-127 72,-127 30,-127 9,-110 8,-76 1,-67 -2,-52 -2,-32 -2,-23 -1,-13 0,-2 Z"/>
  </g>
  <g id="bullet-char-template-10004" transform="scale(0.00048828125,-0.00048828125)">
   <path d="M 285,-33 C 182,-33 111,30 74,156 52,228 41,333 41,471 41,549 55,616 82,672 116,743 169,778 240,778 293,778 328,747 346,684 L 369,508 C 377,444 397,411 428,410 L 1163,1116 C 1174,1127 1196,1133 1229,1133 1271,1133 1292,1118 1292,1087 L 1292,965 C 1292,929 1282,901 1262,881 L 442,47 C 390,-6 338,-33 285,-33 Z"/>
  </g>
  <g id="bullet-char-template-9679" transform="scale(0.00048828125,-0.00048828125)">
   <path d="M 813,0 C 632,0 489,54 383,161 276,268 223,411 223,592 223,773 276,916 383,1023 489,1130 632,1184 813,1184 992,1184 1136,1130 1245,1023 1353,916 1407,772 1407,592 1407,412 1353,268 1245,161 1136,54 992,0 813,0 Z"/>
  </g>
  <g id="bullet-char-template-8226" transform="scale(0.00048828125,-0.00048828125)">
   <path d="M 346,457 C 273,457 209,483 155,535 101,586 74,649 74,723 74,796 101,859 155,911 209,963 273,989 346,989 419,989 480,963 531,910 582,859 608,796 608,723 608,648 583,586 532,535 482,483 420,457 346,457 Z"/>
  </g>
  <g id="bullet-char-template-8211" transform="scale(0.00048828125,-0.00048828125)">
   <path d="M -4,459 L 1135,459 1135,606 -4,606 -4,459 Z"/>
  </g>
  <g id="bullet-char-template-61548" transform="scale(0.00048828125,-0.00048828125)">
   <path d="M 173,740 C 173,903 231,1043 346,1159 462,1274 601,1332 765,1332 928,1332 1067,1274 1183,1159 1299,1043 1357,903 1357,740 1357,577 1299,437 1183,322 1067,206 928,148 765,148 601,148 462,206 346,322 231,437 173,577 173,740 Z"/>
  </g>
 </defs>
 <g>
  <g id="id2" class="Master_Slide">
   <g id="bg-id2" class="Background"/>
   <g id="bo-id2" class="BackgroundObjects"/>
  </g>
 </g>
 <g class="SlideGroup">
  <g>
   <g id="container-id1">
    <g id="id1" class="Slide" clip-path="url(#presentation_clip_path)">
     <g class="Page">
      <g class="com.sun.star.drawing.PolyPolygonShape">
       <g id="id3">
        <rect class="BoundingBox" stroke="none" fill="none" x="1250" y="1158" width="351" height="602"/>
        <g>
         <defs>
          <linearGradient id="gradient1" x1="1212" y1="1245" x2="1638" y2="1671" gradientUnits="userSpaceOnUse">
           <stop offset="0" style="stop-color:rgb(232,242,161)"/>
           <stop offset="1" style="stop-color:rgb(18,118,34)"/>
          </linearGradient>
         </defs>
         <path style="fill:url(#gradient1)" d="M 1275,1183 L 1275,1283 1475,1483 1475,1733 1575,1433 1275,1183 Z"/>
        </g>
        <path fill="none" stroke="rgb(30,106,57)" stroke-width="50" stroke-linejoin="round" d="M 1275,1183 L 1275,1283 1475,1483 1475,1733 1575,1433 1275,1183 Z"/>
       </g>
      </g>
      <g class="com.sun.star.drawing.CustomShape">
       <g id="id4">
        <rect class="BoundingBox" stroke="none" fill="none" x="237" y="63" width="1551" height="1851"/>
        <g>
         <defs>
          <linearGradient id="gradient2" x1="435" y1="-12" x2="1590" y2="1988" gradientUnits="userSpaceOnUse">
           <stop offset="0" style="stop-color:rgb(238,238,238)"/>
           <stop offset="1" style="stop-color:rgb(204,204,204)"/>
          </linearGradient>
         </defs>
         <path style="fill:url(#gradient2)" d="M 1012,1888 L 262,1888 262,88 1762,88 1762,1888 1012,1888 Z"/>
        </g>
        <path fill="none" stroke="rgb(102,102,102)" stroke-width="50" stroke-linejoin="round" d="M 1012,1888 L 262,1888 262,88 1762,88 1762,1888 1012,1888 Z"/>
       </g>
      </g>
      <g class="com.sun.star.drawing.CustomShape">
       <g id="id5">
        <rect class="BoundingBox" stroke="none" fill="none" x="336" y="673" width="1320" height="626"/>
        <path fill="rgb(77,77,77)" stroke="none" d="M 679,761 L 562,1062 795,1062 679,761 Z M 612,691 L 746,691 996,1280 881,1280 821,1126 535,1126 476,1280 363,1280 612,691 Z M 1218,998 L 1218,1214 1349,1214 1371,1213 1393,1213 1413,1210 1431,1208 1447,1204 1461,1200 1469,1198 1475,1196 1481,1193 1486,1190 1491,1187 1495,1183 1500,1179 1504,1176 1508,1171 1512,1168 1514,1162 1517,1158 1519,1153 1521,1147 1525,1136 1526,1123 1527,1110 1526,1096 1524,1083 1521,1071 1519,1066 1517,1060 1514,1055 1511,1050 1507,1046 1502,1041 1498,1037 1494,1033 1489,1029 1484,1026 1479,1022 1473,1019 1467,1016 1459,1014 1452,1011 1445,1009 1429,1005 1411,1002 1392,1000 1371,999 1349,998 1218,998 Z M 1218,756 L 1218,933 1347,933 1366,933 1384,932 1400,930 1415,928 1429,925 1436,923 1442,921 1447,919 1452,916 1457,914 1463,911 1467,908 1471,905 1475,902 1478,899 1481,895 1484,891 1487,887 1489,882 1491,878 1493,873 1496,863 1497,852 1498,840 1497,829 1496,819 1495,815 1493,810 1491,806 1489,801 1487,798 1484,794 1481,790 1478,786 1475,784 1471,781 1467,778 1463,775 1458,773 1453,771 1447,769 1442,767 1430,764 1415,761 1401,759 1384,758 1366,756 1347,756 1218,756 Z M 1107,691 L 1349,691 1380,691 1407,693 1434,696 1459,700 1482,706 1503,713 1514,716 1523,721 1532,725 1541,730 1549,735 1558,740 1565,745 1571,751 1577,757 1583,764 1588,770 1592,777 1597,784 1601,791 1603,798 1606,806 1608,815 1609,823 1610,840 1609,854 1608,866 1605,877 1601,888 1596,899 1589,908 1586,913 1582,917 1578,922 1574,925 1569,929 1565,933 1560,936 1554,939 1542,945 1529,950 1515,956 1500,959 1484,962 1467,964 1486,967 1504,971 1522,976 1538,981 1554,988 1561,992 1568,995 1574,1000 1580,1004 1592,1014 1603,1024 1612,1036 1620,1048 1626,1060 1631,1074 1634,1088 1636,1103 1637,1118 1636,1137 1633,1156 1630,1164 1627,1173 1624,1181 1620,1188 1615,1196 1610,1203 1604,1210 1597,1216 1589,1222 1582,1228 1574,1234 1565,1239 1556,1244 1545,1249 1535,1253 1524,1257 1500,1264 1475,1269 1446,1274 1416,1278 1384,1279 1349,1280 1107,1280 1107,691 Z"/>
        <path fill="none" stroke="rgb(77,77,77)" stroke-width="35" stroke-linejoin="miter" d="M 679,761 L 562,1062 795,1062 679,761 Z"/>
        <path fill="none" stroke="rgb(77,77,77)" stroke-width="35" stroke-linejoin="miter" d="M 612,691 L 746,691 996,1280 881,1280 821,1126 535,1126 476,1280 363,1280 612,691 Z"/>
        <path fill="none" stroke="rgb(77,77,77)" stroke-width="35" stroke-linejoin="miter" d="M 1218,998 L 1218,1214 1349,1214 1371,1213 1393,1213 1413,1210 1431,1208 1447,1204 1461,1200 1469,1198 1475,1196 1481,1193 1486,1190 1491,1187 1495,1183 1500,1179 1504,1176 1508,1171 1512,1168 1514,1162 1517,1158 1519,1153 1521,1147 1525,1136 1526,1123 1527,1110 1526,1096 1524,1083 1521,1071 1519,1066 1517,1060 1514,1055 1511,1050 1507,1046 1502,1041 1498,1037 1494,1033 1489,1029 1484,1026 1479,1022 1473,1019 1467,1016 1459,1014 1452,1011 1445,1009 1429,1005 1411,1002 1392,1000 1371,999 1349,998 1218,998 Z"/>
        <path fill="none" stroke="rgb(77,77,77)" stroke-width="35" stroke-linejoin="miter" d="M 1218,756 L 1218,933 1347,933 1366,933 1384,932 1400,930 1415,928 1429,925 1436,923 1442,921 1447,919 1452,916 1457,914 1463,911 1467,908 1471,905 1475,902 1478,899 1481,895 1484,891 1487,887 1489,882 1491,878 1493,873 1496,863 1497,852 1498,840 1497,829 1496,819 1495,815 1493,810 1491,806 1489,801 1487,798 1484,794 1481,790 1478,786 1475,784 1471,781 1467,778 1463,775 1458,773 1453,771 1447,769 1442,767 1430,764 1415,761 1401,759 1384,758 1366,756 1347,756 1218,756 Z"/>
        <path fill="none" stroke="rgb(77,77,77)" stroke-width="35" stroke-linejoin="miter" d="M 1107,691 L 1349,691 1380,691 1407,693 1434,696 1459,700 1482,706 1503,713 1514,716 1523,721 1532,725 1541,730 1549,735 1558,740 1565,745 1571,751 1577,757 1583,764 1588,770 1592,777 1597,784 1601,791 1603,798 1606,806 1608,815 1609,823 1610,840 1609,854 1608,866 1605,877 1601,888 1596,899 1589,908 1586,913 1582,917 1578,922 1574,925 1569,929 1565,933 1560,936 1554,939 1542,945 1529,950 1515,956 1500,959 1484,962 1467,964 1486,967 1504,971 1522,976 1538,981 1554,988 1561,992 1568,995 1574,1000 1580,1004 1592,1014 1603,1024 1612,1036 1620,1048 1626,1060 1631,1074 1634,1088 1636,1103 1637,1118 1636,1137 1633,1156 1630,1164 1627,1173 1624,1181 1620,1188 1615,1196 1610,1203 1604,1210 1597,1216 1589,1222 1582,1228 1574,1234 1565,1239 1556,1244 1545,1249 1535,1253 1524,1257 1500,1264 1475,1269 1446,1274 1416,1278 1384,1279 1349,1280 1107,1280 1107,691 Z"/>
       </g>
      </g>
      <g class="com.sun.star.drawing.PolyPolygonShape">
       <g id="id6">
        <rect class="BoundingBox" stroke="none" fill="none" x="642" y="1439" width="758" height="380"/>
        <path fill="rgb(77,77,77)" stroke="none" d="M 752,1457 L 1356,1457 1020,1793 685,1457 752,1457 Z"/>
        <path fill="none" stroke="rgb(77,77,77)" stroke-width="35" stroke-linejoin="miter" d="M 752,1457 L 1356,1457 1020,1793 685,1457 752,1457 Z"/>
       </g>
      </g>
      <g class="com.sun.star.drawing.PolyPolygonShape">
       <g id="id7">
        <rect class="BoundingBox" stroke="none" fill="none" x="642" y="164" width="758" height="380"/>
        <path fill="rgb(77,77,77)" stroke="none" d="M 752,525 L 1356,525 1020,189 685,525 752,525 Z"/>
        <path fill="none" stroke="rgb(77,77,77)" stroke-width="35" stroke-linejoin="miter" d="M 752,525 L 1356,525 1020,189 685,525 752,525 Z"/>
       </g>
      </g>
     </g>
    </g>
   </g>
  </g>
 </g>
</svg>