<?xml version="1.0" encoding="UTF-8"?>
<!DOCTYPE svg PUBLIC "-//W3C//DTD SVG 1.1//EN" "http://www.w3.org/Graphics/SVG/1.1/DTD/svg11.dtd">
<svg version="1.2" width="20mm" height="20mm" viewBox="0 0 2000 2000" preserveAspectRatio="xMidYMid" fill-rule="evenodd" stroke-width="28.222" stroke-linejoin="round" xmlns="http://www.w3.org/2000/svg" xmlns:ooo="http://xml.openoffice.org/svg/export" xmlns:xlink="http://www.w3.org/1999/xlink" xmlns:presentation="http://sun.com/xmlns/staroffice/presentation" xmlns:smil="http://www.w3.org/2001/SMIL20/" xmlns:anim="urn:oasis:names:tc:opendocument:xmlns:animation:1.0" xmlns:svg="urn:oasis:names:tc:opendocument:xmlns:svg-compatible:1.0" xml:space="preserve">
 <defs class="ClipPathGroup">
  <clipPath id="presentation_clip_path" clipPathUnits="userSpaceOnUse">
   <rect x="0" y="0" width="2000" height="2000"/>
  </clipPath>
  <clipPath id="presentation_clip_path_shrink" clipPathUnits="userSpaceOnUse">
   <rect x="2" y="2" width="1996" height="1996"/>
  </clipPath>
 </defs>
 <defs class="TextShapeIndex">
  <g ooo:slide="id1" ooo:id-list="id3 id4 id5 id6 id7 id8 id9 id10 id11 id12 id13 id14 id15 id16 id17 id18 id19 id20 id21 id22 id23"/>
 </defs>
 <defs class="EmbeddedBulletChars">
  <g id="bullet-char-template-57356" transform="scale(0.00048828125,-0.00048828125)">
   <path d="M 580,1141 L 1163,571 580,0 -4,571 580,1141 Z"/>
  </g>
  <g id="bullet-char-template-57354" transform="scale(0.00048828125,-0.00048828125)">
   <path d="M 8,1128 L 1137,1128 1137,0 8,0 8,1128 Z"/>
  </g>
  <g id="bullet-char-template-10146" transform="scale(0.00048828125,-0.00048828125)">
   <path d="M 174,0 L 602,739 174,1481 1456,739 174,0 Z M 1358,739 L 309,1346 659,739 1358,739 Z"/>
  </g>
  <g id="bullet-char-template-10132" transform="scale(0.00048828125,-0.00048828125)">
   <path d="M 2015,739 L 1276,0 717,0 1260,543 174,543 174,936 1260,936 717,1481 1274,1481 2015,739 Z"/>
  </g>
  <g id="bullet-char-template-10007" transform="scale(0.00048828125,-0.00048828125)">
   <path d="M 0,-2 C -7,14 -16,27 -25,37 L 356,567 C 262,823 215,952 215,954 215,979 228,992 255,992 264,992 276,990 289,987 310,991 331,999 354,1012 L 381,999 492,748 772,1049 836,1024 860,1049 C 881,1039 901,1025 922,1006 886,937 835,863 770,784 769,783 710,716 594,584 L 774,223 C 774,196 753,168 711,139 L 727,119 C 717,90 699,76 672,76 641,76 570,178 457,381 L 164,-76 C 142,-110 111,-127 72,-127 30,-127 9,-110 8,-76 1,-67 -2,-52 -2,-32 -2,-23 -1,-13 0,-2 Z"/>
  </g>
  <g id="bullet-char-template-10004" transform="scale(0.00048828125,-0.00048828125)">
   <path d="M 285,-33 C 182,-33 111,30 74,156 52,228 41,333 41,471 41,549 55,616 82,672 116,743 169,778 240,778 293,778 328,747 346,684 L 369,508 C 377,444 397,411 428,410 L 1163,1116 C 1174,1127 1196,1133 1229,1133 1271,1133 1292,1118 1292,1087 L 1292,965 C 1292,929 1282,901 1262,881 L 442,47 C 390,-6 338,-33 285,-33 Z"/>
  </g>
  <g id="bullet-char-template-9679" transform="scale(0.00048828125,-0.00048828125)">
   <path d="M 813,0 C 632,0 489,54 383,161 276,268 223,411 223,592 223,773 276,916 383,1023 489,1130 632,1184 813,1184 992,1184 1136,1130 1245,1023 1353,916 1407,772 1407,592 1407,412 1353,268 1245,161 1136,54 992,0 813,0 Z"/>
  </g>
  <g id="bullet-char-template-8226" transform="scale(0.00048828125,-0.00048828125)">
   <path d="M 346,457 C 273,457 209,483 155,535 101,586 74,649 74,723 74,796 101,859 155,911 209,963 273,989 346,989 419,989 480,963 531,910 582,859 608,796 608,723 608,648 583,586 532,535 482,483 420,457 346,457 Z"/>
  </g>
  <g id="bullet-char-template-8211" transform="scale(0.00048828125,-0.00048828125)">
   <path d="M -4,459 L 1135,459 1135,606 -4,606 -4,459 Z"/>
  </g>
  <g id="bullet-char-template-61548" transform="scale(0.00048828125,-0.00048828125)">
   <path d="M 173,740 C 173,903 231,1043 346,1159 462,1274 601,1332 765,1332 928,1332 1067,1274 1183,1159 1299,1043 1357,903 1357,740 1357,577 1299,437 1183,322 1067,206 928,148 765,148 601,148 462,206 346,322 231,437 173,577 173,740 Z"/>
  </g>
 </defs>
 <g>
  <g id="id2" class="Master_Slide">
   <g id="bg-id2" class="Background"/>
   <g id="bo-id2" class="BackgroundObjects"/>
  </g>
 </g>
 <g class="SlideGroup">
  <g>
   <g id="container-id1">
    <g id="id1" class="Slide" clip-path="url(#presentation_clip_path)">
     <g class="Page">
      <g class="Group">
       <g class="com.sun.star.drawing.CustomShape">
        <g id="id3">
         <rect class="BoundingBox" stroke="none" fill="none" x="746" y="99" width="515" height="334"/>
         <path fill="rgb(114,159,207)" stroke="none" d="M 1003,412 L 766,412 766,119 1240,119 1240,412 1003,412 Z"/>
         <path fill="none" stroke="rgb(128,128,128)" stroke-width="40" stroke-linejoin="round" stroke-linecap="square" d="M 1003,412 L 766,412 766,119 1240,119 1240,412 1003,412 Z"/>
        </g>
       </g>
       <g class="com.sun.star.drawing.CustomShape">
        <g id="id4">
         <rect class="BoundingBox" stroke="none" fill="none" x="746" y="396" width="515" height="334"/>
         <path fill="rgb(238,238,238)" stroke="none" d="M 1003,709 L 766,709 766,416 1240,416 1240,709 1003,709 Z"/>
         <path fill="none" stroke="rgb(128,128,128)" stroke-width="40" stroke-linejoin="round" stroke-linecap="square" d="M 1003,709 L 766,709 766,416 1240,416 1240,709 1003,709 Z"/>
        </g>
       </g>
       <g class="com.sun.star.drawing.CustomShape">
        <g id="id5">
         <rect class="BoundingBox" stroke="none" fill="none" x="745" y="690" width="515" height="334"/>
         <path fill="rgb(238,238,238)" stroke="none" d="M 1002,1003 L 765,1003 765,710 1239,710 1239,1003 1002,1003 Z"/>
         <path fill="none" stroke="rgb(128,128,128)" stroke-width="40" stroke-linejoin="round" stroke-linecap="square" d="M 1002,1003 L 765,1003 765,710 1239,710 1239,1003 1002,1003 Z"/>
        </g>
       </g>
       <g class="com.sun.star.drawing.CustomShape">
        <g id="id6">
         <rect class="BoundingBox" stroke="none" fill="none" x="745" y="984" width="515" height="334"/>
         <path fill="rgb(238,238,238)" stroke="none" d="M 1002,1297 L 765,1297 765,1004 1239,1004 1239,1297 1002,1297 Z"/>
         <path fill="none" stroke="rgb(128,128,128)" stroke-width="40" stroke-linejoin="round" stroke-linecap="square" d="M 1002,1297 L 765,1297 765,1004 1239,1004 1239,1297 1002,1297 Z"/>
        </g>
       </g>
       <g class="com.sun.star.drawing.CustomShape">
        <g id="id7">
         <rect class="BoundingBox" stroke="none" fill="none" x="745" y="1275" width="515" height="334"/>
         <path fill="rgb(238,238,238)" stroke="none" d="M 1002,1588 L 765,1588 765,1295 1239,1295 1239,1588 1002,1588 Z"/>
         <path fill="none" stroke="rgb(128,128,128)" stroke-width="40" stroke-linejoin="round" stroke-linecap="square" d="M 1002,1588 L 765,1588 765,1295 1239,1295 1239,1588 1002,1588 Z"/>
        </g>
       </g>
       <g class="com.sun.star.drawing.CustomShape">
        <g id="id8">
         <rect class="BoundingBox" stroke="none" fill="none" x="745" y="1568" width="515" height="334"/>
         <path fill="rgb(238,238,238)" stroke="none" d="M 1002,1881 L 765,1881 765,1588 1239,1588 1239,1881 1002,1881 Z"/>
         <path fill="none" stroke="rgb(128,128,128)" stroke-width="40" stroke-linejoin="round" stroke-linecap="square" d="M 1002,1881 L 765,1881 765,1588 1239,1588 1239,1881 1002,1881 Z"/>
        </g>
       </g>
       <g class="com.sun.star.drawing.CustomShape">
        <g id="id9">
         <rect class="BoundingBox" stroke="none" fill="none" x="706" y="62" width="587" height="1877"/>
         <path fill="none" stroke="rgb(5,0,255)" stroke-width="75" stroke-linejoin="round" d="M 999,1900 L 744,1900 744,100 1254,100 1254,1900 999,1900 Z"/>
        </g>
       </g>
      </g>
      <g class="Group">
       <g class="com.sun.star.drawing.CustomShape">
        <g id="id10">
         <rect class="BoundingBox" stroke="none" fill="none" x="101" y="99" width="515" height="334"/>
         <path fill="rgb(114,159,207)" stroke="none" d="M 358,412 L 121,412 121,119 595,119 595,412 358,412 Z"/>
         <path fill="none" stroke="rgb(128,128,128)" stroke-width="40" stroke-linejoin="round" stroke-linecap="square" d="M 358,412 L 121,412 121,119 595,119 595,412 358,412 Z"/>
        </g>
       </g>
       <g class="com.sun.star.drawing.CustomShape">
        <g id="id11">
         <rect class="BoundingBox" stroke="none" fill="none" x="101" y="396" width="515" height="334"/>
         <path fill="rgb(238,238,238)" stroke="none" d="M 358,709 L 121,709 121,416 595,416 595,709 358,709 Z"/>
         <path fill="none" stroke="rgb(128,128,128)" stroke-width="40" stroke-linejoin="round" stroke-linecap="square" d="M 358,709 L 121,709 121,416 595,416 595,709 358,709 Z"/>
        </g>
       </g>
       <g class="com.sun.star.drawing.CustomShape">
        <g id="id12">
         <rect class="BoundingBox" stroke="none" fill="none" x="100" y="690" width="515" height="334"/>
         <path fill="rgb(238,238,238)" stroke="none" d="M 357,1003 L 120,1003 120,710 594,710 594,1003 357,1003 Z"/>
         <path fill="none" stroke="rgb(128,128,128)" stroke-width="40" stroke-linejoin="round" stroke-linecap="square" d="M 357,1003 L 120,1003 120,710 594,710 594,1003 357,1003 Z"/>
        </g>
       </g>
       <g class="com.sun.star.drawing.CustomShape">
        <g id="id13">
         <rect class="BoundingBox" stroke="none" fill="none" x="100" y="984" width="515" height="334"/>
         <path fill="rgb(238,238,238)" stroke="none" d="M 357,1297 L 120,1297 120,1004 594,1004 594,1297 357,1297 Z"/>
         <path fill="none" stroke="rgb(128,128,128)" stroke-width="40" stroke-linejoin="round" stroke-linecap="square" d="M 357,1297 L 120,1297 120,1004 594,1004 594,1297 357,1297 Z"/>
        </g>
       </g>
       <g class="com.sun.star.drawing.CustomShape">
        <g id="id14">
         <rect class="BoundingBox" stroke="none" fill="none" x="100" y="1275" width="515" height="334"/>
         <path fill="rgb(238,238,238)" stroke="none" d="M 357,1588 L 120,1588 120,1295 594,1295 594,1588 357,1588 Z"/>
         <path fill="none" stroke="rgb(128,128,128)" stroke-width="40" stroke-linejoin="round" stroke-linecap="square" d="M 357,1588 L 120,1588 120,1295 594,1295 594,1588 357,1588 Z"/>
        </g>
       </g>
       <g class="com.sun.star.drawing.CustomShape">
        <g id="id15">
         <rect class="BoundingBox" stroke="none" fill="none" x="100" y="1568" width="515" height="334"/>
         <path fill="rgb(238,238,238)" stroke="none" d="M 357,1881 L 120,1881 120,1588 594,1588 594,1881 357,1881 Z"/>
         <path fill="none" stroke="rgb(128,128,128)" stroke-width="40" stroke-linejoin="round" stroke-linecap="square" d="M 357,1881 L 120,1881 120,1588 594,1588 594,1881 357,1881 Z"/>
        </g>
       </g>
       <g class="com.sun.star.drawing.CustomShape">
        <g id="id16">
         <rect class="BoundingBox" stroke="none" fill="none" x="61" y="62" width="587" height="1877"/>
         <path fill="none" stroke="rgb(5,0,255)" stroke-width="75" stroke-linejoin="round" d="M 354,1900 L 99,1900 99,100 609,100 609,1900 354,1900 Z"/>
        </g>
       </g>
      </g>
      <g class="Group">
       <g class="com.sun.star.drawing.CustomShape">
        <g id="id17">
         <rect class="BoundingBox" stroke="none" fill="none" x="1391" y="99" width="515" height="334"/>
         <path fill="rgb(114,159,207)" stroke="none" d="M 1648,412 L 1411,412 1411,119 1885,119 1885,412 1648,412 Z"/>
         <path fill="none" stroke="rgb(128,128,128)" stroke-width="40" stroke-linejoin="round" stroke-linecap="square" d="M 1648,412 L 1411,412 1411,119 1885,119 1885,412 1648,412 Z"/>
        </g>
       </g>
       <g class="com.sun.star.drawing.CustomShape">
        <g id="id18">
         <rect class="BoundingBox" stroke="none" fill="none" x="1391" y="396" width="515" height="334"/>
         <path fill="rgb(238,238,238)" stroke="none" d="M 1648,709 L 1411,709 1411,416 1885,416 1885,709 1648,709 Z"/>
         <path fill="none" stroke="rgb(128,128,128)" stroke-width="40" stroke-linejoin="round" stroke-linecap="square" d="M 1648,709 L 1411,709 1411,416 1885,416 1885,709 1648,709 Z"/>
        </g>
       </g>
       <g class="com.sun.star.drawing.CustomShape">
        <g id="id19">
         <rect class="BoundingBox" stroke="none" fill="none" x="1390" y="690" width="515" height="334"/>
         <path fill="rgb(238,238,238)" stroke="none" d="M 1647,1003 L 1410,1003 1410,710 1884,710 1884,1003 1647,1003 Z"/>
         <path fill="none" stroke="rgb(128,128,128)" stroke-width="40" stroke-linejoin="round" stroke-linecap="square" d="M 1647,1003 L 1410,1003 1410,710 1884,710 1884,1003 1647,1003 Z"/>
        </g>
       </g>
       <g class="com.sun.star.drawing.CustomShape">
        <g id="id20">
         <rect class="BoundingBox" stroke="none" fill="none" x="1390" y="984" width="515" height="334"/>
         <path fill="rgb(238,238,238)" stroke="none" d="M 1647,1297 L 1410,1297 1410,1004 1884,1004 1884,1297 1647,1297 Z"/>
         <path fill="none" stroke="rgb(128,128,128)" stroke-width="40" stroke-linejoin="round" stroke-linecap="square" d="M 1647,1297 L 1410,1297 1410,1004 1884,1004 1884,1297 1647,1297 Z"/>
        </g>
       </g>
       <g class="com.sun.star.drawing.CustomShape">
        <g id="id21">
         <rect class="BoundingBox" stroke="none" fill="none" x="1390" y="1275" width="515" height="334"/>
         <path fill="rgb(238,238,238)" stroke="none" d="M 1647,1588 L 1410,1588 1410,1295 1884,1295 1884,1588 1647,1588 Z"/>
         <path fill="none" stroke="rgb(128,128,128)" stroke-width="40" stroke-linejoin="round" stroke-linecap="square" d="M 1647,1588 L 1410,1588 1410,1295 1884,1295 1884,1588 1647,1588 Z"/>
        </g>
       </g>
       <g class="com.sun.star.drawing.CustomShape">
        <g id="id22">
         <rect class="BoundingBox" stroke="none" fill="none" x="1390" y="1568" width="515" height="334"/>
         <path fill="rgb(238,238,238)" stroke="none" d="M 1647,1881 L 1410,1881 1410,1588 1884,1588 1884,1881 1647,1881 Z"/>
         <path fill="none" stroke="rgb(128,128,128)" stroke-width="40" stroke-linejoin="round" stroke-linecap="square" d="M 1647,1881 L 1410,1881 1410,1588 1884,1588 1884,1881 1647,1881 Z"/>
        </g>
       </g>
       <g class="com.sun.star.drawing.CustomShape">
        <g id="id23">
         <rect class="BoundingBox" stroke="none" fill="none" x="1351" y="62" width="587" height="1877"/>
         <path fill="none" stroke="rgb(5,0,255)" stroke-width="75" stroke-linejoin="round" d="M 1644,1900 L 1389,1900 1389,100 1899,100 1899,1900 1644,1900 Z"/>
        </g>
       </g>
      </g>
     </g>
    </g>
   </g>
  </g>
 </g>
</svg>