<?xml version="1.0" encoding="UTF-8"?>
<!DOCTYPE svg PUBLIC "-//W3C//DTD SVG 1.1//EN" "http://www.w3.org/Graphics/SVG/1.1/DTD/svg11.dtd">
<svg version="1.2" width="20mm" height="20mm" viewBox="0 0 2000 2000" preserveAspectRatio="xMidYMid" fill-rule="evenodd" stroke-width="28.222" stroke-linejoin="round" xmlns="http://www.w3.org/2000/svg" xmlns:ooo="http://xml.openoffice.org/svg/export" xmlns:xlink="http://www.w3.org/1999/xlink" xmlns:presentation="http://sun.com/xmlns/staroffice/presentation" xmlns:smil="http://www.w3.org/2001/SMIL20/" xmlns:anim="urn:oasis:names:tc:opendocument:xmlns:animation:1.0" xml:space="preserve">
 <defs class="ClipPathGroup">
  <clipPath id="presentation_clip_path" clipPathUnits="userSpaceOnUse">
   <rect x="0" y="0" width="2000" height="2000"/>
  </clipPath>
  <clipPath id="presentation_clip_path_shrink" clipPathUnits="userSpaceOnUse">
   <rect x="2" y="2" width="1996" height="1996"/>
  </clipPath>
 </defs>
 <defs class="TextShapeIndex">
  <g ooo:slide="id1" ooo:id-list="id3 id4 id5"/>
 </defs>
 <defs class="EmbeddedBulletChars">
  <g id="bullet-char-template-57356" transform="scale(0.00048828125,-0.00048828125)">
   <path d="M 580,1141 L 1163,571 580,0 -4,571 580,1141 Z"/>
  </g>
  <g id="bullet-char-template-57354" transform="scale(0.00048828125,-0.00048828125)">
   <path d="M 8,1128 L 1137,1128 1137,0 8,0 8,1128 Z"/>
  </g>
  <g id="bullet-char-template-10146" transform="scale(0.00048828125,-0.00048828125)">
   <path d="M 174,0 L 602,739 174,1481 1456,739 174,0 Z M 1358,739 L 309,1346 659,739 1358,739 Z"/>
  </g>
  <g id="bullet-char-template-10132" transform="scale(0.00048828125,-0.00048828125)">
   <path d="M 2015,739 L 1276,0 717,0 1260,543 174,543 174,936 1260,936 717,1481 1274,1481 2015,739 Z"/>
  </g>
  <g id="bullet-char-template-10007" transform="scale(0.00048828125,-0.00048828125)">
   <path d="M 0,-2 C -7,14 -16,27 -25,37 L 356,567 C 262,823 215,952 215,954 215,979 228,992 255,992 264,992 276,990 289,987 310,991 331,999 354,1012 L 381,999 492,748 772,1049 836,1024 860,1049 C 881,1039 901,1025 922,1006 886,937 835,863 770,784 769,783 710,716 594,584 L 774,223 C 774,196 753,168 711,139 L 727,119 C 717,90 699,76 672,76 641,76 570,178 457,381 L 164,-76 C 142,-110 111,-127 72,-127 30,-127 9,-110 8,-76 1,-67 -2,-52 -2,-32 -2,-23 -1,-13 0,-2 Z"/>
  </g>
  <g id="bullet-char-template-10004" transform="scale(0.00048828125,-0.00048828125)">
   <path d="M 285,-33 C 182,-33 111,30 74,156 52,228 41,333 41,471 41,549 55,616 82,672 116,743 169,778 240,778 293,778 328,747 346,684 L 369,508 C 377,444 397,411 428,410 L 1163,1116 C 1174,1127 1196,1133 1229,1133 1271,1133 1292,1118 1292,1087 L 1292,965 C 1292,929 1282,901 1262,881 L 442,47 C 390,-6 338,-33 285,-33 Z"/>
  </g>
  <g id="bullet-char-template-9679" transform="scale(0.00048828125,-0.00048828125)">
   <path d="M 813,0 C 632,0 489,54 383,161 276,268 223,411 223,592 223,773 276,916 383,1023 489,1130 632,1184 813,1184 992,1184 1136,1130 1245,1023 1353,916 1407,772 1407,592 1407,412 1353,268 1245,161 1136,54 992,0 813,0 Z"/>
  </g>
  <g id="bullet-char-template-8226" transform="scale(0.00048828125,-0.00048828125)">
   <path d="M 346,457 C 273,457 209,483 155,535 101,586 74,649 74,723 74,796 101,859 155,911 209,963 273,989 346,989 419,989 480,963 531,910 582,859 608,796 608,723 608,648 583,586 532,535 482,483 420,457 346,457 Z"/>
  </g>
  <g id="bullet-char-template-8211" transform="scale(0.00048828125,-0.00048828125)">
   <path d="M -4,459 L 1135,459 1135,606 -4,606 -4,459 Z"/>
  </g>
  <g id="bullet-char-template-61548" transform="scale(0.00048828125,-0.00048828125)">
   <path d="M 173,740 C 173,903 231,1043 346,1159 462,1274 601,1332 765,1332 928,1332 1067,1274 1183,1159 1299,1043 1357,903 1357,740 1357,577 1299,437 1183,322 1067,206 928,148 765,148 601,148 462,206 346,322 231,437 173,577 173,740 Z"/>
  </g>
 </defs>
 <g>
  <g id="id2" class="Master_Slide">
   <g id="bg-id2" class="Background"/>
   <g id="bo-id2" class="BackgroundObjects"/>
  </g>
 </g>
 <g class="SlideGroup">
  <g>
   <g id="container-id1">
    <g id="id1" class="Slide" clip-path="url(#presentation_clip_path)">
     <g class="Page">
      <g class="com.sun.star.drawing.CustomShape">
       <g id="id3">
        <rect class="BoundingBox" stroke="none" fill="none" x="100" y="100" width="1802" height="1802"/>
        <g>
         <defs>
          <linearGradient id="gradient1" x1="419" y1="-5" x2="1581" y2="2006" gradientUnits="userSpaceOnUse">
           <stop offset="0" style="stop-color:rgb(119,188,101)"/>
           <stop offset="1" style="stop-color:rgb(18,118,34)"/>
          </linearGradient>
         </defs>
         <path style="fill:url(#gradient1)" d="M 433,150 L 433,150 415,151 396,152 378,155 360,160 342,165 325,172 308,179 292,188 276,198 261,209 247,220 233,233 220,247 209,261 198,276 188,292 179,308 172,325 165,342 160,360 155,378 152,396 151,415 150,434 150,1567 150,1568 151,1586 152,1605 155,1623 160,1641 165,1659 172,1676 179,1693 188,1709 198,1725 209,1740 220,1754 233,1768 247,1781 261,1792 276,1803 292,1813 308,1822 325,1829 342,1836 360,1841 378,1846 396,1849 415,1850 434,1851 1567,1851 1568,1851 1586,1850 1605,1849 1623,1846 1641,1841 1659,1836 1676,1829 1693,1822 1709,1813 1725,1803 1740,1792 1754,1781 1768,1768 1781,1754 1792,1740 1803,1725 1813,1709 1822,1693 1829,1676 1836,1659 1841,1641 1846,1623 1849,1605 1850,1586 1851,1568 1851,433 1851,434 1851,433 1850,415 1849,396 1846,378 1841,360 1836,342 1829,325 1822,308 1813,292 1803,276 1792,261 1781,247 1768,233 1754,220 1740,209 1725,198 1709,188 1693,179 1676,172 1659,165 1641,160 1623,155 1605,152 1586,151 1568,150 433,150 Z"/>
        </g>
        <path fill="none" stroke="rgb(34,75,18)" stroke-width="100" stroke-linejoin="round" d="M 433,150 L 433,150 C 384,150 335,163 292,188 249,213 213,249 188,292 163,335 150,384 150,434 L 150,1567 150,1568 C 150,1617 163,1666 188,1709 213,1752 249,1788 292,1813 335,1838 384,1851 434,1851 L 1567,1851 1568,1851 C 1617,1851 1666,1838 1709,1813 1752,1788 1788,1752 1813,1709 1838,1666 1851,1617 1851,1568 L 1851,433 1851,434 1851,433 C 1851,384 1838,335 1813,292 1788,249 1752,213 1709,188 1666,163 1617,150 1568,150 L 433,150 Z"/>
       </g>
      </g>
      <g class="Group">
       <g class="Group">
        <g class="com.sun.star.drawing.CustomShape">
         <g id="id4">
          <rect class="BoundingBox" stroke="none" fill="none" x="784" y="449" width="943" height="1121"/>
          <path fill="rgb(238,238,238)" stroke="none" d="M 1361,1090 L 997,1568 784,1406 1512,450 1725,612 1361,1090 Z"/>
         </g>
        </g>
        <g class="com.sun.star.drawing.CustomShape">
         <g id="id5">
          <rect class="BoundingBox" stroke="none" fill="none" x="300" y="800" width="657" height="607"/>
          <path fill="rgb(238,238,238)" stroke="none" d="M 713,999 L 956,1198 785,1406 300,1008 471,800 713,999 Z"/>
         </g>
        </g>
       </g>
      </g>
     </g>
    </g>
   </g>
  </g>
 </g>
</svg>