<?xml version="1.0" encoding="UTF-8"?>
<!DOCTYPE svg PUBLIC "-//W3C//DTD SVG 1.1//EN" "http://www.w3.org/Graphics/SVG/1.1/DTD/svg11.dtd">
<svg version="1.2" width="20mm" height="20mm" viewBox="0 0 2000 2000" preserveAspectRatio="xMidYMid" fill-rule="evenodd" stroke-width="28.222" stroke-linejoin="round" xmlns="http://www.w3.org/2000/svg" xmlns:ooo="http://xml.openoffice.org/svg/export" xmlns:xlink="http://www.w3.org/1999/xlink" xmlns:presentation="http://sun.com/xmlns/staroffice/presentation" xmlns:smil="http://www.w3.org/2001/SMIL20/" xmlns:anim="urn:oasis:names:tc:opendocument:xmlns:animation:1.0" xmlns:svg="urn:oasis:names:tc:opendocument:xmlns:svg-compatible:1.0" xml:space="preserve">
 <defs class="ClipPathGroup">
  <clipPath id="presentation_clip_path" clipPathUnits="userSpaceOnUse">
   <rect x="0" y="0" width="2000" height="2000"/>
  </clipPath>
  <clipPath id="presentation_clip_path_shrink" clipPathUnits="userSpaceOnUse">
   <rect x="2" y="2" width="1996" height="1996"/>
  </clipPath>
 </defs>
 <defs class="TextShapeIndex">
  <g ooo:slide="id1" ooo:id-list="id3"/>
 </defs>
 <defs class="EmbeddedBulletChars">
  <g id="bullet-char-template-57356" transform="scale(0.00048828125,-0.00048828125)">
   <path d="M 580,1141 L 1163,571 580,0 -4,571 580,1141 Z"/>
  </g>
  <g id="bullet-char-template-57354" transform="scale(0.00048828125,-0.00048828125)">
   <path d="M 8,1128 L 1137,1128 1137,0 8,0 8,1128 Z"/>
  </g>
  <g id="bullet-char-template-10146" transform="scale(0.00048828125,-0.00048828125)">
   <path d="M 174,0 L 602,739 174,1481 1456,739 174,0 Z M 1358,739 L 309,1346 659,739 1358,739 Z"/>
  </g>
  <g id="bullet-char-template-10132" transform="scale(0.00048828125,-0.00048828125)">
   <path d="M 2015,739 L 1276,0 717,0 1260,543 174,543 174,936 1260,936 717,1481 1274,1481 2015,739 Z"/>
  </g>
  <g id="bullet-char-template-10007" transform="scale(0.00048828125,-0.00048828125)">
   <path d="M 0,-2 C -7,14 -16,27 -25,37 L 356,567 C 262,823 215,952 215,954 215,979 228,992 255,992 264,992 276,990 289,987 310,991 331,999 354,1012 L 381,999 492,748 772,1049 836,1024 860,1049 C 881,1039 901,1025 922,1006 886,937 835,863 770,784 769,783 710,716 594,584 L 774,223 C 774,196 753,168 711,139 L 727,119 C 717,90 699,76 672,76 641,76 570,178 457,381 L 164,-76 C 142,-110 111,-127 72,-127 30,-127 9,-110 8,-76 1,-67 -2,-52 -2,-32 -2,-23 -1,-13 0,-2 Z"/>
  </g>
  <g id="bullet-char-template-10004" transform="scale(0.00048828125,-0.00048828125)">
   <path d="M 285,-33 C 182,-33 111,30 74,156 52,228 41,333 41,471 41,549 55,616 82,672 116,743 169,778 240,778 293,778 328,747 346,684 L 369,508 C 377,444 397,411 428,410 L 1163,1116 C 1174,1127 1196,1133 1229,1133 1271,1133 1292,1118 1292,1087 L 1292,965 C 1292,929 1282,901 1262,881 L 442,47 C 390,-6 338,-33 285,-33 Z"/>
  </g>
  <g id="bullet-char-template-9679" transform="scale(0.00048828125,-0.00048828125)">
   <path d="M 813,0 C 632,0 489,54 383,161 276,268 223,411 223,592 223,773 276,916 383,1023 489,1130 632,1184 813,1184 992,1184 1136,1130 1245,1023 1353,916 1407,772 1407,592 1407,412 1353,268 1245,161 1136,54 992,0 813,0 Z"/>
  </g>
  <g id="bullet-char-template-8226" transform="scale(0.00048828125,-0.00048828125)">
   <path d="M 346,457 C 273,457 209,483 155,535 101,586 74,649 74,723 74,796 101,859 155,911 209,963 273,989 346,989 419,989 480,963 531,910 582,859 608,796 608,723 608,648 583,586 532,535 482,483 420,457 346,457 Z"/>
  </g>
  <g id="bullet-char-template-8211" transform="scale(0.00048828125,-0.00048828125)">
   <path d="M -4,459 L 1135,459 1135,606 -4,606 -4,459 Z"/>
  </g>
  <g id="bullet-char-template-61548" transform="scale(0.00048828125,-0.00048828125)">
   <path d="M 173,740 C 173,903 231,1043 346,1159 462,1274 601,1332 765,1332 928,1332 1067,1274 1183,1159 1299,1043 1357,903 1357,740 1357,577 1299,437 1183,322 1067,206 928,148 765,148 601,148 462,206 346,322 231,437 173,577 173,740 Z"/>
  </g>
 </defs>
 <g>
  <g id="id2" class="Master_Slide">
   <g id="bg-id2" class="Background"/>
   <g id="bo-id2" class="BackgroundObjects"/>
  </g>
 </g>
 <g class="SlideGroup">
  <g>
   <g id="container-id1">
    <g id="id1" class="Slide" clip-path="url(#presentation_clip_path)">
     <g class="Page">
      <g class="com.sun.star.drawing.PolyPolygonShape">
       <g id="id3">
        <rect class="BoundingBox" stroke="none" fill="none" x="124" y="225" width="1775" height="1601"/>
        <g>
         <defs>
          <linearGradient id="gradient1" x1="459" y1="71" x2="1561" y2="1979" gradientUnits="userSpaceOnUse">
           <stop offset="0.22" style="stop-color:rgb(255,245,206)"/>
           <stop offset="1" style="stop-color:rgb(237,76,5)"/>
          </linearGradient>
         </defs>
         <path style="fill:url(#gradient1)" d="M 1872,901 L 1870,943 1865,986 1855,1028 1843,1069 1826,1109 1806,1149 1783,1188 1756,1226 1727,1262 1694,1297 1658,1329 1619,1360 1579,1389 1535,1416 1489,1441 1441,1464 1391,1484 1340,1502 1288,1517 1233,1529 1179,1538 1123,1545 1067,1550 1011,1551 954,1550 898,1545 842,1538 732,1517 594,1620 477,1688 354,1735 149,1800 253,1700 320,1624 382,1533 455,1395 363,1329 327,1297 294,1262 265,1226 238,1188 215,1149 195,1109 178,1069 166,1028 156,986 151,943 149,901 151,858 156,815 166,773 178,732 195,692 215,652 238,613 265,575 294,539 327,504 363,472 402,441 442,412 486,385 532,360 580,337 630,317 681,299 733,284 788,272 842,263 898,256 954,251 1010,250 1067,251 1123,256 1179,263 1233,272 1288,284 1340,299 1391,317 1441,337 1489,360 1535,385 1579,412 1619,441 1658,472 1694,504 1727,539 1756,575 1783,613 1806,652 1826,692 1843,732 1855,773 1865,815 1870,858 1872,900 1872,901 Z"/>
        </g>
        <path fill="none" stroke="rgb(184,92,0)" stroke-width="50" stroke-linejoin="round" d="M 1872,901 L 1870,943 1865,986 1855,1028 1843,1069 1826,1109 1806,1149 1783,1188 1756,1226 1727,1262 1694,1297 1658,1329 1619,1360 1579,1389 1535,1416 1489,1441 1441,1464 1391,1484 1340,1502 1288,1517 1233,1529 1179,1538 1123,1545 1067,1550 1011,1551 954,1550 898,1545 842,1538 732,1517 594,1620 477,1688 354,1735 149,1800 253,1700 320,1624 382,1533 455,1395 363,1329 327,1297 294,1262 265,1226 238,1188 215,1149 195,1109 178,1069 166,1028 156,986 151,943 149,901 151,858 156,815 166,773 178,732 195,692 215,652 238,613 265,575 294,539 327,504 363,472 402,441 442,412 486,385 532,360 580,337 630,317 681,299 733,284 788,272 842,263 898,256 954,251 1010,250 1067,251 1123,256 1179,263 1233,272 1288,284 1340,299 1391,317 1441,337 1489,360 1535,385 1579,412 1619,441 1658,472 1694,504 1727,539 1756,575 1783,613 1806,652 1826,692 1843,732 1855,773 1865,815 1870,858 1872,900 1872,901 Z"/>
       </g>
      </g>
     </g>
    </g>
   </g>
  </g>
 </g>
</svg>