<?xml version="1.0" encoding="UTF-8"?>
<!DOCTYPE svg PUBLIC "-//W3C//DTD SVG 1.1//EN" "http://www.w3.org/Graphics/SVG/1.1/DTD/svg11.dtd">
<svg version="1.2" width="20mm" height="20mm" viewBox="0 0 2000 2000" preserveAspectRatio="xMidYMid" fill-rule="evenodd" stroke-width="28.222" stroke-linejoin="round" xmlns="http://www.w3.org/2000/svg" xmlns:ooo="http://xml.openoffice.org/svg/export" xmlns:xlink="http://www.w3.org/1999/xlink" xmlns:presentation="http://sun.com/xmlns/staroffice/presentation" xmlns:smil="http://www.w3.org/2001/SMIL20/" xmlns:anim="urn:oasis:names:tc:opendocument:xmlns:animation:1.0" xmlns:svg="urn:oasis:names:tc:opendocument:xmlns:svg-compatible:1.0" xml:space="preserve">
 <defs class="ClipPathGroup">
  <clipPath id="presentation_clip_path" clipPathUnits="userSpaceOnUse">
   <rect x="0" y="0" width="2000" height="2000"/>
  </clipPath>
  <clipPath id="presentation_clip_path_shrink" clipPathUnits="userSpaceOnUse">
   <rect x="2" y="2" width="1996" height="1996"/>
  </clipPath>
 </defs>
 <defs class="TextShapeIndex">
  <g ooo:slide="id1" ooo:id-list="id3 id4 id5 id6"/>
 </defs>
 <defs class="EmbeddedBulletChars">
  <g id="bullet-char-template-57356" transform="scale(0.00048828125,-0.00048828125)">
   <path d="M 580,1141 L 1163,571 580,0 -4,571 580,1141 Z"/>
  </g>
  <g id="bullet-char-template-57354" transform="scale(0.00048828125,-0.00048828125)">
   <path d="M 8,1128 L 1137,1128 1137,0 8,0 8,1128 Z"/>
  </g>
  <g id="bullet-char-template-10146" transform="scale(0.00048828125,-0.00048828125)">
   <path d="M 174,0 L 602,739 174,1481 1456,739 174,0 Z M 1358,739 L 309,1346 659,739 1358,739 Z"/>
  </g>
  <g id="bullet-char-template-10132" transform="scale(0.00048828125,-0.00048828125)">
   <path d="M 2015,739 L 1276,0 717,0 1260,543 174,543 174,936 1260,936 717,1481 1274,1481 2015,739 Z"/>
  </g>
  <g id="bullet-char-template-10007" transform="scale(0.00048828125,-0.00048828125)">
   <path d="M 0,-2 C -7,14 -16,27 -25,37 L 356,567 C 262,823 215,952 215,954 215,979 228,992 255,992 264,992 276,990 289,987 310,991 331,999 354,1012 L 381,999 492,748 772,1049 836,1024 860,1049 C 881,1039 901,1025 922,1006 886,937 835,863 770,784 769,783 710,716 594,584 L 774,223 C 774,196 753,168 711,139 L 727,119 C 717,90 699,76 672,76 641,76 570,178 457,381 L 164,-76 C 142,-110 111,-127 72,-127 30,-127 9,-110 8,-76 1,-67 -2,-52 -2,-32 -2,-23 -1,-13 0,-2 Z"/>
  </g>
  <g id="bullet-char-template-10004" transform="scale(0.00048828125,-0.00048828125)">
   <path d="M 285,-33 C 182,-33 111,30 74,156 52,228 41,333 41,471 41,549 55,616 82,672 116,743 169,778 240,778 293,778 328,747 346,684 L 369,508 C 377,444 397,411 428,410 L 1163,1116 C 1174,1127 1196,1133 1229,1133 1271,1133 1292,1118 1292,1087 L 1292,965 C 1292,929 1282,901 1262,881 L 442,47 C 390,-6 338,-33 285,-33 Z"/>
  </g>
  <g id="bullet-char-template-9679" transform="scale(0.00048828125,-0.00048828125)">
   <path d="M 813,0 C 632,0 489,54 383,161 276,268 223,411 223,592 223,773 276,916 383,1023 489,1130 632,1184 813,1184 992,1184 1136,1130 1245,1023 1353,916 1407,772 1407,592 1407,412 1353,268 1245,161 1136,54 992,0 813,0 Z"/>
  </g>
  <g id="bullet-char-template-8226" transform="scale(0.00048828125,-0.00048828125)">
   <path d="M 346,457 C 273,457 209,483 155,535 101,586 74,649 74,723 74,796 101,859 155,911 209,963 273,989 346,989 419,989 480,963 531,910 582,859 608,796 608,723 608,648 583,586 532,535 482,483 420,457 346,457 Z"/>
  </g>
  <g id="bullet-char-template-8211" transform="scale(0.00048828125,-0.00048828125)">
   <path d="M -4,459 L 1135,459 1135,606 -4,606 -4,459 Z"/>
  </g>
  <g id="bullet-char-template-61548" transform="scale(0.00048828125,-0.00048828125)">
   <path d="M 173,740 C 173,903 231,1043 346,1159 462,1274 601,1332 765,1332 928,1332 1067,1274 1183,1159 1299,1043 1357,903 1357,740 1357,577 1299,437 1183,322 1067,206 928,148 765,148 601,148 462,206 346,322 231,437 173,577 173,740 Z"/>
  </g>
 </defs>
 <g>
  <g id="id2" class="Master_Slide">
   <g id="bg-id2" class="Background"/>
   <g id="bo-id2" class="BackgroundObjects"/>
  </g>
 </g>
 <g class="SlideGroup">
  <g>
   <g id="container-id1">
    <g id="id1" class="Slide" clip-path="url(#presentation_clip_path)">
     <g class="Page">
      <g class="com.sun.star.drawing.CustomShape">
       <g id="id3">
        <rect class="BoundingBox" stroke="none" fill="none" x="59" y="199" width="1003" height="1703"/>
        <defs>
         <mask id="mask1">
          <g>
           <defs>
            <linearGradient id="gradient1" x1="560" y1="1900" x2="560" y2="199" gradientUnits="userSpaceOnUse">
             <stop offset="0.5" style="stop-color:rgb(255,255,255)"/>
             <stop offset="1" style="stop-color:rgb(0,0,0)"/>
            </linearGradient>
           </defs>
           <path style="fill:url(#gradient1)" d="M 60,200 L 1061,200 1061,1901 60,1901 60,200 Z"/>
          </g>
         </mask>
        </defs>
        <g style="mask:url(#mask1)">
         <g>
          <defs>
           <linearGradient id="gradient2" x1="67" y1="196" x2="1054" y2="1905" gradientUnits="userSpaceOnUse">
            <stop offset="0" style="stop-color:rgb(119,188,101)"/>
            <stop offset="1" style="stop-color:rgb(0,132,21)"/>
           </linearGradient>
          </defs>
          <path style="fill:url(#gradient2)" d="M 310,200 L 310,1475 60,1475 560,1901 1061,1475 810,1475 810,200 310,200 Z"/>
         </g>
        </g>
       </g>
      </g>
      <g class="Group">
       <g class="com.sun.star.drawing.CustomShape">
        <g id="id4">
         <rect class="BoundingBox" stroke="none" fill="none" x="1122" y="1331" width="686" height="476"/>
         <path fill="rgb(0,0,0)" stroke="none" d="M 1352,1394 L 1344,1394 1337,1394 1330,1395 1323,1396 1316,1398 1309,1400 1303,1402 1296,1405 1290,1407 1284,1411 1279,1415 1273,1418 1269,1423 1264,1427 1259,1432 1256,1437 1248,1448 1242,1461 1236,1476 1231,1492 1228,1509 1225,1527 1223,1548 1223,1569 1223,1589 1225,1610 1228,1627 1231,1645 1236,1660 1242,1675 1248,1688 1256,1699 1259,1705 1264,1710 1269,1714 1273,1718 1279,1722 1284,1726 1290,1729 1296,1732 1303,1735 1309,1736 1316,1739 1323,1740 1330,1741 1337,1742 1344,1743 1352,1743 1360,1743 1367,1742 1376,1741 1383,1740 1390,1739 1397,1736 1403,1735 1410,1732 1416,1729 1422,1726 1426,1722 1432,1718 1437,1714 1441,1710 1446,1705 1450,1699 1458,1688 1464,1675 1470,1660 1474,1645 1478,1627 1480,1610 1483,1589 1483,1569 1483,1548 1480,1527 1478,1509 1474,1492 1470,1476 1464,1461 1458,1448 1450,1437 1446,1432 1441,1427 1437,1423 1432,1418 1426,1415 1422,1411 1416,1407 1410,1405 1403,1402 1397,1400 1390,1398 1383,1396 1376,1395 1367,1394 1360,1394 1352,1394 Z M 1352,1349 L 1365,1349 1377,1349 1390,1350 1402,1352 1412,1354 1423,1357 1433,1359 1444,1362 1453,1366 1463,1370 1472,1375 1480,1380 1489,1386 1497,1391 1504,1398 1511,1405 1518,1412 1524,1419 1534,1436 1544,1454 1552,1473 1558,1495 1563,1518 1565,1543 1566,1569 1565,1594 1563,1618 1558,1641 1552,1663 1544,1682 1534,1700 1524,1717 1518,1724 1511,1731 1504,1739 1497,1745 1489,1751 1480,1756 1472,1761 1463,1766 1453,1770 1444,1774 1433,1777 1423,1780 1412,1782 1402,1784 1390,1786 1377,1787 1365,1788 1352,1788 1339,1788 1328,1787 1315,1786 1303,1784 1292,1782 1282,1780 1271,1777 1261,1774 1251,1770 1242,1766 1232,1761 1224,1756 1216,1751 1208,1745 1201,1739 1194,1731 1187,1724 1181,1717 1170,1700 1161,1682 1152,1663 1147,1641 1143,1618 1141,1594 1140,1569 1141,1543 1143,1518 1147,1495 1152,1473 1161,1454 1170,1436 1181,1419 1187,1412 1194,1405 1201,1398 1208,1391 1216,1386 1224,1380 1232,1375 1242,1370 1251,1366 1261,1362 1271,1359 1282,1357 1292,1354 1303,1352 1315,1350 1328,1349 1339,1349 1352,1349 Z M 1706,1356 L 1789,1356 1789,1780 1706,1780 1706,1356 Z"/>
         <path fill="none" stroke="rgb(0,0,0)" stroke-width="35" stroke-linejoin="round" d="M 1352,1394 L 1344,1394 1337,1394 1330,1395 1323,1396 1316,1398 1309,1400 1303,1402 1296,1405 1290,1407 1284,1411 1279,1415 1273,1418 1269,1423 1264,1427 1259,1432 1256,1437 1248,1448 1242,1461 1236,1476 1231,1492 1228,1509 1225,1527 1223,1548 1223,1569 1223,1589 1225,1610 1228,1627 1231,1645 1236,1660 1242,1675 1248,1688 1256,1699 1259,1705 1264,1710 1269,1714 1273,1718 1279,1722 1284,1726 1290,1729 1296,1732 1303,1735 1309,1736 1316,1739 1323,1740 1330,1741 1337,1742 1344,1743 1352,1743 1360,1743 1367,1742 1376,1741 1383,1740 1390,1739 1397,1736 1403,1735 1410,1732 1416,1729 1422,1726 1426,1722 1432,1718 1437,1714 1441,1710 1446,1705 1450,1699 1458,1688 1464,1675 1470,1660 1474,1645 1478,1627 1480,1610 1483,1589 1483,1569 1483,1548 1480,1527 1478,1509 1474,1492 1470,1476 1464,1461 1458,1448 1450,1437 1446,1432 1441,1427 1437,1423 1432,1418 1426,1415 1422,1411 1416,1407 1410,1405 1403,1402 1397,1400 1390,1398 1383,1396 1376,1395 1367,1394 1360,1394 1352,1394 Z"/>
         <path fill="none" stroke="rgb(0,0,0)" stroke-width="35" stroke-linejoin="round" d="M 1352,1349 L 1365,1349 1377,1349 1390,1350 1402,1352 1412,1354 1423,1357 1433,1359 1444,1362 1453,1366 1463,1370 1472,1375 1480,1380 1489,1386 1497,1391 1504,1398 1511,1405 1518,1412 1524,1419 1534,1436 1544,1454 1552,1473 1558,1495 1563,1518 1565,1543 1566,1569 1565,1594 1563,1618 1558,1641 1552,1663 1544,1682 1534,1700 1524,1717 1518,1724 1511,1731 1504,1739 1497,1745 1489,1751 1480,1756 1472,1761 1463,1766 1453,1770 1444,1774 1433,1777 1423,1780 1412,1782 1402,1784 1390,1786 1377,1787 1365,1788 1352,1788 1339,1788 1328,1787 1315,1786 1303,1784 1292,1782 1282,1780 1271,1777 1261,1774 1251,1770 1242,1766 1232,1761 1224,1756 1216,1751 1208,1745 1201,1739 1194,1731 1187,1724 1181,1717 1170,1700 1161,1682 1152,1663 1147,1641 1143,1618 1141,1594 1140,1569 1141,1543 1143,1518 1147,1495 1152,1473 1161,1454 1170,1436 1181,1419 1187,1412 1194,1405 1201,1398 1208,1391 1216,1386 1224,1380 1232,1375 1242,1370 1251,1366 1261,1362 1271,1359 1282,1357 1292,1354 1303,1352 1315,1350 1328,1349 1339,1349 1352,1349 Z"/>
         <path fill="none" stroke="rgb(0,0,0)" stroke-width="35" stroke-linejoin="round" d="M 1706,1356 L 1789,1356 1789,1780 1706,1780 1706,1356 Z"/>
        </g>
       </g>
       <g class="com.sun.star.drawing.CustomShape">
        <g id="id5">
         <rect class="BoundingBox" stroke="none" fill="none" x="1233" y="731" width="686" height="476"/>
         <path fill="rgb(0,0,0)" stroke="none" d="M 1688,794 L 1696,794 1703,794 1710,795 1717,796 1724,798 1731,800 1737,802 1744,805 1750,807 1756,811 1761,815 1767,818 1771,823 1776,827 1781,832 1784,837 1792,848 1798,861 1804,876 1809,892 1812,909 1815,927 1817,948 1817,969 1817,989 1815,1010 1812,1027 1809,1045 1804,1060 1798,1075 1792,1088 1784,1099 1781,1105 1776,1110 1771,1114 1767,1118 1761,1122 1756,1126 1750,1129 1744,1132 1737,1135 1731,1136 1724,1139 1717,1140 1710,1141 1703,1142 1696,1143 1688,1143 1680,1143 1673,1142 1664,1141 1657,1140 1650,1139 1643,1136 1637,1135 1630,1132 1624,1129 1618,1126 1614,1122 1608,1118 1603,1114 1599,1110 1594,1105 1590,1099 1582,1088 1576,1075 1570,1060 1566,1045 1562,1027 1560,1010 1557,989 1557,969 1557,948 1560,927 1562,909 1566,892 1570,876 1576,861 1582,848 1590,837 1594,832 1599,827 1603,823 1608,818 1614,815 1618,811 1624,807 1630,805 1637,802 1643,800 1650,798 1657,796 1664,795 1673,794 1680,794 1688,794 Z M 1688,749 L 1675,749 1663,749 1650,750 1638,752 1628,754 1617,757 1607,759 1596,762 1587,766 1577,770 1568,775 1560,780 1551,786 1543,791 1536,798 1529,805 1522,812 1516,819 1506,836 1496,854 1488,873 1482,895 1477,918 1475,943 1474,969 1475,994 1477,1018 1482,1041 1488,1063 1496,1082 1506,1100 1516,1117 1522,1124 1529,1131 1536,1139 1543,1145 1551,1151 1560,1156 1568,1161 1577,1166 1587,1170 1596,1174 1607,1177 1617,1180 1628,1182 1638,1184 1650,1186 1663,1187 1675,1188 1688,1188 1701,1188 1712,1187 1725,1186 1737,1184 1748,1182 1758,1180 1769,1177 1779,1174 1789,1170 1798,1166 1808,1161 1816,1156 1824,1151 1832,1145 1839,1139 1846,1131 1853,1124 1859,1117 1870,1100 1879,1082 1888,1063 1893,1041 1897,1018 1899,994 1900,969 1899,943 1897,918 1893,895 1888,873 1879,854 1870,836 1859,819 1853,812 1846,805 1839,798 1832,791 1824,786 1816,780 1808,775 1798,770 1789,766 1779,762 1769,759 1758,757 1748,754 1737,752 1725,750 1712,749 1701,749 1688,749 Z M 1334,756 L 1251,756 1251,1180 1334,1180 1334,756 Z"/>
         <path fill="none" stroke="rgb(0,0,0)" stroke-width="35" stroke-linejoin="round" d="M 1688,794 L 1696,794 1703,794 1710,795 1717,796 1724,798 1731,800 1737,802 1744,805 1750,807 1756,811 1761,815 1767,818 1771,823 1776,827 1781,832 1784,837 1792,848 1798,861 1804,876 1809,892 1812,909 1815,927 1817,948 1817,969 1817,989 1815,1010 1812,1027 1809,1045 1804,1060 1798,1075 1792,1088 1784,1099 1781,1105 1776,1110 1771,1114 1767,1118 1761,1122 1756,1126 1750,1129 1744,1132 1737,1135 1731,1136 1724,1139 1717,1140 1710,1141 1703,1142 1696,1143 1688,1143 1680,1143 1673,1142 1664,1141 1657,1140 1650,1139 1643,1136 1637,1135 1630,1132 1624,1129 1618,1126 1614,1122 1608,1118 1603,1114 1599,1110 1594,1105 1590,1099 1582,1088 1576,1075 1570,1060 1566,1045 1562,1027 1560,1010 1557,989 1557,969 1557,948 1560,927 1562,909 1566,892 1570,876 1576,861 1582,848 1590,837 1594,832 1599,827 1603,823 1608,818 1614,815 1618,811 1624,807 1630,805 1637,802 1643,800 1650,798 1657,796 1664,795 1673,794 1680,794 1688,794 Z"/>
         <path fill="none" stroke="rgb(0,0,0)" stroke-width="35" stroke-linejoin="round" d="M 1688,749 L 1675,749 1663,749 1650,750 1638,752 1628,754 1617,757 1607,759 1596,762 1587,766 1577,770 1568,775 1560,780 1551,786 1543,791 1536,798 1529,805 1522,812 1516,819 1506,836 1496,854 1488,873 1482,895 1477,918 1475,943 1474,969 1475,994 1477,1018 1482,1041 1488,1063 1496,1082 1506,1100 1516,1117 1522,1124 1529,1131 1536,1139 1543,1145 1551,1151 1560,1156 1568,1161 1577,1166 1587,1170 1596,1174 1607,1177 1617,1180 1628,1182 1638,1184 1650,1186 1663,1187 1675,1188 1688,1188 1701,1188 1712,1187 1725,1186 1737,1184 1748,1182 1758,1180 1769,1177 1779,1174 1789,1170 1798,1166 1808,1161 1816,1156 1824,1151 1832,1145 1839,1139 1846,1131 1853,1124 1859,1117 1870,1100 1879,1082 1888,1063 1893,1041 1897,1018 1899,994 1900,969 1899,943 1897,918 1893,895 1888,873 1879,854 1870,836 1859,819 1853,812 1846,805 1839,798 1832,791 1824,786 1816,780 1808,775 1798,770 1789,766 1779,762 1769,759 1758,757 1748,754 1737,752 1725,750 1712,749 1701,749 1688,749 Z"/>
         <path fill="none" stroke="rgb(0,0,0)" stroke-width="35" stroke-linejoin="round" d="M 1334,756 L 1251,756 1251,1180 1334,1180 1334,756 Z"/>
        </g>
       </g>
       <g class="com.sun.star.drawing.CustomShape">
        <g id="id6">
         <rect class="BoundingBox" stroke="none" fill="none" x="1122" y="131" width="686" height="476"/>
         <path fill="rgb(0,0,0)" stroke="none" d="M 1352,194 L 1344,194 1337,194 1330,195 1323,196 1316,198 1309,200 1303,202 1296,205 1290,207 1284,211 1279,215 1273,218 1269,223 1264,227 1259,232 1256,237 1248,248 1242,261 1236,276 1231,292 1228,309 1225,327 1223,348 1223,369 1223,389 1225,410 1228,427 1231,445 1236,460 1242,475 1248,488 1256,499 1259,505 1264,510 1269,514 1273,518 1279,522 1284,526 1290,529 1296,532 1303,535 1309,536 1316,539 1323,540 1330,541 1337,542 1344,543 1352,543 1360,543 1367,542 1376,541 1383,540 1390,539 1397,536 1403,535 1410,532 1416,529 1422,526 1426,522 1432,518 1437,514 1441,510 1446,505 1450,499 1458,488 1464,475 1470,460 1474,445 1478,427 1480,410 1483,389 1483,369 1483,348 1480,327 1478,309 1474,292 1470,276 1464,261 1458,248 1450,237 1446,232 1441,227 1437,223 1432,218 1426,215 1422,211 1416,207 1410,205 1403,202 1397,200 1390,198 1383,196 1376,195 1367,194 1360,194 1352,194 Z M 1352,149 L 1365,149 1377,149 1390,150 1402,152 1412,154 1423,157 1433,159 1444,162 1453,166 1463,170 1472,175 1480,180 1489,186 1497,191 1504,198 1511,205 1518,212 1524,219 1534,236 1544,254 1552,273 1558,295 1563,318 1565,343 1566,369 1565,394 1563,418 1558,441 1552,463 1544,482 1534,500 1524,517 1518,524 1511,531 1504,539 1497,545 1489,551 1480,556 1472,561 1463,566 1453,570 1444,574 1433,577 1423,580 1412,582 1402,584 1390,586 1377,587 1365,588 1352,588 1339,588 1328,587 1315,586 1303,584 1292,582 1282,580 1271,577 1261,574 1251,570 1242,566 1232,561 1224,556 1216,551 1208,545 1201,539 1194,531 1187,524 1181,517 1170,500 1161,482 1152,463 1147,441 1143,418 1141,394 1140,369 1141,343 1143,318 1147,295 1152,273 1161,254 1170,236 1181,219 1187,212 1194,205 1201,198 1208,191 1216,186 1224,180 1232,175 1242,170 1251,166 1261,162 1271,159 1282,157 1292,154 1303,152 1315,150 1328,149 1339,149 1352,149 Z M 1706,156 L 1789,156 1789,580 1706,580 1706,156 Z"/>
         <path fill="none" stroke="rgb(0,0,0)" stroke-width="35" stroke-linejoin="round" d="M 1352,194 L 1344,194 1337,194 1330,195 1323,196 1316,198 1309,200 1303,202 1296,205 1290,207 1284,211 1279,215 1273,218 1269,223 1264,227 1259,232 1256,237 1248,248 1242,261 1236,276 1231,292 1228,309 1225,327 1223,348 1223,369 1223,389 1225,410 1228,427 1231,445 1236,460 1242,475 1248,488 1256,499 1259,505 1264,510 1269,514 1273,518 1279,522 1284,526 1290,529 1296,532 1303,535 1309,536 1316,539 1323,540 1330,541 1337,542 1344,543 1352,543 1360,543 1367,542 1376,541 1383,540 1390,539 1397,536 1403,535 1410,532 1416,529 1422,526 1426,522 1432,518 1437,514 1441,510 1446,505 1450,499 1458,488 1464,475 1470,460 1474,445 1478,427 1480,410 1483,389 1483,369 1483,348 1480,327 1478,309 1474,292 1470,276 1464,261 1458,248 1450,237 1446,232 1441,227 1437,223 1432,218 1426,215 1422,211 1416,207 1410,205 1403,202 1397,200 1390,198 1383,196 1376,195 1367,194 1360,194 1352,194 Z"/>
         <path fill="none" stroke="rgb(0,0,0)" stroke-width="35" stroke-linejoin="round" d="M 1352,149 L 1365,149 1377,149 1390,150 1402,152 1412,154 1423,157 1433,159 1444,162 1453,166 1463,170 1472,175 1480,180 1489,186 1497,191 1504,198 1511,205 1518,212 1524,219 1534,236 1544,254 1552,273 1558,295 1563,318 1565,343 1566,369 1565,394 1563,418 1558,441 1552,463 1544,482 1534,500 1524,517 1518,524 1511,531 1504,539 1497,545 1489,551 1480,556 1472,561 1463,566 1453,570 1444,574 1433,577 1423,580 1412,582 1402,584 1390,586 1377,587 1365,588 1352,588 1339,588 1328,587 1315,586 1303,584 1292,582 1282,580 1271,577 1261,574 1251,570 1242,566 1232,561 1224,556 1216,551 1208,545 1201,539 1194,531 1187,524 1181,517 1170,500 1161,482 1152,463 1147,441 1143,418 1141,394 1140,369 1141,343 1143,318 1147,295 1152,273 1161,254 1170,236 1181,219 1187,212 1194,205 1201,198 1208,191 1216,186 1224,180 1232,175 1242,170 1251,166 1261,162 1271,159 1282,157 1292,154 1303,152 1315,150 1328,149 1339,149 1352,149 Z"/>
         <path fill="none" stroke="rgb(0,0,0)" stroke-width="35" stroke-linejoin="round" d="M 1706,156 L 1789,156 1789,580 1706,580 1706,156 Z"/>
        </g>
       </g>
      </g>
     </g>
    </g>
   </g>
  </g>
 </g>
</svg>