<?xml version="1.0" encoding="UTF-8" standalone="no"?>
<!--part of the rodentia icon theme by sixsixfive released under CC0 (https://creativecommons.org/publicdomain/zero/1.0/) on openclipart-->
<svg xmlns="http://www.w3.org/2000/svg" xmlns:xlink="http://www.w3.org/1999/xlink" viewBox="0 0 48 48">
 <defs id="0">
  <linearGradient id="2">
   <stop id="D" stop-color="#eeeeec"/>
   <stop id="E" offset="1" stop-color="#d3d7cf"/>
  </linearGradient>
  <linearGradient id="3">
   <stop id="F" stop-color="#2e3436"/>
   <stop id="G" offset="1" stop-color="#2e3436" stop-opacity="0"/>
  </linearGradient>
  <linearGradient id="4">
   <stop id="H" stop-color="#fff" stop-opacity="0.8"/>
   <stop id="I" offset="1" stop-color="#fff" stop-opacity="0"/>
  </linearGradient>
  <radialGradient cx="24.377" cy="45.941" r="23.08" id="5" xlink:href="#3" gradientUnits="userSpaceOnUse" gradientTransform="matrix(1,0,0,0.1455399,0,39.255173)"/>
  <radialGradient cx="12.14" cy="8.542" r="19.906" id="6" xlink:href="#2" gradientUnits="userSpaceOnUse"/>
  <linearGradient y1="4.219" x2="0" y2="43.781" id="7" xlink:href="#4" gradientUnits="userSpaceOnUse" gradientTransform="translate(1.179199e-8,-1.4999995)"/>
 </defs>
 <g id="1">
  <path d="m 47.453955,45.941494 c 0,1.853955 -10.338462,3.358613 -23.076924,3.358613 -12.738461,0 -23.076923,-1.504658 -23.076923,-3.358613 0,-1.853955 10.338462,-3.358613 23.076923,-3.358613 12.738462,0 23.076924,1.504658 23.076924,3.358613 z" transform="translate(-0.3770313,-3.2001072)" id="8" opacity="0.8" fill="url(#5)"/>
  <path d="m 9,1.5000005 30,0 c 3.324,0 6,2.676 6,6 L 45,37.5 c 0,3.324 -2.676,6 -6,6 l -30,0 c -3.324,0 -6,-2.676 -6,-6 L 3,7.5000005 c 0,-3.324 2.676,-6 6,-6 z" id="9" fill="#888a85"/>
  <path d="M 9,4.09375 C 6.2608771,4.09375 4.09375,6.2608771 4.09375,9 l 0,30 c 0,2.739123 2.1671271,4.90625 4.90625,4.90625 l 30,0 c 2.739123,0 4.90625,-2.167127 4.90625,-4.90625 l 0,-30 C 43.90625,6.2608771 41.739123,4.09375 39,4.09375 l -30,0 z" transform="translate(1.179199e-8,-1.4999995)" id="A" fill="url(#6)"/>
  <path d="m 9,2.7187505 c -2.6655117,0 -4.78125,2.1157383 -4.78125,4.78125 l 0,29.9999995 c 0,2.665513 2.1157384,4.78125 4.78125,4.78125 l 30,0 c 2.665512,0 4.78125,-2.115737 4.78125,-4.78125 l 0,-29.9999995 c 0,-2.6655116 -2.115738,-4.78125 -4.78125,-4.78125 l -30,0 z m 0,1 30,0 c 2.145718,0 3.78125,1.635532 3.78125,3.78125 l 0,29.9999995 c 0,2.145719 -1.635532,3.78125 -3.78125,3.78125 l -30,0 c -2.145718,0 -3.78125,-1.635531 -3.78125,-3.78125 l 0,-29.9999995 c 0,-2.1457179 1.6355321,-3.78125 3.78125,-3.78125 z" id="B" opacity="0.8" fill="url(#7)"/>
  <g transform="translate(-2.096383,0)" id="C">
   <path d="m 22.308893,24.947118 5.88739,0 -3.260119,-8.879028 -3.375181,8.418776 c -9e-6,0.191783 0.03834,0.319631 0.115063,0.383543 0.08948,0.05115 0.300433,0.07672 0.632847,0.07671 m -4.123091,8.207827 c -0.140639,0.383546 -0.217347,0.709558 -0.230126,0.978036 -6e-6,0.268482 0.159804,0.473038 0.479429,0.613669 0.319613,0.140634 0.850181,0.21095 1.591705,0.210949 0.319611,10e-7 0.536952,0.03196 0.652023,0.09589 0.115055,0.05114 0.172586,0.153418 0.172595,0.306834 l 0,0.786264 -0.191772,0.153418 c -2.403544,-0.05114 -3.918539,-0.07671 -4.544988,-0.07671 l -3.356005,0.07671 -0.306834,-0.115063 0,-0.824619 c 0,-0.127846 0.03835,-0.223732 0.115063,-0.287657 0.07671,-0.06392 0.153417,-0.09589 0.230126,-0.09589 0.08949,-0.01278 0.236518,-0.01918 0.441075,-0.01918 0.447466,10e-7 0.920502,-0.19177 1.41911,-0.575315 0.498604,-0.383541 0.901324,-0.946071 1.208162,-1.687591 L 24.62933,11.638164 c 0.166189,-0.421872 0.4091,-0.728707 0.728732,-0.920504 0.332391,-0.204531 0.639225,-0.306809 0.920504,-0.306835 0.86935,2.6e-5 1.457449,0.409139 1.764299,1.227339 l 7.939347,21.056529 c 0.306811,0.779874 0.613646,1.355189 0.920504,1.725945 0.30681,0.357976 0.690353,0.536962 1.15063,0.536961 l 1.112276,0 c 0.268453,10e-7 0.428263,0.02557 0.479429,0.07671 0.0639,0.05114 0.09586,0.15981 0.09589,0.326011 l 0,0.786264 -0.191772,0.153418 c -2.505841,-0.05114 -4.257353,-0.07671 -5.254543,-0.07671 l -5.657264,0.07671 -0.326012,-0.191772 0,-0.74791 c -1.6e-5,-0.268479 0.345172,-0.402719 1.035567,-0.40272 l 1.054744,0 c 0.652005,10e-7 0.978016,-0.338795 0.978035,-1.01639 -1.9e-5,-0.281262 -0.02559,-0.466642 -0.07671,-0.556138 l -2.4355,-6.596945 -7.229792,0 c -0.409122,9e-6 -0.683994,0.03197 -0.824618,0.09589 -0.140641,0.05115 -0.268489,0.204565 -0.383544,0.460252 l -2.243728,5.810681" id="J" fill="#fff"/>
   <path d="m 22.308893,23.947404 5.88739,0 -3.260119,-8.879028 -3.375181,8.418776 c -9e-6,0.191783 0.03834,0.319631 0.115063,0.383543 0.08948,0.05115 0.300433,0.07672 0.632847,0.07671 m -4.123091,8.207827 c -0.140639,0.383546 -0.217347,0.709558 -0.230126,0.978036 -6e-6,0.268482 0.159804,0.473038 0.479429,0.613669 0.319613,0.140634 0.850181,0.21095 1.591705,0.210949 0.319611,10e-7 0.536952,0.03196 0.652023,0.09589 0.115055,0.05114 0.172586,0.153418 0.172595,0.306835 l 0,0.786263 -0.191772,0.153418 c -2.403544,-0.05114 -3.918539,-0.07671 -4.544988,-0.07671 l -3.356005,0.07671 -0.306834,-0.115063 0,-0.824618 c 0,-0.127847 0.03835,-0.223733 0.115063,-0.287658 0.07671,-0.06392 0.153417,-0.09588 0.230126,-0.09589 0.08949,-0.01278 0.236518,-0.01918 0.441075,-0.01918 0.447466,10e-7 0.920502,-0.19177 1.41911,-0.575315 0.498604,-0.383541 0.901324,-0.946071 1.208162,-1.687591 L 24.62933,10.63845 c 0.166189,-0.421872 0.4091,-0.7287067 0.728732,-0.9205037 0.332391,-0.2045307 0.639225,-0.3068088 0.920504,-0.3068347 0.86935,2.59e-5 1.457449,0.4091383 1.764299,1.2273384 l 7.939347,21.056529 c 0.306811,0.779875 0.613646,1.355189 0.920504,1.725945 0.30681,0.357976 0.690353,0.536962 1.15063,0.536961 l 1.112276,0 c 0.268453,1e-6 0.428263,0.02557 0.479429,0.07671 0.0639,0.05114 0.09586,0.15981 0.09589,0.326012 l 0,0.786263 -0.191772,0.153418 c -2.505841,-0.05114 -4.257353,-0.07671 -5.254543,-0.07671 l -5.657264,0.07671 -0.326012,-0.191772 0,-0.747909 c -1.6e-5,-0.26848 0.345172,-0.40272 1.035567,-0.402721 l 1.054744,0 c 0.652005,10e-7 0.978016,-0.338795 0.978035,-1.01639 -1.9e-5,-0.281262 -0.02559,-0.466641 -0.07671,-0.556138 l -2.4355,-6.596945 -7.229792,0 c -0.409122,9e-6 -0.683994,0.03197 -0.824618,0.09589 -0.140641,0.05115 -0.268489,0.204565 -0.383544,0.460252 l -2.243728,5.810681" id="K" fill="#555753"/>
  </g>
 </g>
</svg>
