<svg xmlns="http://www.w3.org/2000/svg" style="enable-background:new" viewBox="0 0 646 683.43"><g style="filter:url(#a)" transform="translate(-110 -172.08)"><path d="M757.79 386.06c0 111.25-90.183 201.43-201.43 201.43s-201.43-90.183-201.43-201.43 90.183-201.43 201.43-201.43 201.43 90.183 201.43 201.43" style="filter:url(#b);fill:#f0f;enable-background:new"/></g><g style="filter:url(#c)" transform="translate(-110 -172.08)"><path d="M-221.43 288.08a201.43 201.43 0 1 1-402.86 0 201.43 201.43 0 1 1 402.86 0" style="filter:url(#b);fill:#2a7fff;enable-background:new" transform="translate(872.68 365.67)"/></g><g style="filter:url(#b)" transform="translate(-110 -172.08)"><path d="M-221.43 288.08a201.43 201.43 0 1 1-402.86 0 201.43 201.43 0 1 1 402.86 0" style="fill:#ff0" transform="translate(734.29 100)"/></g></svg>
