<?xml version="1.0" encoding="UTF-8" standalone="no"?>
<!--part of the rodentia icon theme by sixsixfive released under CC0 (https://creativecommons.org/publicdomain/zero/1.0/) on openclipart-->

<svg
   xmlns:dc="http://purl.org/dc/elements/1.1/"
   xmlns:cc="http://creativecommons.org/ns#"
   xmlns:rdf="http://www.w3.org/1999/02/22-rdf-syntax-ns#"
   xmlns:svg="http://www.w3.org/2000/svg"
   xmlns="http://www.w3.org/2000/svg"
   xmlns:xlink="http://www.w3.org/1999/xlink"
   xmlns:sodipodi="http://sodipodi.sourceforge.net/DTD/sodipodi-0.dtd"
   xmlns:inkscape="http://www.inkscape.org/namespaces/inkscape"
   viewBox="0 0 32.192452 32.192452"
   version="1.1"
   id="svg88"
   sodipodi:docname="config_style.svg"
   inkscape:version="1.0 (4035a4fb49, 2020-05-01)"
   width="32.192451"
   height="32.192451">
  <metadata
     id="metadata92">
    <rdf:RDF>
      <cc:Work
         rdf:about="">
        <dc:format>image/svg+xml</dc:format>
        <dc:type
           rdf:resource="http://purl.org/dc/dcmitype/StillImage" />
        <dc:title></dc:title>
      </cc:Work>
    </rdf:RDF>
  </metadata>
  <sodipodi:namedview
     pagecolor="#ffffff"
     bordercolor="#666666"
     borderopacity="1"
     objecttolerance="10"
     gridtolerance="10"
     guidetolerance="10"
     inkscape:pageopacity="0"
     inkscape:pageshadow="2"
     inkscape:window-width="3440"
     inkscape:window-height="1377"
     id="namedview90"
     showgrid="false"
     inkscape:zoom="21"
     inkscape:cx="-8.0119971"
     inkscape:cy="11.528456"
     inkscape:window-x="-8"
     inkscape:window-y="-8"
     inkscape:window-maximized="1"
     inkscape:current-layer="m"
     inkscape:document-rotation="0" />
  <defs
     id="0">
    <linearGradient
       id="2">
      <stop
         id="R"
         stop-color="#75507b" />
      <stop
         id="S"
         offset="1"
         stop-color="#ad7fa8" />
    </linearGradient>
    <linearGradient
       id="3">
      <stop
         id="T"
         stop-color="#2e3436" />
      <stop
         id="U"
         offset="1"
         stop-color="#2e3436"
         stop-opacity="0" />
    </linearGradient>
    <linearGradient
       id="4">
      <stop
         id="V"
         stop-color="#fff"
         stop-opacity="0.8" />
      <stop
         id="W"
         offset="1"
         stop-color="#fff"
         stop-opacity="0" />
    </linearGradient>
    <radialGradient
       cx="24.377001"
       cy="45.941002"
       r="23.08"
       id="5"
       xlink:href="#3"
       gradientUnits="userSpaceOnUse"
       gradientTransform="matrix(1,0,0,0.1455399,0,39.255173)" />
    <linearGradient
       y1="4.2189999"
       x2="0"
       y2="43.780998"
       id="6"
       xlink:href="#4"
       gradientUnits="userSpaceOnUse" />
    <linearGradient
       id="7">
      <stop
         id="X"
         stop-color="#eeeeec" />
      <stop
         id="Y"
         offset="1"
         stop-color="#eeeeec"
         stop-opacity="0" />
    </linearGradient>
    <linearGradient
       x1="-8.9230003"
       y1="-74.991997"
       x2="26.771999"
       y2="44.882"
       id="8"
       xlink:href="#7"
       gradientUnits="userSpaceOnUse"
       gradientTransform="translate(0.7063923,-1.5)" />
    <radialGradient
       cx="24.370001"
       cy="40.985001"
       r="19.906"
       id="9"
       xlink:href="#2"
       gradientUnits="userSpaceOnUse"
       gradientTransform="matrix(0.9084557,-3.6278821,1.8481639,0.4627977,-69.408049,111.9729)" />
    <linearGradient
       x1="31.993999"
       x2="37.723999"
       id="B"
       xlink:href="#E"
       gradientUnits="userSpaceOnUse" />
    <linearGradient
       id="C">
      <stop
         id="a"
         stop-color="#1b1f20" />
      <stop
         id="b"
         offset="1"
         stop-color="#babdb6" />
    </linearGradient>
    <linearGradient
       id="D">
      <stop
         id="c"
         stop-color="#2e3436" />
      <stop
         id="d"
         offset="0.644"
         stop-color="#888a85" />
      <stop
         id="e"
         offset="1"
         stop-color="#555753" />
    </linearGradient>
    <linearGradient
       id="E">
      <stop
         id="f"
         stop-color="#eeeeec" />
      <stop
         id="g"
         offset="0.789"
         stop-color="#fff" />
      <stop
         id="h"
         offset="1"
         stop-color="#eeeeec" />
    </linearGradient>
    <linearGradient
       x1="42.905998"
       y1="42.220001"
       x2="44.813"
       y2="41.41"
       id="F"
       xlink:href="#D"
       gradientUnits="userSpaceOnUse"
       gradientTransform="matrix(0.6103744,-0.4939936,0.383671,0.7858844,-6.2402785,21.386812)" />
    <linearGradient
       x1="39"
       y1="26.129999"
       x2="36.380001"
       y2="20.438"
       id="G"
       xlink:href="#C"
       gradientUnits="userSpaceOnUse"
       gradientTransform="matrix(0.6103744,-0.4939936,0.383671,0.7858844,-6.2402785,21.386812)" />
    <linearGradient
       id="H">
      <stop
         id="i"
         stop-color="#eeeeec"
         stop-opacity="0.8" />
      <stop
         id="j"
         offset="1"
         stop-color="#eeeeec"
         stop-opacity="0" />
    </linearGradient>
    <linearGradient
       y1="5.7810001"
       x2="0"
       y2="42.439999"
       id="I"
       xlink:href="#H"
       gradientUnits="userSpaceOnUse" />
    <filter
       color-interpolation-filters="sRGB"
       id="J">
      <feGaussianBlur
         stdDeviation="0.17379"
         id="k" />
    </filter>
    <filter
       x="-0.142"
       y="-0.171"
       width="1.285"
       height="1.3430001"
       color-interpolation-filters="sRGB"
       id="K">
      <feGaussianBlur
         stdDeviation="5.21042"
         id="l" />
    </filter>
    <linearGradient
       inkscape:collect="always"
       xlink:href="#H"
       id="linearGradient909"
       gradientUnits="userSpaceOnUse"
       y1="5.7810001"
       x2="0"
       y2="42.439999" />
    <linearGradient
       inkscape:collect="always"
       xlink:href="#H"
       id="linearGradient911"
       gradientUnits="userSpaceOnUse"
       y1="5.7810001"
       x2="0"
       y2="42.439999" />
    <linearGradient
       inkscape:collect="always"
       xlink:href="#E"
       id="linearGradient913"
       gradientUnits="userSpaceOnUse"
       x1="31.993999"
       x2="37.723999" />
    <filter
       style="color-interpolation-filters:sRGB;"
       inkscape:label="Drop Shadow"
       id="filter1061">
      <feFlood
         flood-opacity="1"
         flood-color="rgb(0,0,0)"
         result="flood"
         id="feFlood1051" />
      <feComposite
         in="flood"
         in2="SourceGraphic"
         operator="in"
         result="composite1"
         id="feComposite1053" />
      <feGaussianBlur
         in="composite1"
         stdDeviation="0.2"
         result="blur"
         id="feGaussianBlur1055" />
      <feOffset
         dx="0"
         dy="0"
         result="offset"
         id="feOffset1057" />
      <feComposite
         in="SourceGraphic"
         in2="offset"
         operator="over"
         result="composite2"
         id="feComposite1059" />
    </filter>
  </defs>
  <g
     id="1"
     transform="translate(-2.7024734,2.0046467)">
    <g
       id="O"
       transform="translate(-7.0952381,-8.7142857)">
      <g
         id="m">
        <g
           id="n"
           opacity="0.579"
           fill="#2e3436"
           filter="url(#J)"
           stroke="#000000">
          <g
             transform="matrix(0.2593543,-0.00364348,0.00364348,0.2593543,2.2122708,14.823)"
             id="s">
            <path
               d="m 23.875,4.1875 a 0.96721468,0.96721468 0 0 0 -0.75,0.59375 l -5.40625,12.5625 -13.625,1.25 a 0.96721468,0.96721468 0 0 0 -0.53125,1.6875 l 10.25,9.03125 -3,13.34375 a 0.96721468,0.96721468 0 0 0 1.4375,1.0625 l 11.75,-7 11.75,6.96875 a 0.96721468,0.96721468 0 0 0 1.4375,-1.0625 l -3,-13.3125 10.25,-9.03125 a 0.96721468,0.96721468 0 0 0 -0.53125,-1.6875 l -13.625,-1.25 L 24.875,4.78125 a 0.96721468,0.96721468 0 0 0 -1,-0.59375 z"
               transform="translate(61.777264,-22.24886)"
               id="1C" />
            <path
               d="m 73.537749,20.618682 3.12627,-13.899048 -10.70698,-9.397751 14.184853,-1.321784 5.62915,-13.087007 5.640451,13.082141 14.185997,1.309535 -10.698868,9.406993 3.138271,13.896344 -12.252711,-7.2683 z"
               id="1D" />
            <path
               d="M 24,6.28125 18.78125,18.4375 a 0.45469846,0.45469846 0 0 1 -0.375,0.25 l -13.125,1.21875 9.90625,8.71875 a 0.45469846,0.45469846 0 0 1 0.125,0.4375 l -2.90625,12.875 11.375,-6.75 a 0.45469846,0.45469846 0 0 1 0.4375,0 l 11.375,6.71875 L 32.6875,29.0625 a 0.45469846,0.45469846 0 0 1 0.125,-0.4375 l 9.90625,-8.71875 -13.125,-1.21875 a 0.45469846,0.45469846 0 0 1 -0.375,-0.25 z"
               transform="translate(61.777264,-22.24886)"
               id="1E" />
          </g>
          <g
             transform="matrix(0.1582857,0.019173,-0.019173,0.1582857,1.5570317,10.880059)"
             id="t">
            <path
               d="m 23.875,4.1875 a 0.96721468,0.96721468 0 0 0 -0.75,0.59375 l -5.40625,12.5625 -13.625,1.25 a 0.96721468,0.96721468 0 0 0 -0.53125,1.6875 l 10.25,9.03125 -3,13.34375 a 0.96721468,0.96721468 0 0 0 1.4375,1.0625 l 11.75,-7 11.75,6.96875 a 0.96721468,0.96721468 0 0 0 1.4375,-1.0625 l -3,-13.3125 10.25,-9.03125 a 0.96721468,0.96721468 0 0 0 -0.53125,-1.6875 l -13.625,-1.25 L 24.875,4.78125 a 0.96721468,0.96721468 0 0 0 -1,-0.59375 z"
               transform="translate(61.777264,-22.24886)"
               id="1F" />
            <path
               d="m 73.537749,20.618682 3.12627,-13.899048 -10.70698,-9.397751 14.184853,-1.321784 5.62915,-13.087007 5.640451,13.082141 14.185997,1.309535 -10.698868,9.406993 3.138271,13.896344 -12.252711,-7.2683 z"
               id="1G" />
            <path
               d="M 24,6.28125 18.78125,18.4375 a 0.45469846,0.45469846 0 0 1 -0.375,0.25 l -13.125,1.21875 9.90625,8.71875 a 0.45469846,0.45469846 0 0 1 0.125,0.4375 l -2.90625,12.875 11.375,-6.75 a 0.45469846,0.45469846 0 0 1 0.4375,0 l 11.375,6.71875 L 32.6875,29.0625 a 0.45469846,0.45469846 0 0 1 0.125,-0.4375 l 9.90625,-8.71875 -13.125,-1.21875 a 0.45469846,0.45469846 0 0 1 -0.375,-0.25 z"
               transform="translate(61.777264,-22.24886)"
               id="1H" />
          </g>
          <g
             transform="matrix(0.1423172,0.1559484,-0.1559484,0.1423172,3.804641,7.0081235)"
             id="u">
            <path
               d="m 23.875,4.1875 a 0.96721468,0.96721468 0 0 0 -0.75,0.59375 l -5.40625,12.5625 -13.625,1.25 a 0.96721468,0.96721468 0 0 0 -0.53125,1.6875 l 10.25,9.03125 -3,13.34375 a 0.96721468,0.96721468 0 0 0 1.4375,1.0625 l 11.75,-7 11.75,6.96875 a 0.96721468,0.96721468 0 0 0 1.4375,-1.0625 l -3,-13.3125 10.25,-9.03125 a 0.96721468,0.96721468 0 0 0 -0.53125,-1.6875 l -13.625,-1.25 L 24.875,4.78125 a 0.96721468,0.96721468 0 0 0 -1,-0.59375 z"
               transform="translate(61.777264,-22.24886)"
               id="1I" />
            <path
               d="m 73.537749,20.618682 3.12627,-13.899048 -10.70698,-9.397751 14.184853,-1.321784 5.62915,-13.087007 5.640451,13.082141 14.185997,1.309535 -10.698868,9.406993 3.138271,13.896344 -12.252711,-7.2683 z"
               id="1J" />
            <path
               d="M 24,6.28125 18.78125,18.4375 a 0.45469846,0.45469846 0 0 1 -0.375,0.25 l -13.125,1.21875 9.90625,8.71875 a 0.45469846,0.45469846 0 0 1 0.125,0.4375 l -2.90625,12.875 11.375,-6.75 a 0.45469846,0.45469846 0 0 1 0.4375,0 l 11.375,6.71875 L 32.6875,29.0625 a 0.45469846,0.45469846 0 0 1 0.125,-0.4375 l 9.90625,-8.71875 -13.125,-1.21875 a 0.45469846,0.45469846 0 0 1 -0.375,-0.25 z"
               transform="translate(61.777264,-22.24886)"
               id="1K" />
          </g>
        </g>
        <g
           transform="matrix(0.2593543,-0.00364348,0.00364348,0.2593543,2.2122708,14.823)"
           id="o">
          <path
             d="m 23.875,4.1875 a 0.96721468,0.96721468 0 0 0 -0.75,0.59375 l -5.40625,12.5625 -13.625,1.25 a 0.96721468,0.96721468 0 0 0 -0.53125,1.6875 l 10.25,9.03125 -3,13.34375 a 0.96721468,0.96721468 0 0 0 1.4375,1.0625 l 11.75,-7 11.75,6.96875 a 0.96721468,0.96721468 0 0 0 1.4375,-1.0625 l -3,-13.3125 10.25,-9.03125 a 0.96721468,0.96721468 0 0 0 -0.53125,-1.6875 l -13.625,-1.25 L 24.875,4.78125 a 0.96721468,0.96721468 0 0 0 -1,-0.59375 z"
             transform="translate(61.777264,-22.24886)"
             id="v"
             fill="#9c7f00" />
          <path
             d="m 73.537749,20.618682 3.12627,-13.899048 -10.70698,-9.397751 14.184853,-1.321784 5.62915,-13.087007 5.640451,13.082141 14.185997,1.309535 -10.698868,9.406993 3.138271,13.896344 -12.252711,-7.2683 z"
             id="w"
             fill="#edd400" />
          <path
             d="M 24,6.28125 18.78125,18.4375 a 0.45469846,0.45469846 0 0 1 -0.375,0.25 l -13.125,1.21875 9.90625,8.71875 a 0.45469846,0.45469846 0 0 1 0.125,0.4375 l -2.90625,12.875 11.375,-6.75 a 0.45469846,0.45469846 0 0 1 0.4375,0 l 11.375,6.71875 L 32.6875,29.0625 a 0.45469846,0.45469846 0 0 1 0.125,-0.4375 l 9.90625,-8.71875 -13.125,-1.21875 a 0.45469846,0.45469846 0 0 1 -0.375,-0.25 z"
             transform="translate(61.777264,-22.24886)"
             id="x"
             fill="none"
             stroke="url(#I)"
             style="stroke:url(#linearGradient909)" />
        </g>
        <g
           transform="matrix(0.1582857,0.019173,-0.019173,0.1582857,1.5570317,10.880059)"
           id="p">
          <path
             d="m 23.875,4.1875 a 0.96721468,0.96721468 0 0 0 -0.75,0.59375 l -5.40625,12.5625 -13.625,1.25 a 0.96721468,0.96721468 0 0 0 -0.53125,1.6875 l 10.25,9.03125 -3,13.34375 a 0.96721468,0.96721468 0 0 0 1.4375,1.0625 l 11.75,-7 11.75,6.96875 a 0.96721468,0.96721468 0 0 0 1.4375,-1.0625 l -3,-13.3125 10.25,-9.03125 a 0.96721468,0.96721468 0 0 0 -0.53125,-1.6875 l -13.625,-1.25 L 24.875,4.78125 a 0.96721468,0.96721468 0 0 0 -1,-0.59375 z"
             transform="translate(61.777264,-22.24886)"
             id="y"
             fill="#9c7f00" />
          <path
             d="m 73.537749,20.618682 3.12627,-13.899048 -10.70698,-9.397751 14.184853,-1.321784 5.62915,-13.087007 5.640451,13.082141 14.185997,1.309535 -10.698868,9.406993 3.138271,13.896344 -12.252711,-7.2683 z"
             id="z"
             fill="#edd400" />
          <path
             d="M 24,6.28125 18.78125,18.4375 a 0.45469846,0.45469846 0 0 1 -0.375,0.25 l -13.125,1.21875 9.90625,8.71875 a 0.45469846,0.45469846 0 0 1 0.125,0.4375 l -2.90625,12.875 11.375,-6.75 a 0.45469846,0.45469846 0 0 1 0.4375,0 l 11.375,6.71875 L 32.6875,29.0625 a 0.45469846,0.45469846 0 0 1 0.125,-0.4375 l 9.90625,-8.71875 -13.125,-1.21875 a 0.45469846,0.45469846 0 0 1 -0.375,-0.25 z"
             transform="translate(61.777264,-22.24886)"
             id="10"
             fill="none"
             stroke="url(#I)"
             style="stroke:url(#linearGradient911)" />
        </g>
        <g
           transform="matrix(0.1423172,0.1559484,-0.1559484,0.1423172,3.804641,7.0081235)"
           id="q">
          <path
             d="m 23.875,4.1875 a 0.96721468,0.96721468 0 0 0 -0.75,0.59375 l -5.40625,12.5625 -13.625,1.25 a 0.96721468,0.96721468 0 0 0 -0.53125,1.6875 l 10.25,9.03125 -3,13.34375 a 0.96721468,0.96721468 0 0 0 1.4375,1.0625 l 11.75,-7 11.75,6.96875 a 0.96721468,0.96721468 0 0 0 1.4375,-1.0625 l -3,-13.3125 10.25,-9.03125 a 0.96721468,0.96721468 0 0 0 -0.53125,-1.6875 l -13.625,-1.25 L 24.875,4.78125 a 0.96721468,0.96721468 0 0 0 -1,-0.59375 z"
             transform="translate(61.777264,-22.24886)"
             id="11"
             fill="#9c7f00" />
          <path
             d="m 73.537749,20.618682 3.12627,-13.899048 -10.70698,-9.397751 14.184853,-1.321784 5.62915,-13.087007 5.640451,13.082141 14.185997,1.309535 -10.698868,9.406993 3.138271,13.896344 -12.252711,-7.2683 z"
             id="12"
             fill="#edd400" />
          <path
             d="M 24,6.28125 18.78125,18.4375 a 0.45469846,0.45469846 0 0 1 -0.375,0.25 l -13.125,1.21875 9.90625,8.71875 a 0.45469846,0.45469846 0 0 1 0.125,0.4375 l -2.90625,12.875 11.375,-6.75 a 0.45469846,0.45469846 0 0 1 0.4375,0 l 11.375,6.71875 L 32.6875,29.0625 a 0.45469846,0.45469846 0 0 1 0.125,-0.4375 l 9.90625,-8.71875 -13.125,-1.21875 a 0.45469846,0.45469846 0 0 1 -0.375,-0.25 z"
             transform="translate(61.777264,-22.24886)"
             id="13"
             fill="none"
             stroke="url(#I)"
             style="stroke:url(#I)" />
          <g
             id="14"
             opacity="0.639"
             fill="#fce94f"
             filter="url(#K)">
            <path
               d="m 73.537749,20.618682 3.12627,-13.899048 -10.70698,-9.397751 14.184853,-1.321784 5.62915,-13.087007 5.640451,13.082141 14.185997,1.309535 -10.698868,9.406993 3.138271,13.896344 -12.252711,-7.2683 z"
               transform="matrix(0.8153253,-0.9190186,0.9190186,0.8153253,22.257232,30.522641)"
               id="1L" />
            <path
               d="m 73.537749,20.618682 3.12627,-13.899048 -10.70698,-9.397751 14.184853,-1.321784 5.62915,-13.087007 5.640451,13.082141 14.185997,1.309535 -10.698868,9.406993 3.138271,13.896344 -12.252711,-7.2683 z"
               transform="matrix(0.5724576,-0.4925676,0.4925676,0.5724576,6.3702633,20.225968)"
               id="1M" />
            <path
               d="m 73.537749,20.618682 3.12627,-13.899048 -10.70698,-9.397751 14.184853,-1.321784 5.62915,-13.087007 5.640451,13.082141 14.185997,1.309535 -10.698868,9.406993 3.138271,13.896344 -12.252711,-7.2683 z"
               id="1N" />
          </g>
        </g>
        <g
           id="r"
           style="filter:url(#filter1061)">
          <path
             d="M 19.927467,18.299115 38.988793,34.667849"
             id="15"
             fill="none"
             stroke="url(#G)"
             stroke-linecap="round"
             stroke-width="3.272"
             style="stroke:url(#G)" />
          <path
             d="M 19.927467,18.299115 38.988793,34.667849"
             id="16"
             fill="#ffffff"
             fill-rule="evenodd"
             stroke="url(#F)"
             stroke-linecap="round"
             stroke-width="1.636"
             style="stroke:url(#F)" />
          <path
             d="m 32.9375,11.9375 c -0.05811,0.0063 -0.09582,0.01691 -0.15625,0.03125 -0.300742,0.07555 -0.557097,0.314315 -0.6875,0.59375 -0.130403,0.279435 -0.134816,0.56567 0,0.84375 l 3.75,8.34375 a 0.02694836,0.02694836 0 0 0 0,0.03125 0.02694836,0.02694836 0 0 0 0.03125,0 0.02694836,0.02694836 0 0 0 0.03125,0 0.02694836,0.02694836 0 0 0 0,-0.03125 c 0.234458,-0.405774 0.576958,-0.667125 1.03125,-0.78125 0.248808,-0.05903 0.510721,-0.05104 0.75,0 a 0.02694836,0.02694836 0 0 0 0.03125,0 0.02694836,0.02694836 0 0 0 0,-0.03125 l -3.75,-8.34375 C 33.824845,12.242701 33.483751,11.983006 33.125,11.9375 c -0.06049,-0.0077 -0.129389,-0.0063 -0.1875,0 z"
             transform="matrix(0.6103745,-0.4939936,0.383671,0.7858845,-5.2211299,24.399387)"
             id="17"
             fill="url(#B)"
             fill-rule="evenodd"
             style="fill:url(#linearGradient913)" />
          <path
             d="M 19.927467,18.299115 38.988793,34.667849"
             id="19"
             fill="#2e3436"
             fill-rule="evenodd"
             stroke="#323232"
             stroke-linecap="round"
             stroke-width="3.272" />
          <path
             d="M 19.927467,18.299115 38.988793,34.667849"
             id="1A"
             fill="#555753"
             fill-rule="evenodd"
             stroke="#555555"
             stroke-linecap="round"
             stroke-width="1.636" />
          <path
             d="m 32.9375,11.9375 c -0.05811,0.0063 -0.09582,0.01691 -0.15625,0.03125 -0.300742,0.07555 -0.557097,0.314315 -0.6875,0.59375 -0.130403,0.279435 -0.134816,0.56567 0,0.84375 l 3.75,8.34375 a 0.02694836,0.02694836 0 0 0 0,0.03125 0.02694836,0.02694836 0 0 0 0.03125,0 0.02694836,0.02694836 0 0 0 0.03125,0 0.02694836,0.02694836 0 0 0 0,-0.03125 c 0.234458,-0.405774 0.576958,-0.667125 1.03125,-0.78125 0.248808,-0.05903 0.510721,-0.05104 0.75,0 a 0.02694836,0.02694836 0 0 0 0.03125,0 0.02694836,0.02694836 0 0 0 0,-0.03125 l -3.75,-8.34375 C 33.824845,12.242701 33.483751,11.983006 33.125,11.9375 c -0.06049,-0.0077 -0.129389,-0.0063 -0.1875,0 z"
             transform="matrix(0.6103745,-0.4939936,0.383671,0.7858845,-5.2211299,24.399387)"
             id="1B"
             fill="url(#B)"
             fill-rule="evenodd"
             style="fill:url(#B)" />
        </g>
      </g>
    </g>
  </g>
</svg>
