<?xml version="1.0" encoding="UTF-8" standalone="no"?>
<!-- Uploaded to: SVG Repo, www.svgrepo.com, Generator: SVG Repo Mixer Tools -->

<svg
   height="800px"
   width="800px"
   version="1.1"
   id="_x36_"
   viewBox="0 0 512 512"
   xml:space="preserve"
   sodipodi:docname="data_update.svg"
   inkscape:version="1.2.2 (b0a8486541, 2022-12-01)"
   xmlns:inkscape="http://www.inkscape.org/namespaces/inkscape"
   xmlns:sodipodi="http://sodipodi.sourceforge.net/DTD/sodipodi-0.dtd"
   xmlns:xlink="http://www.w3.org/1999/xlink"
   xmlns="http://www.w3.org/2000/svg"
   xmlns:svg="http://www.w3.org/2000/svg"><defs
   id="defs355"><rect
     x="239.09401"
     y="207.46396"
     width="387.92233"
     height="423.1318"
     id="rect2027" /><linearGradient
     inkscape:collect="always"
     id="linearGradient1967"><stop
       style="stop-color:#5e5e5e;stop-opacity:1;"
       offset="0"
       id="stop1965" /><stop
       style="stop-color:#1e1e1e;stop-opacity:1;"
       offset="1"
       id="stop1963" /></linearGradient><linearGradient
     inkscape:collect="always"
     id="linearGradient1810"><stop
       style="stop-color:#670764;stop-opacity:1;"
       offset="0"
       id="stop1806" /><stop
       style="stop-color:#9c1097;stop-opacity:1;"
       offset="0.27232832"
       id="stop1938" /><stop
       style="stop-color:#d60dbd;stop-opacity:1;"
       offset="1"
       id="stop1808" /></linearGradient><linearGradient
     id="linearGradient3879"><stop
       id="stop3881"
       style="stop-color:#9c9c9c"
       offset="0" /><stop
       id="stop3883"
       style="stop-color:#ffffff"
       offset="1" /></linearGradient><mask
     id="mask3848"
     maskUnits="userSpaceOnUse"><path
       id="path3850"
       style="opacity:0.78846;fill:url(#radialGradient3852);fill-rule:evenodd"
       d="m 84.094,829.08 c -25.153,1.2433 -47.92,22.016 -50.625,47.25 12.099,10.751 30.812,16.083 45.25,6.8438 8.6561,-5.6183 15.868,-14.308 26.688,-15.719 12.909,-2.4273 25.778,3.0258 36.156,10.312 -2.2754,-26.836 -27.239,-49.438 -54.188,-48.719 -1.0937,0.0112 -2.1883,-0.0277 -3.2812,0.0312 z" /></mask><radialGradient
     id="radialGradient3852"
     xlink:href="#linearGradient3842"
     gradientUnits="userSpaceOnUse"
     cy="851.13"
     cx="87.515999"
     gradientTransform="matrix(1.5624,0,0,0.84387,-49.216,156.4)"
     r="54.047001"
     inkscape:collect="always" /><linearGradient
     id="linearGradient3842"
     inkscape:collect="always"><stop
       id="stop3844"
       style="stop-color:#666666"
       offset="0" /><stop
       id="stop3846"
       style="stop-color:#ffffff"
       offset="1" /></linearGradient><mask
     id="mask3772"
     maskUnits="userSpaceOnUse"><path
       id="path3774"
       style="fill:url(#linearGradient3776);fill-rule:evenodd"
       d="m 84.094,829.08 c -25.153,1.2433 -47.92,22.016 -50.625,47.25 12.099,10.751 30.812,16.083 45.25,6.8438 8.6561,-5.6183 15.868,-14.308 26.688,-15.719 12.909,-2.4273 25.778,3.0258 36.156,10.312 -2.2754,-26.836 -27.239,-49.438 -54.188,-48.719 -1.0937,0.0112 -2.1883,-0.0277 -3.2812,0.0312 z" /></mask><linearGradient
     id="linearGradient3776"
     y2="854.67999"
     gradientUnits="userSpaceOnUse"
     x2="141.56"
     gradientTransform="translate(0)"
     y1="854.67999"
     x1="33.469002"
     inkscape:collect="always"><stop
       id="stop3711-7"
       style="stop-color:#ffffff"
       offset="0" /><stop
       id="stop3713-4"
       style="stop-color:#4d4d4d"
       offset="1" /></linearGradient><mask
     id="mask3719"
     maskUnits="userSpaceOnUse"><path
       id="path3721"
       style="fill:url(#linearGradient3723);fill-rule:evenodd"
       d="m 84.094,829.08 c -25.153,1.2433 -47.92,22.016 -50.625,47.25 12.099,10.751 30.812,16.083 45.25,6.8438 8.6561,-5.6183 15.868,-14.308 26.688,-15.719 12.909,-2.4273 25.778,3.0258 36.156,10.312 -2.2754,-26.836 -27.239,-49.438 -54.188,-48.719 -1.0937,0.0112 -2.1883,-0.0277 -3.2812,0.0312 z" /></mask><linearGradient
     id="linearGradient3723"
     y2="887.90997"
     gradientUnits="userSpaceOnUse"
     x2="87.515999"
     y1="829.03003"
     x1="87.515999"
     inkscape:collect="always"><stop
       id="stop3711"
       style="stop-color:#ffffff"
       offset="0" /><stop
       id="stop3713"
       style="stop-color:#4d4d4d"
       offset="1" /></linearGradient><mask
     id="mask1611"
     maskUnits="userSpaceOnUse"><path
       id="path1609"
       style="opacity:0.78846;fill:url(#radialGradient3852);fill-rule:evenodd"
       d="m 84.094,829.08 c -25.153,1.2433 -47.92,22.016 -50.625,47.25 12.099,10.751 30.812,16.083 45.25,6.8438 8.6561,-5.6183 15.868,-14.308 26.688,-15.719 12.909,-2.4273 25.778,3.0258 36.156,10.312 -2.2754,-26.836 -27.239,-49.438 -54.188,-48.719 -1.0937,0.0112 -2.1883,-0.0277 -3.2812,0.0312 z" /></mask><radialGradient
     id="radialGradient1613"
     xlink:href="#linearGradient3842"
     gradientUnits="userSpaceOnUse"
     cy="851.13"
     cx="87.515999"
     gradientTransform="matrix(1.5624,0,0,0.84387,-49.216,156.4)"
     r="54.047001"
     inkscape:collect="always" /><mask
     id="mask1623"
     maskUnits="userSpaceOnUse"><path
       id="path1621"
       style="fill:url(#linearGradient3776);fill-rule:evenodd"
       d="m 84.094,829.08 c -25.153,1.2433 -47.92,22.016 -50.625,47.25 12.099,10.751 30.812,16.083 45.25,6.8438 8.6561,-5.6183 15.868,-14.308 26.688,-15.719 12.909,-2.4273 25.778,3.0258 36.156,10.312 -2.2754,-26.836 -27.239,-49.438 -54.188,-48.719 -1.0937,0.0112 -2.1883,-0.0277 -3.2812,0.0312 z" /></mask><mask
     id="mask1633"
     maskUnits="userSpaceOnUse"><path
       id="path1631"
       style="fill:url(#linearGradient3723);fill-rule:evenodd"
       d="m 84.094,829.08 c -25.153,1.2433 -47.92,22.016 -50.625,47.25 12.099,10.751 30.812,16.083 45.25,6.8438 8.6561,-5.6183 15.868,-14.308 26.688,-15.719 12.909,-2.4273 25.778,3.0258 36.156,10.312 -2.2754,-26.836 -27.239,-49.438 -54.188,-48.719 -1.0937,0.0112 -2.1883,-0.0277 -3.2812,0.0312 z" /></mask><linearGradient
     inkscape:collect="always"
     xlink:href="#linearGradient1810"
     id="linearGradient1812"
     x1="27.855717"
     y1="476.17554"
     x2="481.2211"
     y2="30.256069"
     gradientUnits="userSpaceOnUse"
     gradientTransform="matrix(0.9307429,0,0,0.9307429,18.573572,17.536449)" /><linearGradient
     inkscape:collect="always"
     xlink:href="#linearGradient1967"
     id="linearGradient1969"
     x1="126.47585"
     y1="488.92282"
     x2="431.27594"
     y2="23.444973"
     gradientUnits="userSpaceOnUse" /></defs><sodipodi:namedview
   id="namedview353"
   pagecolor="#ffffff"
   bordercolor="#000000"
   borderopacity="0.25"
   inkscape:showpageshadow="2"
   inkscape:pageopacity="0.0"
   inkscape:pagecheckerboard="0"
   inkscape:deskcolor="#d1d1d1"
   showgrid="false"
   inkscape:zoom="1"
   inkscape:cx="431"
   inkscape:cy="418.5"
   inkscape:current-layer="_x36_" />

<path
   style="fill:url(#linearGradient1812);fill-opacity:1;stroke:url(#linearGradient1969);stroke-width:25.6;stroke-dasharray:none;stroke-opacity:1"
   d="M 396.5194,494.07681 H 117.1681 c -54.448463,0 -98.594529,-44.14607 -98.594529,-98.59454 v -279.3513 c 0,-54.448456 44.146066,-98.594522 98.594529,-98.594522 h 279.3513 c 54.44846,0 98.59453,44.146066 98.59453,98.594522 v 279.3513 c 0,54.44847 -44.14607,98.59454 -98.59453,98.59454 z"
   id="path1092" /><text
   xml:space="preserve"
   transform="scale(0.64)"
   id="text2025"
   style="white-space:pre;shape-inside:url(#rect2027);display:inline;fill:#272727;fill-rule:nonzero;stroke:#000000;stroke-width:40;stroke-linecap:butt;stroke-linejoin:round;stroke-dasharray:none;stroke-dashoffset:0;stroke-opacity:1;paint-order:fill markers stroke" /><text
   xml:space="preserve"
   style="font-size:426.667px;fill:#272727;fill-rule:nonzero;stroke:#ffffff;stroke-width:0;stroke-linecap:butt;stroke-linejoin:round;stroke-dasharray:none;stroke-dashoffset:0;stroke-opacity:1;paint-order:fill markers stroke"
   x="139.94955"
   y="407.53711"
   id="text2087"><tspan
     sodipodi:role="line"
     id="tspan2085"
     style="font-style:normal;font-variant:normal;font-weight:bold;font-stretch:normal;font-size:426.667px;font-family:'DejaVu Sans Mono';-inkscape-font-specification:'DejaVu Sans Mono Bold';fill:#ffffff;fill-opacity:1;stroke:#ffffff;stroke-width:0;stroke-linecap:round;stroke-dasharray:none;stroke-opacity:1"
     x="139.94955"
     y="407.53711">U</tspan></text></svg>
