<?xml version="1.0" encoding="UTF-8" standalone="no"?>
<svg
   version="1.2"
   width="20mm"
   height="20mm"
   viewBox="0 0 2000 2000"
   preserveAspectRatio="xMidYMid"
   fill-rule="evenodd"
   stroke-width="28.222"
   stroke-linejoin="round"
   xml:space="preserve"
   id="svg182"
   sodipodi:docname="export_sql_history.svg"
   inkscape:version="1.2.2 (b0a8486541, 2022-12-01)"
   xmlns:inkscape="http://www.inkscape.org/namespaces/inkscape"
   xmlns:sodipodi="http://sodipodi.sourceforge.net/DTD/sodipodi-0.dtd"
   xmlns:xlink="http://www.w3.org/1999/xlink"
   xmlns="http://www.w3.org/2000/svg"
   xmlns:svg="http://www.w3.org/2000/svg"
   xmlns:ooo="http://xml.openoffice.org/svg/export"><sodipodi:namedview
   id="namedview184"
   pagecolor="#ffffff"
   bordercolor="#000000"
   borderopacity="0.25"
   inkscape:showpageshadow="2"
   inkscape:pageopacity="0.0"
   inkscape:pagecheckerboard="0"
   inkscape:deskcolor="#d1d1d1"
   inkscape:document-units="mm"
   showgrid="false"
   inkscape:zoom="9.3076613"
   inkscape:cx="33.252177"
   inkscape:cy="38.946411"
   inkscape:current-layer="svg182" />
 <defs
   class="ClipPathGroup"
   id="defs8">
  <clipPath
   id="presentation_clip_path"
   clipPathUnits="userSpaceOnUse">
   <rect
   x="0"
   y="0"
   width="2000"
   height="2000"
   id="rect2" />
  </clipPath>
  <clipPath
   id="presentation_clip_path_shrink"
   clipPathUnits="userSpaceOnUse">
   <rect
   x="2"
   y="2"
   width="1996"
   height="1996"
   id="rect5" />
  </clipPath>
 <linearGradient
   inkscape:collect="always"
   xlink:href="#linearGradient857"
   id="linearGradient859"
   x1="205.35681"
   y1="307.09927"
   x2="238.57108"
   y2="142.97752"
   gradientUnits="userSpaceOnUse" /><linearGradient
   inkscape:collect="always"
   id="linearGradient857"><stop
     style="stop-color:#92a0ff;stop-opacity:1"
     offset="0"
     id="stop853" /><stop
     style="stop-color:#e8ebff;stop-opacity:1"
     offset="1"
     id="stop855" /></linearGradient><linearGradient
   inkscape:collect="always"
   xlink:href="#linearGradient857"
   id="linearGradient2380"
   gradientUnits="userSpaceOnUse"
   x1="205.35681"
   y1="307.09927"
   x2="238.57108"
   y2="142.97752" /><linearGradient
   inkscape:collect="always"
   xlink:href="#linearGradient857"
   id="linearGradient2382"
   gradientUnits="userSpaceOnUse"
   x1="205.35681"
   y1="307.09927"
   x2="238.57108"
   y2="142.97752" /><linearGradient
   inkscape:collect="always"
   xlink:href="#linearGradient857"
   id="linearGradient2384"
   gradientUnits="userSpaceOnUse"
   x1="205.35681"
   y1="307.09927"
   x2="238.57108"
   y2="142.97752" /><linearGradient
   inkscape:collect="always"
   xlink:href="#linearGradient857"
   id="linearGradient2386"
   gradientUnits="userSpaceOnUse"
   x1="205.35681"
   y1="307.09927"
   x2="238.57108"
   y2="142.97752" /></defs>
 <defs
   class="TextShapeIndex"
   id="defs12">
  <g
   ooo:slide="id1"
   ooo:id-list="id3 id4 id5 id6 id7 id8 id9 id10 id11 id12 id13 id14 id15"
   id="g10" />
 </defs>
 <defs
   class="EmbeddedBulletChars"
   id="defs44">
  <g
   id="bullet-char-template-57356"
   transform="scale(0.00048828125,-0.00048828125)">
   <path
   d="M 580,1141 L 1163,571 580,0 -4,571 580,1141 Z"
   id="path14" />
  </g>
  <g
   id="bullet-char-template-57354"
   transform="scale(0.00048828125,-0.00048828125)">
   <path
   d="M 8,1128 L 1137,1128 1137,0 8,0 8,1128 Z"
   id="path17" />
  </g>
  <g
   id="bullet-char-template-10146"
   transform="scale(0.00048828125,-0.00048828125)">
   <path
   d="M 174,0 L 602,739 174,1481 1456,739 174,0 Z M 1358,739 L 309,1346 659,739 1358,739 Z"
   id="path20" />
  </g>
  <g
   id="bullet-char-template-10132"
   transform="scale(0.00048828125,-0.00048828125)">
   <path
   d="M 2015,739 L 1276,0 717,0 1260,543 174,543 174,936 1260,936 717,1481 1274,1481 2015,739 Z"
   id="path23" />
  </g>
  <g
   id="bullet-char-template-10007"
   transform="scale(0.00048828125,-0.00048828125)">
   <path
   d="M 0,-2 C -7,14 -16,27 -25,37 L 356,567 C 262,823 215,952 215,954 215,979 228,992 255,992 264,992 276,990 289,987 310,991 331,999 354,1012 L 381,999 492,748 772,1049 836,1024 860,1049 C 881,1039 901,1025 922,1006 886,937 835,863 770,784 769,783 710,716 594,584 L 774,223 C 774,196 753,168 711,139 L 727,119 C 717,90 699,76 672,76 641,76 570,178 457,381 L 164,-76 C 142,-110 111,-127 72,-127 30,-127 9,-110 8,-76 1,-67 -2,-52 -2,-32 -2,-23 -1,-13 0,-2 Z"
   id="path26" />
  </g>
  <g
   id="bullet-char-template-10004"
   transform="scale(0.00048828125,-0.00048828125)">
   <path
   d="M 285,-33 C 182,-33 111,30 74,156 52,228 41,333 41,471 41,549 55,616 82,672 116,743 169,778 240,778 293,778 328,747 346,684 L 369,508 C 377,444 397,411 428,410 L 1163,1116 C 1174,1127 1196,1133 1229,1133 1271,1133 1292,1118 1292,1087 L 1292,965 C 1292,929 1282,901 1262,881 L 442,47 C 390,-6 338,-33 285,-33 Z"
   id="path29" />
  </g>
  <g
   id="bullet-char-template-9679"
   transform="scale(0.00048828125,-0.00048828125)">
   <path
   d="M 813,0 C 632,0 489,54 383,161 276,268 223,411 223,592 223,773 276,916 383,1023 489,1130 632,1184 813,1184 992,1184 1136,1130 1245,1023 1353,916 1407,772 1407,592 1407,412 1353,268 1245,161 1136,54 992,0 813,0 Z"
   id="path32" />
  </g>
  <g
   id="bullet-char-template-8226"
   transform="scale(0.00048828125,-0.00048828125)">
   <path
   d="M 346,457 C 273,457 209,483 155,535 101,586 74,649 74,723 74,796 101,859 155,911 209,963 273,989 346,989 419,989 480,963 531,910 582,859 608,796 608,723 608,648 583,586 532,535 482,483 420,457 346,457 Z"
   id="path35" />
  </g>
  <g
   id="bullet-char-template-8211"
   transform="scale(0.00048828125,-0.00048828125)">
   <path
   d="M -4,459 L 1135,459 1135,606 -4,606 -4,459 Z"
   id="path38" />
  </g>
  <g
   id="bullet-char-template-61548"
   transform="scale(0.00048828125,-0.00048828125)">
   <path
   d="M 173,740 C 173,903 231,1043 346,1159 462,1274 601,1332 765,1332 928,1332 1067,1274 1183,1159 1299,1043 1357,903 1357,740 1357,577 1299,437 1183,322 1067,206 928,148 765,148 601,148 462,206 346,322 231,437 173,577 173,740 Z"
   id="path41" />
  </g>
 </defs>
 
 <g
   class="SlideGroup"
   id="g180"
   transform="translate(287.14838,-1.0652628)">
  <g
   id="g178">
   <g
   id="container-id1">
    <g
   id="id1"
   class="Slide"
   clip-path="url(#presentation_clip_path)">
     <g
   class="Page"
   id="g174">
      <g
   class="Group"
   id="g69">
       <g
   class="com.sun.star.drawing.PolyPolygonShape"
   id="g58"
   transform="matrix(1,0,0,1.0991515,0,-11.104965)">
        <g
   id="id3"
   transform="matrix(1,0,0,1.0941874,0,-10.548986)">
         <rect
   class="BoundingBox"
   stroke="none"
   fill="none"
   x="126"
   y="112"
   width="1206"
   height="1477"
   id="rect51" />
         <path
   fill="#b2b2b2"
   stroke="none"
   d="M 164,150 V 1550 H 1293 V 486 L 954,150 Z"
   id="path53" />
         <path
   fill="none"
   stroke="#333333"
   stroke-width="75"
   stroke-linejoin="round"
   d="M 164,150 V 1550 H 1293 V 486 L 954,150 Z"
   id="path55" />
        </g>
       </g>
       <g
   class="com.sun.star.drawing.CustomShape"
   id="g67">
        <g
   id="id4">
         <rect
   class="BoundingBox"
   stroke="none"
   fill="none"
   x="920"
   y="111"
   width="410"
   height="416"
   id="rect60" />
         <path
   fill="#cccccc"
   stroke="none"
   d="m 958,149 333,339 H 958 V 149 Z"
   id="path62" />
         <path
   fill="none"
   stroke="#333333"
   stroke-width="75"
   stroke-linejoin="round"
   d="m 958,149 333,339 H 958 V 149 Z"
   id="path64" />
        </g>
       </g>
      </g>
      
      
      
      <g
   class="com.sun.star.drawing.LineShape"
   id="g106">
       <g
   id="id9">
        <rect
   class="BoundingBox"
   stroke="none"
   fill="none"
   x="312"
   y="712"
   width="827"
   height="77"
   id="rect101" />
        <path
   fill="none"
   stroke="#333333"
   stroke-width="75"
   stroke-linejoin="round"
   d="m 350,750 h 750"
   id="path103" />
       </g>
      </g>
      <g
   class="com.sun.star.drawing.LineShape"
   id="g113">
       <g
   id="id10">
        <rect
   class="BoundingBox"
   stroke="none"
   fill="none"
   x="312"
   y="912"
   width="827"
   height="77"
   id="rect108" />
        <path
   fill="none"
   stroke="#333333"
   stroke-width="75"
   stroke-linejoin="round"
   d="m 350,950 h 750"
   id="path110" />
       </g>
      </g>
      <g
   class="com.sun.star.drawing.LineShape"
   id="g120">
       <g
   id="id11">
        <rect
   class="BoundingBox"
   stroke="none"
   fill="none"
   x="312"
   y="1112"
   width="827"
   height="77"
   id="rect115" />
        <path
   fill="none"
   stroke="#333333"
   stroke-width="75"
   stroke-linejoin="round"
   d="m 350,1150 h 750"
   id="path117" />
       </g>
      </g>
      <g
   class="com.sun.star.drawing.LineShape"
   id="g127">
       <g
   id="id12">
        <rect
   class="BoundingBox"
   stroke="none"
   fill="none"
   x="312"
   y="1312"
   width="827"
   height="77"
   id="rect122" />
        <path
   fill="none"
   stroke="#333333"
   stroke-width="75"
   stroke-linejoin="round"
   d="m 350,1350 h 750"
   id="path124" />
       </g>
      </g>
      <g
   class="com.sun.star.drawing.LineShape"
   id="g134">
       <g
   id="id13">
        <rect
   class="BoundingBox"
   stroke="none"
   fill="none"
   x="312"
   y="1512"
   width="827"
   height="77"
   id="rect129" />
        <path
   fill="none"
   stroke="#333333"
   stroke-width="75"
   stroke-linejoin="round"
   d="m 350,1550 h 750"
   id="path131" />
       </g>
      </g>
      
     </g>
    </g>
   </g>
  </g>
 </g><g
   id="g3997"
   style="fill:url(#linearGradient859);fill-opacity:1"
   transform="matrix(9.6549368,-9.6549368,9.6549368,9.6549368,-3365.2386,978.36727)"><path
     id="path3459"
     style="display:inline;opacity:0.9864;fill:url(#linearGradient2380);fill-opacity:1;stroke:#8e78ff;stroke-width:6.67084;stroke-miterlimit:4;stroke-dasharray:none;stroke-opacity:1"
     d="m 292.95344,197.3812 v 15 h -30 v 30 h 30 v 15 l 30,-30 z" /><path
     id="path3464"
     style="display:inline;opacity:0.9864;fill:url(#linearGradient2382);fill-opacity:1;stroke:#8e78ff;stroke-width:6.67084;stroke-miterlimit:4;stroke-dasharray:none;stroke-opacity:1"
     d="m 157.04585,257.35981 v -15 h 30 v -30 h -30 v -15 l -30,30 z" /><path
     id="path3466"
     style="opacity:0.9864;fill:url(#linearGradient2384);fill-opacity:1;stroke:#8e78ff;stroke-width:6.67084;stroke-miterlimit:4;stroke-dasharray:none;stroke-opacity:1"
     d="m 194.99964,159.40602 h 15 v 30 h 30 v -30 h 15 l -30,-30 z" /><path
     id="path3468"
     style="opacity:0.9864;fill:url(#linearGradient2386);fill-opacity:1;stroke:#8e78ff;stroke-width:6.67084;stroke-miterlimit:4;stroke-dasharray:none;stroke-opacity:1"
     d="m 254.99965,295.31361 h -15 v -30 h -30 v 30 h -15 l 30,30 z" /></g>
</svg>
