<?xml version="1.0" encoding="UTF-8" standalone="no"?>
<svg
   xmlns:ooo="http://xml.openoffice.org/svg/export"
   xmlns:dc="http://purl.org/dc/elements/1.1/"
   xmlns:cc="http://creativecommons.org/ns#"
   xmlns:rdf="http://www.w3.org/1999/02/22-rdf-syntax-ns#"
   xmlns:svg="http://www.w3.org/2000/svg"
   xmlns="http://www.w3.org/2000/svg"
   xmlns:xlink="http://www.w3.org/1999/xlink"
   xmlns:sodipodi="http://sodipodi.sourceforge.net/DTD/sodipodi-0.dtd"
   xmlns:inkscape="http://www.inkscape.org/namespaces/inkscape"
   version="1.2"
   width="20mm"
   height="20mm"
   viewBox="0 0 2000 2000"
   preserveAspectRatio="xMidYMid"
   fill-rule="evenodd"
   stroke-width="28.222"
   stroke-linejoin="round"
   xml:space="preserve"
   id="svg130"
   sodipodi:docname="format_sql.svg"
   inkscape:version="1.0 (4035a4fb49, 2020-05-01)"><metadata
   id="metadata134"><rdf:RDF><cc:Work
       rdf:about=""><dc:format>image/svg+xml</dc:format><dc:type
         rdf:resource="http://purl.org/dc/dcmitype/StillImage" /><dc:title></dc:title></cc:Work></rdf:RDF></metadata><sodipodi:namedview
   pagecolor="#ffffff"
   bordercolor="#666666"
   borderopacity="1"
   objecttolerance="10"
   gridtolerance="10"
   guidetolerance="10"
   inkscape:pageopacity="0"
   inkscape:pageshadow="2"
   inkscape:window-width="640"
   inkscape:window-height="480"
   id="namedview132"
   showgrid="false"
   inkscape:zoom="6.6675"
   inkscape:cx="1.460054"
   inkscape:cy="36.124253"
   inkscape:current-layer="svg130"
   inkscape:document-rotation="0" />
 <defs
   class="ClipPathGroup"
   id="defs8"><linearGradient
   inkscape:collect="always"
   id="linearGradient959"><stop
     style="stop-color:#5c5c5c;stop-opacity:1"
     offset="0"
     id="stop955" /><stop
     style="stop-color:#8e8e8e;stop-opacity:1"
     offset="1"
     id="stop957" /></linearGradient>
  <clipPath
   id="presentation_clip_path"
   clipPathUnits="userSpaceOnUse">
   <rect
   x="0"
   y="0"
   width="2000"
   height="2000"
   id="rect2" />
  </clipPath>
  <clipPath
   id="presentation_clip_path_shrink"
   clipPathUnits="userSpaceOnUse">
   <rect
   x="2"
   y="2"
   width="1996"
   height="1996"
   id="rect5" />
  </clipPath>
 <linearGradient
   inkscape:collect="always"
   xlink:href="#linearGradient959"
   id="linearGradient973"
   gradientUnits="userSpaceOnUse"
   x1="1033.0527"
   y1="1164.7864"
   x2="297.59854"
   y2="269.94519" /><linearGradient
   inkscape:collect="always"
   xlink:href="#linearGradient959"
   id="linearGradient975"
   gradientUnits="userSpaceOnUse"
   x1="1033.0527"
   y1="1164.7864"
   x2="297.59854"
   y2="269.94519"
   gradientTransform="matrix(1.0696284,0,0,1.0696285,-253.66104,-76.712257)" /></defs>
 <defs
   class="TextShapeIndex"
   id="defs12">
  <g
   ooo:slide="id1"
   ooo:id-list="id3 id4 id5 id6 id7"
   id="g10" />
 </defs>
 <defs
   class="EmbeddedBulletChars"
   id="defs44">
  <g
   id="bullet-char-template-57356"
   transform="scale(0.00048828125,-0.00048828125)">
   <path
   d="M 580,1141 L 1163,571 580,0 -4,571 580,1141 Z"
   id="path14" />
  </g>
  <g
   id="bullet-char-template-57354"
   transform="scale(0.00048828125,-0.00048828125)">
   <path
   d="M 8,1128 L 1137,1128 1137,0 8,0 8,1128 Z"
   id="path17" />
  </g>
  <g
   id="bullet-char-template-10146"
   transform="scale(0.00048828125,-0.00048828125)">
   <path
   d="M 174,0 L 602,739 174,1481 1456,739 174,0 Z M 1358,739 L 309,1346 659,739 1358,739 Z"
   id="path20" />
  </g>
  <g
   id="bullet-char-template-10132"
   transform="scale(0.00048828125,-0.00048828125)">
   <path
   d="M 2015,739 L 1276,0 717,0 1260,543 174,543 174,936 1260,936 717,1481 1274,1481 2015,739 Z"
   id="path23" />
  </g>
  <g
   id="bullet-char-template-10007"
   transform="scale(0.00048828125,-0.00048828125)">
   <path
   d="M 0,-2 C -7,14 -16,27 -25,37 L 356,567 C 262,823 215,952 215,954 215,979 228,992 255,992 264,992 276,990 289,987 310,991 331,999 354,1012 L 381,999 492,748 772,1049 836,1024 860,1049 C 881,1039 901,1025 922,1006 886,937 835,863 770,784 769,783 710,716 594,584 L 774,223 C 774,196 753,168 711,139 L 727,119 C 717,90 699,76 672,76 641,76 570,178 457,381 L 164,-76 C 142,-110 111,-127 72,-127 30,-127 9,-110 8,-76 1,-67 -2,-52 -2,-32 -2,-23 -1,-13 0,-2 Z"
   id="path26" />
  </g>
  <g
   id="bullet-char-template-10004"
   transform="scale(0.00048828125,-0.00048828125)">
   <path
   d="M 285,-33 C 182,-33 111,30 74,156 52,228 41,333 41,471 41,549 55,616 82,672 116,743 169,778 240,778 293,778 328,747 346,684 L 369,508 C 377,444 397,411 428,410 L 1163,1116 C 1174,1127 1196,1133 1229,1133 1271,1133 1292,1118 1292,1087 L 1292,965 C 1292,929 1282,901 1262,881 L 442,47 C 390,-6 338,-33 285,-33 Z"
   id="path29" />
  </g>
  <g
   id="bullet-char-template-9679"
   transform="scale(0.00048828125,-0.00048828125)">
   <path
   d="M 813,0 C 632,0 489,54 383,161 276,268 223,411 223,592 223,773 276,916 383,1023 489,1130 632,1184 813,1184 992,1184 1136,1130 1245,1023 1353,916 1407,772 1407,592 1407,412 1353,268 1245,161 1136,54 992,0 813,0 Z"
   id="path32" />
  </g>
  <g
   id="bullet-char-template-8226"
   transform="scale(0.00048828125,-0.00048828125)">
   <path
   d="M 346,457 C 273,457 209,483 155,535 101,586 74,649 74,723 74,796 101,859 155,911 209,963 273,989 346,989 419,989 480,963 531,910 582,859 608,796 608,723 608,648 583,586 532,535 482,483 420,457 346,457 Z"
   id="path35" />
  </g>
  <g
   id="bullet-char-template-8211"
   transform="scale(0.00048828125,-0.00048828125)">
   <path
   d="M -4,459 L 1135,459 1135,606 -4,606 -4,459 Z"
   id="path38" />
  </g>
  <g
   id="bullet-char-template-61548"
   transform="scale(0.00048828125,-0.00048828125)">
   <path
   d="M 173,740 C 173,903 231,1043 346,1159 462,1274 601,1332 765,1332 928,1332 1067,1274 1183,1159 1299,1043 1357,903 1357,740 1357,577 1299,437 1183,322 1067,206 928,148 765,148 601,148 462,206 346,322 231,437 173,577 173,740 Z"
   id="path41" />
  </g>
 </defs>
 
 <g
   class="SlideGroup"
   id="g128"
   transform="matrix(0.82863468,0,0,0.9148522,162.02687,73.587261)">
  <g
   id="g126">
   <g
   id="container-id1">
    <g
   id="id1"
   class="Slide"
   clip-path="url(#presentation_clip_path)">
     <g
   class="Page"
   id="g122">
      
      <g
   class="com.sun.star.drawing.CustomShape"
   id="g85"
   transform="matrix(1.2088622,0,0,1,-218.68378,0)">
       <g
   id="id4">
        <rect
   class="BoundingBox"
   stroke="none"
   fill="none"
   x="237"
   y="63"
   width="1551"
   height="1851"
   id="rect69" />
        <g
   id="g80">
         <defs
   id="defs76">
          <linearGradient
   id="gradient2"
   x1="435"
   y1="-12"
   x2="1590"
   y2="1988"
   gradientUnits="userSpaceOnUse">
           <stop
   offset="0"
   style="stop-color:#e9e8f2;stop-opacity:1"
   id="stop71" />
           <stop
   offset="1"
   style="stop-color:#b9b3d5;stop-opacity:1"
   id="stop73" />
          </linearGradient>
         </defs>
         <path
   style="fill:url(#gradient2);stroke-width:120.322;stroke-miterlimit:4;stroke-dasharray:none;paint-order:fill markers stroke"
   d="M 1012,1888 H 262 V 88 h 1500 v 1800 z"
   id="path78" />
        </g>
        <path
   fill="none"
   stroke="#666666"
   stroke-width="50"
   stroke-linejoin="round"
   d="M 1012,1888 H 262 V 88 h 1500 v 1800 z"
   id="path82"
   style="stroke:#7eb0cf;stroke-width:96.2574;stroke-miterlimit:4;stroke-dasharray:none;stroke-opacity:1" />
       </g>
      </g>
      
      
      
     </g>
    </g>
   </g>
  </g>
 </g>
<g
   id="g945"
   style="fill:url(#linearGradient973);fill-opacity:1"
   transform="matrix(0.82863468,0,0,0.9148522,162.02687,73.587261)"><text
     transform="scale(0.9870645,1.013105)"
     id="text892"
     y="1715.6721"
     x="803.44666"
     style="font-style:normal;font-variant:normal;font-weight:normal;font-stretch:normal;font-size:1302.71px;line-height:1.25;font-family:'DejaVu Sans';-inkscape-font-specification:'DejaVu Sans';fill:#5c5c5c;fill-opacity:1;stroke:none;stroke-width:59.3825;stroke-miterlimit:4;stroke-dasharray:none;stroke-opacity:1"
     xml:space="preserve"><tspan
       style="font-style:normal;font-variant:normal;font-weight:bold;font-stretch:normal;font-family:'DejaVu Serif';-inkscape-font-specification:'DejaVu Serif Bold';fill:#5c5c5c;fill-opacity:1;stroke:none;stroke-width:59.3825;stroke-miterlimit:4;stroke-dasharray:none;stroke-opacity:1"
       y="1715.6721"
       x="803.44666"
       id="tspan890"
       sodipodi:role="line">T</tspan></text><text
     transform="scale(2.1222618,0.4711954)"
     id="text898-4"
     y="1886.9248"
     x="8.5048676"
     style="font-style:normal;font-weight:normal;font-size:2246.06px;line-height:1.25;font-family:sans-serif;fill:#5c5c5c;fill-opacity:1;stroke:none;stroke-width:1584.71"
     xml:space="preserve"><tspan
       style="font-style:normal;font-variant:normal;font-weight:bold;font-stretch:normal;font-family:sans-serif;-inkscape-font-specification:'sans-serif Bold';fill:#5c5c5c;fill-opacity:1;stroke-width:1584.71"
       y="1886.9248"
       x="8.5048676"
       id="tspan896-2"
       sodipodi:role="line">-</tspan></text><text
     transform="scale(2.1222618,0.4711954)"
     id="text898-4-9"
     y="1324.4546"
     x="6.9638805"
     style="font-style:normal;font-weight:normal;font-size:2246.06px;line-height:1.25;font-family:sans-serif;fill:#5c5c5c;fill-opacity:1;stroke:none;stroke-width:1584.71"
     xml:space="preserve"><tspan
       style="font-style:normal;font-variant:normal;font-weight:bold;font-stretch:normal;font-family:sans-serif;-inkscape-font-specification:'sans-serif Bold';fill:#5c5c5c;fill-opacity:1;stroke-width:1584.71"
       y="1324.4546"
       x="6.9638805"
       id="tspan896-2-0"
       sodipodi:role="line">-</tspan></text><path
     id="path936"
     d="M 287.27037,958.30348 285.71429,1563.492 852.13281,1271.7046 Z"
     style="fill:#5c5c5c;fill-opacity:1;stroke:none;stroke-width:22.3247px;stroke-linecap:butt;stroke-linejoin:miter;stroke-opacity:1" /></g></svg>
