<?xml version="1.0"?>
<svg xmlns:rdf="http://www.w3.org/1999/02/22-rdf-syntax-ns#" xmlns="http://www.w3.org/2000/svg" xmlns:cc="http://web.resource.org/cc/" xmlns:dc="http://purl.org/dc/elements/1.1/" xmlns:sodipodi="http://inkscape.sourceforge.net/DTD/sodipodi-0.dtd" xmlns:svg="http://www.w3.org/2000/svg" id="Layer_1" style="enable-background:new 0 0 126.176 136.638" space="preserve" sodipodi:version="0.32" viewBox="0 0 126.176 136.638" version="1.1" sodipodi:docname="ruotadentata04.svg" sodipodi:docbase="F:\openclip\svg da inviare">
  <sodipodi:namedview id="base" bordercolor="#666666" borderopacity="1.0" pagecolor="#ffffff"/>
  <g id="g3">
    <g id="g5">
      <radialGradient id="XMLID_9_" gradientUnits="userSpaceOnUse" cy="40.039" cx="40.19" r="39.748">
        <stop id="stop8" stop-color="#FFFA5F" offset="0"/>
        <stop id="stop10" stop-color="#B53A00" offset="1"/>
      </radialGradient>
      <path id="path12" fill="url(#XMLID_9_)" d="m75.554 34.021c-2.276 0-4.553 0.027-6.829 0.112-0.542-2.69-1.499-5.292-2.812-7.7-0.675-1.238-1.904-1.868-0.712-2.955 0.817-0.742 1.614-1.499 2.405-2.266 1.534-1.484 4.518-3.664 3.053-6.103-1.456-2.42-5.768-7.489-8.824-5.3-1.966 1.408-3.637 3.505-5.285 5.268-1.109 1.191-6.079-2.019-7.94-2.585-1.383-0.422-2.669-0.005-2.585-1.65 0.061-1.145 0.091-2.295 0.11-3.443 0.029-1.766 0.526-4.638-0.967-6.007-1.626-1.49-7.904-1.317-9.775-0.355-1.751 0.897-1.512 3.338-1.502 4.962 0.006 1.212 0.022 2.421 0.054 3.634 0.045 1.748 0.608 1.887-1.297 2.326-2.665 0.613-5.243 1.587-7.643 2.895-1.635 0.891-1.323 0.469-2.458-0.749-1.08-1.159-2.185-2.29-3.303-3.409-3.588-3.587-6.938 0.866-9.342 3.715-1.482 1.756-0.86 3.437 0.659 4.958 0.94 0.937 1.885 1.869 2.839 2.788 1.814 1.749 1.494 1.547 0.268 3.676-1.272 2.204-2.236 4.583-2.856 7.05-0.538 2.143-4.221 1.138-6.315 1.138-4.88 0-3.97 4.336-4.013 7.907-0.059 5.062 4.037 4.401 8.065 4.328 1.823-0.035 2.063-0.608 2.651 1.292 0.41 1.33 0.923 2.629 1.53 3.881 0.603 1.245 1.299 2.446 2.078 3.589 1.181 1.734-0.103 1.912-1.475 3.219-1.45 1.377-4.245 3.279-4.357 5.478-0.093 1.836 1.97 3.238 3.11 4.376 1.139 1.14 2.542 3.212 4.384 3.115 2.411-0.124 4.662-3.483 6.191-5.085 0.67-0.705 1.336-1.413 1.987-2.132 1.457 0.819 2.987 1.518 4.56 2.083 1.611 0.579 3.271 1.021 4.955 1.323-0.117 1.381-0.179 2.767-0.216 4.15-0.056 2.043-0.794 5.784 0.937 7.375 1.45 1.33 4.274 0.718 6.046 0.755 1.539 0.032 3.713 0.273 4.658-1.268 1.423-2.325 0.567-6.595 0.474-9.202-0.064-1.77-0.613-1.812 1.316-2.313 1.839-0.477 3.633-1.124 5.351-1.935 2.115-0.996 2.126-1.662 3.718 0.104 1.083 1.199 2.2 2.366 3.335 3.518 1.744 1.772 3.65 3.677 5.99 1.703 1.623-1.372 4.599-3.696 5.214-5.803 0.738-2.532-2.989-5.036-4.515-6.501-1.354-1.296-2.863-1.679-1.729-3.405 0.967-1.472 1.793-3.041 2.464-4.67 0.505-1.235 0.921-2.506 1.243-3.803 1.455 0.095 2.914 0.143 4.371 0.168 2.102 0.035 5.828 0.633 6.562-2.087 0.995-3.7 1.15-10.16-3.828-10.16m-35.929 17.164c-6.418 0-12.192-5.092-12.192-11.666s5.774-11.669 12.192-11.669c6.417 0 12.191 5.095 12.191 11.669s-5.774 11.666-12.191 11.666"/>
      <linearGradient id="XMLID_10_" y2="462.69" gradientUnits="userSpaceOnUse" y1="462.69" gradientTransform="matrix(776.01 550.01 550.01 -776.01 -65411 4.9308e5)" x2="-243.01" x1="-243.97">
        <stop id="stop15" stop-color="#fff" offset="0"/>
        <stop id="stop17" offset="1"/>
      </linearGradient>
      <path id="path19" fill="url(#XMLID_10_)" d="m40.02 1.119c1.342-0.021 2.861-0.244 4.142 0.22 2.155 0.786 1.528 4.293 1.499 6.013-0.015 0.926-0.675 4.097-0.195 4.848 0.493 0.764 5.582 1.636 6.676 2.136 4.161 1.896 3.3 2.605 6.403-0.611 1.61-1.667 4.146-5.481 6.721-3.489 1.604 1.245 5.959 5 5.183 7.001-0.788 2.021-3.233 3.728-4.782 5.171-1.765 1.643-2.033 1.13-0.824 3.115 1.396 2.293 2.453 4.79 3.113 7.395 0.364 1.445-0.05 1.712 1.228 1.691 2.456-0.041 6.228-0.781 8.56 0.242 2.126 0.935 1.368 5.531 1.345 7.574-0.058 5.104-7.307 3.408-10.806 3.189 0.094 0.007-4.102 8.96-4.795 9.93-0.332 0.46 4.441 4.563 5.059 5.154 2.984 2.876 1.705 4.426-0.914 7.058-3.645 3.664-4.76 3.333-8.414-0.44-1.295-1.342-2.573-2.708-3.769-4.137-0.315-0.378-3.632 1.677-4.223 1.922-0.892 0.371-5.375 1.115-5.759 1.735-0.604 0.979 0.188 4.836 0.202 6.026 0.057 5.148-0.54 6.328-5.647 6.328-1.347 0-2.843 0.249-4.131-0.22-2.416-0.877-1.523-5.442-1.47-7.35 0.023-0.906 0.706-3.869 0.259-4.623-0.343-0.576-5.067-1.279-5.934-1.611-0.475-0.183-4.083-2.118-4.256-1.937-0.92 0.96-1.841 1.919-2.764 2.88-1.195 1.247-3.462 4.46-5.393 4.402-1.694-0.028-6.012-4.56-6.7-6.104-1.687-3.793 6.08-5.67 6.633-8.429 0.026-0.129-5.966-10.475-5.188-10.486-2.17 0.029-4.418 0.248-6.581 0.092-4.209 0-3.547-3.653-3.52-6.762-0.095-4.463 2.185-4.571 5.932-4.494 1.292 0.025 2.581 0.053 3.873 0.076 0.268 0.007 1.407-4.579 1.641-5.162 0.81-2.009 1.874-3.878 3.108-5.654 0.264-0.379-1.166-1.416-1.448-1.689-2.031-1.977-6.291-4.753-3.534-7.726 1.268-1.364 3.95-4.821 5.796-4.821 2.263 0 5.058 4.079 6.444 5.533 1.833 1.919 3.836-0.661 6.121-1.526 2.382-0.901 5.611-0.221 5.563-2.985-0.036-1.967-0.239-4.008-0.105-5.969-0.002-3.75 2.687-3.554 5.651-3.506m2.058-0.985c-2.227 0-5.925-0.664-7.59 0.958-1.88 1.863-1.023 6.483-0.983 8.861 0.034 2.175-1.824 1.699-3.727 2.328-0.885 0.292-5.713 2.788-6.054 2.429-1.747-1.838-4.048-5.273-6.618-5.98-2.515-0.696-4.577 2.296-6.14 3.909-3.467 3.332-2.483 5.371 0.59 8.359 0.953 0.925 1.903 1.853 2.859 2.775-1.529 2.237-2.735 4.69-3.561 7.271-0.822 2.569-0.415 2.617-2.984 2.568-1.486-0.029-3.047-0.185-4.532 0.001-3.906 0.49-3.292 4.373-3.316 7.35-0.037 4.914 1.913 5.847 6.39 5.778 1.352-0.022 2.703-0.047 4.055-0.064 0.674 2.526 1.708 4.952 3.061 7.191 0.83 1.379 1.979 1.715 0.622 2.959-0.965 0.884-1.914 1.789-2.851 2.707-1.384 1.356-3.462 3.169-2.593 5.361 0.708 1.791 4.79 5.876 6.581 6.586 2.8 1.109 5.344-2.629 6.999-4.35 0.824-0.857 1.642-1.717 2.473-2.566 2.378 1.295 4.927 2.27 7.563 2.896 1.84 0.438 1.297 0.504 1.218 2.173-0.056 1.128-0.086 2.257-0.105 3.385-0.035 2.094-0.559 5.532 1.759 6.699 1.868 0.94 5.77 0.588 7.905 0.426 4.973-0.383 3.567-7.174 3.451-10.605-0.056-1.669-0.584-1.798 1.212-2.28 1.28-0.346 2.54-0.774 3.764-1.279 1.223-0.506 2.414-1.09 3.563-1.75 0.632 0.74 1.286 1.463 1.95 2.175 2.612 2.807 5.777 7.423 9.583 3.753 1.648-1.589 4.888-3.992 4.933-6.323 0-2.49-3.372-4.814-4.993-6.371-1.254-1.208-2.244-1.367-1.246-2.927 1.338-2.097 2.4-4.368 3.142-6.741 1.148-3.671 10.582 2.029 11.5-4.033 0.328-2.165 0.641-7.604-0.873-9.139-1.809-1.855-6.19-1.037-8.511-0.998-2.299 0.039-1.812-1.658-2.553-3.677-0.678-1.845-3.457-5.239-2.072-6.511 3.829-3.514 7.837-6.313 3.14-10.799-1.571-1.618-3.624-4.599-6.147-3.913-2.394 0.65-4.579 3.82-6.22 5.514-1.487 1.538-2.457 0.018-4.272-0.802-1.594-0.718-6.008-1.318-5.93-2.949 0.197-4.224 1.405-10.355-4.442-10.355"/>
      <linearGradient id="XMLID_11_" y2="476.69" gradientUnits="userSpaceOnUse" y1="476.69" gradientTransform="matrix(0 -215 -215 0 1.0253e5 -52176)" x2="-242.31" x1="-243.25">
        <stop id="stop22" stop-color="#fff" offset="0"/>
        <stop id="stop24" offset="1"/>
      </linearGradient>
      <path id="path26" fill="url(#XMLID_11_)" d="m26.958 39.519c0 15.738 25.333 15.738 25.333 0s-25.333-15.738-25.333 0m0.956 0c0-14.505 23.421-14.505 23.421 0s-23.421 14.505-23.421 0"/>
      <radialGradient id="XMLID_12_" gradientUnits="userSpaceOnUse" cy="39.519" cx="39.623" r="21.1">
        <stop id="stop29" stop-color="#FFFA5F" offset="0"/>
        <stop id="stop31" stop-color="#FEF85E" offset=".3945"/>
        <stop id="stop33" stop-color="#FCF15B" offset=".5366"/>
        <stop id="stop35" stop-color="#F7E655" offset=".6379"/>
        <stop id="stop37" stop-color="#F1D54C" offset=".7199"/>
        <stop id="stop39" stop-color="#E8BF42" offset=".7901"/>
        <stop id="stop41" stop-color="#DEA334" offset=".8522"/>
        <stop id="stop43" stop-color="#D18324" offset=".9084"/>
        <stop id="stop45" stop-color="#C35F12" offset=".9583"/>
        <stop id="stop47" stop-color="#B53A00" offset="1"/>
      </radialGradient>
      <path id="path49" fill="url(#XMLID_12_)" d="m39.625 19.257c-11.218 0-21.907 8.55-21.907 20.262 0 11.713 10.685 20.262 21.907 20.262 11.221 0 21.903-8.549 21.903-20.262 0-11.712-10.686-20.262-21.903-20.262m0 37.409c-9.498 0-18.542-7.235-18.542-17.147 0-9.914 9.044-17.149 18.542-17.149 9.496 0 18.542 7.233 18.542 17.149 0 9.914-9.044 17.147-18.542 17.147"/>
      <path id="path51" fill="#EDE0A3" d="m14.503 28.834c0.839-1.288 1.688-2.568 2.587-3.815-1.349-0.277-2.197 2.837-2.587 3.815m50.695-17.198c-0.908-3.603-6.239 2.539-7.148 3.517-0.274 0.293-1.843 2.415-2.334 2.27-2.959-2.188-6.414-3.661-9.998-4.455-0.649 2.192 5.004 2.803 6.675 3.64 1.291 0.644 2.56 2.617 3.808 1.468 2.068-1.903 3.955-4.08 6.198-5.781 0.541-0.409 3.08-0.642 2.906 0.183-0.036-0.281-0.072-0.561-0.107-0.842m-40.632 5.871c1.995-1.275 4.208-2.171 6.519-2.678 1.566-0.344 3.701 0.102 3.042-2.129-1.811 0.338-10.188 2.292-9.561 4.807"/>
      <path id="path53" fill="#EDE0A3" d="m44.165 2.194c0 1.417-8.603 1.417-8.603 0 0-1.415 8.603-1.415 8.603 0"/>
      <path id="path55" fill="#B0833E" d="m39.866 77.54c-0.405 0-4.303-0.079-4.303 0.774 0 1.166 8.605 1.166 8.605 0 0-0.854-3.897-0.774-4.302-0.774"/>
      <path id="path57" fill="#B0833E" d="m6.647 44.001c-0.407 0-4.303-0.08-4.303 0.774 0 1.157 8.603 1.156 8.603 0 0-0.852-3.895-0.774-4.3-0.774"/>
      <path id="path59" fill="#B0833E" d="m73.403 44.001c-0.405 0-4.303-0.078-4.303 0.774 0 1.156 8.604 1.156 8.604 0 0.001-0.852-3.896-0.774-4.301-0.774"/>
      <path id="path61" fill="#B0833E" d="m10.601 64.151c-0.783 0 1.358 2.592 1.411 2.651 0.873 0.984 2.873 3.532 4.382 3.532 0.021 0.015-1.194-2.4-1.469-2.707-0.865-0.97-2.834-3.477-4.324-3.476"/>
      <path id="path63" fill="#B0833E" d="m56.967 63.198c-0.349 0 4.538 7.526 5.932 6.131 0.9-0.895-4.788-6.131-5.932-6.131"/>
      <path id="path65" fill="#EDE0A3" d="m16.102 10.062c0.634 0.633-5.617 6.887-6.253 6.252-0.631-0.633 5.62-6.884 6.253-6.252"/>
      <path id="path67" fill="#A58554" d="m69.551 16.887c-1.185 0-6.773 5.651-6.162 6.284 1.112 1.115 6.187-6.284 6.162-6.284"/>
      <path id="path69" fill="#B0833E" d="m69.869 64.044c-1.185 0-6.759 5.687-6.161 6.285 1.178 1.122 6.152-6.285 6.161-6.285"/>
      <path id="path71" fill="#B0833E" d="m22.547 64.044c-1.113 0-2.783 2.063-3.461 2.74-0.281 0.279-2.785 3.553-2.693 3.55 1.376 1.103 6-6.29 6.154-6.29"/>
      <path id="path73" fill="#937342" d="m16.512 69.836c-0.044 0.164-0.084 0.329-0.126 0.493 0.412 0.414-0.242-1.411 0.126-0.493"/>
      <path id="path75" fill="#EDE0A3" d="m10.526 35.296c0 0.81-7.441-0.318-7.802 0.754-0.223 0.655-0.294 6.703-0.742 6.655-1.033-0.11-0.136-6.064-0.047-6.838 0.214-1.91 8.591-1.166 8.591-0.571"/>
      <path id="path77" fill="#EDE0A3" d="m14.174 60.454c-0.216 0.217-2.765 2.866-3.212 2.421-0.589-0.59 5.042-6.224 5.635-5.632 0.444 0.443-2.206 2.994-2.423 3.211"/>
      <path id="path79" fill="#EDE0A3" d="m77.624 35.417c0 0.718-8.96 0.718-8.96 0 0-0.719 8.96-0.719 8.96 0"/>
      <path id="path81" fill="#7D6135" d="m61.051 44.833c-4.763 14.598-25.329 20.1-36.561 9.347 0 2.249 4.75 4.944 6.313 5.771 5.457 2.885 11.905 2.881 17.651 0.854 7.262-2.558 11.439-8.577 12.597-15.972m0.278-1.198c-0.186 0.374-0.278 0.772-0.278 1.197-0.162 0.499 0.435-1.197 0.278-1.197"/>
      <path id="path83" fill="#836432" d="m54.415 54.466c-5.016 4.107-12.059 5.937-18.453 5.032 6.517 1.017 13.396-0.748 18.453-5.032"/>
      <path id="path85" fill="#FAECAC" d="m21.621 36.65c0-5.568 4.938-10.957 9.665-13.104 5.146-2.338 10.859-2.378 15.962 0.063 0.655 0.313 8.122 4.651 7.18 5.866 0.249-0.322-4.717-3.989-5.088-4.199-4.707-2.678-10.544-2.769-15.627-1.169-4.67 1.468-12.092 7.034-12.092 12.543"/>
      <path id="path87" fill="#FAECAC" d="m17.644 36.514c0-6.791 6.518-13.377 12.209-15.916 6.2-2.766 13.096-2.903 19.226 0.088 2.27 1.109 4.428 2.549 6.243 4.313 0.097 0.097 1.952 2.339 1.617 2.353-0.392 0.015-1.301-1.387-1.532-1.638-1.341-1.454-2.865-2.736-4.558-3.763-5.68-3.437-12.859-3.537-19.021-1.373-4.974 1.745-9.08 5.234-11.673 9.811-0.862 1.519-2.511 4.575-2.511 6.125"/>
      <path id="path89" fill="#9E8860" d="m58.153 39.915c0.047 0-1.07 3.952-1.166 4.185-1.226 3.045-3.232 5.755-5.869 7.727-8.563 6.4-20.332 4.829-27.136-3.096 9.196 13.329 33.627 8.3 34.174-8.815"/>
      <path id="path91" fill="#C4A572" d="m52.999 51.396c-0.521 0.501-1.07 0.971-1.648 1.407 0.58-0.432 1.131-0.9 1.648-1.407m-29.418-3.045c-0.239 0 3.056 3.445 3.315 3.637-0.566-0.495-2.745-3.637-3.315-3.637"/>
    </g>
    <g id="g93">
      <radialGradient id="XMLID_13_" gradientUnits="userSpaceOnUse" cy="-178.16" cx="336.28" gradientTransform="matrix(.9774 -.2115 .2115 .9774 -204.49 341.92)" r="39.747">
        <stop id="stop96" stop-color="#FFFA5F" offset="0"/>
        <stop id="stop98" stop-color="#B53A00" offset="1"/>
      </radialGradient>
      <path id="path100" fill="url(#XMLID_13_)" d="m119.8 83.304c-2.226 0.482-4.443 0.989-6.652 1.555-1.097-2.515-2.582-4.854-4.376-6.931-0.922-1.069-2.254-1.423-1.319-2.738 0.641-0.897 1.26-1.807 1.871-2.724 1.186-1.774 3.641-4.536 1.692-6.611-1.935-2.058-7.221-6.098-9.745-3.313-1.625 1.792-2.812 4.195-4.051 6.268-0.832 1.398-6.368-0.688-8.31-0.847-1.438-0.121-2.608 0.559-2.874-1.067-0.182-1.131-0.396-2.261-0.62-3.39-0.346-1.729-0.468-4.643-2.216-5.664-1.905-1.113-8.005 0.383-9.63 1.719-1.522 1.249-0.772 3.584-0.418 5.17 0.262 1.181 0.533 2.361 0.819 3.541 0.415 1.697 0.994 1.714-0.773 2.547-2.478 1.16-4.789 2.659-6.859 4.444-1.409 1.217-1.193 0.739-2.561-0.212-1.3-0.904-2.619-1.774-3.949-2.632-4.265-2.747-6.598 2.313-8.346 5.606-1.075 2.031-0.112 3.541 1.694 4.706 1.116 0.716 2.238 1.428 3.364 2.125 2.143 1.325 1.788 1.196 1.04 3.536-0.778 2.424-1.217 4.952-1.301 7.493-0.071 2.209-3.884 2.007-5.93 2.45-4.77 1.03-2.964 5.077-2.251 8.577 1.015 4.959 4.876 3.447 8.799 2.522 1.772-0.42 1.885-1.031 2.864 0.704 0.681 1.214 1.457 2.374 2.316 3.468 0.851 1.089 1.785 2.115 2.79 3.069 1.521 1.444 0.303 1.89-0.761 3.458-1.129 1.652-3.456 4.103-3.1 6.274 0.298 1.815 2.611 2.75 3.965 3.621 1.354 0.874 3.164 2.601 4.943 2.116 2.329-0.629 3.819-4.39 4.975-6.278 0.509-0.83 1.008-1.665 1.49-2.504 1.6 0.49 3.241 0.851 4.899 1.07 1.697 0.226 3.413 0.307 5.122 0.245 0.179 1.373 0.412 2.741 0.668 4.102 0.377 2.009 0.446 5.821 2.474 7.01 1.702 0.994 4.331-0.2 6.07-0.54 1.51-0.294 3.686-0.52 4.285-2.225 0.897-2.572-0.843-6.565-1.484-9.095-0.437-1.716-0.981-1.642 0.799-2.539 1.695-0.855 3.313-1.867 4.82-3.021 1.856-1.422 1.727-2.075 3.655-0.687 1.311 0.942 2.65 1.846 4.004 2.732 2.079 1.364 4.345 2.823 6.213 0.397 1.297-1.683 3.714-4.587 3.869-6.773 0.187-2.632-3.987-4.29-5.786-5.4-1.598-0.979-3.154-1.034-2.41-2.962 0.634-1.643 1.109-3.351 1.42-5.085 0.231-1.314 0.37-2.646 0.409-3.979 1.443-0.219 2.881-0.479 4.309-0.761 2.063-0.41 5.832-0.615 5.972-3.429 0.21-3.811-1-10.159-5.87-9.107m-31.485 24.376c-6.271 1.357-12.991-2.399-14.383-8.824-1.39-6.425 3.177-12.626 9.447-13.984 6.272-1.354 12.994 2.401 14.385 8.827 1.39 6.431-3.176 12.621-9.449 13.981"/>
      <linearGradient id="XMLID_14_" y2="-178.02" gradientUnits="userSpaceOnUse" y1="-178.02" gradientTransform="matrix(.9774 -.2115 .2115 .9774 -204.49 341.92)" x2="892.43" x1="-20.343">
        <stop id="stop103" stop-color="#fff" offset="0"/>
        <stop id="stop105" offset="1"/>
      </linearGradient>
      <path id="path107" fill="url(#XMLID_14_)" d="m78.112 58.663c1.308-0.303 2.746-0.843 4.096-0.661 2.271 0.313 2.399 3.874 2.737 5.56 0.181 0.91 0.205 4.15 0.835 4.782 0.642 0.64 5.8 0.417 6.976 0.674 4.466 0.975 3.776 1.848 6.129-1.952 1.221-1.97 2.893-6.235 5.829-4.833 1.832 0.878 6.882 3.626 6.546 5.748-0.341 2.141-2.37 4.327-3.579 6.064-1.377 1.98-1.747 1.535-0.147 3.219 1.85 1.948 3.411 4.163 4.607 6.572 0.661 1.333 0.315 1.682 1.557 1.393 2.394-0.561 5.922-2.082 8.418-1.576 2.275 0.467 2.508 5.116 2.915 7.118 1.026 5.002-6.421 4.877-9.885 5.403 0.094-0.013-2.112 9.625-2.586 10.719-0.228 0.522 5.306 3.52 6.033 3.968 3.526 2.181 2.603 3.965 0.601 7.092-2.788 4.354-3.946 4.264-8.314 1.349-1.552-1.037-3.088-2.101-4.561-3.243-0.387-0.304-3.195 2.406-3.72 2.771-0.794 0.552-5.018 2.228-5.262 2.915-0.385 1.085 1.206 4.686 1.471 5.847 1.146 5.02 0.81 6.3-4.181 7.381-1.315 0.283-2.728 0.844-4.085 0.659-2.547-0.35-2.639-4.998-2.992-6.874-0.169-0.89-0.126-3.93-0.723-4.572-0.458-0.49-5.223-0.179-6.141-0.321-0.501-0.078-4.438-1.205-4.57-0.989-0.696 1.133-1.394 2.264-2.091 3.396-0.905 1.472-2.44 5.094-4.341 5.444-1.662 0.329-6.84-3.183-7.839-4.55-2.451-3.35 4.743-6.826 4.7-9.641-0.002-0.13-8.046-8.978-7.289-9.152-2.114 0.488-4.264 1.18-6.413 1.482-4.115 0.892-4.24-2.818-4.87-5.863-1.037-4.343 1.168-4.931 4.848-5.648 1.267-0.247 2.531-0.494 3.801-0.743 0.26-0.049 0.406-4.771 0.51-5.392 0.368-2.134 1.013-4.188 1.843-6.185 0.18-0.425-1.438-1.137-1.771-1.344-2.404-1.502-7.155-3.314-5.087-6.804 0.949-1.601 2.841-5.546 4.645-5.938 2.211-0.478 5.805 2.917 7.467 4.045 2.198 1.487 3.609-1.458 5.66-2.788 2.137-1.386 5.438-1.4 4.806-4.094-0.449-1.914-1.08-3.865-1.363-5.812-0.807-3.675 1.862-4.052 4.769-4.634m1.804-1.396c-2.177 0.469-5.932 0.605-7.216 2.542-1.445 2.219 0.37 6.553 0.915 8.869 0.492 2.117-1.425 2.046-3.151 3.062-0.803 0.473-4.994 3.934-5.401 3.655-2.097-1.428-5.073-4.298-7.734-4.446-2.607-0.149-3.988 3.212-5.175 5.119-2.685 3.99-1.291 5.776 2.344 8.046 1.128 0.701 2.253 1.409 3.381 2.107-1.021 2.51-1.682 5.163-1.941 7.861-0.259 2.685 0.148 2.645-2.375 3.14-1.457 0.285-3.017 0.466-4.428 0.961-3.715 1.305-2.293 4.971-1.686 7.885 1.003 4.812 3.105 5.312 7.467 4.294 1.314-0.306 2.632-0.618 3.948-0.919 1.194 2.327 2.719 4.479 4.515 6.381 1.101 1.173 2.296 1.257 1.231 2.761-0.756 1.067-1.49 2.153-2.215 3.249-1.064 1.618-2.711 3.83-1.398 5.787 1.07 1.602 5.926 4.729 7.824 5.045 2.971 0.492 4.668-3.698 5.922-5.732 0.621-1.013 1.239-2.023 1.875-3.031 2.597 0.766 5.293 1.179 8.002 1.231 1.892 0.04 1.375 0.218 1.65 1.868 0.186 1.112 0.393 2.223 0.614 3.329 0.408 2.054 0.625 5.525 3.135 6.178 2.026 0.521 5.763-0.647 7.815-1.258 4.781-1.428 1.971-7.769 1.131-11.097-0.406-1.617-0.953-1.631 0.702-2.484 1.18-0.608 2.32-1.292 3.408-2.047 1.089-0.753 2.13-1.575 3.112-2.462 0.776 0.589 1.567 1.158 2.365 1.712 3.146 2.192 7.215 6.033 10.16 1.641 1.275-1.899 3.934-4.935 3.484-7.222-0.525-2.435-4.314-3.993-6.228-5.17-1.481-0.917-2.484-0.862-1.84-2.599 0.865-2.331 1.425-4.777 1.646-7.254 0.347-3.829 10.773-0.255 10.388-6.373-0.138-2.188-0.983-7.568-2.786-8.747-2.16-1.432-6.271 0.296-8.53 0.824-2.237 0.524-2.12-1.237-3.272-3.056-1.053-1.658-4.486-4.389-3.403-5.925 2.999-4.243 6.324-7.828 0.785-11.217-1.879-1.25-4.517-3.73-6.837-2.524-2.202 1.14-3.667 4.701-4.914 6.705-1.127 1.818-2.395 0.537-4.344 0.12-1.708-0.366-6.149-0.017-6.42-1.628-0.694-4.167-0.812-10.415-6.526-9.178"/>
      <linearGradient id="XMLID_15_" y2="-178.68" gradientUnits="userSpaceOnUse" y1="-178.68" gradientTransform="matrix(.9774 -.2115 .2115 .9774 -204.49 341.92)" x2="461.86" x1="247.47">
        <stop id="stop110" stop-color="#fff" offset="0"/>
        <stop id="stop112" offset="1"/>
      </linearGradient>
      <path id="path114" fill="url(#XMLID_15_)" d="m73.47 98.957c3.328 15.383 28.089 10.024 24.762-5.357-3.333-15.383-28.091-10.023-24.762 5.357m0.934-0.201c-3.069-14.177 19.821-19.131 22.89-4.955 3.066 14.179-19.822 19.129-22.89 4.955"/>
      <radialGradient id="XMLID_16_" gradientUnits="userSpaceOnUse" cy="-178.68" cx="335.71" gradientTransform="matrix(.9774 -.2115 .2115 .9774 -204.49 341.92)" r="21.1">
        <stop id="stop117" stop-color="#FFFA5F" offset="0"/>
        <stop id="stop119" stop-color="#FEF85E" offset=".3945"/>
        <stop id="stop121" stop-color="#FCF15B" offset=".5366"/>
        <stop id="stop123" stop-color="#F7E655" offset=".6379"/>
        <stop id="stop125" stop-color="#F1D54C" offset=".7199"/>
        <stop id="stop127" stop-color="#E8BF42" offset=".7901"/>
        <stop id="stop129" stop-color="#DEA334" offset=".8522"/>
        <stop id="stop131" stop-color="#D18324" offset=".9084"/>
        <stop id="stop133" stop-color="#C35F12" offset=".9583"/>
        <stop id="stop135" stop-color="#B53A00" offset="1"/>
      </radialGradient>
      <path id="path137" fill="url(#XMLID_16_)" d="m81.564 76.474c-10.967 2.373-19.604 12.992-17.126 24.438 2.477 11.449 14.729 17.543 25.696 15.171 10.969-2.373 19.601-12.99 17.122-24.438-2.48-11.442-14.734-17.54-25.696-15.168m7.914 36.566c-9.284 2.01-19.654-3.146-21.751-12.836-2.097-9.688 5.212-18.673 14.495-20.682 9.282-2.01 19.652 3.146 21.749 12.838 2.1 9.694-5.211 18.674-14.492 20.684"/>
      <path id="path139" fill="#EDE0A3" d="m59.036 91.148c0.547-1.435 1.106-2.866 1.722-4.275-1.379 0.014-1.548 3.24-1.722 4.275m45.904-27.53c-1.65-3.33-5.56 3.8-6.242 4.95-0.207 0.344-1.291 2.748-1.801 2.71-3.355-1.51-7.044-2.219-10.714-2.238-0.171 2.278 5.482 1.68 7.294 2.144 1.399 0.356 3.055 2.017 4.033 0.631 1.619-2.297 3.001-4.825 4.834-6.962 0.44-0.511 2.875-1.278 2.88-0.437-0.09-0.266-0.18-0.532-0.28-0.798m-38.463 14.332c1.679-1.668 3.652-3.012 5.802-3.996 1.46-0.667 3.641-0.684 2.523-2.724-1.698 0.713-9.473 4.395-8.325 6.72"/>
      <path id="path141" fill="#EDE0A3" d="m82.393 58.839c0.298 1.384-8.11 3.205-8.41 1.817-0.3-1.379 8.11-3.2 8.41-1.817"/>
      <path id="path143" fill="#B0833E" d="m94.128 133.39c-0.396 0.087-4.223 0.834-4.044 1.669 0.248 1.138 8.658-0.683 8.412-1.821-0.181-0.84-3.974 0.06-4.368 0.15"/>
      <path id="path145" fill="#B0833E" d="m54.567 107.64c-0.398 0.087-4.223 0.832-4.042 1.665 0.244 1.132 8.651-0.689 8.407-1.818-0.179-0.83-3.972 0.07-4.365 0.16"/>
      <path id="path147" fill="#B0833E" d="m119.81 93.515c-0.396 0.087-4.222 0.832-4.04 1.666 0.243 1.129 8.651-0.692 8.407-1.82-0.18-0.831-3.97 0.068-4.37 0.154"/>
      <path id="path149" fill="#B0833E" d="m62.692 126.49c-0.766 0.167 1.875 2.245 1.938 2.294 1.063 0.775 3.558 2.845 5.031 2.524 0.023 0.01-1.676-2.092-2.008-2.334-1.049-0.76-3.506-2.79-4.961-2.48"/>
      <path id="path151" fill="#B0833E" d="m107.81 115.75c-0.341 0.072 6.027 6.396 7.095 4.737 0.69-1.06-5.98-4.98-7.09-4.74"/>
      <path id="path153" fill="#EDE0A3" d="m56.626 72.465c0.754 0.484-4.031 7.919-4.789 7.433-0.749-0.486 4.039-7.917 4.789-7.433"/>
      <path id="path155" fill="#A58554" d="m110.31 67.829c-1.161 0.25-5.426 6.957-4.694 7.447 1.32 0.853 4.72-7.452 4.69-7.447"/>
      <path id="path157" fill="#B0833E" d="m120.6 113.85c-1.159 0.251-5.403 6.987-4.693 7.446 1.38 0.84 4.68-7.45 4.69-7.45"/>
      <path id="path159" fill="#B0833E" d="m74.347 123.86c-1.088 0.233-2.285 2.605-2.804 3.407-0.215 0.335-1.972 4.063-1.882 4.041 1.578 0.79 4.535-7.42 4.686-7.45"/>
      <path id="path161" fill="#937342" d="m69.674 130.8c-0.009 0.171-0.017 0.34-0.021 0.509 0.491 0.31-0.534-1.33 0.021-0.51"/>
      <path id="path163" fill="#EDE0A3" d="m56.515 98.307c0.173 0.791-7.34 1.262-7.465 2.387-0.079 0.688 1.13 6.614 0.683 6.662-1.033 0.112-1.416-5.9-1.494-6.675-0.193-1.911 8.151-2.954 8.276-2.373"/>
      <path id="path165" fill="#EDE0A3" d="m65.403 122.12c-0.166 0.257-2.096 3.386-2.627 3.044-0.701-0.45 3.61-7.149 4.314-6.696 0.53 0.35-1.521 3.41-1.687 3.66"/>
      <path id="path167" fill="#EDE0A3" d="m122.12 84.231c0.15 0.701-8.608 2.598-8.759 1.897-0.15-0.703 8.61-2.598 8.76-1.897"/>
      <path id="path169" fill="#7D6135" d="m107.91 96.942c-1.566 15.272-20.503 25-33.756 16.868 0.477 2.198 5.688 3.827 7.391 4.304 5.944 1.664 12.245 0.298 17.433-2.899 6.562-4.03 9.372-10.8 8.932-18.268m0.02-1.233c-0.097 0.405-0.105 0.815-0.017 1.232-0.05 0.518 0.18-1.263 0.02-1.232"/>
      <path id="path171" fill="#836432" d="m103.46 107.76c-4.033 5.075-10.527 8.353-16.969 8.823 6.589-0.39 12.939-3.56 16.969-8.82"/>
      <path id="path173" fill="#FAECAC" d="m67.646 97.283c-1.18-5.443 2.509-11.752 6.674-14.853 4.536-3.373 10.11-4.621 15.615-3.314 0.707 0.169 8.921 2.828 8.259 4.214 0.174-0.367-5.455-2.9-5.862-3.027-5.167-1.622-10.893-0.476-15.52 2.164-4.254 2.421-10.333 9.432-9.166 14.816"/>
      <path id="path175" fill="#FAECAC" d="m63.729 97.992c-1.438-6.638 3.541-14.452 8.567-18.14 5.473-4.013 12.185-5.606 18.81-3.979 2.453 0.605 4.865 1.556 7.014 2.894 0.115 0.075 2.402 1.875 2.076 1.96-0.378 0.097-1.564-1.082-1.843-1.278-1.618-1.137-3.379-2.068-5.25-2.714-6.277-2.156-13.314-0.737-18.881 2.682-4.492 2.757-7.767 7.036-9.333 12.059-0.525 1.664-1.491 5.002-1.164 6.516"/>
      <path id="path177" fill="#9E8860" d="m104.04 92.747c0.046-0.009-0.21 4.09-0.254 4.336-0.557 3.236-1.941 6.31-4.103 8.795-7.014 8.066-18.85 9.021-27.177 2.714 11.809 11.082 34.621 0.999 31.537-15.845"/>
      <path id="path179" fill="#C4A572" d="m101.43 105.06c-0.403 0.602-0.839 1.176-1.314 1.723 0.48-0.54 0.92-1.12 1.31-1.72m-29.394 3.25c-0.234 0.049 3.715 2.719 4.009 2.853-0.657-0.37-3.452-2.98-4.009-2.85"/>
    </g>
  </g>
  <metadata>
    <rdf:RDF>
      <cc:Work>
        <dc:format>image/svg+xml</dc:format>
        <dc:type rdf:resource="http://purl.org/dc/dcmitype/StillImage"/>
        <cc:license rdf:resource="http://creativecommons.org/licenses/publicdomain/"/>
        <dc:publisher>
          <cc:Agent rdf:about="http://openclipart.org/">
            <dc:title>Openclipart</dc:title>
          </cc:Agent>
        </dc:publisher>
        <dc:title>Architetto -- ruota dentata</dc:title>
        <dc:date>2010-03-25T20:40:35</dc:date>
        <dc:description>Drawing by Francesco 'Architetto' Rollandin. From OCAL 0.18 release.</dc:description>
        <dc:source>http://openclipart.org/detail/34117/architetto----ruota-dentata-by-anonymous</dc:source>
        <dc:creator>
          <cc:Agent>
            <dc:title>Anonymous</dc:title>
          </cc:Agent>
        </dc:creator>
        <dc:subject>
          <rdf:Bag>
            <rdf:li>clip art</rdf:li>
            <rdf:li>clipart</rdf:li>
            <rdf:li>gears</rdf:li>
            <rdf:li>mechanic</rdf:li>
            <rdf:li>technic</rdf:li>
            <rdf:li>technology</rdf:li>
            <rdf:li>tools</rdf:li>
          </rdf:Bag>
        </dc:subject>
      </cc:Work>
      <cc:License rdf:about="http://creativecommons.org/licenses/publicdomain/">
        <cc:permits rdf:resource="http://creativecommons.org/ns#Reproduction"/>
        <cc:permits rdf:resource="http://creativecommons.org/ns#Distribution"/>
        <cc:permits rdf:resource="http://creativecommons.org/ns#DerivativeWorks"/>
      </cc:License>
    </rdf:RDF>
  </metadata>
</svg>
