<?xml version="1.0" encoding="UTF-8" standalone="no"?>
<svg
   xmlns:dc="http://purl.org/dc/elements/1.1/"
   xmlns:cc="http://creativecommons.org/ns#"
   xmlns:rdf="http://www.w3.org/1999/02/22-rdf-syntax-ns#"
   xmlns:svg="http://www.w3.org/2000/svg"
   xmlns="http://www.w3.org/2000/svg"
   xmlns:sodipodi="http://sodipodi.sourceforge.net/DTD/sodipodi-0.dtd"
   xmlns:inkscape="http://www.inkscape.org/namespaces/inkscape"
   id="svg2"
   viewBox="0 0 30 30"
   version="1.0"
   sodipodi:docname="index_edit.svg"
   inkscape:version="1.0 (4035a4fb49, 2020-05-01)">
  <sodipodi:namedview
     pagecolor="#ffffff"
     bordercolor="#666666"
     borderopacity="1"
     objecttolerance="10"
     gridtolerance="10"
     guidetolerance="10"
     inkscape:pageopacity="0"
     inkscape:pageshadow="2"
     inkscape:window-width="640"
     inkscape:window-height="480"
     id="namedview16"
     showgrid="false"
     inkscape:zoom="16.8"
     inkscape:cx="0.32712749"
     inkscape:cy="10.805034"
     inkscape:current-layer="svg2" />
  <defs
     id="defs4">
    <linearGradient
       id="linearGradient2399"
       y2="22"
       gradientUnits="userSpaceOnUse"
       x2="22"
       gradientTransform="translate(-.49282 -.49229)"
       y1="11"
       x1="11">
      <stop
         id="stop2430"
         stop-color="#91b6da"
         offset="0" />
      <stop
         id="stop2432"
         stop-color="#6999cd"
         offset="1" />
    </linearGradient>
    <filter
       style="color-interpolation-filters:sRGB"
       inkscape:label="Drop Shadow"
       id="filter993">
      <feFlood
         flood-opacity="1"
         flood-color="rgb(0,0,0)"
         result="flood"
         id="feFlood983" />
      <feComposite
         in="flood"
         in2="SourceGraphic"
         operator="in"
         result="composite1"
         id="feComposite985" />
      <feGaussianBlur
         in="composite1"
         stdDeviation="47.3054"
         result="blur"
         id="feGaussianBlur987" />
      <feOffset
         dx="0"
         dy="0"
         result="offset"
         id="feOffset989" />
      <feComposite
         in="SourceGraphic"
         in2="offset"
         operator="over"
         result="composite2"
         id="feComposite991" />
    </filter>
    <clipPath
       id="presentation_clip_path"
       clipPathUnits="userSpaceOnUse">
      <rect
         x="0"
         y="0"
         width="2000"
         height="2000"
         id="rect2" />
    </clipPath>
    <linearGradient
       id="gradient1"
       x1="1086"
       y1="857"
       x2="1735"
       y2="1982"
       gradientUnits="userSpaceOnUse">
      <stop
         offset="0"
         style="stop-color:rgb(119,188,101)"
         id="stop53" />
      <stop
         offset="1"
         style="stop-color:rgb(18,118,34)"
         id="stop55" />
    </linearGradient>
    <filter
       style="color-interpolation-filters:sRGB"
       inkscape:label="Drop Shadow"
       id="filter923">
      <feFlood
         flood-opacity="1"
         flood-color="rgb(0,0,0)"
         result="flood"
         id="feFlood913" />
      <feComposite
         in="flood"
         in2="SourceGraphic"
         operator="in"
         result="composite1"
         id="feComposite915" />
      <feGaussianBlur
         in="composite1"
         stdDeviation="47.3054"
         result="blur"
         id="feGaussianBlur917" />
      <feOffset
         dx="0"
         dy="0"
         result="offset"
         id="feOffset919" />
      <feComposite
         in="SourceGraphic"
         in2="offset"
         operator="over"
         result="composite2"
         id="feComposite921" />
    </filter>
    <clipPath
       id="presentation_clip_path-2"
       clipPathUnits="userSpaceOnUse">
      <rect
         x="0"
         y="0"
         width="2000"
         height="2000"
         id="rect2-3" />
    </clipPath>
    <linearGradient
       id="gradient1-1"
       x1="1086"
       y1="857"
       x2="1735"
       y2="1982"
       gradientUnits="userSpaceOnUse">
      <stop
         offset="0"
         style="stop-color:rgb(255,109,109)"
         id="stop53-9" />
      <stop
         offset="1"
         style="stop-color:rgb(241,13,12)"
         id="stop55-2" />
    </linearGradient>
    <filter
       style="color-interpolation-filters:sRGB"
       inkscape:label="Drop Shadow"
       id="filter984">
      <feFlood
         flood-opacity="1"
         flood-color="rgb(0,0,0)"
         result="flood"
         id="feFlood974" />
      <feComposite
         in="flood"
         in2="SourceGraphic"
         operator="in"
         result="composite1"
         id="feComposite976" />
      <feGaussianBlur
         in="composite1"
         stdDeviation="55.6886"
         result="blur"
         id="feGaussianBlur978" />
      <feOffset
         dx="0"
         dy="0"
         result="offset"
         id="feOffset980" />
      <feComposite
         in="SourceGraphic"
         in2="offset"
         operator="over"
         result="composite2"
         id="feComposite982" />
    </filter>
    <clipPath
       id="presentation_clip_path-0"
       clipPathUnits="userSpaceOnUse">
      <rect
         x="0"
         y="0"
         width="2000"
         height="2000"
         id="rect2-9" />
    </clipPath>
    <linearGradient
       id="gradient1-9"
       x1="1593"
       y1="541"
       x2="1963"
       y2="911"
       gradientUnits="userSpaceOnUse">
      <stop
         offset="0"
         style="stop-color:rgb(255,109,109)"
         id="stop53-93" />
      <stop
         offset="1"
         style="stop-color:rgb(167,7,75)"
         id="stop55-5" />
    </linearGradient>
    <linearGradient
       id="gradient2"
       x1="562"
       y1="1565"
       x2="938"
       y2="1941"
       gradientUnits="userSpaceOnUse">
      <stop
         offset="0"
         style="stop-color:rgb(255,255,215)"
         id="stop80" />
      <stop
         offset="1"
         style="stop-color:rgb(255,182,108)"
         id="stop82" />
    </linearGradient>
    <linearGradient
       id="gradient3"
       x1="1428"
       y1="704"
       x2="1798"
       y2="1074"
       gradientUnits="userSpaceOnUse">
      <stop
         offset="0"
         style="stop-color:rgb(221,221,221)"
         id="stop119" />
      <stop
         offset="1"
         style="stop-color:rgb(128,128,128)"
         id="stop121" />
    </linearGradient>
  </defs>
  <g
     id="layer1">
    <path
       id="path2409"
       fill="#888a85"
       d="m1.4134 0.47646c-0.53177 0.05056-0.93767 0.49704-0.93747 1.0312v10c0.00186 0.271 0.12015 0.527 0.3125 0.718l17 17c0.404 0.398 1.034 0.398 1.438 0l10-10c0.397-0.403 0.397-1.033 0-1.437l-17-17c-0.192-0.1924-0.447-0.31068-0.719-0.31254h-9.9998c-0.0104 0.00047-0.0209 0.00047-0.0313 0-0.031-0.00141-0.0314-0.00141-0.0625 0zm5.0938 4.0312c1.104 0 2 0.896 2 2s-0.896 2-2 2-2-0.896-2-2 0.896-2 2-2z" />
    <path
       id="rect2397"
       fill="#eeeeec"
       d="m1.5072 1.5077v10l17 17 10-10-17-17-9.9998-0.0003zm5 3c1.104 0 2 0.896 2 2s-0.896 2-2 2-2-0.896-2-2 0.896-2 2-2z" />
    <path
       id="path2417"
       fill="#888a85"
       d="m6.5072 3.789c-1.5014 0-2.7188 1.2174-2.7188 2.7187 0 1.5014 1.2174 2.7188 2.7188 2.7188 1.5013 0 2.7187-1.2174 2.7187-2.7188 0-1.5013-1.2174-2.7187-2.7187-2.7187zm0 0.7187c1.104 0 2 0.896 2 2s-0.896 2-2 2-2-0.896-2-2 0.896-2 2-2z" />
    <path
       id="rect2419"
       d="m13.507 7.5077l11 11-6 6-11-11 6-6.0003z"
       fill="url(#linearGradient2399)" />
    <path
       id="path3236"
       d="m12.75 9.8703c-0.275 0.031-0.537 0.1747-0.713 0.4067l0.741 0.458c0.042-0.055 0.074-0.046 0.114-0.051 0.041-0.004 0.091-0.013 0.171 0.026 0.161 0.078 0.274 0.232 0.257 0.305h0.028c-0.335 0.726 0.259 1.485 1.112 1.551v0.051c0.515 0.089 0.913 0.558 1.055 1.069l0.057 0.127 0.114 0.101c0.333 0.226 0.676 0.296 0.912 0.382s0.32 0.122 0.37 0.254h0.029c-0.016 0.234-0.028 0.46 0.085 0.687 0.132 0.265 0.398 0.486 0.741 0.61v0.026c0.021 0.007 0.036 0.019 0.057 0.025 0.192 0.083 0.405 0.188 0.513 0.28 0.119 0.102 0.14 0.131 0.114 0.254v0.102c0.01 0.294 0.156 0.532 0.399 0.712 0.243 0.181 0.619 0.287 0.969 0.153l-0.342-0.763c-0.028 0.011-0.021 0.026-0.057 0-0.035-0.026-0.056-0.092-0.057-0.127h-0.057c0.036-0.368-0.103-0.712-0.342-0.916-0.258-0.22-0.56-0.359-0.798-0.458h-0.057c-0.153-0.045-0.204-0.124-0.256-0.229-0.053-0.105-0.086-0.244-0.057-0.407l0.028-0.101-0.028-0.102c-0.159-0.424-0.594-0.647-0.912-0.763-0.308-0.112-0.526-0.199-0.656-0.28-0.001-0.003-0.027 0.004-0.028 0-0.258-0.653-0.761-1.274-1.625-1.424l-0.029-0.026h-0.057c-0.317 0.007-0.555-0.246-0.399-0.508l0.057-0.051v-0.051c0.12-0.524-0.245-0.981-0.684-1.1955-0.219-0.107-0.495-0.1581-0.769-0.1272z"
       fill="#fff"
       fill-rule="evenodd" />
    <path
       id="path3238"
       d="m11.558 12.196c-0.477-0.22-1.051-0.247-1.544 0.06l0.475 0.838c0.371-0.231 1.007 0.083 1.099 0.509l0.03 0.09 0.059 0.09c0.094 0.128 0.102 0.334 0.089 0.688-0.013 0.355-0.024 0.866 0.357 1.287l0.029 0.06 0.06 0.03c0.499 0.343 1.04 0.477 1.484 0.659 0.445 0.181 0.749 0.379 0.951 0.718l0.059 0.09 0.089 0.06c0.866 0.572 1.443 1.568 1.871 2.604l0.03 0.03v0.03c0.261 0.432 0.681 0.629 1.009 0.778 0.329 0.15 0.583 0.276 0.743 0.419l0.059-0.06 0.743 0.3c0.092-0.252 0.094-0.583-0.09-0.868l-0.029-0.06-0.03-0.03c-0.339-0.305-0.724-0.439-1.01-0.569s-0.457-0.243-0.564-0.419c-0.434-1.037-1.061-2.088-2.049-2.814-0.058-0.042-0.088-0.109-0.148-0.15l-0.03 0.03c-0.353-0.465-0.801-0.775-1.247-0.957-0.484-0.199-0.923-0.362-1.247-0.569-0.082-0.117-0.101-0.261-0.089-0.569 0.01-0.293-0.037-0.711-0.238-1.108h0.059c-0.008-0.038-0.048-0.052-0.059-0.089-0.02-0.033-0.006-0.058-0.03-0.09l-0.029 0.03c-0.16-0.457-0.443-0.855-0.862-1.048z"
       fill="#fff"
       fill-rule="evenodd" />
  </g>
  <metadata
     id="metadata13">
    <rdf:RDF>
      <cc:Work>
        <dc:format>image/svg+xml</dc:format>
        <dc:type
           rdf:resource="http://purl.org/dc/dcmitype/StillImage" />
        <cc:license
           rdf:resource="http://creativecommons.org/licenses/publicdomain/" />
        <dc:publisher>
          <cc:Agent
             rdf:about="http://openclipart.org/">
            <dc:title>Openclipart</dc:title>
          </cc:Agent>
        </dc:publisher>
        <dc:title></dc:title>
        <dc:date>2008-05-26T11:58:56</dc:date>
        <dc:description>clip art, clipart, icon, icon, image, media, note, note, png, public domain, speak, speak, svg, ticket, ticket, </dc:description>
        <dc:source>http://openclipart.org/detail/17023/icon_note-by-jean_victor_balin</dc:source>
        <dc:creator>
          <cc:Agent>
            <dc:title>jean_victor_balin</dc:title>
          </cc:Agent>
        </dc:creator>
        <dc:subject>
          <rdf:Bag>
            <rdf:li>clip art</rdf:li>
            <rdf:li>clipart</rdf:li>
            <rdf:li>icon</rdf:li>
            <rdf:li>image</rdf:li>
            <rdf:li>media</rdf:li>
            <rdf:li>note</rdf:li>
            <rdf:li>png</rdf:li>
            <rdf:li>public domain</rdf:li>
            <rdf:li>speak</rdf:li>
            <rdf:li>svg</rdf:li>
            <rdf:li>ticket</rdf:li>
          </rdf:Bag>
        </dc:subject>
      </cc:Work>
      <cc:License
         rdf:about="http://creativecommons.org/licenses/publicdomain/">
        <cc:permits
           rdf:resource="http://creativecommons.org/ns#Reproduction" />
        <cc:permits
           rdf:resource="http://creativecommons.org/ns#Distribution" />
        <cc:permits
           rdf:resource="http://creativecommons.org/ns#DerivativeWorks" />
      </cc:License>
    </rdf:RDF>
  </metadata>
  <g
     transform="matrix(0.01365371,0,0,0.01365372,0.11107402,-0.10758793)"
     class="SlideGroup"
     id="g143"
     style="filter:url(#filter984)">
    <g
       id="g141">
      <g
         id="container-id1">
        <g
           id="id1"
           class="Slide"
           clip-path="url(#presentation_clip_path-0)">
          <g
             class="Page"
             id="g137">
            <g
               class="Group"
               id="g135">
              <g
                 class="com.sun.star.drawing.CustomShape"
                 id="g67">
                <g
                   id="id3">
                  <rect
                     class="BoundingBox"
                     stroke="none"
                     fill="none"
                     x="1568"
                     y="517"
                     width="422"
                     height="420"
                     id="rect51" />
                  <g
                     id="g62">
                    <defs
                       id="defs58">
                      <linearGradient
                         id="linearGradient1061"
                         x1="1593"
                         y1="541"
                         x2="1963"
                         y2="911"
                         gradientUnits="userSpaceOnUse">
                        <stop
                           offset="0"
                           style="stop-color:rgb(255,109,109)"
                           id="stop945" />
                        <stop
                           offset="1"
                           style="stop-color:rgb(167,7,75)"
                           id="stop947" />
                      </linearGradient>
                    </defs>
                    <path
                       style="fill:url(#gradient1-9)"
                       d="m 1881,829 -81,81 -207,-205 164,-163 206,205 z"
                       id="path60" />
                  </g>
                  <path
                     fill="none"
                     stroke="#861141"
                     stroke-width="50"
                     stroke-linejoin="round"
                     d="m 1881,829 -81,81 -207,-205 164,-163 206,205 z"
                     id="path64" />
                </g>
              </g>
              <g
                 class="com.sun.star.drawing.CustomShape"
                 id="g76">
                <g
                   id="id4">
                  <rect
                     class="BoundingBox"
                     stroke="none"
                     fill="none"
                     x="708"
                     y="843"
                     width="954"
                     height="955"
                     id="rect69" />
                  <path
                     fill="#ffffa6"
                     stroke="none"
                     d="m 1287,1422 -349,349 -205,-205 697,-697 205,205 z"
                     id="path71" />
                  <path
                     fill="none"
                     stroke="#7b3d00"
                     stroke-width="50"
                     stroke-linejoin="round"
                     d="m 1287,1422 -349,349 -205,-205 697,-697 205,205 z"
                     id="path73" />
                </g>
              </g>
              <g
                 class="com.sun.star.drawing.PolyPolygonShape"
                 id="g94">
                <g
                   id="id5">
                  <rect
                     class="BoundingBox"
                     stroke="none"
                     fill="none"
                     x="538"
                     y="1540"
                     width="427"
                     height="427"
                     id="rect78" />
                  <g
                     id="g89">
                    <defs
                       id="defs85">
                      <linearGradient
                         id="linearGradient1063"
                         x1="562"
                         y1="1565"
                         x2="938"
                         y2="1941"
                         gradientUnits="userSpaceOnUse">
                        <stop
                           offset="0"
                           style="stop-color:rgb(255,255,215)"
                           id="stop963" />
                        <stop
                           offset="1"
                           style="stop-color:rgb(255,182,108)"
                           id="stop965" />
                      </linearGradient>
                    </defs>
                    <path
                       style="fill:url(#gradient2)"
                       d="m 734,1565 170,171 34,34 -375,171 z"
                       id="path87" />
                  </g>
                  <path
                     fill="none"
                     stroke="#7b3d00"
                     stroke-width="50"
                     stroke-linejoin="round"
                     d="m 734,1565 170,171 34,34 -375,171 z"
                     id="path91" />
                </g>
              </g>
              <g
                 class="com.sun.star.drawing.PolyPolygonShape"
                 id="g101">
                <g
                   id="id6">
                  <rect
                     class="BoundingBox"
                     stroke="none"
                     fill="none"
                     x="510"
                     y="1825"
                     width="171"
                     height="171"
                     id="rect96" />
                  <path
                     fill="#666666"
                     stroke="none"
                     d="m 587,1826 77,77 16,15 -170,77 z"
                     id="path98" />
                </g>
              </g>
              <g
                 class="com.sun.star.drawing.LineShape"
                 id="g108">
                <g
                   id="id7">
                  <rect
                     class="BoundingBox"
                     stroke="none"
                     fill="none"
                     x="856"
                     y="955"
                     width="797"
                     height="798"
                     id="rect103" />
                  <path
                     fill="none"
                     stroke="#ff972f"
                     stroke-width="100"
                     stroke-linejoin="round"
                     d="m 906,1702 696,-696"
                     id="path105" />
                </g>
              </g>
              <g
                 class="com.sun.star.drawing.LineShape"
                 id="g115">
                <g
                   id="id8">
                  <rect
                     class="BoundingBox"
                     stroke="none"
                     fill="none"
                     x="801"
                     y="901"
                     width="798"
                     height="797"
                     id="rect110" />
                  <path
                     fill="none"
                     stroke="#ffb66c"
                     stroke-width="100"
                     stroke-linejoin="round"
                     d="M 852,1647 1547,951"
                     id="path112" />
                </g>
              </g>
              <g
                 class="com.sun.star.drawing.CustomShape"
                 id="g133">
                <g
                   id="id9">
                  <rect
                     class="BoundingBox"
                     stroke="none"
                     fill="none"
                     x="1405"
                     y="679"
                     width="419"
                     height="421"
                     id="rect117" />
                  <g
                     id="g128">
                    <defs
                       id="defs124">
                      <linearGradient
                         id="RESERVED_FOR_INKSCAPE_DUPLICATE_DEF_000000000"
                         x1="1428"
                         y1="704"
                         x2="1798"
                         y2="1074"
                         gradientUnits="userSpaceOnUse">
                        <stop
                           offset="0"
                           style="stop-color:rgb(221,221,221)"
                           id="stop988" />
                        <stop
                           offset="1"
                           style="stop-color:rgb(128,128,128)"
                           id="stop990" />
                      </linearGradient>
                    </defs>
                    <path
                       style="fill:url(#gradient3)"
                       d="m 1716,992 -82,82 -204,-206 163,-164 204,206 z"
                       id="path126" />
                  </g>
                  <path
                     fill="none"
                     stroke="#333333"
                     stroke-width="50"
                     stroke-linejoin="round"
                     d="m 1716,992 -82,82 -204,-206 163,-164 204,206 z"
                     id="path130" />
                </g>
              </g>
            </g>
          </g>
        </g>
      </g>
    </g>
  </g>
</svg>
