<svg xmlns="http://www.w3.org/2000/svg" viewBox="0 0 30 30"><defs><linearGradient id="a" x1="11" x2="22" y1="11" y2="22" gradientTransform="translate(-.493 -.492)" gradientUnits="userSpaceOnUse"><stop offset="0" stop-color="#91b6da"/><stop offset="1" stop-color="#6999cd"/></linearGradient><linearGradient id="d" x1="1593" x2="1963" y1="541" y2="911" gradientUnits="userSpaceOnUse"><stop offset="0" style="stop-color:#ff6d6d"/><stop offset="1" style="stop-color:#a7074b"/></linearGradient><linearGradient id="e" x1="562" x2="938" y1="1565" y2="1941" gradientUnits="userSpaceOnUse"><stop offset="0" style="stop-color:#ffffd7"/><stop offset="1" style="stop-color:#ffb66c"/></linearGradient><linearGradient id="f" x1="1428" x2="1798" y1="704" y2="1074" gradientUnits="userSpaceOnUse"><stop offset="0" style="stop-color:#ddd"/><stop offset="1" style="stop-color:gray"/></linearGradient><clipPath id="c" clipPathUnits="userSpaceOnUse"><path d="M0 0h2000v2000H0z"/></clipPath></defs><path fill="#888a85" d="M1.413.476C.882.527.476.974.476 1.508v10c.002.27.12.527.312.718l17 17a1.015 1.015 0 0 0 1.438 0l10-10a1.016 1.016 0 0 0 0-1.437l-17-17a1.03 1.03 0 0 0-.719-.313H1.477a1 1 0 0 0-.063 0zm5.094 4.032a2 2 0 1 1-.001 4.001 2 2 0 0 1 .001-4.001"/><path fill="#eeeeec" d="M1.507 1.508v10l17 17 10-10-17-17zm5 3a2 2 0 1 1-.001 4.001 2 2 0 0 1 .001-4.001"/><path fill="#888a85" d="M6.507 3.789a2.719 2.719 0 1 0 0 5.438 2.719 2.719 0 0 0 0-5.438m0 .719a2 2 0 1 1-.001 4.001 2 2 0 0 1 .001-4.001"/><path fill="url(#a)" d="m13.507 7.508 11 11-6 6-11-11z"/><path fill="#fff" fill-rule="evenodd" d="M12.75 9.87a1.05 1.05 0 0 0-.713.407l.741.458c.042-.055.074-.046.114-.051s.091-.013.171.026c.161.078.274.232.257.305h.028c-.335.726.259 1.485 1.112 1.551v.051c.515.089.913.558 1.055 1.069l.057.127.114.101c.333.226.676.296.912.382s.32.122.37.254h.029c-.016.234-.028.46.085.687.132.265.398.486.741.61v.026c.021.007.036.019.057.025.192.083.405.188.513.28.119.102.14.131.114.254v.102c.01.294.156.532.399.712.243.181.619.287.969.153l-.342-.763c-.028.011-.021.026-.057 0-.035-.026-.056-.092-.057-.127h-.057c.036-.368-.103-.712-.342-.916-.258-.22-.56-.359-.798-.458h-.057c-.153-.045-.204-.124-.256-.229a.64.64 0 0 1-.057-.407l.028-.101-.028-.102c-.159-.424-.594-.647-.912-.763-.308-.112-.526-.199-.656-.28-.001-.003-.027.004-.028 0-.258-.653-.761-1.274-1.625-1.424l-.029-.026h-.057c-.317.007-.555-.246-.399-.508l.057-.051v-.051c.12-.524-.245-.981-.684-1.195a1.4 1.4 0 0 0-.769-.128M11.558 12.196c-.477-.22-1.051-.247-1.544.06l.475.838c.371-.231 1.007.083 1.099.509l.03.09.059.09c.094.128.102.334.089.688-.013.355-.024.866.357 1.287l.029.06.06.03c.499.343 1.04.477 1.484.659.445.181.749.379.951.718l.059.09.089.06c.866.572 1.443 1.568 1.871 2.604l.03.03v.03c.261.432.681.629 1.009.778.329.15.583.276.743.419l.059-.06.743.3a.99.99 0 0 0-.09-.868l-.029-.06-.03-.03c-.339-.305-.724-.439-1.01-.569s-.457-.243-.564-.419c-.434-1.037-1.061-2.088-2.049-2.814-.058-.042-.088-.109-.148-.15l-.03.03a3 3 0 0 0-1.247-.957c-.484-.199-.923-.362-1.247-.569-.082-.117-.101-.261-.089-.569a2.33 2.33 0 0 0-.238-1.108h.059c-.008-.038-.048-.052-.059-.089-.02-.033-.006-.058-.03-.09l-.029.03c-.16-.457-.443-.855-.862-1.048"/><g class="SlideGroup"  transform="translate(.111 -.108)scale(.01365)"><g class="Slide" clip-path="url(#c)"><g class="Page"><g class="Group"><g class="com.sun.star.drawing.CustomShape"><path fill="none" d="M1568 517h422v420h-422z" class="BoundingBox"/><path d="m1881 829-81 81-207-205 164-163 206 205z" style="fill:url(#d)"/><path fill="none" stroke="#861141" stroke-linejoin="round" stroke-width="50" d="m1881 829-81 81-207-205 164-163 206 205z"/></g><g class="com.sun.star.drawing.CustomShape"><path fill="none" d="M708 843h954v955H708z" class="BoundingBox"/><path fill="#ffffa6" d="m1287 1422-349 349-205-205 697-697 205 205z"/><path fill="none" stroke="#7b3d00" stroke-linejoin="round" stroke-width="50" d="m1287 1422-349 349-205-205 697-697 205 205z"/></g><g class="com.sun.star.drawing.PolyPolygonShape"><path fill="none" d="M538 1540h427v427H538z" class="BoundingBox"/><path d="m734 1565 170 171 34 34-375 171z" style="fill:url(#e)"/><path fill="none" stroke="#7b3d00" stroke-linejoin="round" stroke-width="50" d="m734 1565 170 171 34 34-375 171z"/></g><g class="com.sun.star.drawing.PolyPolygonShape"><path fill="none" d="M510 1825h171v171H510z" class="BoundingBox"/><path fill="#666" d="m587 1826 77 77 16 15-170 77z"/></g><g fill="none" class="com.sun.star.drawing.LineShape"><path d="M856 955h797v798H856z" class="BoundingBox"/><path stroke="#ff972f" stroke-linejoin="round" stroke-width="100" d="m906 1702 696-696"/></g><g fill="none" class="com.sun.star.drawing.LineShape"><path d="M801 901h798v797H801z" class="BoundingBox"/><path stroke="#ffb66c" stroke-linejoin="round" stroke-width="100" d="m852 1647 695-696"/></g><g class="com.sun.star.drawing.CustomShape"><path fill="none" d="M1405 679h419v421h-419z" class="BoundingBox"/><path d="m1716 992-82 82-204-206 163-164 204 206z" style="fill:url(#f)"/><path fill="none" stroke="#333" stroke-linejoin="round" stroke-width="50" d="m1716 992-82 82-204-206 163-164 204 206z"/></g></g></g></g></g></svg>
