<?xml version="1.0" encoding="UTF-8" standalone="no"?>
<svg
   xmlns:dc="http://purl.org/dc/elements/1.1/"
   xmlns:cc="http://creativecommons.org/ns#"
   xmlns:rdf="http://www.w3.org/1999/02/22-rdf-syntax-ns#"
   xmlns:svg="http://www.w3.org/2000/svg"
   xmlns="http://www.w3.org/2000/svg"
   xmlns:sodipodi="http://sodipodi.sourceforge.net/DTD/sodipodi-0.dtd"
   xmlns:inkscape="http://www.inkscape.org/namespaces/inkscape"
   id="svg2"
   height="210mm"
   width="210mm"
   version="1.1"
   sodipodi:docname="key.svg"
   inkscape:version="1.0 (4035a4fb49, 2020-05-01)">
  <sodipodi:namedview
     pagecolor="#ffffff"
     bordercolor="#666666"
     borderopacity="1"
     objecttolerance="10"
     gridtolerance="10"
     guidetolerance="10"
     inkscape:pageopacity="0"
     inkscape:pageshadow="2"
     inkscape:window-width="640"
     inkscape:window-height="480"
     id="namedview25"
     showgrid="false"
     inkscape:zoom="0.8979798"
     inkscape:cx="216.44544"
     inkscape:cy="561.25984"
     inkscape:current-layer="svg2" />
  <title
     id="title3784">key</title>
  <defs
     id="defs4">
    <radialGradient
       id="radialGradient3718"
       gradientUnits="userSpaceOnUse"
       cy="540.37"
       cx="382.14001"
       r="26.739">
      <stop
         id="stop3714"
         stop-color="#feffea"
         offset="0" />
      <stop
         id="stop3720"
         stop-color="#ebec97"
         offset=".30973" />
      <stop
         id="stop3716"
         stop-color="#d9d945"
         offset="1" />
    </radialGradient>
    <linearGradient
       id="linearGradient3812"
       x1="559.71002"
       gradientUnits="userSpaceOnUse"
       y1="472.73999"
       gradientTransform="matrix(1.3692,0,0,1.3692,-366.37,-565.96)"
       x2="601.02002"
       y2="511.54001">
      <stop
         id="stop3731"
         stop-color="#666"
         offset="0" />
      <stop
         id="stop3733"
         stop-color="#f2edf1"
         offset="1" />
    </linearGradient>
  </defs>
  <g
     id="g3818"
     transform="matrix(1.8209964,0,0,1.8209964,-257.48517,-57.152006)">
    <g
       id="g3761"
       stroke-linejoin="round"
       transform="matrix(1.3692,0,0,1.3692,-319.35,-496.81)"
       stroke="#b3b3b3"
       stroke-linecap="round"
       stroke-width="7.798"
       fill="#b3b3b3">
      <path
         id="path3763"
         d="m 511.64,590.22 61.114,-61.114 v -26.264 h 28.284 v -29.294 h 26.769 c 16.54,-44.83 -28.51,-70.26 -54.54,-54.56 l -115.66,115.66 54.043,55.558 z" />
      <path
         id="path3765"
         d="M 473.76,549.31 567.2,455.87" />
    </g>
    <path
       id="path3739"
       style="color:#000000"
       transform="matrix(4.54,0,0,4.54,-1444.3,-2089.7)"
       fill="#cccccc"
       d="m 407.14,533.08 a 25,25 0 1 1 -50,0 25,25 0 1 1 50,0 z" />
    <path
       id="path3727"
       stroke-linejoin="round"
       d="m 375.65,303 83.676,-83.676 v -35.96 h 38.726 v -40.109 h 36.651 c 22.62,-61.359 -39.06,-96.177 -74.7,-74.68 l -158.36,158.36 73.994,76.069 z"
       stroke="#313131"
       stroke-linecap="round"
       stroke-width="12.183"
       fill="url(#linearGradient3812)"
       style="fill:url(#linearGradient3812)" />
    <path
       id="path3737"
       stroke-linejoin="round"
       d="M 323.78,246.99 451.72,119.05"
       stroke="#313131"
       stroke-linecap="round"
       stroke-width="12.183"
       fill="none" />
    <path
       id="path3700"
       style="color:#000000;fill:url(#radialGradient3718)"
       d="m 407.14,533.08 a 25,25 0 1 1 -50,0 25,25 0 1 1 50,0 z"
       transform="matrix(4.291,0,0,4.291,-1355.4,-1964.6)"
       stroke="#343434"
       stroke-width="2.7434"
       fill="url(#radialGradient3718)" />
    <path
       id="path2926"
       style="color:#000000"
       d="m 407.14,533.08 a 25,25 0 1 1 -50,0 25,25 0 1 1 50,0 z"
       transform="matrix(1.005,0,0,1.005,-128.02,-170.82)"
       stroke="#323232"
       stroke-width="11.577"
       fill="#ffffff" />
    <path
       id="path3722"
       style="color:#000000"
       fill-opacity="0.30916"
       fill="#666666"
       d="m 256.04,345.06 c -11.248,0 -20.366,9.1188 -20.366,20.366 0,5.9054 2.5736,11.17 6.5891,14.89 -1.3548,-2.7265 -2.1821,-5.7769 -2.1821,-9.028 0,-11.248 9.1188,-20.366 20.366,-20.366 5.338,0 10.188,2.0736 13.82,5.4339 -3.3389,-6.6875 -10.244,-11.296 -18.227,-11.296 z" />
  </g>
  <metadata
     id="metadata22">
    <rdf:RDF>
      <cc:Work>
        <dc:format>image/svg+xml</dc:format>
        <dc:type
           rdf:resource="http://purl.org/dc/dcmitype/StillImage" />
        <cc:license
           rdf:resource="http://creativecommons.org/publicdomain/zero/1.0/" />
        <dc:publisher>
          <cc:Agent
             rdf:about="http://openclipart.org/">
            <dc:title>Openclipart</dc:title>
          </cc:Agent>
        </dc:publisher>
        <dc:title>key</dc:title>
        <dc:date>2010-05-04T11:30:38</dc:date>
        <dc:description>clip art, clipart, key, office, tools, </dc:description>
        <dc:source>http://openclipart.org/detail/58621/key-by-voyeg3r</dc:source>
        <dc:creator>
          <cc:Agent>
            <dc:title>voyeg3r</dc:title>
          </cc:Agent>
        </dc:creator>
        <dc:subject>
          <rdf:Bag>
            <rdf:li>clip art</rdf:li>
            <rdf:li>clipart</rdf:li>
            <rdf:li>key</rdf:li>
            <rdf:li>office</rdf:li>
            <rdf:li>tools</rdf:li>
          </rdf:Bag>
        </dc:subject>
      </cc:Work>
      <cc:License
         rdf:about="http://creativecommons.org/publicdomain/zero/1.0/">
        <cc:permits
           rdf:resource="http://creativecommons.org/ns#Reproduction" />
        <cc:permits
           rdf:resource="http://creativecommons.org/ns#Distribution" />
        <cc:permits
           rdf:resource="http://creativecommons.org/ns#DerivativeWorks" />
      </cc:License>
    </rdf:RDF>
  </metadata>
</svg>
