<?xml version="1.0" encoding="utf-8"?><!-- Uploaded to: SVG Repo, www.svgrepo.com, Generator: SVG Repo Mixer Tools -->
<svg fill="#000000" width="800px" height="800px" viewBox="0 0 24 24" id="link-alt-3" data-name="Flat Line" xmlns="http://www.w3.org/2000/svg" class="icon flat-line"><rect id="secondary" x="3" y="8" width="18" height="8" rx="1" style="fill: rgb(44, 169, 188); stroke-width: 2;"></rect><line id="primary" x1="8" y1="12" x2="16" y2="12" style="fill: none; stroke: rgb(0, 0, 0); stroke-linecap: round; stroke-linejoin: round; stroke-width: 2;"></line><path id="primary-2" data-name="primary" d="M10,9A1,1,0,0,0,9,8H4A1,1,0,0,0,3,9v6a1,1,0,0,0,1,1H9a1,1,0,0,0,1-1" style="fill: none; stroke: rgb(0, 0, 0); stroke-linecap: round; stroke-linejoin: round; stroke-width: 2;"></path><path id="primary-3" data-name="primary" d="M14,15a1,1,0,0,0,1,1h5a1,1,0,0,0,1-1V9a1,1,0,0,0-1-1H15a1,1,0,0,0-1,1" style="fill: none; stroke: rgb(0, 0, 0); stroke-linecap: round; stroke-linejoin: round; stroke-width: 2;"></path></svg>