<svg xmlns="http://www.w3.org/2000/svg" xmlns:xlink="http://www.w3.org/1999/xlink" viewBox="0 0 48 48"><defs><linearGradient id="c"><stop stop-color="#fff"/><stop offset="1" stop-color="#fff" stop-opacity="0"/></linearGradient><linearGradient id="b"><stop stop-color="#fff" stop-opacity=".8"/><stop offset="1" stop-color="#fff" stop-opacity="0"/></linearGradient><linearGradient xlink:href="#b" id="d" x2="0" y1="4.076" y2="36.737" gradientUnits="userSpaceOnUse"/><linearGradient xlink:href="#c" id="e" x1="1.586" x2="24.733" y1="-16.371" y2="27.934" gradientUnits="userSpaceOnUse"/><linearGradient id="h" x1="1086" x2="1735" y1="857" y2="1982" gradientUnits="userSpaceOnUse"><stop offset="0" style="stop-color:#77bc65"/><stop offset="1" style="stop-color:#127622"/></linearGradient><clipPath id="g" clipPathUnits="userSpaceOnUse"><path d="M0 0h2000v2000H0z"/></clipPath></defs><path fill="#7c0000" d="M43.19 24a19.19 19.19 0 1 1-38.38 0 19.19 19.19 0 1 1 38.38 0"/><path fill="#c00" d="M24.031 6.031C14.346 6.031 6.27 13.971 6.27 24s8.076 17.968 17.761 17.968S41.753 34.031 41.753 24 33.716 6.03 24.03 6.03" style="stroke-width:1.18787"/><path fill="none" stroke="url(#d)" stroke-width=".842" d="M-27.812 4.531c-7.21 0-13.313 6.966-13.313 15.875 0 8.91 6.103 15.875 13.313 15.875s13.28-6.962 13.28-15.875-6.07-15.875-13.28-15.875z" opacity=".8" transform="matrix(1.2859 0 0 1.0973 59.782 1.608)"/><path fill="url(#e)" d="M24.031 6.031C14.346 6.031 6.25 13.971 6.25 24v.031c11.07-4.326 22.428-6.57 33.406-8.5-3-5.685-8.909-9.5-15.625-9.5" opacity=".6"/><g style="opacity:.92628205"><ellipse cx="24.103" cy="24.316" rx="9.619" ry="9.428" style="opacity:1;fill:none;stroke:#fff;stroke-width:5;stroke-linecap:round;stroke-linejoin:round;stroke-miterlimit:4;stroke-dasharray:none;stroke-opacity:1"/><path d="m15.521 34.768 17.445-19.955v0" style="fill:none;stroke:#fff;stroke-width:5;stroke-linecap:round;stroke-linejoin:miter;stroke-miterlimit:4;stroke-dasharray:none;stroke-opacity:1"/></g><g class="SlideGroup" transform="translate(2.198 2.03)scale(.02291)"><g class="Slide" clip-path="url(#g)"><g class="Page"><g class="com.sun.star.drawing.CustomShape"><path fill="none" d="M910 919h1003v1003H910z" class="BoundingBox"/><path d="m1886 1420-1 31-3 31-5 30-7 31-9 29-11 29-13 29-15 27-16 27-18 25-20 24-21 23-23 21-24 20-25 18-27 16-27 15-29 13-29 11-29 9-31 7-30 5-31 3-31 1-32-1-31-3-30-5-31-7-29-9-29-11-29-13-27-15-27-16-25-18-24-20-23-21-21-23-20-24-18-25-16-27-15-27-13-29-11-29-9-29-7-31-5-30-3-31-1-31 1-32 3-31 5-30 7-31 9-29 11-29 13-29 15-27 16-27 18-25 20-24 21-23 23-21 24-20 25-18 27-16 27-15 29-13 29-11 29-9 31-7 30-5 31-3 31-1 32 1 31 3 30 5 31 7 29 9 29 11 29 13 27 15 27 16 25 18 24 20 23 21 21 23 20 24 18 25 16 27 15 27 13 29 11 29 9 29 7 31 5 30 3 31 1 31z" style="fill:url(#h)"/><path fill="none" stroke="#224b12" stroke-linejoin="round" stroke-width="50" d="M1886 1420c0 83-22 165-64 237-41 73-101 133-174 174-72 42-154 64-237 64-84 0-166-22-238-64-73-41-133-101-174-174-42-72-64-154-64-237 0-84 22-166 64-238 41-73 101-133 174-174 72-42 154-64 237-64 84 0 166 22 238 64 73 41 133 101 174 174 42 72 64 154 64 237z"/></g><g class="com.sun.star.drawing.CustomShape"><path fill="none" d="M1082 1093h652v653h-652z" class="BoundingBox"/><path fill="#eee" d="M1336 1094h142v254h255v142h-255v255h-142v-255h-254v-142h254z"/></g></g></g></g></svg>
