<?xml version="1.0" encoding="UTF-8"?>
<!DOCTYPE svg PUBLIC "-//W3C//DTD SVG 1.1//EN" "http://www.w3.org/Graphics/SVG/1.1/DTD/svg11.dtd">
<svg version="1.2" width="20mm" height="20mm" viewBox="0 0 2000 2000" preserveAspectRatio="xMidYMid" fill-rule="evenodd" stroke-width="28.222" stroke-linejoin="round" xmlns="http://www.w3.org/2000/svg" xmlns:ooo="http://xml.openoffice.org/svg/export" xmlns:xlink="http://www.w3.org/1999/xlink" xmlns:presentation="http://sun.com/xmlns/staroffice/presentation" xmlns:smil="http://www.w3.org/2001/SMIL20/" xmlns:anim="urn:oasis:names:tc:opendocument:xmlns:animation:1.0" xml:space="preserve">
 <defs class="ClipPathGroup">
  <clipPath id="presentation_clip_path" clipPathUnits="userSpaceOnUse">
   <rect x="0" y="0" width="2000" height="2000"/>
  </clipPath>
  <clipPath id="presentation_clip_path_shrink" clipPathUnits="userSpaceOnUse">
   <rect x="2" y="2" width="1996" height="1996"/>
  </clipPath>
 </defs>
 <defs class="TextShapeIndex">
  <g ooo:slide="id1" ooo:id-list="id3 id4 id5"/>
 </defs>
 <defs class="EmbeddedBulletChars">
  <g id="bullet-char-template-57356" transform="scale(0.00048828125,-0.00048828125)">
   <path d="M 580,1141 L 1163,571 580,0 -4,571 580,1141 Z"/>
  </g>
  <g id="bullet-char-template-57354" transform="scale(0.00048828125,-0.00048828125)">
   <path d="M 8,1128 L 1137,1128 1137,0 8,0 8,1128 Z"/>
  </g>
  <g id="bullet-char-template-10146" transform="scale(0.00048828125,-0.00048828125)">
   <path d="M 174,0 L 602,739 174,1481 1456,739 174,0 Z M 1358,739 L 309,1346 659,739 1358,739 Z"/>
  </g>
  <g id="bullet-char-template-10132" transform="scale(0.00048828125,-0.00048828125)">
   <path d="M 2015,739 L 1276,0 717,0 1260,543 174,543 174,936 1260,936 717,1481 1274,1481 2015,739 Z"/>
  </g>
  <g id="bullet-char-template-10007" transform="scale(0.00048828125,-0.00048828125)">
   <path d="M 0,-2 C -7,14 -16,27 -25,37 L 356,567 C 262,823 215,952 215,954 215,979 228,992 255,992 264,992 276,990 289,987 310,991 331,999 354,1012 L 381,999 492,748 772,1049 836,1024 860,1049 C 881,1039 901,1025 922,1006 886,937 835,863 770,784 769,783 710,716 594,584 L 774,223 C 774,196 753,168 711,139 L 727,119 C 717,90 699,76 672,76 641,76 570,178 457,381 L 164,-76 C 142,-110 111,-127 72,-127 30,-127 9,-110 8,-76 1,-67 -2,-52 -2,-32 -2,-23 -1,-13 0,-2 Z"/>
  </g>
  <g id="bullet-char-template-10004" transform="scale(0.00048828125,-0.00048828125)">
   <path d="M 285,-33 C 182,-33 111,30 74,156 52,228 41,333 41,471 41,549 55,616 82,672 116,743 169,778 240,778 293,778 328,747 346,684 L 369,508 C 377,444 397,411 428,410 L 1163,1116 C 1174,1127 1196,1133 1229,1133 1271,1133 1292,1118 1292,1087 L 1292,965 C 1292,929 1282,901 1262,881 L 442,47 C 390,-6 338,-33 285,-33 Z"/>
  </g>
  <g id="bullet-char-template-9679" transform="scale(0.00048828125,-0.00048828125)">
   <path d="M 813,0 C 632,0 489,54 383,161 276,268 223,411 223,592 223,773 276,916 383,1023 489,1130 632,1184 813,1184 992,1184 1136,1130 1245,1023 1353,916 1407,772 1407,592 1407,412 1353,268 1245,161 1136,54 992,0 813,0 Z"/>
  </g>
  <g id="bullet-char-template-8226" transform="scale(0.00048828125,-0.00048828125)">
   <path d="M 346,457 C 273,457 209,483 155,535 101,586 74,649 74,723 74,796 101,859 155,911 209,963 273,989 346,989 419,989 480,963 531,910 582,859 608,796 608,723 608,648 583,586 532,535 482,483 420,457 346,457 Z"/>
  </g>
  <g id="bullet-char-template-8211" transform="scale(0.00048828125,-0.00048828125)">
   <path d="M -4,459 L 1135,459 1135,606 -4,606 -4,459 Z"/>
  </g>
  <g id="bullet-char-template-61548" transform="scale(0.00048828125,-0.00048828125)">
   <path d="M 173,740 C 173,903 231,1043 346,1159 462,1274 601,1332 765,1332 928,1332 1067,1274 1183,1159 1299,1043 1357,903 1357,740 1357,577 1299,437 1183,322 1067,206 928,148 765,148 601,148 462,206 346,322 231,437 173,577 173,740 Z"/>
  </g>
 </defs>
 <g>
  <g id="id2" class="Master_Slide">
   <g id="bg-id2" class="Background"/>
   <g id="bo-id2" class="BackgroundObjects"/>
  </g>
 </g>
 <g class="SlideGroup">
  <g>
   <g id="container-id1">
    <g id="id1" class="Slide" clip-path="url(#presentation_clip_path)">
     <g class="Page">
      <g class="Group">
       <g class="com.sun.star.drawing.CustomShape">
        <g id="id3">
         <rect class="BoundingBox" stroke="none" fill="none" x="179" y="81" width="1643" height="1838"/>
         <path fill="rgb(238,238,238)" stroke="none" d="M 207,1900 L 1803,1892 1795,549 1391,99 197,105 207,1900 Z"/>
         <path fill="none" stroke="rgb(51,51,51)" stroke-width="35" stroke-linejoin="round" d="M 207,1900 L 1803,1892 1795,549 1391,99 197,105 207,1900 Z"/>
         <path fill="rgb(190,190,190)" stroke="none" d="M 1391,99 L 1498,550 C 1597,486 1594,522 1795,549 L 1391,99 Z"/>
         <path fill="none" stroke="rgb(51,51,51)" stroke-width="35" stroke-linejoin="round" d="M 1391,99 L 1498,550 C 1597,486 1594,522 1795,549 L 1391,99 Z"/>
        </g>
       </g>
       <g class="com.sun.star.drawing.CustomShape">
        <g id="id4">
         <rect class="BoundingBox" stroke="none" fill="none" x="1378" y="85" width="437" height="486"/>
         <path fill="rgb(204,204,204)" stroke="none" d="M 1396,103 L 1796,552 1396,552 1396,103 1396,103 Z"/>
         <path fill="none" stroke="rgb(51,51,51)" stroke-width="35" stroke-linejoin="round" d="M 1396,103 L 1796,552 1396,552 1396,103 1396,103 Z"/>
        </g>
       </g>
      </g>
      <g class="com.sun.star.drawing.CustomShape">
       <g id="id5">
        <rect class="BoundingBox" stroke="none" fill="none" x="272" y="622" width="1446" height="1250"/>
        <path fill="rgb(51,51,51)" stroke="none" d="M 443,1216 L 421,1202 402,1187 384,1173 367,1157 353,1143 341,1128 330,1112 325,1104 321,1097 317,1088 314,1081 310,1073 307,1062 304,1054 301,1043 297,1023 294,1002 292,979 290,955 290,929 291,897 293,866 297,836 300,822 302,809 306,795 309,783 315,771 319,759 324,748 329,738 336,728 342,717 348,709 355,700 363,691 370,684 379,676 387,671 404,658 423,650 442,645 464,641 486,640 507,641 527,643 548,648 569,655 590,664 611,674 631,688 652,702 652,893 632,872 613,855 603,847 593,840 584,833 573,826 563,821 553,816 544,812 534,809 524,805 515,803 504,802 495,802 484,802 475,803 465,805 457,809 449,814 441,819 435,824 429,831 426,834 424,838 421,843 419,847 417,852 415,855 413,860 412,866 410,871 409,876 408,881 407,888 407,893 406,900 406,905 406,912 406,922 407,933 408,941 409,947 410,950 411,955 412,959 414,962 415,967 417,971 418,974 423,981 425,985 428,988 433,995 440,1002 449,1009 458,1017 469,1024 493,1040 544,1073 562,1085 578,1097 593,1109 607,1123 621,1138 632,1154 641,1171 647,1180 651,1188 659,1207 666,1226 672,1249 677,1271 680,1295 683,1319 684,1345 685,1373 684,1409 682,1444 678,1475 675,1490 672,1504 669,1518 665,1530 660,1544 656,1556 651,1566 645,1576 638,1587 632,1597 625,1606 617,1614 610,1623 602,1630 592,1637 584,1642 564,1652 543,1661 520,1666 495,1670 469,1671 446,1670 424,1668 402,1663 379,1654 357,1644 335,1632 313,1618 302,1609 292,1601 292,1399 315,1425 339,1447 362,1466 372,1475 384,1482 395,1488 407,1494 417,1497 429,1502 439,1506 451,1507 461,1509 473,1509 483,1509 494,1507 503,1504 512,1501 520,1495 527,1490 535,1483 541,1476 544,1473 546,1468 549,1463 551,1457 553,1452 556,1447 558,1442 559,1437 560,1430 562,1425 563,1418 564,1411 565,1397 565,1383 565,1373 564,1363 563,1352 561,1342 559,1331 556,1323 552,1314 548,1306 544,1297 540,1290 535,1283 528,1276 523,1269 516,1262 509,1257 502,1252 443,1216 Z M 1001,1668 L 1000,1668 998,1668 996,1670 993,1670 992,1670 991,1670 991,1670 990,1670 989,1671 988,1671 988,1671 987,1671 986,1671 984,1671 971,1671 959,1670 947,1666 936,1663 924,1659 914,1652 903,1647 893,1639 883,1630 874,1620 866,1609 857,1597 849,1585 842,1571 834,1556 827,1540 821,1523 814,1506 804,1468 794,1425 786,1380 780,1328 776,1275 773,1218 772,1155 773,1093 776,1035 780,981 786,931 794,885 804,843 814,803 821,786 827,769 834,753 842,738 849,726 857,712 866,700 874,690 883,681 893,672 903,664 914,658 924,652 936,648 947,645 960,641 985,640 1010,641 1023,645 1034,648 1045,652 1056,658 1067,664 1077,672 1087,681 1096,690 1104,700 1113,712 1121,726 1129,738 1136,753 1143,769 1150,786 1156,803 1166,843 1176,885 1183,931 1189,981 1194,1035 1196,1093 1197,1155 1197,1199 1196,1240 1194,1280 1190,1316 1187,1352 1183,1387 1178,1418 1172,1449 1165,1478 1158,1504 1150,1528 1140,1551 1131,1571 1120,1589 1115,1597 1109,1604 1103,1611 1097,1618 1173,1739 1091,1839 1001,1668 Z M 985,816 L 980,816 974,817 968,819 964,821 959,824 954,828 949,831 945,836 941,841 937,848 934,853 930,862 926,869 923,878 921,886 918,897 913,919 909,943 905,971 902,1002 900,1035 898,1073 897,1155 898,1238 900,1276 902,1309 905,1340 909,1368 913,1392 918,1414 921,1425 923,1433 926,1442 930,1449 934,1457 937,1463 941,1470 945,1475 949,1480 954,1483 959,1487 964,1490 968,1492 974,1494 980,1495 985,1495 990,1495 997,1494 1001,1492 1006,1490 1011,1487 1015,1483 1021,1480 1025,1475 1029,1470 1032,1463 1036,1457 1040,1449 1043,1442 1046,1433 1049,1425 1052,1414 1057,1392 1062,1368 1065,1340 1068,1309 1070,1276 1072,1238 1073,1155 1072,1073 1070,1035 1068,1002 1065,971 1062,943 1057,919 1052,897 1049,886 1046,878 1043,869 1040,862 1036,853 1032,848 1029,841 1025,836 1021,831 1015,828 1011,824 1006,821 1001,819 997,817 990,816 985,816 Z M 1325,1652 L 1325,658 1445,658 1445,1480 1699,1480 1699,1652 1325,1652 Z"/>
        <path fill="none" stroke="rgb(0,0,0)" stroke-width="35" stroke-linejoin="miter" d="M 443,1216 L 421,1202 402,1187 384,1173 367,1157 353,1143 341,1128 330,1112 325,1104 321,1097 317,1088 314,1081 310,1073 307,1062 304,1054 301,1043 297,1023 294,1002 292,979 290,955 290,929 291,897 293,866 297,836 300,822 302,809 306,795 309,783 315,771 319,759 324,748 329,738 336,728 342,717 348,709 355,700 363,691 370,684 379,676 387,671 404,658 423,650 442,645 464,641 486,640 507,641 527,643 548,648 569,655 590,664 611,674 631,688 652,702 652,893 632,872 613,855 603,847 593,840 584,833 573,826 563,821 553,816 544,812 534,809 524,805 515,803 504,802 495,802 484,802 475,803 465,805 457,809 449,814 441,819 435,824 429,831 426,834 424,838 421,843 419,847 417,852 415,855 413,860 412,866 410,871 409,876 408,881 407,888 407,893 406,900 406,905 406,912 406,922 407,933 408,941 409,947 410,950 411,955 412,959 414,962 415,967 417,971 418,974 423,981 425,985 428,988 433,995 440,1002 449,1009 458,1017 469,1024 493,1040 544,1073 562,1085 578,1097 593,1109 607,1123 621,1138 632,1154 641,1171 647,1180 651,1188 659,1207 666,1226 672,1249 677,1271 680,1295 683,1319 684,1345 685,1373 684,1409 682,1444 678,1475 675,1490 672,1504 669,1518 665,1530 660,1544 656,1556 651,1566 645,1576 638,1587 632,1597 625,1606 617,1614 610,1623 602,1630 592,1637 584,1642 564,1652 543,1661 520,1666 495,1670 469,1671 446,1670 424,1668 402,1663 379,1654 357,1644 335,1632 313,1618 302,1609 292,1601 292,1399 315,1425 339,1447 362,1466 372,1475 384,1482 395,1488 407,1494 417,1497 429,1502 439,1506 451,1507 461,1509 473,1509 483,1509 494,1507 503,1504 512,1501 520,1495 527,1490 535,1483 541,1476 544,1473 546,1468 549,1463 551,1457 553,1452 556,1447 558,1442 559,1437 560,1430 562,1425 563,1418 564,1411 565,1397 565,1383 565,1373 564,1363 563,1352 561,1342 559,1331 556,1323 552,1314 548,1306 544,1297 540,1290 535,1283 528,1276 523,1269 516,1262 509,1257 502,1252 443,1216 Z"/>
        <path fill="none" stroke="rgb(0,0,0)" stroke-width="35" stroke-linejoin="miter" d="M 1001,1668 L 1000,1668 998,1668 996,1670 993,1670 992,1670 991,1670 991,1670 990,1670 989,1671 988,1671 988,1671 987,1671 986,1671 984,1671 971,1671 959,1670 947,1666 936,1663 924,1659 914,1652 903,1647 893,1639 883,1630 874,1620 866,1609 857,1597 849,1585 842,1571 834,1556 827,1540 821,1523 814,1506 804,1468 794,1425 786,1380 780,1328 776,1275 773,1218 772,1155 773,1093 776,1035 780,981 786,931 794,885 804,843 814,803 821,786 827,769 834,753 842,738 849,726 857,712 866,700 874,690 883,681 893,672 903,664 914,658 924,652 936,648 947,645 960,641 985,640 1010,641 1023,645 1034,648 1045,652 1056,658 1067,664 1077,672 1087,681 1096,690 1104,700 1113,712 1121,726 1129,738 1136,753 1143,769 1150,786 1156,803 1166,843 1176,885 1183,931 1189,981 1194,1035 1196,1093 1197,1155 1197,1199 1196,1240 1194,1280 1190,1316 1187,1352 1183,1387 1178,1418 1172,1449 1165,1478 1158,1504 1150,1528 1140,1551 1131,1571 1120,1589 1115,1597 1109,1604 1103,1611 1097,1618 1173,1739 1091,1839 1001,1668 Z"/>
        <path fill="none" stroke="rgb(0,0,0)" stroke-width="35" stroke-linejoin="miter" d="M 985,816 L 980,816 974,817 968,819 964,821 959,824 954,828 949,831 945,836 941,841 937,848 934,853 930,862 926,869 923,878 921,886 918,897 913,919 909,943 905,971 902,1002 900,1035 898,1073 897,1155 898,1238 900,1276 902,1309 905,1340 909,1368 913,1392 918,1414 921,1425 923,1433 926,1442 930,1449 934,1457 937,1463 941,1470 945,1475 949,1480 954,1483 959,1487 964,1490 968,1492 974,1494 980,1495 985,1495 990,1495 997,1494 1001,1492 1006,1490 1011,1487 1015,1483 1021,1480 1025,1475 1029,1470 1032,1463 1036,1457 1040,1449 1043,1442 1046,1433 1049,1425 1052,1414 1057,1392 1062,1368 1065,1340 1068,1309 1070,1276 1072,1238 1073,1155 1072,1073 1070,1035 1068,1002 1065,971 1062,943 1057,919 1052,897 1049,886 1046,878 1043,869 1040,862 1036,853 1032,848 1029,841 1025,836 1021,831 1015,828 1011,824 1006,821 1001,819 997,817 990,816 985,816 Z"/>
        <path fill="none" stroke="rgb(0,0,0)" stroke-width="35" stroke-linejoin="miter" d="M 1325,1652 L 1325,658 1445,658 1445,1480 1699,1480 1699,1652 1325,1652 Z"/>
       </g>
      </g>
     </g>
    </g>
   </g>
  </g>
 </g>
</svg>