<?xml version="1.0" encoding="UTF-8" standalone="no"?>
<!--part of the rodentia icon theme by sixsixfive released under CC0 (https://creativecommons.org/publicdomain/zero/1.0/) on openclipart-->
<svg xmlns="http://www.w3.org/2000/svg" xmlns:xlink="http://www.w3.org/1999/xlink" viewBox="0 0 48 48">
 <defs id="0">
  <linearGradient id="2">
   <stop id="G" stop-color="#2e3436"/>
   <stop id="H" offset="1" stop-color="#2e3436" stop-opacity="0"/>
  </linearGradient>
  <linearGradient id="3">
   <stop id="I" stop-color="#fff"/>
   <stop id="J" offset="1" stop-color="#fff" stop-opacity="0"/>
  </linearGradient>
  <linearGradient id="4">
   <stop id="K" stop-color="#fff" stop-opacity="0.8"/>
   <stop id="L" offset="1" stop-color="#fff" stop-opacity="0"/>
  </linearGradient>
  <linearGradient id="5">
   <stop id="M" stop-color="#bed855"/>
   <stop id="N" offset="1" stop-color="#8bb300"/>
  </linearGradient>
  <radialGradient cx="26.05" cy="44.815" r="18.211" id="6" xlink:href="#2" gradientUnits="userSpaceOnUse" gradientTransform="matrix(1,0,0,0.1210762,0,39.389021)"/>
  <radialGradient cx="15.744" cy="15.63" r="19.724" id="7" xlink:href="#5" gradientUnits="userSpaceOnUse" gradientTransform="matrix(-0.08887371,1.4551706,-2.1149236,-0.1291678,49.664576,-13.450754)"/>
  <linearGradient y1="2.961" x2="0" y2="42.38" id="8" xlink:href="#4" gradientUnits="userSpaceOnUse"/>
  <linearGradient x1="11.614" y1="-19.04" x2="29.13" y2="32.2" id="9" xlink:href="#3" gradientUnits="userSpaceOnUse"/>
 </defs>
 <g transform="translate(-0.03414314,0.4117447)" id="1">
  <path d="m 44.262516,44.81506 a 18.21133,2.2049592 0 1 1 -36.4226608,0 18.21133,2.2049592 0 1 1 36.4226608,0 z" transform="matrix(0.5359471,0,0,1.0561555,22.351252,-4.4765779)" id="A" opacity="0.6" fill="url(#6)"/>
  <path d="m 44.262516,44.81506 a 18.21133,2.2049592 0 1 1 -36.4226608,0 18.21133,2.2049592 0 1 1 36.4226608,0 z" transform="matrix(0.5359471,0,0,1.0561555,3.3509566,-4.4765779)" id="B" opacity="0.6" fill="url(#6)"/>
  <path d="M 26.21875,2 C 24.335217,2.069339 22.178249,2.6243091 20.875,4.1875 20.81921,4.256973 20.78504,4.3243256 20.75,4.40625 20.328642,5.3040421 20.155371,6.092977 20.4375,6.8125 c 0.28489,0.7265652 0.918516,1.0350658 1.375,1.21875 0.441985,0.1778501 0.843705,0.3073913 1.0625,0.4375 0.126669,0.075325 0.182316,0.1431533 0.21875,0.1875 0.03643,0.044347 0.06474,0.1002089 0.09375,0.25 0.07074,0.3652309 0.0095,0.4967758 -0.0625,0.625 -0.05891,0.1049058 -0.157572,0.1841839 -0.34375,0.28125 -0.17417,0.090806 -0.344364,0.1482433 -0.5,0.1875 -0.07782,0.01963 -0.170727,0.05387 -0.21875,0.0625 -0.04802,0.0086 -0.09972,0.003 -0.0625,0 l -10.9375,0 c -0.521258,0.01131 -0.957441,0.447492 -0.96875,0.96875 l 0,11.03125 0,0.03125 0,0.03125 c -0.01729,0.124048 -0.097022,0.505314 -0.25,0.75 -0.1022388,0.16353 -0.1920921,0.236826 -0.28125,0.28125 -0.089158,0.04442 -0.2373419,0.06903 -0.59375,0 C 8.8193644,23.12731 8.763537,23.09923 8.71875,23.0625 8.673963,23.025775 8.6358512,22.968751 8.5625,22.84375 8.4417165,22.637918 8.3014306,22.23112 8.125,21.78125 7.9441919,21.320218 7.6306319,20.692728 6.90625,20.40625 6.1863275,20.121536 5.3971522,20.297693 4.5,20.71875 c -0.081924,0.03504 -0.1492774,0.06921 -0.21875,0.125 -1.3108069,1.092835 -1.9446262,2.799086 -2.15625,4.4375 -0.00293,0.0227 0.00151,0.01528 0,0.03125 -3.786e-4,0.004 4.258e-4,0.0233 0,0.03125 3.889e-4,-0.0058 -0.00417,-0.0308 0,0.03125 5.605e-4,0.0083 4.1e-5,0.03145 0,0.03125 5.3e-6,7.2e-5 -9.6e-6,0.09372 0,0.09375 -0.097019,0.561171 -0.1475863,1.136461 -0.125,1.75 0.069339,1.883533 0.6243064,4.040502 2.1875,5.34375 0.069473,0.05579 0.1368256,0.08996 0.21875,0.125 0.8971521,0.421059 1.6863273,0.597215 2.40625,0.3125 0.7243812,-0.286479 1.0379419,-0.913966 1.21875,-1.375 0.1764304,-0.449871 0.3167163,-0.856668 0.4375,-1.0625 0.073351,-0.125001 0.111463,-0.182025 0.15625,-0.21875 0.044787,-0.03673 0.1006148,-0.06482 0.25,-0.09375 0.3652305,-0.07074 0.4967764,-0.0095 0.625,0.0625 0.1049065,0.05891 0.1841841,0.157572 0.28125,0.34375 0.177654,0.34075 0.245577,0.749581 0.25,0.78125 l 0,0.03125 0.0625,10.875 c 0.01131,0.521258 0.447492,0.957441 0.96875,0.96875 0,0 11,-0.0625 11,-0.0625 0.01522,3.55e-4 0.01603,3.55e-4 0.03125,0 0,0 0.838883,-0.01136 1.65625,-0.4375 0.400327,-0.208716 0.856199,-0.528199 1.15625,-1.0625 0.30262,-0.538876 0.391735,-1.236985 0.25,-1.96875 -0.161383,-0.8332 -0.707744,-1.396292 -1.25,-1.71875 C 23.390074,37.7868 22.903251,37.62454 22.59375,37.5 22.453241,37.44346 22.362245,37.40248 22.3125,37.375 c 0.0019,-0.03491 -0.01053,-0.0951 0,-0.15625 0.02247,-0.130484 0.07156,-0.310999 0.15625,-0.53125 0.753266,-0.830124 2.378688,-1.414817 3.84375,-1.46875 0.559374,-0.02059 1.112453,0.03722 1.53125,0.125 0.03701,0.01327 0.08929,0.02664 0.125,0.03125 1.256952,0.162351 2.525807,0.690205 3.15625,1.375 0.09228,0.232339 0.136188,0.437563 0.15625,0.5625 0.0091,0.05641 0.0302,0.09379 0.03125,0.125 0.02225,-0.05506 -0.0097,0.0387 -0.3125,0.15625 -0.30061,0.116702 -0.814133,0.222888 -1.34375,0.53125 -0.549881,0.320161 -1.088571,0.916567 -1.25,1.75 -0.141735,0.731765 -0.05262,1.429874 0.25,1.96875 0.300051,0.534301 0.755923,0.853784 1.15625,1.0625 0.817369,0.426145 1.65625,0.4375 1.65625,0.4375 0.01522,3.55e-4 0.01603,3.55e-4 0.03125,0 l 10.90625,0 c 0.521258,-0.01131 0.957441,-0.447492 0.96875,-0.96875 0,0 -0.09375,-11 -0.09375,-11 3.55e-4,-0.01522 3.55e-4,-0.01603 0,-0.03125 0,0 0.01172,-0.802217 -0.40625,-1.625 -0.206636,-0.406771 -0.532203,-0.88694 -1.0625,-1.1875 -0.538769,-0.305361 -1.237604,-0.391616 -1.96875,-0.25 -0.833201,0.161383 -1.396291,0.707745 -1.71875,1.25 -0.306951,0.516177 -0.46921,1.002999 -0.59375,1.3125 -0.05911,0.146895 -0.129082,0.233427 -0.15625,0.28125 -0.03266,-0.0027 -0.07608,0.0084 -0.125,0 C 37.119516,31.10253 36.939001,31.05344 36.71875,30.96875 35.888626,30.215485 35.303937,28.590066 35.25,27.125 c -0.02065,-0.561102 0.03543,-1.072685 0.125,-1.5 0.0021,-0.02078 0.0021,-0.04172 0,-0.0625 3.55e-4,-0.01522 3.55e-4,-0.01603 0,-0.03125 0.0021,-0.01703 0.02887,-0.04407 0.03125,-0.0625 0.162722,-1.259781 0.704315,-2.490113 1.40625,-3.125 0.168571,-0.06781 0.321558,-0.123834 0.4375,-0.15625 0.133288,-0.03727 0.236036,-0.02991 0.21875,-0.03125 0.0028,0.004 0.0092,-0.03329 0.03125,0 0.04233,0.06398 0.160262,0.348024 0.28125,0.6875 0.122902,0.344844 0.270304,0.794882 0.59375,1.21875 0.330667,0.433331 0.850696,0.836934 1.53125,0.96875 1.365144,0.264415 2.419893,-0.408451 2.90625,-1.1875 0.463779,-0.742884 0.545387,-1.470617 0.5625,-1.6875 5.27e-4,-0.01041 5.27e-4,-0.02084 0,-0.03125 0.0014,-0.03041 0.0014,-0.03209 0,-0.0625 l 0,-11.03125 C 43.36369,10.509992 42.927508,10.073809 42.40625,10.0625 l -11.25,0 C 30.920504,10.00796 30.570647,9.8524011 30.4375,9.71875 30.348696,9.6296094 30.306667,9.5921592 30.28125,9.5 30.25583,9.407841 30.25943,9.2427214 30.3125,8.96875 30.34143,8.8193646 30.36952,8.7635369 30.40625,8.71875 30.44298,8.673963 30.5,8.635851 30.625,8.5625 30.830832,8.4417165 31.23763,8.3014305 31.6875,8.125 32.148533,7.9441919 32.776021,7.6306311 33.0625,6.90625 33.347216,6.1863273 33.171057,5.3971521 32.75,4.5 32.714956,4.4180756 32.680794,4.3507226 32.625,4.28125 31.590287,3.0401646 30.023223,2.4920309 28.5,2.25 c -0.0044,-0.00126 -0.01501,0.0053 -0.03125,0 -0.0097,-0.00318 -0.01988,0.0039 -0.03125,0 -0.02274,-0.00779 -0.04128,0.00808 -0.0625,0 -0.0035,-0.00135 0.0033,-0.029951 0,-0.03125 -0.01958,-0.012748 -0.04055,-0.023232 -0.0625,-0.03125 -0.0075,-0.00462 -0.02359,0.00404 -0.03125,0 0.0244,0.00339 -0.0355,0.00185 -0.03125,0 0.0014,-6.159e-4 8.57e-4,-0.03021 0,-0.03125 C 28.22983,2.14821 28.20463,2.128133 28.1875,2.125 c -0.0234,-0.0049 -0.01714,6.144e-4 -0.03125,0 -0.05991,-0.01224 -0.0681,5.147e-4 -0.0625,0 C 27.497927,2.009656 26.875911,1.9758077 26.21875,2 z" id="C" fill="#445800" fill-rule="evenodd" stroke-width="3.585"/>
  <path d="m 26.250616,2.9642212 c -1.704368,0.062743 -3.616154,0.6339257 -4.636021,1.8572119 -1.483444,3.1607898 2.120188,1.7013921 2.54403,3.8896319 0.42384,2.18824 -2.120026,2.30925 -2.120026,2.30925 l 0,0 -10.961052,0 0,11.11874 c -0.03052,0.350931 -0.284244,2.379201 -2.2917287,1.99037 -2.1882387,-0.423841 -0.728841,-4.02397 -3.8896318,-2.540525 -1.0324081,0.860731 -1.6006884,2.352487 -1.7906323,3.823053 -0.00297,0.02297 -0.00773,0.04713 -0.010512,0.07008 -0.1083996,0.517165 -0.1633294,1.108894 -0.1401674,1.73807 0.062743,1.704368 0.6339247,3.616154 1.8572119,4.636019 3.1607897,1.483448 1.7013921,-2.120189 3.8896319,-2.544026 2.1882384,-0.423842 2.3092494,2.120025 2.3092494,2.120025 l 0.06658,10.957548 c 0,0 10.999599,-0.08761 10.999598,-0.08761 0,0 2.543865,-0.121014 2.120025,-2.309252 -0.423841,-2.188237 -4.023969,-0.728841 -2.540525,-3.88963 1.019869,-1.223286 2.92815,-1.794469 4.632517,-1.857211 0.629175,-0.02316 1.220905,0.03177 1.738069,0.140168 0.02295,0.0028 0.04712,0.0075 0.07008,0.01051 1.470565,0.189942 2.965829,0.758225 3.826557,1.79063 1.483443,3.160794 -2.120188,1.701393 -2.54403,3.889636 -0.42384,2.188237 2.120024,2.309246 2.120024,2.309246 l 10.897976,0.0035 c 0,0 -0.07008,-11.01712 -0.07008,-11.01712 0,0 -0.121014,-2.543867 -2.309251,-2.120025 -2.188243,0.423843 -0.728842,4.027469 -3.88963,2.544031 -1.223291,-1.019869 -1.794469,-2.931656 -1.857216,-4.636023 -0.02316,-0.629176 0.03177,-1.220904 0.140167,-1.738069 0.0028,-0.02295 0.0075,-0.04712 0.01051,-0.07008 0.189947,-1.470565 0.758224,-2.962324 1.790635,-3.823054 0.592645,-0.278145 1.023312,-0.378911 1.345599,-0.353921 1.396595,0.108289 0.766084,2.550077 2.544031,2.894447 2.041719,0.395461 2.27197,-1.720096 2.295231,-2.014899 l 0,-11.03464 -11.45514,0 C 30.224422,10.85414 29.040444,10.348424 29.341297,8.7951652 29.765136,6.6069254 33.365265,8.0663243 31.881822,4.9055332 31.021089,3.8731268 29.529332,3.3048461 28.058768,3.114901 28.0358,3.1119338 28.011637,3.1071703 27.988685,3.1043886 27.47152,2.995989 26.879791,2.9410592 26.250616,2.9642212 z" id="D" fill="url(#7)" fill-rule="evenodd" stroke-width="3.585"/>
  <path d="m 26.28125,3.46875 c -1.593738,0.058671 -3.366637,0.5975714 -4.25,1.625 -0.305113,0.6778812 -0.306363,1.043756 -0.25,1.1875 0.05864,0.1495602 0.248453,0.2673059 0.59375,0.40625 0.345297,0.1389441 0.798863,0.2629764 1.25,0.53125 0.451137,0.2682736 0.898624,0.7215195 1.03125,1.40625 0.123687,0.6385809 0.02002,1.1998153 -0.21875,1.625 -0.238774,0.425185 -0.617509,0.691877 -0.96875,0.875 -0.702482,0.366247 -1.40625,0.40625 -1.40625,0.40625 a 0.49360293,0.49360293 0 0 1 -0.03125,0 l -10.46875,0 0,10.59375 a 0.49360293,0.49360293 0 0 1 0,0.03125 c -0.01792,0.206055 -0.07742,0.874077 -0.46875,1.5 C 10.702424,24.282173 9.8529304,24.850733 8.6875,24.625 8.0025544,24.492333 7.5465996,24.045942 7.28125,23.59375 7.0159004,23.141558 6.8854299,22.657825 6.75,22.3125 6.6145701,21.967175 6.4886691,21.807312 6.34375,21.75 6.2044667,21.694916 5.865492,21.694835 5.1875,22 c -0.8716761,0.747467 -1.4171513,2.101504 -1.59375,3.46875 0.011279,-0.08731 0.015968,-0.06926 0,0.0625 A 0.49360293,0.49360293 0 0 1 3.5625,25.5625 c -0.097551,0.465408 -0.1157211,1.028174 -0.09375,1.625 0.058671,1.593738 0.5975714,3.366639 1.625,4.25 0.6779917,0.305166 1.0169671,0.305084 1.15625,0.25 0.1449187,-0.05731 0.2708201,-0.217174 0.40625,-0.5625 0.1354299,-0.345326 0.2659001,-0.829058 0.53125,-1.28125 0.2653499,-0.452192 0.7213038,-0.898584 1.40625,-1.03125 0.6385807,-0.123687 1.1998152,-0.02002 1.625,0.21875 0.425185,0.238774 0.691877,0.617509 0.875,0.96875 0.366247,0.702482 0.40625,1.40625 0.40625,1.40625 a 0.49360293,0.49360293 0 0 1 0,0.03125 l 0.0625,10.4375 10.46875,-0.0625 c 0,0 0.03039,6.3e-5 0.03125,0 0.02973,-0.0022 0.547164,-0.04516 1,-0.28125 0.232989,-0.121472 0.411322,-0.286444 0.53125,-0.5 0.119928,-0.213556 0.181983,-0.481961 0.09375,-0.9375 -0.07929,-0.409389 -0.236254,-0.574578 -0.53125,-0.75 -0.294996,-0.175422 -0.705035,-0.29976 -1.125,-0.46875 -0.419965,-0.16899 -0.914332,-0.431477 -1.125,-0.96875 -0.210668,-0.537273 -0.08476,-1.184799 0.3125,-2.03125 a 0.49360293,0.49360293 0 0 1 0.0625,-0.09375 C 22.447013,34.38297 24.451662,33.816201 26.25,33.75 c 0.650576,-0.02395 1.281978,0.04154 1.84375,0.15625 0.0095,0.0019 0.02183,-0.002 0.03125,0 0.01462,0.0035 0.01853,-0.0041 0.03125,0 1.549914,0.200191 3.169524,0.785217 4.15625,1.96875 a 0.49360293,0.49360293 0 0 1 0.0625,0.09375 c 0.397413,0.846772 0.529144,1.495114 0.3125,2.03125 -0.216644,0.536136 -0.701547,0.773109 -1.125,0.9375 -0.423453,0.164391 -0.859376,0.2959 -1.15625,0.46875 -0.296874,0.17285 -0.452212,0.341937 -0.53125,0.75 -0.08823,0.455538 -0.02618,0.723944 0.09375,0.9375 0.119928,0.213556 0.298261,0.378528 0.53125,0.5 0.452836,0.236092 0.970269,0.27907 1,0.28125 l 0.03125,0 10.375,0 -0.09375,-10.46875 0,-0.03125 c -0.0019,-0.03016 -0.02088,-0.548974 -0.25,-1 -0.117934,-0.232158 -0.290373,-0.412438 -0.5,-0.53125 -0.209627,-0.118812 -0.481746,-0.182025 -0.9375,-0.09375 -0.409391,0.07929 -0.574577,0.236255 -0.75,0.53125 -0.175423,0.294995 -0.299761,0.705035 -0.46875,1.125 -0.168989,0.419965 -0.431477,0.914332 -0.96875,1.125 -0.537273,0.210668 -1.184799,0.08476 -2.03125,-0.3125 a 0.49360293,0.49360293 0 0 1 -0.09375,-0.0625 c -1.398284,-1.165763 -1.965044,-3.170415 -2.03125,-4.96875 -0.02392,-0.649799 0.04237,-1.255428 0.15625,-1.8125 0.0032,-0.02245 -0.0033,-0.01601 0,-0.03125 0.0065,-0.03048 -0.0056,-0.05095 0,-0.0625 0.200311,-1.550793 0.789723,-3.142035 1.96875,-4.125 A 0.49360293,0.49360293 0 0 1 36,21.09375 c 0.638224,-0.299535 1.146155,-0.440956 1.59375,-0.40625 0.493458,0.03826 0.90604,0.356519 1.125,0.6875 0.21896,0.330981 0.322252,0.676631 0.4375,1 0.115248,0.323369 0.221874,0.611833 0.375,0.8125 0.153126,0.200667 0.323267,0.310505 0.65625,0.375 0.857033,0.165999 1.161139,-0.10738 1.40625,-0.5 0.238308,-0.381723 0.301087,-0.877378 0.3125,-1 l 0,-0.03125 0,-10.5 -10.96875,0 A 0.49360293,0.49360293 0 0 1 30.8125,11.5 C 30.398623,11.404249 29.853149,11.229842 29.40625,10.78125 28.959351,10.332658 28.668493,9.5923265 28.84375,8.6875 28.976417,8.0025541 29.422808,7.5465998 29.875,7.28125 30.327192,7.0159002 30.810925,6.8854298 31.15625,6.75 31.501575,6.6145702 31.661437,6.4886691 31.71875,6.34375 31.773834,6.2044667 31.773915,5.865492 31.46875,5.1875 30.724348,4.3202471 29.37386,3.8024543 28,3.625 27.95632,3.61936 27.96893,3.604044 27.9375,3.59375 27.90685,3.59003 27.9292,3.56877 27.90625,3.5625 27.89735,3.56063 27.884,3.56433 27.875,3.5625 27.414666,3.469011 26.866636,3.4472 26.28125,3.46875 z" id="E" opacity="0.8" fill="none" stroke="url(#8)"/>
  <path d="m 26.25,2.96875 c -1.704368,0.062743 -3.605133,0.6204638 -4.625,1.84375 -1.483444,3.1607898 2.107408,1.7180102 2.53125,3.90625 0.42384,2.18824 -2.125,2.3125 -2.125,2.3125 l -10.96875,0 0,11.09375 c -0.03052,0.350931 -0.273765,2.388831 -2.28125,2 -2.1882385,-0.423841 -0.7142092,-4.014695 -3.875,-2.53125 -1.032408,0.860731 -1.6225561,2.341934 -1.8125,3.8125 -0.00297,0.02297 0.00278,0.03955 0,0.0625 -0.1083996,0.517164 -0.148162,1.120824 -0.125,1.75 0.062743,1.704368 0.6204628,3.605135 1.84375,4.625 3.1607899,1.483448 1.6867602,-2.107413 3.875,-2.53125 1.724847,-0.334088 2.172057,1.126826 2.28125,1.78125 10.021715,-4.291289 21.052426,-8.710668 31.4375,-12.5625 l 0,-7.5 -11.46875,0 C 30.219221,10.865075 29.042897,10.334509 29.34375,8.78125 29.767589,6.5930103 33.358443,8.0670411 31.875,4.90625 31.014266,3.8738435 29.533064,3.3149451 28.0625,3.125 28.039533,3.1220327 28.022952,3.0965317 28,3.09375 27.482834,2.9853503 26.879175,2.945588 26.25,2.96875 z" id="F" opacity="0.6" fill="url(#9)" fill-rule="evenodd" stroke-width="3.585"/>
 </g>
</svg>
