<?xml version="1.0" encoding="UTF-8" standalone="no"?>
<svg
   version="1.2"
   width="20mm"
   height="20mm"
   viewBox="0 0 2000 2000"
   preserveAspectRatio="xMidYMid"
   fill-rule="evenodd"
   stroke-width="28.222"
   stroke-linejoin="round"
   xml:space="preserve"
   id="svg4933"
   sodipodi:docname="column.svg"
   inkscape:version="1.2.2 (b0a8486541, 2022-12-01)"
   xmlns:inkscape="http://www.inkscape.org/namespaces/inkscape"
   xmlns:sodipodi="http://sodipodi.sourceforge.net/DTD/sodipodi-0.dtd"
   xmlns:xlink="http://www.w3.org/1999/xlink"
   xmlns="http://www.w3.org/2000/svg"
   xmlns:svg="http://www.w3.org/2000/svg"
   xmlns:ooo="http://xml.openoffice.org/svg/export"><sodipodi:namedview
   id="namedview4935"
   pagecolor="#ffffff"
   bordercolor="#000000"
   borderopacity="0.25"
   inkscape:showpageshadow="2"
   inkscape:pageopacity="0.0"
   inkscape:pagecheckerboard="0"
   inkscape:deskcolor="#d1d1d1"
   inkscape:document-units="mm"
   showgrid="false"
   inkscape:zoom="6.5815104"
   inkscape:cx="48.013295"
   inkscape:cy="47.633443"
   inkscape:current-layer="svg4933" />
 <defs
   class="ClipPathGroup"
   id="defs4659">
  <clipPath
   id="presentation_clip_path"
   clipPathUnits="userSpaceOnUse">
   <rect
   x="0"
   y="0"
   width="2000"
   height="2000"
   id="rect4653" />
  </clipPath>
  <clipPath
   id="presentation_clip_path_shrink"
   clipPathUnits="userSpaceOnUse">
   <rect
   x="2"
   y="2"
   width="1996"
   height="1996"
   id="rect4656" />
  </clipPath>
 <linearGradient
   inkscape:collect="always"
   xlink:href="#linearGradient839"
   id="linearGradient843"
   gradientUnits="userSpaceOnUse"
   x1="43.845238"
   y1="78.619041"
   x2="135.31548"
   y2="149.67856"
   gradientTransform="matrix(0.99808882,0,0,1.172362,0.20154424,-18.666941)" /><linearGradient
   inkscape:collect="always"
   id="linearGradient839"><stop
     style="stop-color:#ffffff;stop-opacity:1"
     offset="0"
     id="stop835" /><stop
     style="stop-color:#e0e0e0;stop-opacity:1"
     offset="1"
     id="stop837" /></linearGradient><linearGradient
   inkscape:collect="always"
   xlink:href="#linearGradient849"
   id="linearGradient851"
   x1="48.17017"
   y1="47.247025"
   x2="199.02626"
   y2="193.14583"
   gradientUnits="userSpaceOnUse"
   gradientTransform="matrix(0.99808882,0,0,1.172362,0.20154424,-18.666941)" /><linearGradient
   inkscape:collect="always"
   id="linearGradient849"><stop
     style="stop-color:#646464;stop-opacity:1"
     offset="0"
     id="stop845" /><stop
     style="stop-color:#b0b0b0;stop-opacity:0.96470588"
     offset="1"
     id="stop847" /></linearGradient></defs>
 <defs
   class="TextShapeIndex"
   id="defs4663">
  <g
   ooo:slide="id1"
   ooo:id-list="id3 id4 id5 id6 id7 id8 id9 id10 id11 id12 id13 id14 id15 id16 id17 id18 id19 id20 id21 id22 id23 id24 id25 id26 id27"
   id="g4661" />
 </defs>
 <defs
   class="EmbeddedBulletChars"
   id="defs4695">
  <g
   id="bullet-char-template-57356"
   transform="scale(0.00048828125,-0.00048828125)">
   <path
   d="M 580,1141 L 1163,571 580,0 -4,571 580,1141 Z"
   id="path4665" />
  </g>
  <g
   id="bullet-char-template-57354"
   transform="scale(0.00048828125,-0.00048828125)">
   <path
   d="M 8,1128 L 1137,1128 1137,0 8,0 8,1128 Z"
   id="path4668" />
  </g>
  <g
   id="bullet-char-template-10146"
   transform="scale(0.00048828125,-0.00048828125)">
   <path
   d="M 174,0 L 602,739 174,1481 1456,739 174,0 Z M 1358,739 L 309,1346 659,739 1358,739 Z"
   id="path4671" />
  </g>
  <g
   id="bullet-char-template-10132"
   transform="scale(0.00048828125,-0.00048828125)">
   <path
   d="M 2015,739 L 1276,0 717,0 1260,543 174,543 174,936 1260,936 717,1481 1274,1481 2015,739 Z"
   id="path4674" />
  </g>
  <g
   id="bullet-char-template-10007"
   transform="scale(0.00048828125,-0.00048828125)">
   <path
   d="M 0,-2 C -7,14 -16,27 -25,37 L 356,567 C 262,823 215,952 215,954 215,979 228,992 255,992 264,992 276,990 289,987 310,991 331,999 354,1012 L 381,999 492,748 772,1049 836,1024 860,1049 C 881,1039 901,1025 922,1006 886,937 835,863 770,784 769,783 710,716 594,584 L 774,223 C 774,196 753,168 711,139 L 727,119 C 717,90 699,76 672,76 641,76 570,178 457,381 L 164,-76 C 142,-110 111,-127 72,-127 30,-127 9,-110 8,-76 1,-67 -2,-52 -2,-32 -2,-23 -1,-13 0,-2 Z"
   id="path4677" />
  </g>
  <g
   id="bullet-char-template-10004"
   transform="scale(0.00048828125,-0.00048828125)">
   <path
   d="M 285,-33 C 182,-33 111,30 74,156 52,228 41,333 41,471 41,549 55,616 82,672 116,743 169,778 240,778 293,778 328,747 346,684 L 369,508 C 377,444 397,411 428,410 L 1163,1116 C 1174,1127 1196,1133 1229,1133 1271,1133 1292,1118 1292,1087 L 1292,965 C 1292,929 1282,901 1262,881 L 442,47 C 390,-6 338,-33 285,-33 Z"
   id="path4680" />
  </g>
  <g
   id="bullet-char-template-9679"
   transform="scale(0.00048828125,-0.00048828125)">
   <path
   d="M 813,0 C 632,0 489,54 383,161 276,268 223,411 223,592 223,773 276,916 383,1023 489,1130 632,1184 813,1184 992,1184 1136,1130 1245,1023 1353,916 1407,772 1407,592 1407,412 1353,268 1245,161 1136,54 992,0 813,0 Z"
   id="path4683" />
  </g>
  <g
   id="bullet-char-template-8226"
   transform="scale(0.00048828125,-0.00048828125)">
   <path
   d="M 346,457 C 273,457 209,483 155,535 101,586 74,649 74,723 74,796 101,859 155,911 209,963 273,989 346,989 419,989 480,963 531,910 582,859 608,796 608,723 608,648 583,586 532,535 482,483 420,457 346,457 Z"
   id="path4686" />
  </g>
  <g
   id="bullet-char-template-8211"
   transform="scale(0.00048828125,-0.00048828125)">
   <path
   d="M -4,459 L 1135,459 1135,606 -4,606 -4,459 Z"
   id="path4689" />
  </g>
  <g
   id="bullet-char-template-61548"
   transform="scale(0.00048828125,-0.00048828125)">
   <path
   d="M 173,740 C 173,903 231,1043 346,1159 462,1274 601,1332 765,1332 928,1332 1067,1274 1183,1159 1299,1043 1357,903 1357,740 1357,577 1299,437 1183,322 1067,206 928,148 765,148 601,148 462,206 346,322 231,437 173,577 173,740 Z"
   id="path4692" />
  </g>
 </defs>
 <g
   id="g4700">
  <g
   id="id2"
   class="Master_Slide">
   <g
   id="bg-id2"
   class="Background" />
   <g
   id="bo-id2"
   class="BackgroundObjects" />
  </g>
 </g>
 <g
   class="SlideGroup"
   id="g4931">
  <g
   id="g4929">
   <g
   id="container-id1">
    <g
   id="id1"
   class="Slide"
   clip-path="url(#presentation_clip_path)">
     <g
   class="Page"
   id="g4925">
      <g
   class="com.sun.star.drawing.CustomShape"
   id="g4709">
       <g
   id="id3">
        <rect
   class="BoundingBox"
   stroke="none"
   fill="none"
   x="100"
   y="99"
   width="371"
   height="334"
   id="rect4702" />
        <path
   fill="rgb(114,159,207)"
   stroke="none"
   d="M 285,412 L 120,412 120,119 450,119 450,412 285,412 Z"
   id="path4704" />
        <path
   fill="none"
   stroke="rgb(128,128,128)"
   stroke-width="40"
   stroke-linejoin="round"
   stroke-linecap="square"
   d="M 285,412 L 120,412 120,119 450,119 450,412 285,412 Z"
   id="path4706" />
       </g>
      </g>
      <g
   class="com.sun.star.drawing.CustomShape"
   id="g4718">
       <g
   id="id4">
        <rect
   class="BoundingBox"
   stroke="none"
   fill="none"
   x="429"
   y="99"
   width="518"
   height="334"
   id="rect4711" />
        <path
   fill="rgb(114,159,207)"
   stroke="none"
   d="M 688,412 L 449,412 449,119 926,119 926,412 688,412 Z"
   id="path4713" />
        <path
   fill="none"
   stroke="rgb(128,128,128)"
   stroke-width="40"
   stroke-linejoin="round"
   stroke-linecap="square"
   d="M 688,412 L 449,412 449,119 926,119 926,412 688,412 Z"
   id="path4715" />
       </g>
      </g>
      <g
   class="com.sun.star.drawing.CustomShape"
   id="g4727">
       <g
   id="id5">
        <rect
   class="BoundingBox"
   stroke="none"
   fill="none"
   x="907"
   y="99"
   width="515"
   height="334"
   id="rect4720" />
        <path
   fill="rgb(114,159,207)"
   stroke="none"
   d="M 1164,412 L 927,412 927,119 1401,119 1401,412 1164,412 Z"
   id="path4722" />
        <path
   fill="none"
   stroke="rgb(128,128,128)"
   stroke-width="40"
   stroke-linejoin="round"
   stroke-linecap="square"
   d="M 1164,412 L 927,412 927,119 1401,119 1401,412 1164,412 Z"
   id="path4724" />
       </g>
      </g>
      <g
   class="com.sun.star.drawing.CustomShape"
   id="g4736">
       <g
   id="id6">
        <rect
   class="BoundingBox"
   stroke="none"
   fill="none"
   x="1382"
   y="99"
   width="518"
   height="334"
   id="rect4729" />
        <path
   fill="rgb(114,159,207)"
   stroke="none"
   d="M 1641,412 L 1402,412 1402,119 1879,119 1879,412 1641,412 Z"
   id="path4731" />
        <path
   fill="none"
   stroke="rgb(128,128,128)"
   stroke-width="40"
   stroke-linejoin="round"
   stroke-linecap="square"
   d="M 1641,412 L 1402,412 1402,119 1879,119 1879,412 1641,412 Z"
   id="path4733" />
       </g>
      </g>
      <g
   class="com.sun.star.drawing.CustomShape"
   id="g4745">
       <g
   id="id7">
        <rect
   class="BoundingBox"
   stroke="none"
   fill="none"
   x="100"
   y="393"
   width="371"
   height="334"
   id="rect4738" />
        <path
   fill="rgb(114,159,207)"
   stroke="none"
   d="M 285,706 L 120,706 120,413 450,413 450,706 285,706 Z"
   id="path4740" />
        <path
   fill="none"
   stroke="rgb(128,128,128)"
   stroke-width="40"
   stroke-linejoin="round"
   stroke-linecap="square"
   d="M 285,706 L 120,706 120,413 450,413 450,706 285,706 Z"
   id="path4742" />
       </g>
      </g>
      <g
   class="com.sun.star.drawing.CustomShape"
   id="g4754">
       <g
   id="id8">
        <rect
   class="BoundingBox"
   stroke="none"
   fill="none"
   x="100"
   y="687"
   width="371"
   height="334"
   id="rect4747" />
        <path
   fill="rgb(114,159,207)"
   stroke="none"
   d="M 285,1000 L 120,1000 120,707 450,707 450,1000 285,1000 Z"
   id="path4749" />
        <path
   fill="none"
   stroke="rgb(128,128,128)"
   stroke-width="40"
   stroke-linejoin="round"
   stroke-linecap="square"
   d="M 285,1000 L 120,1000 120,707 450,707 450,1000 285,1000 Z"
   id="path4751" />
       </g>
      </g>
      <g
   class="com.sun.star.drawing.CustomShape"
   id="g4763">
       <g
   id="id9">
        <rect
   class="BoundingBox"
   stroke="none"
   fill="none"
   x="100"
   y="981"
   width="371"
   height="334"
   id="rect4756" />
        <path
   fill="rgb(114,159,207)"
   stroke="none"
   d="M 285,1294 L 120,1294 120,1001 450,1001 450,1294 285,1294 Z"
   id="path4758" />
        <path
   fill="none"
   stroke="rgb(128,128,128)"
   stroke-width="40"
   stroke-linejoin="round"
   stroke-linecap="square"
   d="M 285,1294 L 120,1294 120,1001 450,1001 450,1294 285,1294 Z"
   id="path4760" />
       </g>
      </g>
      <g
   class="com.sun.star.drawing.CustomShape"
   id="g4772">
       <g
   id="id10">
        <rect
   class="BoundingBox"
   stroke="none"
   fill="none"
   x="100"
   y="1275"
   width="371"
   height="334"
   id="rect4765" />
        <path
   fill="rgb(114,159,207)"
   stroke="none"
   d="M 285,1588 L 120,1588 120,1295 450,1295 450,1588 285,1588 Z"
   id="path4767" />
        <path
   fill="none"
   stroke="rgb(128,128,128)"
   stroke-width="40"
   stroke-linejoin="round"
   stroke-linecap="square"
   d="M 285,1588 L 120,1588 120,1295 450,1295 450,1588 285,1588 Z"
   id="path4769" />
       </g>
      </g>
      <g
   class="com.sun.star.drawing.CustomShape"
   id="g4781">
       <g
   id="id11">
        <rect
   class="BoundingBox"
   stroke="none"
   fill="none"
   x="100"
   y="1569"
   width="371"
   height="334"
   id="rect4774" />
        <path
   fill="rgb(114,159,207)"
   stroke="none"
   d="M 285,1882 L 120,1882 120,1589 450,1589 450,1882 285,1882 Z"
   id="path4776" />
        <path
   fill="none"
   stroke="rgb(128,128,128)"
   stroke-width="40"
   stroke-linejoin="round"
   stroke-linecap="square"
   d="M 285,1882 L 120,1882 120,1589 450,1589 450,1882 285,1882 Z"
   id="path4778" />
       </g>
      </g>
      <g
   class="com.sun.star.drawing.CustomShape"
   id="g4790">
       <g
   id="id12">
        <rect
   class="BoundingBox"
   stroke="none"
   fill="none"
   x="429"
   y="396"
   width="518"
   height="334"
   id="rect4783" />
        <path
   fill="rgb(238,238,238)"
   stroke="none"
   d="M 688,709 L 449,709 449,416 926,416 926,709 688,709 Z"
   id="path4785" />
        <path
   fill="none"
   stroke="rgb(128,128,128)"
   stroke-width="40"
   stroke-linejoin="round"
   stroke-linecap="square"
   d="M 688,709 L 449,709 449,416 926,416 926,709 688,709 Z"
   id="path4787" />
       </g>
      </g>
      <g
   class="com.sun.star.drawing.CustomShape"
   id="g4799">
       <g
   id="id13">
        <rect
   class="BoundingBox"
   stroke="none"
   fill="none"
   x="907"
   y="396"
   width="515"
   height="334"
   id="rect4792" />
        <path
   fill="rgb(238,238,238)"
   stroke="none"
   d="M 1164,709 L 927,709 927,416 1401,416 1401,709 1164,709 Z"
   id="path4794" />
        <path
   fill="none"
   stroke="rgb(128,128,128)"
   stroke-width="40"
   stroke-linejoin="round"
   stroke-linecap="square"
   d="M 1164,709 L 927,709 927,416 1401,416 1401,709 1164,709 Z"
   id="path4796" />
       </g>
      </g>
      <g
   class="com.sun.star.drawing.CustomShape"
   id="g4808">
       <g
   id="id14">
        <rect
   class="BoundingBox"
   stroke="none"
   fill="none"
   x="1382"
   y="396"
   width="518"
   height="334"
   id="rect4801" />
        <path
   fill="rgb(238,238,238)"
   stroke="none"
   d="M 1641,709 L 1402,709 1402,416 1879,416 1879,709 1641,709 Z"
   id="path4803" />
        <path
   fill="none"
   stroke="rgb(128,128,128)"
   stroke-width="40"
   stroke-linejoin="round"
   stroke-linecap="square"
   d="M 1641,709 L 1402,709 1402,416 1879,416 1879,709 1641,709 Z"
   id="path4805" />
       </g>
      </g>
      <g
   class="com.sun.star.drawing.CustomShape"
   id="g4817">
       <g
   id="id15">
        <rect
   class="BoundingBox"
   stroke="none"
   fill="none"
   x="428"
   y="690"
   width="518"
   height="334"
   id="rect4810" />
        <path
   fill="rgb(238,238,238)"
   stroke="none"
   d="M 687,1003 L 448,1003 448,710 925,710 925,1003 687,1003 Z"
   id="path4812" />
        <path
   fill="none"
   stroke="rgb(128,128,128)"
   stroke-width="40"
   stroke-linejoin="round"
   stroke-linecap="square"
   d="M 687,1003 L 448,1003 448,710 925,710 925,1003 687,1003 Z"
   id="path4814" />
       </g>
      </g>
      <g
   class="com.sun.star.drawing.CustomShape"
   id="g4826">
       <g
   id="id16">
        <rect
   class="BoundingBox"
   stroke="none"
   fill="none"
   x="906"
   y="690"
   width="515"
   height="334"
   id="rect4819" />
        <path
   fill="rgb(238,238,238)"
   stroke="none"
   d="M 1163,1003 L 926,1003 926,710 1400,710 1400,1003 1163,1003 Z"
   id="path4821" />
        <path
   fill="none"
   stroke="rgb(128,128,128)"
   stroke-width="40"
   stroke-linejoin="round"
   stroke-linecap="square"
   d="M 1163,1003 L 926,1003 926,710 1400,710 1400,1003 1163,1003 Z"
   id="path4823" />
       </g>
      </g>
      <g
   class="com.sun.star.drawing.CustomShape"
   id="g4835">
       <g
   id="id17">
        <rect
   class="BoundingBox"
   stroke="none"
   fill="none"
   x="1381"
   y="690"
   width="518"
   height="334"
   id="rect4828" />
        <path
   fill="rgb(238,238,238)"
   stroke="none"
   d="M 1640,1003 L 1401,1003 1401,710 1878,710 1878,1003 1640,1003 Z"
   id="path4830" />
        <path
   fill="none"
   stroke="rgb(128,128,128)"
   stroke-width="40"
   stroke-linejoin="round"
   stroke-linecap="square"
   d="M 1640,1003 L 1401,1003 1401,710 1878,710 1878,1003 1640,1003 Z"
   id="path4832" />
       </g>
      </g>
      <g
   class="com.sun.star.drawing.CustomShape"
   id="g4844">
       <g
   id="id18">
        <rect
   class="BoundingBox"
   stroke="none"
   fill="none"
   x="428"
   y="984"
   width="518"
   height="334"
   id="rect4837" />
        <path
   fill="rgb(238,238,238)"
   stroke="none"
   d="M 687,1297 L 448,1297 448,1004 925,1004 925,1297 687,1297 Z"
   id="path4839" />
        <path
   fill="none"
   stroke="rgb(128,128,128)"
   stroke-width="40"
   stroke-linejoin="round"
   stroke-linecap="square"
   d="M 687,1297 L 448,1297 448,1004 925,1004 925,1297 687,1297 Z"
   id="path4841" />
       </g>
      </g>
      <g
   class="com.sun.star.drawing.CustomShape"
   id="g4853">
       <g
   id="id19">
        <rect
   class="BoundingBox"
   stroke="none"
   fill="none"
   x="906"
   y="984"
   width="515"
   height="334"
   id="rect4846" />
        <path
   fill="rgb(238,238,238)"
   stroke="none"
   d="M 1163,1297 L 926,1297 926,1004 1400,1004 1400,1297 1163,1297 Z"
   id="path4848" />
        <path
   fill="none"
   stroke="rgb(128,128,128)"
   stroke-width="40"
   stroke-linejoin="round"
   stroke-linecap="square"
   d="M 1163,1297 L 926,1297 926,1004 1400,1004 1400,1297 1163,1297 Z"
   id="path4850" />
       </g>
      </g>
      <g
   class="com.sun.star.drawing.CustomShape"
   id="g4862">
       <g
   id="id20">
        <rect
   class="BoundingBox"
   stroke="none"
   fill="none"
   x="1381"
   y="984"
   width="518"
   height="334"
   id="rect4855" />
        <path
   fill="rgb(238,238,238)"
   stroke="none"
   d="M 1640,1297 L 1401,1297 1401,1004 1878,1004 1878,1297 1640,1297 Z"
   id="path4857" />
        <path
   fill="none"
   stroke="rgb(128,128,128)"
   stroke-width="40"
   stroke-linejoin="round"
   stroke-linecap="square"
   d="M 1640,1297 L 1401,1297 1401,1004 1878,1004 1878,1297 1640,1297 Z"
   id="path4859" />
       </g>
      </g>
      <g
   class="com.sun.star.drawing.CustomShape"
   id="g4871">
       <g
   id="id21">
        <rect
   class="BoundingBox"
   stroke="none"
   fill="none"
   x="428"
   y="1275"
   width="518"
   height="334"
   id="rect4864" />
        <path
   fill="rgb(238,238,238)"
   stroke="none"
   d="M 687,1588 L 448,1588 448,1295 925,1295 925,1588 687,1588 Z"
   id="path4866" />
        <path
   fill="none"
   stroke="rgb(128,128,128)"
   stroke-width="40"
   stroke-linejoin="round"
   stroke-linecap="square"
   d="M 687,1588 L 448,1588 448,1295 925,1295 925,1588 687,1588 Z"
   id="path4868" />
       </g>
      </g>
      <g
   class="com.sun.star.drawing.CustomShape"
   id="g4880">
       <g
   id="id22">
        <rect
   class="BoundingBox"
   stroke="none"
   fill="none"
   x="906"
   y="1275"
   width="515"
   height="334"
   id="rect4873" />
        <path
   fill="rgb(238,238,238)"
   stroke="none"
   d="M 1163,1588 L 926,1588 926,1295 1400,1295 1400,1588 1163,1588 Z"
   id="path4875" />
        <path
   fill="none"
   stroke="rgb(128,128,128)"
   stroke-width="40"
   stroke-linejoin="round"
   stroke-linecap="square"
   d="M 1163,1588 L 926,1588 926,1295 1400,1295 1400,1588 1163,1588 Z"
   id="path4877" />
       </g>
      </g>
      <g
   class="com.sun.star.drawing.CustomShape"
   id="g4889">
       <g
   id="id23">
        <rect
   class="BoundingBox"
   stroke="none"
   fill="none"
   x="1381"
   y="1275"
   width="518"
   height="334"
   id="rect4882" />
        <path
   fill="rgb(238,238,238)"
   stroke="none"
   d="M 1640,1588 L 1401,1588 1401,1295 1878,1295 1878,1588 1640,1588 Z"
   id="path4884" />
        <path
   fill="none"
   stroke="rgb(128,128,128)"
   stroke-width="40"
   stroke-linejoin="round"
   stroke-linecap="square"
   d="M 1640,1588 L 1401,1588 1401,1295 1878,1295 1878,1588 1640,1588 Z"
   id="path4886" />
       </g>
      </g>
      <g
   class="com.sun.star.drawing.CustomShape"
   id="g4898">
       <g
   id="id24">
        <rect
   class="BoundingBox"
   stroke="none"
   fill="none"
   x="428"
   y="1568"
   width="518"
   height="334"
   id="rect4891" />
        <path
   fill="rgb(238,238,238)"
   stroke="none"
   d="M 687,1881 L 448,1881 448,1588 925,1588 925,1881 687,1881 Z"
   id="path4893" />
        <path
   fill="none"
   stroke="rgb(128,128,128)"
   stroke-width="40"
   stroke-linejoin="round"
   stroke-linecap="square"
   d="M 687,1881 L 448,1881 448,1588 925,1588 925,1881 687,1881 Z"
   id="path4895" />
       </g>
      </g>
      <g
   class="com.sun.star.drawing.CustomShape"
   id="g4907">
       <g
   id="id25">
        <rect
   class="BoundingBox"
   stroke="none"
   fill="none"
   x="906"
   y="1568"
   width="515"
   height="334"
   id="rect4900" />
        <path
   fill="rgb(238,238,238)"
   stroke="none"
   d="M 1163,1881 L 926,1881 926,1588 1400,1588 1400,1881 1163,1881 Z"
   id="path4902" />
        <path
   fill="none"
   stroke="rgb(128,128,128)"
   stroke-width="40"
   stroke-linejoin="round"
   stroke-linecap="square"
   d="M 1163,1881 L 926,1881 926,1588 1400,1588 1400,1881 1163,1881 Z"
   id="path4904" />
       </g>
      </g>
      <g
   class="com.sun.star.drawing.CustomShape"
   id="g4916">
       <g
   id="id26">
        <rect
   class="BoundingBox"
   stroke="none"
   fill="none"
   x="1381"
   y="1568"
   width="518"
   height="334"
   id="rect4909" />
        <path
   fill="rgb(238,238,238)"
   stroke="none"
   d="M 1640,1881 L 1401,1881 1401,1588 1878,1588 1878,1881 1640,1881 Z"
   id="path4911" />
        <path
   fill="none"
   stroke="rgb(128,128,128)"
   stroke-width="40"
   stroke-linejoin="round"
   stroke-linecap="square"
   d="M 1640,1881 L 1401,1881 1401,1588 1878,1588 1878,1881 1640,1881 Z"
   id="path4913" />
       </g>
      </g>
      <g
   class="com.sun.star.drawing.CustomShape"
   id="g4923">
       <g
   id="id27">
        <rect
   class="BoundingBox"
   stroke="none"
   fill="none"
   x="867"
   y="62"
   width="587"
   height="1877"
   id="rect4918" />
        <path
   fill="none"
   stroke="rgb(5,0,255)"
   stroke-width="75"
   stroke-linejoin="round"
   d="M 1160,1900 L 905,1900 905,100 1415,100 1415,1900 1160,1900 Z"
   id="path4920" />
       </g>
      </g>
     </g>
    </g>
   </g>
  </g>
 </g>
<g
   id="g923"
   transform="matrix(8.6978864,0,0,8.6978864,209.17134,78.959514)"><rect
     y="59.323055"
     x="11.519158"
     height="96.601234"
     width="187.87241"
     id="rect833"
     style="fill:url(#linearGradient843);fill-opacity:1;stroke:url(#linearGradient851);stroke-width:10.2688;stroke-linecap:round;stroke-linejoin:round;stroke-miterlimit:4;stroke-dasharray:none;stroke-opacity:1" /><g
     transform="matrix(1.6516614,0,0,1.0953067,-12.120112,-10.737676)"
     id="g916"><rect
       style="fill:#858585;fill-opacity:1;stroke:none;stroke-width:15.2555;stroke-linecap:round;stroke-linejoin:round;stroke-miterlimit:4;stroke-dasharray:none;stroke-opacity:1"
       id="rect873"
       width="11.889419"
       height="140.01971"
       x="36.732491"
       y="35.702454" /><rect
       style="fill:#858585;fill-opacity:1;stroke:#848484;stroke-width:8.37313;stroke-linecap:round;stroke-linejoin:round;stroke-miterlimit:4;stroke-dasharray:none;stroke-opacity:1"
       id="rect873-9"
       width="18.265818"
       height="11.347663"
       x="33.420086"
       y="30.699389" /><rect
       style="fill:#858585;fill-opacity:1;stroke:#848484;stroke-width:8.70573;stroke-linecap:round;stroke-linejoin:round;stroke-miterlimit:4;stroke-dasharray:none;stroke-opacity:1"
       id="rect873-9-1"
       width="20.34243"
       height="11.014771"
       x="32.562191"
       y="173.75554" /></g></g></svg>
