<?xml version="1.0" encoding="UTF-8" standalone="no"?>
<!--part of the rodentia icon theme by sixsixfive released under CC0 (https://creativecommons.org/publicdomain/zero/1.0/) on openclipart-->

<svg
   xmlns:dc="http://purl.org/dc/elements/1.1/"
   xmlns:cc="http://creativecommons.org/ns#"
   xmlns:rdf="http://www.w3.org/1999/02/22-rdf-syntax-ns#"
   xmlns:svg="http://www.w3.org/2000/svg"
   xmlns="http://www.w3.org/2000/svg"
   xmlns:xlink="http://www.w3.org/1999/xlink"
   xmlns:sodipodi="http://sodipodi.sourceforge.net/DTD/sodipodi-0.dtd"
   xmlns:inkscape="http://www.inkscape.org/namespaces/inkscape"
   viewBox="0 0 48 48"
   version="1.1"
   id="svg26"
   sodipodi:docname="reset_autoincrement.svg"
   inkscape:version="1.0 (4035a4fb49, 2020-05-01)">
  <metadata
     id="metadata30">
    <rdf:RDF>
      <cc:Work
         rdf:about="">
        <dc:format>image/svg+xml</dc:format>
        <dc:type
           rdf:resource="http://purl.org/dc/dcmitype/StillImage" />
      </cc:Work>
    </rdf:RDF>
  </metadata>
  <sodipodi:namedview
     pagecolor="#ffffff"
     bordercolor="#666666"
     borderopacity="1"
     objecttolerance="10"
     gridtolerance="10"
     guidetolerance="10"
     inkscape:pageopacity="0"
     inkscape:pageshadow="2"
     inkscape:window-width="640"
     inkscape:window-height="480"
     id="namedview28"
     showgrid="false"
     inkscape:zoom="21"
     inkscape:cx="24"
     inkscape:cy="24"
     inkscape:current-layer="svg26" />
  <defs
     id="0">
    <linearGradient
       id="8">
      <stop
         id="G"
         stop-color="#fff" />
      <stop
         id="H"
         offset="1"
         stop-color="#fff"
         stop-opacity="0" />
    </linearGradient>
    <linearGradient
       id="9">
      <stop
         id="I"
         stop-color="#fff"
         stop-opacity="0.5" />
      <stop
         id="J"
         offset="1"
         stop-color="#fff"
         stop-opacity="0" />
    </linearGradient>
    <linearGradient
       id="A">
      <stop
         id="K"
         stop-color="#2e3436" />
      <stop
         id="L"
         offset="1"
         stop-color="#2e3436"
         stop-opacity="0" />
    </linearGradient>
    <linearGradient
       id="B">
      <stop
         id="M"
         stop-color="#eee" />
      <stop
         id="N"
         offset="1"
         stop-color="#dcdcdc" />
    </linearGradient>
    <radialGradient
       cx="60.05"
       cy="51.39"
       r="15.03"
       id="C"
       xlink:href="#B"
       gradientUnits="userSpaceOnUse"
       gradientTransform="matrix(-1.404511,1.1888571,-1,-1.1813958,199.73811,11.750541)" />
    <radialGradient
       cx="25.02"
       cy="44.3"
       r="16.727"
       id="D"
       xlink:href="#A"
       gradientUnits="userSpaceOnUse"
       gradientTransform="matrix(1,0,0,0.11504424,0,39.202918)" />
    <linearGradient
       y1="5.265"
       x2="0"
       y2="42.603"
       id="E"
       xlink:href="#9"
       gradientUnits="userSpaceOnUse" />
    <linearGradient
       x1="-4.455"
       y1="-33.449"
       x2="31.07"
       y2="39.677"
       id="F"
       xlink:href="#8"
       gradientUnits="userSpaceOnUse" />
  </defs>
  <path
     d="M 44,24 A 20,19.997948 0 1 1 4.0000001,24 20,19.997948 0 1 1 44,24 z"
     id="2"
     fill="#5c3566" />
  <path
     d="M 22.75,5.375 C 8.615336,5.6267023 0.00192621,23.952757 8.9375,35.0625 L 8.90625,35.09375 C 17.018382,47.079005 37.344698,44.11383 41.5625,30.25 l 0.03125,0 c 0.0076,-0.01959 -0.0075,-0.0429 0,-0.0625 C 46.258402,17.976792 35.858956,4.2337465 22.8125,5.375 c -0.02148,0.00188 -0.041,-0.00196 -0.0625,0 z"
     id="3"
     fill="#75507b" />
  <path
     d="M 27,9.90625 A 1.0954172,1.0954172 0 0 0 26.96875,9.9375 c 0.0027,-4.884e-4 -0.158917,6.668e-4 -0.15625,0 0.0021,-5.335e-4 -0.06006,0.052924 -0.09375,0.0625 -0.0084,0.0024 -0.03177,1.68e-4 -0.03125,0 -0.02702,0.0065 -0.0637,3.51e-4 -0.0625,0 0.0037,-0.00108 -0.159843,0.06392 -0.15625,0.0625 0.0036,-0.0014 -0.190945,0.0955 -0.1875,0.09375 0.0034,-0.0018 -0.159517,0.09581 -0.15625,0.09375 0.0033,-0.0021 -0.15931,0.09611 -0.15625,0.09375 0.0031,-0.0024 -0.159077,0.127634 -0.15625,0.125 0.0028,-0.0026 -0.158819,0.159136 -0.15625,0.15625 0.0026,-0.0029 -0.09604,0.128113 -0.09375,0.125 0.0023,-0.0031 -0.126989,0.159563 -0.125,0.15625 0.002,-0.0033 -0.09542,0.190984 -0.09375,0.1875 0.0017,-0.0035 -0.06384,0.191124 -0.0625,0.1875 0.0013,-0.0036 -0.0635,0.159983 -0.0625,0.15625 9.96e-4,-0.0037 -0.03189,0.19131 -0.03125,0.1875 6.44e-4,-0.0038 -0.03154,0.222604 -0.03125,0.21875 2.86e-4,-0.0039 7.4e-5,0.191363 0,0.1875 -7.4e-5,-0.0039 4.34e-4,0.19134 0,0.1875 l 0.46875,3.9375 0.4375,3.9375 c -3.09e-4,-0.0027 0.03174,0.127701 0.03125,0.125 -4.89e-4,-0.0027 0.03192,0.158913 0.03125,0.15625 -6.66e-4,-0.0027 0.03209,0.127613 0.03125,0.125 -8.41e-4,-0.0026 0.03226,0.127551 0.03125,0.125 -0.001,-0.0026 0.06368,0.127479 0.0625,0.125 -0.0012,-0.0025 0.06384,0.127395 0.0625,0.125 -0.0013,-0.0024 0.064,0.127301 0.0625,0.125 -0.0015,-0.0023 0.0954,0.09595 0.09375,0.09375 -0.0016,-0.0022 0.09554,0.127083 0.09375,0.125 -0.0018,-0.0021 0.09567,0.09571 0.09375,0.09375 -0.0019,-0.002 0.0958,0.09558 0.09375,0.09375 -0.002,-0.0018 0.09591,0.09544 0.09375,0.09375 -0.0022,-0.0017 0.127271,0.06404 0.125,0.0625 -0.0023,-0.0015 0.09612,0.09514 0.09375,0.09375 -0.0024,-0.0014 0.127455,0.06373 0.125,0.0625 -0.0025,-0.0012 0.127531,0.03231 0.125,0.03125 -0.0025,-0.0011 0.127596,0.06339 0.125,0.0625 -0.0026,-8.93e-4 0.158899,0.03197 0.15625,0.03125 -0.0026,-7.19e-4 0.127691,0.03179 0.125,0.03125 -0.0027,-5.42e-4 0.127721,0.03161 0.125,0.03125 -0.0027,-3.63e-4 0.158989,1.82e-4 0.15625,0 -0.0027,-1.82e-4 0.127745,0.03125 0.125,0.03125 -0.0027,0 0.127739,-0.03143 0.125,-0.03125 -0.0027,1.82e-4 0.158971,-3.63e-4 0.15625,0 -0.0027,3.63e-4 0.127691,-0.03179 0.125,-0.03125 -0.0027,5.42e-4 0.127649,-0.03197 0.125,-0.03125 -0.0026,7.19e-4 0.127595,-0.03214 0.125,-0.03125 -0.0026,8.93e-4 0.127531,-0.06356 0.125,-0.0625 -0.0025,0.0011 0.127455,-0.03248 0.125,-0.03125 -0.0025,0.0012 0.127368,-0.06389 0.125,-0.0625 -0.0024,0.0014 0.127271,-0.09529 0.125,-0.09375 -0.0018,0.0012 0.06546,-0.04194 0.09375,-0.0625 l 0.03125,0 0.4375,-0.34375 c 1.425982,2.555897 1.14611,5.738247 -1.0625,7.9375 -2.674403,2.663067 -6.8881,2.663063 -9.5625,0 -2.675693,-2.664354 -2.675692,-6.835648 0,-9.5 l -0.03125,0 0,-0.03125 c 1.010239,-0.994813 1.375995,-2.512953 0.8125,-3.84375 -0.559824,-1.322108 -1.873129,-2.162487 -3.3125,-2.125 -0.947795,0.02285 -1.788586,0.435737 -2.40625,1.0625 -5.3491647,5.326499 -5.3491644,14.079749 0,19.40625 5.348454,5.325796 14.120293,5.325789 19.46875,0 4.634034,-4.6144 5.084331,-11.726937 1.6875,-17.03125 l 0.28125,-0.21875 c -4.18e-4,3.01e-4 0.02398,0.0056 0.03125,0 0.02425,-0.01851 0.06384,-0.06358 0.0625,-0.0625 -0.0017,0.0014 0.09541,-0.06399 0.09375,-0.0625 -0.0017,0.0015 0.09533,-0.06408 0.09375,-0.0625 -0.0016,0.0016 0.06399,-0.09541 0.0625,-0.09375 -0.0015,0.0017 0.0639,-0.09549 0.0625,-0.09375 -0.0014,0.0017 0.09505,-0.09556 0.09375,-0.09375 -0.0013,0.0018 0.0637,-0.09563 0.0625,-0.09375 -0.0012,0.0019 0.03235,-0.09569 0.03125,-0.09375 -0.0011,0.0019 0.06349,-0.09575 0.0625,-0.09375 -9.94e-4,0.002 0.06338,-0.0958 0.0625,-0.09375 -8.85e-4,0.002 0.03202,-0.09584 0.03125,-0.09375 -7.74e-4,0.0021 0.03191,-0.127131 0.03125,-0.125 -6.6e-4,0.0021 0.03179,-0.09591 0.03125,-0.09375 -5.44e-4,0.0022 0.03168,-0.127189 0.03125,-0.125 -4.27e-4,0.0022 3.09e-4,-0.09596 0,-0.09375 -3.09e-4,0.0022 0.03144,-0.127222 0.03125,-0.125 -1.89e-4,0.0022 6.9e-5,-0.09598 0,-0.09375 -6.9e-5,0.0022 -5.1e-5,-0.12723 0,-0.125 5.1e-5,0.0022 -1.71e-4,-0.09597 0,-0.09375 1.71e-4,0.0022 -0.03154,-0.127211 -0.03125,-0.125 2.9e-4,0.0022 -4.09e-4,-0.09594 0,-0.09375 4.09e-4,0.0022 -0.03178,-0.127167 -0.03125,-0.125 5.26e-4,0.0022 -0.03189,-0.09589 -0.03125,-0.09375 6.42e-4,0.0021 -0.03201,-0.127098 -0.03125,-0.125 7.56e-4,0.0021 -0.03212,-0.09581 -0.03125,-0.09375 8.68e-4,0.0021 -0.06348,-0.09576 -0.0625,-0.09375 9.78e-4,0.002 -0.03233,-0.0957 -0.03125,-0.09375 0.0011,0.0019 -0.06369,-0.09564 -0.0625,-0.09375 0.0012,0.0019 -0.06379,-0.09557 -0.0625,-0.09375 0.0013,0.0018 -0.06388,-0.0955 -0.0625,-0.09375 0.0014,0.0017 -0.09523,-0.09542 -0.09375,-0.09375 C 36.064,13.78295 35.99844,13.68591 36,13.6875 a 1.0954172,1.0954172 0 0 0 -0.125,-0.09375 c 7.38e-4,5.57e-4 -0.01312,-0.0184 -0.03125,-0.03125 0.0011,9.06e-4 -0.03529,-0.0096 -0.0625,-0.03125 0.0015,10e-4 -0.03464,-0.04504 -0.0625,-0.0625 4.07e-4,2.99e-4 -0.02572,0.0037 -0.03125,0 -0.02901,-0.01963 -0.096,-0.09516 -0.09375,-0.09375 0.0027,0.0017 -0.159045,-0.06396 -0.15625,-0.0625 0.0028,0.0015 -0.127899,-0.06375 -0.125,-0.0625 l -3.625,-1.5625 -3.59375,-1.59375 c 5.47e-4,2.61e-4 -0.02125,0.0044 -0.03125,0 C 28.02999,10.07946 27.96692,10.06176 27.96875,10.0625 27.97115,10.063464 27.87256,9.999186 27.875,10 27.8774,10.000814 27.747511,9.968089 27.75,9.96875 27.7525,9.9694108 27.622475,9.936995 27.625,9.9375 c 0.0025,5.05e-4 -0.127551,-3.471e-4 -0.125,0 0.0026,3.471e-4 -0.158818,-0.031438 -0.15625,-0.03125 0.0026,1.879e-4 -0.127575,-2.8e-5 -0.125,0 0.0026,2.8e-5 -0.127571,1.32e-4 -0.125,0 a 1.0954172,1.0954172 0 0 0 -0.09375,0 z"
     id="4"
     fill="#5c3566" />
  <path
     d="m 27.02026,11.046256 a 0.97106987,0.97106987 0 0 0 -0.78125,1.0625 l 0.46875,3.9375 0.4375,3.9375 a 0.97106987,0.97106987 0 0 0 1.5625,0.65625 l 1.5,-1.09375 c 2.431844,3.079814 2.202095,7.497515 -0.65625,10.34375 -3.088791,3.075698 -8.036212,3.075694 -11.125,0 -3.088789,-3.0757 -3.088789,-7.986802 0,-11.0625 0.708158,-0.686347 0.946433,-1.749521 0.5625,-2.65625 -0.383938,-0.906727 -1.293371,-1.494478 -2.28125,-1.46875 -0.624152,0.01505 -1.218964,0.306272 -1.65625,0.75 -4.925324,4.904454 -4.925324,12.939294 0,17.84375 4.925317,4.904452 12.980929,4.904446 17.90625,0 4.522301,-4.503141 4.875966,-11.658508 1.09375,-16.59375 l 1.03125,-0.75 a 0.97106987,0.97106987 0 0 0 0.125,-1.46875 0.97106987,0.97106987 0 0 0 -0.09375,-0.0625 0.97106987,0.97106987 0 0 0 -0.25,-0.15625 l -3.625,-1.5625 -3.625,-1.59375 a 0.97106987,0.97106987 0 0 0 -0.59375,-0.0625 z"
     id="5"
     fill="#eeeeec" />
  <path
     d="m 25.15625,5.78125 c -0.763464,-0.037384 -1.558056,-0.00768 -2.34375,0.0625 -0.01047,9.351e-4 -0.02078,-9.548e-4 -0.03125,0 C 9.0161224,6.0630086 0.55495532,24.017662 9.3125,34.8125 c 7.891282,11.658961 27.769934,8.786369 31.84375,-4.71875 0.0029,-0.0095 -0.0029,-0.02172 0,-0.03125 4.28647,-11.160212 -4.405284,-23.7135002 -16,-24.28125 z"
     id="6"
     fill="none"
     stroke="url(#E)" />
  <path
     d="M 24.03125,5.3125 C 23.629097,5.31959 23.220202,5.339336 22.8125,5.375 22.79102,5.37688 22.7715,5.37304 22.75,5.375 9.3832209,5.6130282 0.97570212,22.010419 7.65625,33.1875 15.951602,23.656353 28.103471,17.700903 40.84375,16.0625 37.811665,9.8109828 31.430863,5.1819654 24.03125,5.3125 z"
     id="7"
     opacity="0.6"
     fill="url(#F)" />
</svg>
