<svg xmlns="http://www.w3.org/2000/svg" xmlns:xlink="http://www.w3.org/1999/xlink" viewBox="0 0 60 60"><defs><linearGradient id="a"><stop offset="0" style="stop-color:#ccc;stop-opacity:1"/><stop offset="1" style="stop-color:#fff;stop-opacity:1"/></linearGradient><linearGradient id="b"><stop offset="0" style="stop-color:#80b3ff;stop-opacity:1"/><stop offset="1" style="stop-color:#fff;stop-opacity:1"/></linearGradient><linearGradient xlink:href="#a" id="c" x1="53.419" x2="6.899" y1="51.152" y2="20.345" gradientUnits="userSpaceOnUse"/><linearGradient xlink:href="#b" id="d" x1="13.687" x2="4.473" y1="16.005" y2="4.508" gradientUnits="userSpaceOnUse"/><linearGradient id="g" x1="1593" x2="1963" y1="541" y2="911" gradientUnits="userSpaceOnUse"><stop offset="0" style="stop-color:#ff6d6d"/><stop offset="1" style="stop-color:#a7074b"/></linearGradient><linearGradient id="h" x1="562" x2="938" y1="1565" y2="1941" gradientUnits="userSpaceOnUse"><stop offset="0" style="stop-color:#ffffd7"/><stop offset="1" style="stop-color:#ffb66c"/></linearGradient><linearGradient id="i" x1="1428" x2="1798" y1="704" y2="1074" gradientUnits="userSpaceOnUse"><stop offset="0" style="stop-color:#ddd"/><stop offset="1" style="stop-color:gray"/></linearGradient><clipPath id="f" clipPathUnits="userSpaceOnUse"><path d="M0 0h2000v2000H0z"/></clipPath></defs><path d="M4.473 17.713h50.795v37.223H4.473z" style="fill:url(#c);fill-opacity:1;stroke:none;stroke-width:3.619;stroke-linejoin:round;stroke-miterlimit:4;stroke-dasharray:none;stroke-opacity:1"/><path d="M4.473 4.508h50.795v13.204H4.473z" style="fill:url(#d);fill-opacity:1;stroke:none;stroke-width:3.619;stroke-linejoin:round;stroke-miterlimit:4;stroke-dasharray:none;stroke-opacity:1"/><rect width="50.795" height="50.428" x="4.473" y="4.508" rx="2.002" style="fill:none;fill-opacity:1;fill-rule:evenodd;stroke:#7271ff;stroke-width:3.619;stroke-linejoin:round;stroke-opacity:1;stroke-miterlimit:4;stroke-dasharray:none"/><path d="M4.962 42.365h50.306M4.53 17.713h50.306" style="fill:none;stroke:#6e70ff;stroke-width:2.5;stroke-opacity:1"/><path d="M21.81 5.148V53.77" style="fill:none;stroke:#6e70ff;stroke-width:2.88994;stroke-opacity:1"/><path d="M4.358 30.102h50.306" style="fill:none;stroke:#6e70ff;stroke-width:2.5;stroke-opacity:1"/><path d="M38.58 5.775V54.4" style="fill:none;stroke:#6e70ff;stroke-width:2.88994;stroke-opacity:1"/><path d="M22.447 4.347h15.42v50.685h-15.42z" style="fill:none;fill-opacity:1;stroke:#2200e5;stroke-width:5.70457;stroke-linejoin:round;stroke-miterlimit:4;stroke-dasharray:none;stroke-opacity:1"/><g class="SlideGroup" transform="translate(-1.232 -1.657)scale(.03069)"><g class="Slide" clip-path="url(#f)"><g class="Page"><g class="Group"><g class="com.sun.star.drawing.CustomShape"><path fill="none" d="M1568 517h422v420h-422z" class="BoundingBox"/><path d="m1881 829-81 81-207-205 164-163 206 205z" style="fill:url(#g)"/><path fill="none" stroke="#861141" stroke-linejoin="round" stroke-width="50" d="m1881 829-81 81-207-205 164-163 206 205z"/></g><g class="com.sun.star.drawing.CustomShape"><path fill="none" d="M708 843h954v955H708z" class="BoundingBox"/><path fill="#ffffa6" d="m1287 1422-349 349-205-205 697-697 205 205z"/><path fill="none" stroke="#7b3d00" stroke-linejoin="round" stroke-width="50" d="m1287 1422-349 349-205-205 697-697 205 205z"/></g><g class="com.sun.star.drawing.PolyPolygonShape"><path fill="none" d="M538 1540h427v427H538z" class="BoundingBox"/><path d="m734 1565 170 171 34 34-375 171z" style="fill:url(#h)"/><path fill="none" stroke="#7b3d00" stroke-linejoin="round" stroke-width="50" d="m734 1565 170 171 34 34-375 171z"/></g><g class="com.sun.star.drawing.PolyPolygonShape"><path fill="none" d="M510 1825h171v171H510z" class="BoundingBox"/><path fill="#666" d="m587 1826 77 77 16 15-170 77z"/></g><g fill="none" class="com.sun.star.drawing.LineShape"><path d="M856 955h797v798H856z" class="BoundingBox"/><path stroke="#ff972f" stroke-linejoin="round" stroke-width="100" d="m906 1702 696-696"/></g><g fill="none" class="com.sun.star.drawing.LineShape"><path d="M801 901h798v797H801z" class="BoundingBox"/><path stroke="#ffb66c" stroke-linejoin="round" stroke-width="100" d="m852 1647 695-696"/></g><g class="com.sun.star.drawing.CustomShape"><path fill="none" d="M1405 679h419v421h-419z" class="BoundingBox"/><path d="m1716 992-82 82-204-206 163-164 204 206z" style="fill:url(#i)"/><path fill="none" stroke="#333" stroke-linejoin="round" stroke-width="50" d="m1716 992-82 82-204-206 163-164 204 206z"/></g></g></g></g></g></svg>
