<svg xmlns="http://www.w3.org/2000/svg" xmlns:xlink="http://www.w3.org/1999/xlink" viewBox="0 0 60 60"><defs><linearGradient id="a"><stop offset="0" style="stop-color:#ccc;stop-opacity:1"/><stop offset="1" style="stop-color:#fff;stop-opacity:1"/></linearGradient><linearGradient id="b"><stop offset="0" style="stop-color:#80b3ff;stop-opacity:1"/><stop offset="1" style="stop-color:#fff;stop-opacity:1"/></linearGradient><linearGradient xlink:href="#a" id="c" x1="53.419" x2="6.899" y1="51.152" y2="20.345" gradientUnits="userSpaceOnUse"/><linearGradient xlink:href="#b" id="d" x1="13.687" x2="4.473" y1="16.005" y2="4.508" gradientUnits="userSpaceOnUse"/><linearGradient id="g" x1="1086" x2="1735" y1="857" y2="1982" gradientUnits="userSpaceOnUse"><stop offset="0" style="stop-color:#ff6d6d"/><stop offset="1" style="stop-color:#f10d0c"/></linearGradient><clipPath id="f" clipPathUnits="userSpaceOnUse"><path d="M0 0h2000v2000H0z"/></clipPath></defs><path d="M4.473 17.713h50.795v37.223H4.473z" style="fill:url(#c);fill-opacity:1;stroke:none;stroke-width:3.619;stroke-linejoin:round;stroke-miterlimit:4;stroke-dasharray:none;stroke-opacity:1"/><path d="M4.473 4.508h50.795v13.204H4.473z" style="fill:url(#d);fill-opacity:1;stroke:none;stroke-width:3.619;stroke-linejoin:round;stroke-miterlimit:4;stroke-dasharray:none;stroke-opacity:1"/><rect width="50.795" height="50.428" x="4.473" y="4.508" rx="2.002" style="fill:none;fill-opacity:1;fill-rule:evenodd;stroke:#7271ff;stroke-width:3.619;stroke-linejoin:round;stroke-opacity:1;stroke-miterlimit:4;stroke-dasharray:none"/><path d="M4.962 42.365h50.306M4.53 17.713h50.306" style="fill:none;stroke:#6e70ff;stroke-width:2.5;stroke-opacity:1"/><path d="M21.81 5.148V53.77" style="fill:none;stroke:#6e70ff;stroke-width:2.88994;stroke-opacity:1"/><path d="M4.358 30.102h50.306" style="fill:none;stroke:#6e70ff;stroke-width:2.5;stroke-opacity:1"/><path d="M38.58 5.775V54.4" style="fill:none;stroke:#6e70ff;stroke-width:2.88994;stroke-opacity:1"/><path d="M22.447 4.347h15.42v50.685h-15.42z" style="fill:none;fill-opacity:1;stroke:#2200e5;stroke-width:5.70457;stroke-linejoin:round;stroke-miterlimit:4;stroke-dasharray:none;stroke-opacity:1"/><g class="SlideGroup" transform="translate(-.732 -.628)scale(.03098)"><g class="Slide" clip-path="url(#f)"><g class="Page"><g class="com.sun.star.drawing.CustomShape"><path fill="none" d="M910 919h1003v1003H910z" class="BoundingBox"/><path d="m1886 1420-1 31-3 31-5 30-7 31-9 29-11 29-13 29-15 27-16 27-18 25-20 24-21 23-23 21-24 20-25 18-27 16-27 15-29 13-29 11-29 9-31 7-30 5-31 3-31 1-32-1-31-3-30-5-31-7-29-9-29-11-29-13-27-15-27-16-25-18-24-20-23-21-21-23-20-24-18-25-16-27-15-27-13-29-11-29-9-29-7-31-5-30-3-31-1-31 1-32 3-31 5-30 7-31 9-29 11-29 13-29 15-27 16-27 18-25 20-24 21-23 23-21 24-20 25-18 27-16 27-15 29-13 29-11 29-9 31-7 30-5 31-3 31-1 32 1 31 3 30 5 31 7 29 9 29 11 29 13 27 15 27 16 25 18 24 20 23 21 21 23 20 24 18 25 16 27 15 27 13 29 11 29 9 29 7 31 5 30 3 31 1 31z" style="fill:url(#g)"/><path fill="none" stroke="#8d281e" stroke-linejoin="round" stroke-width="50" d="M1886 1420c0 83-22 165-64 237-41 73-101 133-174 174-72 42-154 64-237 64-84 0-166-22-238-64-73-41-133-101-174-174-42-72-64-154-64-237 0-84 22-166 64-238 41-73 101-133 174-174 72-42 154-64 237-64 84 0 166 22 238 64 73 41 133 101 174 174 42 72 64 154 64 237z"/></g><g class="com.sun.star.drawing.CustomShape"><path fill="none" d="M1088 1330h651v185h-651z" class="BoundingBox"/><path fill="#eee" d="M1088 1330h650v183h-650z"/></g></g></g></g></svg>
