<svg xmlns="http://www.w3.org/2000/svg" xmlns:xlink="http://www.w3.org/1999/xlink" viewBox="0 0 60 60"><defs><linearGradient id="a"><stop offset="0" style="stop-color:#ccc;stop-opacity:1"/><stop offset="1" style="stop-color:#fff;stop-opacity:1"/></linearGradient><linearGradient id="b"><stop offset="0" style="stop-color:#80b3ff;stop-opacity:1"/><stop offset="1" style="stop-color:#fff;stop-opacity:1"/></linearGradient><linearGradient xlink:href="#a" id="c" x1="53.419" x2="6.899" y1="51.152" y2="20.345" gradientUnits="userSpaceOnUse"/><linearGradient xlink:href="#b" id="d" x1="13.687" x2="4.473" y1="16.005" y2="4.508" gradientUnits="userSpaceOnUse"/><linearGradient id="g" x1="1040" x2="1227" y1="0" y2="324" gradientUnits="userSpaceOnUse"><stop offset="0" style="stop-color:#ffdbb6"/><stop offset="1" style="stop-color:#ffa6a6"/></linearGradient><linearGradient id="h" x1="614" x2="813" y1="-6" y2="338" gradientUnits="userSpaceOnUse"><stop offset="0" style="stop-color:#ffdbb6"/><stop offset="1" style="stop-color:#ffa6a6"/></linearGradient><linearGradient id="i" x1="1180" x2="1747" y1="-48" y2="934" gradientUnits="userSpaceOnUse"><stop offset="0" style="stop-color:#ffdbb6"/><stop offset="1" style="stop-color:#ffa6a6"/></linearGradient><linearGradient id="j" x1="446" x2="736" y1="551" y2="1053" gradientUnits="userSpaceOnUse"><stop offset="0" style="stop-color:#ffdbb6"/><stop offset="1" style="stop-color:#ffa6a6"/></linearGradient><linearGradient id="k" x1="736" x2="1049" y1="229" y2="772" gradientUnits="userSpaceOnUse"><stop offset="0" style="stop-color:#ffdbb6"/><stop offset="1" style="stop-color:#ffa6a6"/></linearGradient><linearGradient id="l" x1="405" x2="542" y1="804" y2="1042" gradientUnits="userSpaceOnUse"><stop offset="0" style="stop-color:#ffdbb6"/><stop offset="1" style="stop-color:#ffd8ce"/></linearGradient><linearGradient id="m" x1="917" x2="1201" y1="375" y2="867" gradientUnits="userSpaceOnUse"><stop offset="0" style="stop-color:#ffdbb6"/><stop offset="1" style="stop-color:#ffa6a6"/></linearGradient><linearGradient id="n" x1="1071" x2="1337" y1="519" y2="979" gradientUnits="userSpaceOnUse"><stop offset="0" style="stop-color:#ffdbb6"/><stop offset="1" style="stop-color:#ffa6a6"/></linearGradient><linearGradient id="o" x1="1224" x2="1471" y1="654" y2="1081" gradientUnits="userSpaceOnUse"><stop offset="0" style="stop-color:#ffdbb6"/><stop offset="1" style="stop-color:#ffa6a6"/></linearGradient><linearGradient id="r" x1="1593" x2="1963" y1="541" y2="911" gradientUnits="userSpaceOnUse"><stop offset="0" style="stop-color:#ff6d6d"/><stop offset="1" style="stop-color:#a7074b"/></linearGradient><linearGradient id="s" x1="562" x2="938" y1="1565" y2="1941" gradientUnits="userSpaceOnUse"><stop offset="0" style="stop-color:#ffffd7"/><stop offset="1" style="stop-color:#ffb66c"/></linearGradient><linearGradient id="t" x1="1428" x2="1798" y1="704" y2="1074" gradientUnits="userSpaceOnUse"><stop offset="0" style="stop-color:#ddd"/><stop offset="1" style="stop-color:gray"/></linearGradient><clipPath id="f" clipPathUnits="userSpaceOnUse"><path d="M0 0h2000v2000H0z"/></clipPath><clipPath id="q" clipPathUnits="userSpaceOnUse"><path d="M0 0h2000v2000H0z"/></clipPath></defs><path d="M4.473 17.713h50.795v37.223H4.473z" style="fill:url(#c);fill-opacity:1;stroke:none;stroke-width:3.619;stroke-linejoin:round;stroke-miterlimit:4;stroke-dasharray:none;stroke-opacity:1"/><path d="M4.473 4.508h50.795v13.204H4.473z" style="fill:url(#d);fill-opacity:1;stroke:none;stroke-width:3.619;stroke-linejoin:round;stroke-miterlimit:4;stroke-dasharray:none;stroke-opacity:1"/><rect width="50.795" height="50.428" x="4.473" y="4.508" rx="2.002" style="fill:none;fill-opacity:1;fill-rule:evenodd;stroke:#7271ff;stroke-width:3.61863;stroke-linejoin:round;stroke-opacity:1"/><path d="M4.962 42.365h50.306M4.53 17.713h50.306" style="fill:none;stroke:#6e70ff;stroke-width:2.5;stroke-opacity:1"/><path d="M21.81 5.148V53.77" style="fill:none;stroke:#6e70ff;stroke-width:2.88994;stroke-opacity:1"/><path d="M4.358 30.102h50.306" style="fill:none;stroke:#6e70ff;stroke-width:2.5;stroke-opacity:1"/><path d="M38.58 5.775V54.4" style="fill:none;stroke:#6e70ff;stroke-width:2.88994;stroke-opacity:1"/><g class="SlideGroup" transform="translate(-2.86 1.216)scale(.03084)"><g class="Slide" clip-path="url(#f)"><g class="Page"><g class="Group"><g class="Group"><g class="com.sun.star.drawing.CustomShape"><path fill="none" d="M908 37h451v251H908z" class="BoundingBox"/><path d="M1133 262H933V62h400v200z" style="fill:url(#g)"/><path fill="none" stroke="#ff7b59" stroke-linejoin="round" stroke-width="50" d="M1133 262H933V62h400v200z"/></g><g class="com.sun.star.drawing.PolyPolygonShape"><path fill="none" d="M473 36h481v261H473z" class="BoundingBox"/><path d="m522 82 145-1 35 23 43-43 181 1 2 203-348 6-31-17-33-48-18-68 4-39z" style="fill:url(#h)"/><path fill="none" stroke="#ff7b59" stroke-linejoin="round" stroke-width="50" d="m522 82 145-1 35 23 43-43 181 1 2 203-348 6-31-17-33-48-18-68 4-39z"/></g></g><g class="com.sun.star.drawing.PolyPolygonShape"><path fill="none" d="M967 35h993v817H967z" class="BoundingBox"/><path d="M1178 60h267l361 48 92 50 36 56v511h-178l-101 101h-113L993 277l105-217Z" style="fill:url(#i)"/><path fill="none" stroke="#ff7b59" stroke-linejoin="round" stroke-width="50" d="M1178 60h267l361 48 92 50 36 56v511h-178l-101 101h-113L993 277l105-217Z"/></g><g fill="none" class="com.sun.star.drawing.LineShape"><path d="M975 56h140v226H975z" class="BoundingBox"/><path stroke="#ffaa95" stroke-linejoin="round" stroke-width="60" d="m1084 86-79 165"/></g><g class="Group"><g class="com.sun.star.drawing.CustomShape"><path fill="none" d="M354 565h476v476H354z" class="BoundingBox"/><path d="m662 873-142 141-141-141 283-283 141 142Z" style="fill:url(#j)"/><path fill="none" stroke="#ff7b59" stroke-linejoin="round" stroke-width="50" d="m662 873-142 141-141-141 283-283 141 142Z"/></g><g class="com.sun.star.drawing.CustomShape"><path fill="none" d="M637 245h511v512H637z" class="BoundingBox"/><path d="M963 571 803 730 662 589l318-318 142 141Z" style="fill:url(#k)"/><path fill="none" stroke="#ff7b59" stroke-linejoin="round" stroke-width="50" d="M963 571 803 730 662 589l318-318 142 141Z"/></g><g class="com.sun.star.drawing.PolyPolygonShape"><path fill="none" d="M348 797h252v253H348z" class="BoundingBox"/><path d="m403 994-30-30 6-64 71-71 65-6 58 59-6 64-70 71-65 6z" style="fill:url(#l)"/><path fill="none" stroke="#ff7b59" stroke-linejoin="round" stroke-width="50" d="m403 994-30-30 6-64 71-71 65-6 58 59-6 64-70 71-65 6z"/></g><g class="com.sun.star.drawing.PolyPolygonShape"><path fill="none" d="M829 386h462v471H829z" class="BoundingBox"/><path d="M1119 412 854 682l3 56 34 58 53 34h48l273-274z" style="fill:url(#m)"/><path fill="none" stroke="#ff7b59" stroke-linejoin="round" stroke-width="50" d="M1119 412 854 682l3 56 34 58 53 34h48l273-274z"/></g><g class="com.sun.star.drawing.PolyPolygonShape"><path fill="none" d="M987 528h436v444H987z" class="BoundingBox"/><path d="m1260 553-248 253 3 53 31 54 49 32 46-1 255-256z" style="fill:url(#n)"/><path fill="none" stroke="#ff7b59" stroke-linejoin="round" stroke-width="50" d="m1260 553-248 253 3 53 31 54 49 32 46-1 255-256z"/></g><g class="com.sun.star.drawing.PolyPolygonShape"><path fill="none" d="M1144 661h408v415h-408z" class="BoundingBox"/><path d="m1393 686-224 229 4 50 31 51 48 32 43 1 231-232z" style="fill:url(#o)"/><path fill="none" stroke="#ff7b59" stroke-linejoin="round" stroke-width="50" d="m1393 686-224 229 4 50 31 51 48 32 43 1 231-232z"/></g></g><g fill="none" class="com.sun.star.drawing.LineShape"><path d="M973 254h571v580H973z" class="BoundingBox"/><path stroke="#ffaa95" stroke-linejoin="round" stroke-width="60" d="m1003 284 510 519"/></g><g fill="none" class="com.sun.star.drawing.LineShape"><path d="M649 575h171v171H649z" class="BoundingBox"/><path stroke="#ffaa95" stroke-linejoin="round" stroke-width="60" d="m679 605 110 110"/></g><g fill="none" class="com.sun.star.drawing.LineShape"><path d="M897 54h64v216h-64z" class="BoundingBox"/><path stroke="#ffaa95" stroke-linejoin="round" stroke-width="60" d="m927 84 3 155"/></g></g></g></g></g><g class="SlideGroup" transform="translate(-3.717 -2.271)scale(.03042)"><g class="Slide" clip-path="url(#q)"><g class="Page"><g class="Group"><g class="com.sun.star.drawing.CustomShape"><path fill="none" d="M1568 517h422v420h-422z" class="BoundingBox"/><path d="m1881 829-81 81-207-205 164-163 206 205z" style="fill:url(#r)"/><path fill="none" stroke="#861141" stroke-linejoin="round" stroke-width="50" d="m1881 829-81 81-207-205 164-163 206 205z"/></g><g class="com.sun.star.drawing.CustomShape"><path fill="none" d="M708 843h954v955H708z" class="BoundingBox"/><path fill="#ffffa6" d="m1287 1422-349 349-205-205 697-697 205 205z"/><path fill="none" stroke="#7b3d00" stroke-linejoin="round" stroke-width="50" d="m1287 1422-349 349-205-205 697-697 205 205z"/></g><g class="com.sun.star.drawing.PolyPolygonShape"><path fill="none" d="M538 1540h427v427H538z" class="BoundingBox"/><path d="m734 1565 170 171 34 34-375 171z" style="fill:url(#s)"/><path fill="none" stroke="#7b3d00" stroke-linejoin="round" stroke-width="50" d="m734 1565 170 171 34 34-375 171z"/></g><g class="com.sun.star.drawing.PolyPolygonShape"><path fill="none" d="M510 1825h171v171H510z" class="BoundingBox"/><path fill="#666" d="m587 1826 77 77 16 15-170 77z"/></g><g fill="none" class="com.sun.star.drawing.LineShape"><path d="M856 955h797v798H856z" class="BoundingBox"/><path stroke="#ff972f" stroke-linejoin="round" stroke-width="100" d="m906 1702 696-696"/></g><g fill="none" class="com.sun.star.drawing.LineShape"><path d="M801 901h798v797H801z" class="BoundingBox"/><path stroke="#ffb66c" stroke-linejoin="round" stroke-width="100" d="m852 1647 695-696"/></g><g class="com.sun.star.drawing.CustomShape"><path fill="none" d="M1405 679h419v421h-419z" class="BoundingBox"/><path d="m1716 992-82 82-204-206 163-164 204 206z" style="fill:url(#t)"/><path fill="none" stroke="#333" stroke-linejoin="round" stroke-width="50" d="m1716 992-82 82-204-206 163-164 204 206z"/></g></g></g></g></g></svg>
