<?xml version="1.0"?>
<svg xmlns:rdf="http://www.w3.org/1999/02/22-rdf-syntax-ns#" xmlns="http://www.w3.org/2000/svg" xmlns:cc="http://web.resource.org/cc/" xmlns:dc="http://purl.org/dc/elements/1.1/" xmlns:svg="http://www.w3.org/2000/svg" id="Layer_1" style="enable-background:new 0 0 136.676 117.498" space="preserve" viewBox="0 0 136.676 117.498" version="1.1">
  <g id="g3">
    <g id="g5">
      <radialGradient id="XMLID_9_" gradientUnits="userSpaceOnUse" cy="36.987" cx="37.127" r="36.718">
        <stop id="stop8" stop-color="#F8F8F8" offset="0"/>
        <stop id="stop10" stop-color="#7F7F7F" offset="1"/>
      </radialGradient>
      <path id="path12" fill="url(#XMLID_9_)" d="m69.797 31.428c-2.104 0-4.208 0.024-6.31 0.103-0.5-2.485-1.384-4.889-2.597-7.115-0.623-1.144-1.759-1.726-0.657-2.729 0.752-0.685 1.491-1.384 2.221-2.092 1.417-1.372 4.173-3.386 2.82-5.641-1.344-2.234-5.327-6.916-8.151-4.896-1.817 1.301-3.36 3.238-4.881 4.868-1.026 1.1-5.618-1.865-7.336-2.388-1.277-0.391-2.467-0.004-2.389-1.524 0.055-1.059 0.084-2.121 0.102-3.182 0.026-1.63 0.486-4.283-0.894-5.549-1.501-1.377-7.301-1.217-9.029-0.329-1.62 0.829-1.397 3.083-1.39 4.584 0.007 1.119 0.022 2.237 0.05 3.356 0.043 1.614 0.563 1.746-1.198 2.15-2.46 0.565-4.842 1.466-7.06 2.674-1.51 0.82-1.223 0.433-2.27-0.694-0.997-1.07-2.019-2.114-3.052-3.148-3.314-3.314-6.409 0.799-8.631 3.433-1.368 1.622-0.793 3.173 0.612 4.581 0.866 0.864 1.74 1.725 2.623 2.574 1.674 1.616 1.38 1.43 0.244 3.397-1.174 2.034-2.064 4.232-2.636 6.512-0.496 1.979-3.901 1.051-5.833 1.051-4.508 0-3.667 4.006-3.708 7.305-0.056 4.673 3.73 4.065 7.451 3.998 1.683-0.032 1.907-0.562 2.45 1.193 0.378 1.229 0.85 2.429 1.411 3.586 0.557 1.15 1.2 2.259 1.92 3.316 1.091 1.602-0.094 1.768-1.363 2.972-1.339 1.273-3.922 3.03-4.023 5.062-0.086 1.697 1.82 2.993 2.872 4.045 1.053 1.053 2.349 2.963 4.049 2.877 2.228-0.117 4.309-3.217 5.72-4.699 0.622-0.649 1.234-1.304 1.836-1.971 1.348 0.759 2.758 1.404 4.214 1.926 1.487 0.536 3.022 0.944 4.576 1.223-0.11 1.273-0.165 2.555-0.2 3.832-0.052 1.889-0.733 5.346 0.867 6.813 1.339 1.23 3.947 0.664 5.584 0.699 1.421 0.029 3.431 0.254 4.303-1.172 1.313-2.146 0.526-6.092 0.439-8.5-0.061-1.633-0.568-1.674 1.216-2.137 1.697-0.441 3.356-1.039 4.942-1.789 1.954-0.921 1.964-1.533 3.434 0.096 0.998 1.109 2.033 2.187 3.081 3.251 1.611 1.637 3.374 3.396 5.533 1.572 1.5-1.268 4.249-3.416 4.817-5.361 0.682-2.34-2.762-4.652-4.17-6.005-1.25-1.199-2.644-1.551-1.598-3.146 0.893-1.362 1.658-2.809 2.277-4.315 0.466-1.141 0.85-2.315 1.149-3.51 1.344 0.086 2.69 0.13 4.037 0.152 1.942 0.035 5.384 0.586 6.062-1.928 0.919-3.413 1.063-9.381-3.536-9.381m-33.192 15.856c-5.926 0-11.263-4.704-11.263-10.779 0-6.072 5.337-10.776 11.263-10.776 5.928 0 11.263 4.704 11.263 10.776 0 6.075-5.335 10.779-11.263 10.779"/>
      <linearGradient id="XMLID_10_" y2="454.2" gradientUnits="userSpaceOnUse" y1="454.2" gradientTransform="matrix(776.01 550.01 550.01 -776.01 -63461 4.8455e5)" x2="-239.56" x1="-240.44">
        <stop id="stop15" stop-color="#fff" offset="0"/>
        <stop id="stop17" offset="1"/>
      </linearGradient>
      <path id="path19" fill="url(#XMLID_10_)" d="m36.97 1.034c1.239-0.02 2.645-0.226 3.825 0.203 1.992 0.725 1.412 3.967 1.387 5.556-0.016 0.854-0.626 3.784-0.18 4.479 0.454 0.705 5.155 1.509 6.166 1.97 3.843 1.753 3.048 2.409 5.915-0.563 1.487-1.54 3.83-5.064 6.207-3.224 1.483 1.151 5.507 4.62 4.788 6.466-0.725 1.866-2.986 3.445-4.417 4.779-1.63 1.519-1.878 1.044-0.76 2.876 1.291 2.119 2.266 4.428 2.875 6.833 0.337 1.334-0.045 1.582 1.135 1.562 2.27-0.038 5.752-0.722 7.908 0.223 1.965 0.864 1.264 5.11 1.242 6.997-0.054 4.715-6.75 3.147-9.983 2.946 0.088 0.007-3.788 8.28-4.429 9.174-0.306 0.426 4.104 4.214 4.673 4.762 2.757 2.655 1.575 4.089-0.843 6.521-3.369 3.385-4.398 3.078-7.773-0.41-1.198-1.237-2.375-2.498-3.482-3.818-0.292-0.351-3.354 1.548-3.901 1.774-0.823 0.345-4.965 1.03-5.319 1.602-0.558 0.904 0.173 4.471 0.184 5.568 0.056 4.754-0.499 5.846-5.216 5.846-1.245 0-2.626 0.229-3.816-0.203-2.23-0.813-1.407-5.029-1.36-6.791 0.024-0.836 0.656-3.572 0.241-4.268-0.316-0.533-4.68-1.182-5.481-1.491-0.439-0.168-3.771-1.955-3.932-1.787-0.85 0.888-1.702 1.774-2.554 2.661-1.104 1.152-3.197 4.119-4.98 4.064-1.566-0.025-5.554-4.211-6.19-5.638-1.558-3.503 5.617-5.236 6.128-7.786 0.025-0.118-5.512-9.676-4.793-9.687-2.005 0.027-4.08 0.229-6.079 0.084-3.889 0-3.278-3.372-3.251-6.247-0.089-4.125 2.016-4.222 5.478-4.151 1.193 0.023 2.384 0.047 3.577 0.071 0.249 0.005 1.303-4.232 1.519-4.771 0.747-1.854 1.73-3.583 2.871-5.22 0.244-0.353-1.078-1.31-1.337-1.562-1.876-1.826-5.813-4.392-3.265-7.136 1.17-1.261 3.649-4.454 5.356-4.454 2.088 0 4.67 3.768 5.952 5.108 1.693 1.774 3.542-0.61 5.654-1.409 2.2-0.831 5.182-0.202 5.137-2.757-0.031-1.815-0.219-3.701-0.096-5.513-0.003-3.465 2.481-3.282 5.219-3.239m1.901-0.91c-2.057 0-5.473-0.613-7.011 0.884-1.738 1.723-0.946 5.989-0.909 8.187 0.034 2.009-1.685 1.569-3.439 2.15-0.819 0.271-5.278 2.577-5.594 2.246-1.613-1.697-3.74-4.872-6.114-5.526-2.324-0.643-4.227 2.122-5.673 3.612-3.202 3.076-2.292 4.962 0.545 7.721 0.881 0.854 1.758 1.713 2.643 2.563-1.412 2.068-2.529 4.333-3.291 6.717-0.758 2.375-0.383 2.418-2.755 2.373-1.375-0.027-2.817-0.169-4.186 0.002-3.611 0.452-3.044 4.039-3.065 6.789-0.035 4.538 1.767 5.404 5.901 5.338 1.249-0.021 2.498-0.044 3.748-0.06 0.623 2.333 1.579 4.575 2.825 6.643 0.769 1.273 1.829 1.586 0.575 2.733-0.892 0.818-1.768 1.654-2.632 2.501-1.279 1.253-3.2 2.928-2.399 4.953 0.657 1.654 4.427 5.427 6.082 6.083 2.585 1.025 4.936-2.428 6.465-4.018 0.76-0.791 1.516-1.587 2.284-2.372 2.198 1.196 4.552 2.098 6.987 2.676 1.7 0.404 1.2 0.467 1.125 2.006-0.05 1.045-0.082 2.086-0.097 3.129-0.033 1.932-0.516 5.109 1.625 6.188 1.726 0.867 5.33 0.545 7.303 0.395 4.595-0.355 3.293-6.627 3.187-9.797-0.051-1.543-0.539-1.662 1.121-2.107 1.184-0.32 2.347-0.713 3.478-1.182 1.13-0.466 2.229-1.008 3.29-1.617 0.584 0.686 1.188 1.352 1.802 2.01 2.414 2.594 5.336 6.855 8.854 3.469 1.522-1.469 4.513-3.689 4.556-5.842 0-2.301-3.116-4.448-4.613-5.886-1.159-1.115-2.074-1.263-1.152-2.703 1.236-1.937 2.216-4.036 2.903-6.228 1.062-3.392 9.775 1.873 10.625-3.728 0.302-2 0.59-7.022-0.808-8.442-1.672-1.711-5.718-0.957-7.862-0.92-2.125 0.036-1.675-1.533-2.36-3.397-0.626-1.704-3.194-4.84-1.912-6.016 3.534-3.244 7.237-5.832 2.896-9.974-1.449-1.497-3.346-4.25-5.678-3.615-2.209 0.599-4.229 3.527-5.745 5.093-1.375 1.42-2.271 0.018-3.948-0.74-1.472-0.666-5.549-1.219-5.477-2.725 0.187-3.904 1.302-9.566-4.1-9.566"/>
      <linearGradient id="XMLID_11_" y2="468.23" gradientUnits="userSpaceOnUse" y1="468.23" gradientTransform="matrix(0 -215 -215 0 1.0071e5 -51431)" x2="-238.88" x1="-239.73">
        <stop id="stop22" stop-color="#fff" offset="0"/>
        <stop id="stop24" offset="1"/>
      </linearGradient>
      <path id="path26" fill="url(#XMLID_11_)" d="m24.902 36.506c0 14.54 23.404 14.54 23.404 0 0-14.537-23.404-14.537-23.404 0m0.885 0c0-13.399 21.637-13.399 21.637 0 0 13.401-21.637 13.401-21.637 0"/>
      <radialGradient id="XMLID_12_" gradientUnits="userSpaceOnUse" cy="36.507" cx="36.604" r="19.492">
        <stop id="stop29" stop-color="#F3F3F3" offset="0"/>
        <stop id="stop31" stop-color="#F1F1F1" offset=".4367"/>
        <stop id="stop33" stop-color="#EAEAEA" offset=".594"/>
        <stop id="stop35" stop-color="#DEDEDE" offset=".7061"/>
        <stop id="stop37" stop-color="#CDCDCD" offset=".7968"/>
        <stop id="stop39" stop-color="#B7B7B7" offset=".8745"/>
        <stop id="stop41" stop-color="#9D9D9D" offset=".9419"/>
        <stop id="stop43" stop-color="#7F7F7F" offset="1"/>
      </radialGradient>
      <path id="path45" fill="url(#XMLID_12_)" d="m36.605 17.789c-10.363 0-20.237 7.9-20.237 18.716 0 10.821 9.87 18.721 20.237 18.721 10.366 0 20.236-7.899 20.236-18.721 0-10.816-9.874-18.716-20.236-18.716m0 34.558c-8.771 0-17.129-6.681-17.129-15.842 0-9.158 8.357-15.84 17.129-15.84 8.773 0 17.129 6.682 17.129 15.84 0 9.161-8.356 15.842-17.129 15.842"/>
      <path id="path47" fill="#E8E8E8" d="m13.398 26.637c0.774-1.19 1.558-2.372 2.389-3.524-1.246-0.258-2.028 2.621-2.389 3.524m46.831-15.889c-0.839-3.328-5.762 2.348-6.603 3.248-0.255 0.272-1.703 2.232-2.158 2.098-2.732-2.019-5.922-3.38-9.233-4.115-0.602 2.024 4.622 2.59 6.166 3.361 1.193 0.597 2.364 2.42 3.517 1.359 1.912-1.76 3.656-3.77 5.727-5.342 0.5-0.378 2.845-0.592 2.686 0.169-0.035-0.259-0.07-0.517-0.102-0.778m-37.533 5.425c1.841-1.179 3.885-2.006 6.021-2.476 1.445-0.319 3.418 0.096 2.81-1.967-1.673 0.315-9.412 2.12-8.831 4.443"/>
      <path id="path49" fill="#E8E8E8" d="m40.801 2.027c0 1.309-7.948 1.309-7.948 0 0-1.306 7.948-1.306 7.948 0"/>
      <path id="path51" fill="#616161" d="m36.827 71.629c-0.374 0-3.973-0.07-3.973 0.717 0 1.078 7.948 1.078 7.948 0 0-0.787-3.601-0.717-3.975-0.717"/>
      <path id="path53" fill="#616161" d="m6.14 40.647c-0.375 0-3.974-0.072-3.974 0.715 0 1.068 7.949 1.067 7.949 0 0-0.787-3.601-0.715-3.975-0.715"/>
      <path id="path55" fill="#616161" d="m67.811 40.647c-0.375 0-3.976-0.072-3.976 0.715 0 1.068 7.95 1.068 7.95 0 0-0.787-3.6-0.715-3.974-0.715"/>
      <path id="path57" fill="#616161" d="m9.792 59.263c-0.722 0 1.255 2.393 1.304 2.45 0.806 0.908 2.653 3.262 4.047 3.262 0.018 0.012-1.103-2.219-1.356-2.5-0.8-0.899-2.619-3.215-3.995-3.212"/>
      <path id="path59" fill="#616161" d="m52.626 58.38c-0.323 0 4.192 6.952 5.48 5.667 0.831-0.83-4.424-5.667-5.48-5.667"/>
      <path id="path61" fill="#E8E8E8" d="m14.876 9.294c0.585 0.587-5.19 6.364-5.776 5.777-0.585-0.586 5.19-6.36 5.776-5.777"/>
      <path id="path63" fill="#616161" d="m64.251 15.6c-1.097 0-6.256 5.22-5.692 5.805 1.028 1.029 5.714-5.805 5.692-5.805"/>
      <path id="path65" fill="#616161" d="m64.544 59.165c-1.094 0-6.242 5.253-5.693 5.806 1.09 1.035 5.685-5.806 5.693-5.806"/>
      <path id="path67" fill="#616161" d="m20.83 59.165c-1.027 0-2.57 1.904-3.196 2.531-0.261 0.256-2.573 3.281-2.49 3.279 1.272 1.019 5.544-5.81 5.686-5.81"/>
      <path id="path69" fill="#937342" d="m15.252 64.514c-0.038 0.152-0.076 0.305-0.116 0.457 0.383 0.381-0.22-1.305 0.116-0.457"/>
      <path id="path71" fill="#E8E8E8" d="m9.724 32.605c0 0.748-6.874-0.294-7.207 0.697-0.206 0.604-0.272 6.191-0.686 6.148-0.956-0.1-0.125-5.601-0.045-6.317 0.197-1.764 7.938-1.077 7.938-0.528"/>
      <path id="path73" fill="#E8E8E8" d="m13.096 55.846c-0.202 0.2-2.556 2.647-2.968 2.237-0.544-0.545 4.658-5.751 5.203-5.204 0.411 0.411-2.038 2.767-2.235 2.967"/>
      <path id="path75" fill="#E8E8E8" d="m71.71 32.717c0 0.664-8.28 0.664-8.28 0s8.28-0.664 8.28 0"/>
      <path id="path77" fill="#666" d="m56.397 41.417c-4.397 13.485-23.397 18.567-33.772 8.635 0 2.076 4.386 4.566 5.831 5.331 5.042 2.663 10.997 2.66 16.307 0.788 6.705-2.362 10.566-7.922 11.634-14.754m0.258-1.107c-0.172 0.344-0.258 0.713-0.258 1.107-0.149 0.46 0.405-1.107 0.258-1.107"/>
      <path id="path79" fill="#7F7F7F" d="m50.267 50.315c-4.632 3.794-11.138 5.484-17.048 4.649 6.024 0.94 12.378-0.693 17.048-4.649"/>
      <path id="path81" fill="#E8E8E8" d="m19.974 33.857c0-5.145 4.561-10.122 8.929-12.107 4.752-2.158 10.031-2.196 14.745 0.06 0.604 0.289 7.501 4.297 6.632 5.418 0.23-0.297-4.358-3.686-4.701-3.88-4.349-2.472-9.739-2.556-14.436-1.079-4.31 1.356-11.169 6.498-11.169 11.588"/>
      <path id="path83" fill="#E8E8E8" d="m16.298 33.73c0-6.272 6.022-12.355 11.28-14.702 5.727-2.555 12.096-2.682 17.759 0.082 2.099 1.023 4.093 2.356 5.769 3.985 0.09 0.087 1.803 2.16 1.494 2.172-0.362 0.014-1.202-1.281-1.415-1.514-1.24-1.342-2.646-2.528-4.211-3.476-5.246-3.173-11.879-3.266-17.57-1.271-4.594 1.615-8.39 4.837-10.785 9.065-0.797 1.405-2.321 4.229-2.321 5.659"/>
      <path id="path85" fill="#E8E8E8" d="m53.723 36.873c0.042 0-0.991 3.65-1.078 3.864-1.133 2.814-2.986 5.319-5.422 7.141-7.91 5.91-18.783 4.461-25.069-2.863 8.495 12.314 31.065 7.669 31.571-8.142"/>
      <path id="path87" fill="#E8E8E8" d="m48.96 47.479c-0.483 0.462-0.99 0.897-1.523 1.3 0.537-0.4 1.044-0.832 1.523-1.3m-27.176-2.812c-0.221 0 2.822 3.182 3.064 3.359-0.525-0.457-2.538-3.359-3.064-3.359"/>
    </g>
    <g id="g89">
      <radialGradient id="XMLID_13_" gradientUnits="userSpaceOnUse" cy="1412" cx="-307.79" gradientTransform="matrix(.7098 .7044 -.7044 .7098 1308.8 -709.18)" r="40.846">
        <stop id="stop92" stop-color="#F8F8F8" offset="0"/>
        <stop id="stop94" stop-color="#7F7F7F" offset="1"/>
      </radialGradient>
      <path id="path96" fill="url(#XMLID_13_)" d="m125.81 97.477c-1.662-1.65-3.341-3.279-5.064-4.865 1.552-2.354 2.737-4.941 3.524-7.652 0.403-1.389-0.036-2.74 1.618-2.67 1.132 0.049 2.264 0.078 3.396 0.092 2.193 0.025 5.949 0.596 6.645-2.246 0.691-2.818 1.212-9.637-2.601-10.252-2.452-0.396-5.189-0.076-7.668 0.02-1.67 0.064-2.975-5.875-3.92-7.637-0.704-1.306-1.946-1.935-0.693-3.072 0.875-0.795 1.729-1.609 2.572-2.435 1.3-1.266 3.74-3 3.643-5.081-0.105-2.266-4.811-6.68-6.871-7.336-1.93-0.613-3.52 1.34-4.69 2.533-0.871 0.887-1.737 1.784-2.589 2.688-1.234 1.31-0.922 1.819-2.63 0.76-2.388-1.481-4.975-2.637-7.673-3.421-1.835-0.534-1.305-0.615-1.248-2.326 0.052-1.624 0.063-3.251 0.057-4.875-0.021-5.215-5.688-4.392-9.503-4.052-2.354 0.208-3.116 1.882-3.108 4.094 0.006 1.362 0.022 2.725 0.053 4.088 0.06 2.586-0.028 2.209-2.467 2.873-2.522 0.687-4.947 1.724-7.188 3.077-1.939 1.174-3.9-2.227-5.428-3.74-3.56-3.532-6.034 0.288-8.65 2.863-3.707 3.647-0.241 6.132 2.75 8.993 1.354 1.295 1.946 1.051 0.999 2.862-0.664 1.268-1.231 2.584-1.693 3.94-0.462 1.344-0.824 2.723-1.083 4.119-0.395 2.123-1.46 1.322-3.406 1.279-2.053-0.045-5.47-0.68-7.142 0.844-1.399 1.273-0.908 3.791-0.901 5.443 0.005 1.656-0.468 4.184 0.942 5.447 1.851 1.652 5.922 0.834 8.2 0.771 0.997-0.029 1.995-0.063 2.99-0.117 0.471 1.654 1.08 3.268 1.819 4.82 0.755 1.59 1.646 3.113 2.657 4.551-1.086 0.922-2.132 1.889-3.161 2.873-1.52 1.449-4.768 3.645-4.655 6.057 0.093 2.02 2.597 3.617 3.863 4.926 1.098 1.137 2.509 2.889 4.316 2.449 2.719-0.666 5.188-4.402 7.005-6.369 1.235-1.34 0.867-1.766 2.635-0.734 1.688 0.98 3.465 1.809 5.307 2.461 2.265 0.805 2.751 0.328 2.635 2.766-0.08 1.66-0.107 3.32-0.113 4.98-0.011 2.557 0.003 5.324 3.139 5.578 2.176 0.174 6.028 0.633 8.002-0.461 2.371-1.313 1.465-5.836 1.412-8.01-0.047-1.924-0.87-3.295 1.203-3.734 1.773-0.373 3.511-0.918 5.181-1.625 1.26-0.531 2.485-1.158 3.655-1.869 0.995 1.121 2.025 2.211 3.068 3.285 1.508 1.547 3.794 4.68 6.3 3.225 3.4-2 8.19-6.6 4.56-10.203m-38.63-13.489c-4.68-4.643-5.208-12.541-0.448-17.336 4.759-4.795 12.658-4.328 17.338 0.316 4.681 4.643 5.208 12.539 0.449 17.334-4.76 4.798-12.661 4.333-17.34-0.314"/>
      <linearGradient id="XMLID_14_" y2="1412.2" gradientUnits="userSpaceOnUse" y1="1412.2" gradientTransform="matrix(.7098 .7044 -.7044 .7098 1308.8 -709.18)" x2="263.75" x1="-674.28">
        <stop id="stop99" stop-color="#fff" offset="0"/>
        <stop id="stop101" offset="1"/>
      </linearGradient>
      <path id="path103" fill="url(#XMLID_14_)" d="m123.71 47.753c0.992 0.958 2.264 1.894 2.86 3.158 1.006 2.133-1.994 4.236-3.258 5.473-0.682 0.663-3.46 2.5-3.652 3.396-0.192 0.912 2.887 5.234 3.325 6.39 1.662 4.395 0.52 4.287 5.111 4.188 2.38-0.051 6.993-0.996 7.426 2.32 0.271 2.066 0.73 7.959-1.285 8.854-2.036 0.906-5.058 0.381-7.231 0.313-2.477-0.078-2.303-0.645-2.854 1.678-0.643 2.684-1.681 5.27-3.084 7.646-0.778 1.32-1.276 1.215-0.329 2.123 1.824 1.746 5.109 3.938 6.069 6.373 0.875 2.221-3.004 5.025-4.5 6.498-3.737 3.682-7.797-2.805-10.19-5.496 0.063 0.074-9.479 3.566-10.687 3.773-0.576 0.094-0.062 6.543-0.04 7.422 0.096 4.256-1.961 4.461-5.775 4.486-5.312 0.033-5.887-1.016-5.816-6.41 0.021-1.918 0.08-3.836 0.24-5.746 0.044-0.504-3.859-1.406-4.47-1.654-0.92-0.375-4.728-3.08-5.456-2.902-1.149 0.273-3.364 3.662-4.217 4.539-3.683 3.797-4.974 4.227-8.698 0.529-0.983-0.973-2.255-1.875-2.854-3.152-1.126-2.389 2.827-5.07 4.245-6.426 0.674-0.645 3.319-2.307 3.536-3.184 0.168-0.668-2.771-4.596-3.162-5.469-0.214-0.479-1.445-4.5-1.703-4.494-1.366 0.037-2.734 0.068-4.102 0.102-1.775 0.045-5.753 0.746-7.119-0.691-1.214-1.25-1.085-7.68-0.47-9.305 1.516-3.986 8.54 0.268 10.942-1.346 0.111-0.074 3.228-11.96 3.805-11.403-1.604-1.55-3.402-3.019-4.868-4.696-3.069-3.048 0.056-5.235 2.329-7.482 3.159-3.325 4.9-1.752 7.578 1.014 0.923 0.954 1.847 1.908 2.769 2.86 0.192 0.197 4.344-2.321 4.936-2.576 2.043-0.879 4.173-1.474 6.358-1.876 0.468-0.084 0.175-1.876 0.169-2.279-0.052-2.911-1.151-8.021 3.013-8.192 1.911-0.079 6.371-0.657 7.715 0.678 1.651 1.638 0.739 6.634 0.7 8.698-0.054 2.728 3.275 2.295 5.568 3.318 2.391 1.067 4.252 3.901 6.221 1.849 1.396-1.459 2.724-3.096 4.243-4.428 2.71-2.737 4.53-0.648 6.66 1.531m2.21 0.773c-1.625-1.612-3.842-4.772-6.23-4.797-2.719 0-5.439 3.986-7.133 5.754-1.547 1.61-2.559-0.083-4.4-1.001-0.858-0.428-6.186-2.1-6.176-2.609 0.058-2.604 0.862-6.778-0.497-9.155-1.332-2.326-5.003-1.635-7.312-1.591-4.938-0.079-5.699 2.123-5.616 6.525 0.024 1.364 0.045 2.729 0.075 4.094-2.735 0.524-5.39 1.439-7.861 2.725-2.457 1.282-2.197 1.608-4.034-0.285-1.064-1.098-2.092-2.341-3.307-3.279-3.204-2.471-5.567 0.805-7.741 2.96-3.582 3.556-2.837 5.651 0.48 8.837 1.002 0.964 2.006 1.923 3.004 2.89-1.338 2.33-2.338 4.849-2.972 7.458-0.392 1.609 0.201 2.686-1.689 2.609-1.345-0.053-2.691-0.078-4.038-0.088-1.992-0.012-4.82-0.193-5.773 2.033-0.779 1.822-0.759 7.754 0.034 9.568 1.238 2.838 5.798 1.953 8.253 1.895 1.221-0.029 2.441-0.068 3.661-0.084 0.796 2.668 1.952 5.223 3.421 7.588 1.023 1.652 0.581 1.309-0.685 2.465-0.856 0.783-1.696 1.584-2.527 2.395-1.541 1.5-4.413 3.631-3.565 6.162 0.684 2.037 3.783 4.604 5.458 6.029 3.905 3.32 7.793-2.65 10.195-5.236 1.165-1.26 0.874-1.734 2.536-0.787 1.18 0.676 2.41 1.275 3.668 1.793 1.26 0.516 2.551 0.949 3.865 1.301-0.074 0.998-0.121 2-0.152 2.998-0.124 3.939-1.159 9.596 4.276 9.676 2.351 0.035 6.452 0.623 8.176-1.045 1.801-1.814 1.022-5.951 0.968-8.26-0.042-1.789-0.647-2.623 1.206-3.037 2.497-0.559 4.913-1.449 7.175-2.643 3.495-1.848 6.25 9.139 11.309 5.383 1.806-1.342 5.969-5.084 5.977-7.299 0.022-2.662-3.765-5.236-5.488-6.887-1.702-1.639-0.119-2.523 0.801-4.533 0.84-1.836 1.271-6.324 3.203-6.248 5.335 0.207 10.286 1.068 10.104-5.605 0.029-2.316 0.687-5.977-1.65-7.305-2.215-1.258-6.102-0.525-8.529-0.477-2.195 0.041-1.804-1.768-2.534-3.682-0.642-1.674-3.43-5.307-2.191-6.443 3.21-2.927 8.53-6.521 4.26-10.754"/>
      <linearGradient id="XMLID_15_" y2="1411.5" gradientUnits="userSpaceOnUse" y1="1411.5" gradientTransform="matrix(.7098 .7044 -.7044 .7098 1308.8 -709.18)" x2="-178.74" x1="-399.07">
        <stop id="stop106" stop-color="#fff" offset="0"/>
        <stop id="stop108" offset="1"/>
      </linearGradient>
      <path id="path110" fill="url(#XMLID_15_)" d="m86.382 66.309c-11.391 11.48 7.089 29.818 18.481 18.338 11.39-11.479-7.088-29.817-18.478-18.338m0.7 0.695c10.498-10.582 27.583 6.371 17.082 16.951-10.494 10.58-27.578-6.373-17.078-16.951"/>
      <radialGradient id="XMLID_16_" gradientUnits="userSpaceOnUse" cy="1411.5" cx="-308.37" gradientTransform="matrix(.7098 .7044 -.7044 .7098 1308.8 -709.18)" r="21.683">
        <stop id="stop113" stop-color="#F3F3F3" offset="0"/>
        <stop id="stop115" stop-color="#F1F1F1" offset=".4367"/>
        <stop id="stop117" stop-color="#EAEAEA" offset=".594"/>
        <stop id="stop119" stop-color="#DEDEDE" offset=".7061"/>
        <stop id="stop121" stop-color="#CDCDCD" offset=".7968"/>
        <stop id="stop123" stop-color="#B7B7B7" offset=".8745"/>
        <stop id="stop125" stop-color="#9D9D9D" offset=".9419"/>
        <stop id="stop127" stop-color="#7F7F7F" offset="1"/>
      </radialGradient>
      <path id="path129" fill="url(#XMLID_16_)" d="m110.29 60.699c-8.184-8.121-22.171-9.618-30.646-1.077-8.478 8.544-6.873 22.515 1.313 30.638 8.186 8.121 22.167 9.619 30.646 1.074 8.48-8.543 6.87-22.518-1.31-30.635m-27.077 27.287c-6.929-6.873-8.29-18.697-1.113-25.93 7.175-7.231 19.009-5.961 25.937 0.914 6.926 6.873 8.29 18.695 1.113 25.928s-19.011 5.963-25.937-0.912"/>
      <path id="path131" fill="#E8E8E8" d="m85.034 49.5c1.542-0.333 3.089-0.651 4.645-0.909-0.781-1.18-3.653 0.48-4.645 0.909m49.426 24.15c1.946-3.287-6.389-2.664-7.76-2.609-0.413 0.016-3.091 0.428-3.345-0.035-0.578-3.734-2.028-7.311-4.067-10.483-2.061 1.125 1.62 5.665 2.235 7.483 0.476 1.406-0.029 3.766 1.712 3.83 2.889 0.107 5.839-0.111 8.706 0.27 0.691 0.094 2.712 1.762 1.989 2.236 0.18-0.231 0.35-0.463 0.53-0.692m-33.88-25.128c2.375 0.514 4.638 1.461 6.69 2.763 1.392 0.883 2.624 2.755 3.761 0.651-1.57-1.064-9.09-5.702-10.45-3.414"/>
      <path id="path133" fill="#E8E8E8" d="m125.95 51.541c-1.024 1.031-7.301-5.198-6.278-6.229 1.03-1.032 7.31 5.197 6.28 6.229"/>
      <path id="path135" fill="#616161" d="m68.277 103.38c-0.294-0.293-3.079-3.168-3.696-2.547-0.845 0.85 5.431 7.078 6.274 6.227 0.62-0.62-2.28-3.38-2.578-3.68"/>
      <path id="path137" fill="#616161" d="m68.321 54.877c-0.295-0.293-3.078-3.172-3.698-2.549-0.836 0.844 5.442 7.07 6.276 6.227 0.619-0.621-2.281-3.383-2.578-3.678"/>
      <path id="path139" fill="#616161" d="m117.02 103.2c-0.296-0.293-3.082-3.172-3.699-2.549-0.837 0.842 5.44 7.07 6.276 6.227 0.61-0.63-2.29-3.39-2.58-3.68"/>
      <path id="path141" fill="#616161" d="m56.622 72.438c-0.57-0.564-0.886 2.873-0.888 2.955-0.078 1.35-0.461 4.658 0.638 5.748 0.006 0.025 0.867-2.611 0.889-3.035 0.07-1.336 0.45-4.592-0.639-5.668"/>
      <path id="path143" fill="#616161" d="m91.136 105.3c-0.257-0.252-2.138 8.775-0.114 8.768 1.306 0 0.949-7.94 0.114-8.77"/>
      <path id="path145" fill="#E8E8E8" d="m99.786 36.964c0.004 0.923-9.081 0.958-9.087 0.035 0-0.918 9.083-0.954 9.087-0.035"/>
      <path id="path147" fill="#616161" d="m133.84 80.631c-0.866-0.857-9.031-0.781-9.046 0.125 0.01 1.619 9.06-0.106 9.05-0.125"/>
      <path id="path149" fill="#616161" d="m99.934 115.26c-0.866-0.857-9.049-0.744-9.046 0.123 0.049 1.68 9.038-0.13 9.046-0.12"/>
      <path id="path151" fill="#616161" d="m65.414 81.008c-0.813-0.805-3.523-0.51-4.507-0.506-0.409 0-4.604 0.576-4.535 0.639 0.206 1.802 8.929-0.243 9.042-0.133"/>
      <path id="path153" fill="#937342" d="m56.818 80.863c-0.149 0.088-0.299 0.18-0.448 0.27 0.002 0.599 0.848-1.203 0.448-0.27"/>
      <path id="path155" fill="#E8E8E8" d="m77.453 51.336c-0.585 0.589-5.194-5.62-6.236-5.098-0.634 0.317-5.068 4.676-5.358 4.318-0.674-0.829 4.29-4.521 4.914-5.023 1.54-1.239 7.113 5.369 6.68 5.803"/>
      <path id="path157" fill="#E8E8E8" d="m61.907 72.328c-0.314 0.002-4.093 0.088-4.095-0.559-0.005-0.857 8.182-0.891 8.188-0.029 0 0.645-3.782 0.586-4.093 0.588"/>
      <path id="path159" fill="#E8E8E8" d="m126.31 99.99c-0.521 0.527-7.058-5.961-6.537-6.486 0.52-0.525 7.06 5.963 6.54 6.486"/>
      <path id="path161" fill="#666" d="m107.4 94.865c-14.039 7.199-33.023-3.674-33.434-19.646-1.627 1.641-0.114 7.043 0.427 8.777 1.895 6.057 6.598 10.719 12.26 13.402 7.152 3.392 14.557 2.022 20.747-2.533m1.07-0.674c-0.401 0.139-0.759 0.363-1.068 0.674-0.47 0.244 1.19-0.558 1.07-0.674"/>
      <path id="path163" fill="#7F7F7F" d="m95.592 97.086c-6.63-0.633-13.091-4.398-17.104-9.686 4.02 5.459 10.318 9.153 17.104 9.686"/>
      <path id="path165" fill="#E8E8E8" d="m84.567 60.355c4.032-4.063 11.532-4.42 16.535-2.563 5.446 2.021 9.643 6.126 11.599 11.601 0.249 0.701 2.558 9.27 0.991 9.471 0.416-0.051-0.554-6.32-0.67-6.744-1.499-5.359-5.688-9.65-10.556-12.164-4.462-2.308-13.904-3.62-17.893 0.399"/>
      <path id="path167" fill="#E8E8E8" d="m81.764 57.373c4.916-4.951 14.44-5.036 20.428-2.769 6.524 2.47 11.653 7.361 13.96 13.98 0.854 2.451 1.384 5.064 1.433 7.666 0.001 0.141-0.271 3.117-0.524 2.885-0.296-0.271 0.055-1.951 0.068-2.303 0.073-2.029-0.106-4.068-0.601-6.043-1.655-6.617-6.82-11.888-12.879-14.77-4.892-2.329-10.415-2.753-15.618-1.294-1.729 0.486-5.146 1.519-6.268 2.648"/>
      <path id="path169" fill="#E8E8E8" d="m108.85 89.18c0.034 0.033-3.641 2.105-3.877 2.209-3.101 1.334-6.525 1.859-9.875 1.387-10.878-1.529-18.327-11.193-17.553-21.9-2.94 16.379 18.521 30.395 31.307 18.305"/>
      <path id="path171" fill="#E8E8E8" d="m96.784 93.822c-0.746-0.012-1.486-0.066-2.222-0.168 0.736 0.108 1.476 0.162 2.222 0.168m-19.256-23.513c-0.175-0.174-0.267 4.723-0.216 5.051-0.054-0.77 0.632-4.641 0.216-5.051"/>
    </g>
  </g>
  <metadata>
    <rdf:RDF>
      <cc:Work>
        <dc:format>image/svg+xml</dc:format>
        <dc:type rdf:resource="http://purl.org/dc/dcmitype/StillImage"/>
        <cc:license rdf:resource="http://creativecommons.org/licenses/publicdomain/"/>
        <dc:publisher>
          <cc:Agent rdf:about="http://openclipart.org/">
            <dc:title>Openclipart</dc:title>
          </cc:Agent>
        </dc:publisher>
        <dc:title>Architetto -- ruota dentata grigia</dc:title>
        <dc:date>2010-03-25T20:41:45</dc:date>
        <dc:description>Drawing by Francesco 'Architetto' Rollandin. From OCAL 0.18 release.</dc:description>
        <dc:source>http://openclipart.org/detail/34123/architetto----ruota-dentata-grigia-by-anonymous</dc:source>
        <dc:creator>
          <cc:Agent>
            <dc:title>Anonymous</dc:title>
          </cc:Agent>
        </dc:creator>
        <dc:subject>
          <rdf:Bag>
            <rdf:li>clip art</rdf:li>
            <rdf:li>clipart</rdf:li>
            <rdf:li>gears</rdf:li>
            <rdf:li>technic</rdf:li>
            <rdf:li>technology</rdf:li>
            <rdf:li>tools</rdf:li>
          </rdf:Bag>
        </dc:subject>
      </cc:Work>
      <cc:License rdf:about="http://creativecommons.org/licenses/publicdomain/">
        <cc:permits rdf:resource="http://creativecommons.org/ns#Reproduction"/>
        <cc:permits rdf:resource="http://creativecommons.org/ns#Distribution"/>
        <cc:permits rdf:resource="http://creativecommons.org/ns#DerivativeWorks"/>
      </cc:License>
    </rdf:RDF>
  </metadata>
</svg>
