<svg xmlns="http://www.w3.org/2000/svg" style="enable-background:new 0 0 132.882 133.078" viewBox="0 0 132.882 133.078"><defs><linearGradient id="g" x1="1086" x2="1735" y1="857" y2="1982" gradientUnits="userSpaceOnUse"><stop offset="0" style="stop-color:#ff6d6d"/><stop offset="1" style="stop-color:#f10d0c"/></linearGradient><clipPath id="f" clipPathUnits="userSpaceOnUse"><path d="M0 0h2000v2000H0z"/></clipPath></defs><radialGradient id="a" cx="66.567" cy="66.317" r="65.835" gradientUnits="userSpaceOnUse"><stop offset="0" stop-color="#f8f8f8"/><stop offset="1" stop-color="#7f7f7f"/></radialGradient><path fill="url(#a)" d="M125.14 56.349c-3.771 0-7.545.045-11.314.186a45.5 45.5 0 0 0-4.657-12.756c-1.116-2.051-3.152-3.094-1.176-4.893a172 172 0 0 0 3.984-3.751c2.54-2.458 7.481-6.071 5.054-10.111-2.409-4.008-9.553-12.402-14.613-8.778-3.259 2.332-6.025 5.805-8.753 8.728-1.839 1.972-10.072-3.345-13.153-4.284-2.29-.697-4.424-.006-4.282-2.731.099-1.899.151-3.802.183-5.704.046-2.924.872-7.681-1.602-9.949C72.118-.164 61.72.124 58.619 1.715c-2.902 1.487-2.505 5.529-2.49 8.222.011 2.005.038 4.011.09 6.017.076 2.895 1.006 3.128-2.148 3.853a50 50 0 0 0-12.661 4.795c-2.706 1.474-2.19.776-4.07-1.242a219 219 0 0 0-5.471-5.644c-5.942-5.942-11.491 1.433-15.473 6.153-2.454 2.908-1.425 5.693 1.093 8.212a359 359 0 0 0 4.703 4.618c3.003 2.895 2.475 2.563.439 6.089a45.6 45.6 0 0 0-4.729 11.678c-.889 3.547-6.993 1.883-10.459 1.883-8.083 0-6.575 7.183-6.646 13.097-.099 8.381 6.687 7.291 13.357 7.167 3.019-.057 3.419-1.006 4.392 2.141a45.5 45.5 0 0 0 2.533 6.43 47 47 0 0 0 3.442 5.944c1.956 2.872-.17 3.17-2.443 5.329-2.402 2.283-7.031 5.432-7.215 9.075-.154 3.043 3.263 5.365 5.149 7.252s4.212 5.316 7.26 5.158c3.995-.206 7.724-5.77 10.257-8.424a180 180 0 0 0 3.291-3.532 49.6 49.6 0 0 0 7.554 3.451 50.5 50.5 0 0 0 8.207 2.191c-.196 2.286-.295 4.58-.357 6.873-.093 3.384-1.316 9.583 1.551 12.215 2.403 2.205 7.079 1.192 10.013 1.252 2.549.054 6.151.456 7.717-2.1 2.355-3.849.94-10.923.786-15.24-.107-2.931-1.017-3.003 2.18-3.832a50.4 50.4 0 0 0 8.864-3.205c3.503-1.651 3.52-2.752 6.156.172a182 182 0 0 0 5.522 5.826c2.889 2.937 6.048 6.091 9.923 2.818 2.688-2.271 7.617-6.12 8.636-9.61 1.223-4.195-4.952-8.343-7.479-10.767-2.237-2.148-4.737-2.782-2.863-5.64a45.46 45.46 0 0 0 6.143-14.033c2.411.156 4.826.234 7.239.275 3.483.061 9.652 1.05 10.868-3.456 1.65-6.14 1.91-16.84-6.34-16.84M65.631 84.767c-10.628 0-20.194-8.436-20.194-19.325s9.565-19.324 20.194-19.324c10.627 0 20.195 8.435 20.195 19.324s-9.567 19.325-20.195 19.325"/><linearGradient id="b" x1="-241.16" x2="-239.58" y1="461.06" y2="461.06" gradientTransform="matrix(776.01 550.01 550.01 -776.01 -66856 490160)" gradientUnits="userSpaceOnUse"><stop offset="0" stop-color="#fff"/><stop offset="1"/></linearGradient><path fill="url(#b)" d="M66.287 1.853c2.222-.034 4.739-.403 6.857.365 3.572 1.299 2.531 7.112 2.485 9.961-.025 1.531-1.121 6.786-.321 8.029.813 1.265 9.244 2.709 11.056 3.537 6.891 3.14 5.463 4.316 10.604-1.013 2.665-2.76 6.867-9.078 11.128-5.777 2.658 2.06 9.874 8.281 8.585 11.593-1.303 3.346-5.354 6.176-7.92 8.567-2.921 2.722-3.367 1.872-1.364 5.159a44.7 44.7 0 0 1 5.156 12.25c.605 2.394-.082 2.838 2.033 2.802 4.069-.069 10.315-1.296 14.178.4 3.522 1.548 2.268 9.16 2.229 12.543-.096 8.456-12.104 5.645-17.898 5.283.156.011-6.795 14.843-7.944 16.447-.547.763 7.359 7.556 8.381 8.538 4.944 4.761 2.824 7.329-1.513 11.69-6.039 6.069-7.887 5.521-13.935-.731-2.149-2.219-4.261-4.48-6.246-6.85-.521-.625-6.012 2.776-6.994 3.185-1.476.614-8.901 1.845-9.535 2.872-1.004 1.622.309 8.013.33 9.982.096 8.526-.896 10.481-9.352 10.481-2.232 0-4.709.411-6.843-.365-4-1.453-2.523-9.013-2.438-12.174.04-1.498 1.174-6.406.431-7.654-.568-.956-8.392-2.117-9.829-2.669-.787-.303-6.762-3.507-7.049-3.207l-4.578 4.771c-1.979 2.064-5.734 7.388-8.932 7.289-2.806-.048-9.959-7.553-11.098-10.111-2.792-6.279 10.07-9.389 10.988-13.959.043-.212-9.882-17.351-8.595-17.368-3.593.05-7.317.41-10.899.153-6.971 0-5.875-6.05-5.83-11.202-.16-7.395 3.619-7.569 9.824-7.444l6.414.128c.444.01 2.333-7.586 2.722-8.551 1.339-3.326 3.101-6.425 5.146-9.363.438-.629-1.932-2.346-2.398-2.799-3.363-3.273-10.421-7.872-5.851-12.794 2.096-2.259 6.541-7.985 9.6-7.985 3.747 0 8.376 6.755 10.672 9.161 3.036 3.181 6.353-1.095 10.14-2.528 3.945-1.491 9.292-.362 9.213-4.943-.058-3.255-.396-6.637-.172-9.884-.011-6.223 4.439-5.897 9.351-5.819m3.407-1.63c-3.688 0-9.813-1.099-12.571 1.586-3.116 3.085-1.696 10.736-1.63 14.678.059 3.6-3.022 2.813-6.17 3.854-1.466.484-9.462 4.621-10.028 4.025-2.892-3.043-6.707-8.735-10.962-9.909-4.166-1.15-7.581 3.806-10.172 6.478-5.742 5.518-4.111 8.898.979 13.844 1.579 1.533 3.153 3.07 4.737 4.598a46.3 46.3 0 0 0-5.897 12.042c-1.361 4.257-.689 4.336-4.944 4.254-2.461-.048-5.048-.305-7.504.003-6.472.811-5.456 7.242-5.495 12.174-.062 8.137 3.169 9.687 10.582 9.567 2.239-.035 4.479-.076 6.717-.105a46.1 46.1 0 0 0 5.067 11.91c1.376 2.284 3.278 2.844 1.032 4.902a190 190 0 0 0-4.72 4.482c-2.292 2.248-5.735 5.252-4.299 8.88 1.176 2.967 7.935 9.732 10.902 10.908 4.637 1.839 8.851-4.352 11.594-7.205 1.362-1.417 2.717-2.845 4.093-4.25a50.8 50.8 0 0 0 12.527 4.799c3.048.725 2.151.836 2.018 3.6a172 172 0 0 0-.175 5.606c-.057 3.465-.923 9.161 2.917 11.094 3.094 1.558 9.554.977 13.091.706 8.238-.634 5.907-11.882 5.715-17.565-.093-2.766-.968-2.98 2.009-3.78a51 51 0 0 0 12.133-5.014 114 114 0 0 0 3.23 3.604c4.327 4.647 9.567 12.294 15.874 6.219 2.729-2.633 8.092-6.614 8.172-10.478 0-4.122-5.587-7.971-8.271-10.553-2.079-1.999-3.72-2.262-2.068-4.844a46.6 46.6 0 0 0 5.207-11.169c1.902-6.08 17.526 3.361 19.05-6.681.542-3.585 1.057-12.592-1.447-15.135-2.997-3.071-10.253-1.718-14.098-1.652-3.809.065-3-2.746-4.229-6.091-1.123-3.054-5.727-8.679-3.43-10.785 6.34-5.817 12.979-10.456 5.196-17.885-2.6-2.681-6.001-7.617-10.181-6.482-3.963 1.077-7.582 6.327-10.301 9.135-2.466 2.545-4.07.031-7.078-1.328-2.639-1.192-9.949-2.184-9.821-4.885.34-7.01 2.34-17.162-7.346-17.162"/><linearGradient id="c" x1="-240.61" x2="-239.07" y1="474.96" y2="474.96" gradientTransform="matrix(0 -215 -215 0 102180 -51529)" gradientUnits="userSpaceOnUse"><stop offset="0" stop-color="#fff"/><stop offset="1"/></linearGradient><path fill="url(#c)" d="M44.65 65.457c0 26.066 41.962 26.066 41.962 0s-41.962-26.067-41.962 0m1.584 0c0-24.025 38.794-24.025 38.794 0s-38.794 24.025-38.794 0"/><radialGradient id="d" cx="65.631" cy="65.456" r="34.948" gradientUnits="userSpaceOnUse"><stop offset="0" stop-color="#f3f3f3"/><stop offset=".437" stop-color="#f1f1f1"/><stop offset=".594" stop-color="#eaeaea"/><stop offset=".706" stop-color="#dedede"/><stop offset=".797" stop-color="#cdcdcd"/><stop offset=".875" stop-color="#b7b7b7"/><stop offset=".942" stop-color="#9d9d9d"/><stop offset="1" stop-color="#7f7f7f"/></radialGradient><path fill="url(#d)" d="M65.631 31.895c-18.581 0-36.284 14.164-36.284 33.56 0 19.402 17.697 33.563 36.284 33.563 18.586 0 36.283-14.16 36.283-33.563 0-19.397-17.698-33.56-36.279-33.56m0 61.964c-15.729 0-30.71-11.983-30.71-28.404s14.981-28.401 30.71-28.401 30.711 11.979 30.711 28.401c.001 16.422-14.98 28.404-30.711 28.404"/><path fill="#e8e8e8" d="M24.022 47.759c1.389-2.133 2.794-4.254 4.284-6.319-2.235-.461-3.637 4.7-4.284 6.319m83.968-28.487c-1.503-5.967-10.331 4.207-11.839 5.825-.454.487-3.053 4-3.867 3.761-4.902-3.622-10.62-6.063-16.557-7.381-1.076 3.631 8.287 4.644 11.055 6.028 2.139 1.068 4.24 4.338 6.308 2.435 3.427-3.154 6.553-6.757 10.268-9.576.894-.678 5.101-1.062 4.814.303l-.18-1.395m-67.298 9.724c3.305-2.111 6.968-3.595 10.795-4.437 2.593-.569 6.13.171 5.04-3.526-3.001.563-16.874 3.799-15.835 7.963M73.152 3.636c0 2.344-14.251 2.344-14.251 0s14.251-2.344 14.251 0"/><path fill="#616161" d="M66.03 128.43c-.671 0-7.125-.13-7.125 1.282 0 1.931 14.251 1.933 14.251 0-.001-1.41-6.455-1.28-7.126-1.28M11.008 72.88c-.671 0-7.125-.131-7.125 1.282 0 1.916 14.251 1.913 14.251 0 0-1.412-6.455-1.282-7.126-1.282M121.58 72.88c-.671 0-7.125-.13-7.125 1.282 0 1.914 14.251 1.914 14.251 0 0-1.412-6.46-1.282-7.13-1.282M17.557 106.26c-1.294 0 2.25 4.292 2.338 4.391 1.444 1.629 4.758 5.852 7.256 5.852.034.022-1.976-3.976-2.431-4.485-1.435-1.62-4.695-5.77-7.163-5.76M94.355 104.67c-.578 0 7.519 12.467 9.826 10.159 1.49-1.48-7.93-10.16-9.825-10.16"/><path fill="#e8e8e8" d="M26.671 16.666c1.05 1.051-9.306 11.41-10.357 10.358-1.047-1.052 9.306-11.404 10.357-10.358"/><path fill="#616161" d="M115.2 27.97c-1.964 0-11.219 9.358-10.206 10.408 1.85 1.845 10.25-10.408 10.21-10.408M115.73 106.08c-1.962 0-11.194 9.419-10.205 10.408 1.95 1.86 10.19-10.41 10.21-10.41M37.346 106.08c-1.842 0-4.608 3.414-5.731 4.537-.465.462-4.612 5.885-4.463 5.881 2.281 1.82 9.94-10.42 10.194-10.42"/><path fill="#937342" d="M27.347 115.67q-.104.408-.207.816c.685.68-.397-2.34.207-.82"/><path fill="#e8e8e8" d="M17.435 58.462c0 1.339-12.324-.53-12.924 1.248-.368 1.084-.489 11.103-1.228 11.024-1.711-.183-.224-10.043-.08-11.327.355-3.163 14.232-1.931 14.232-.945M23.478 100.13c-.358.358-4.58 4.749-5.319 4.013-.977-.977 8.35-10.312 9.332-9.33.735.738-3.656 4.963-4.013 5.32M128.57 58.66c0 1.19-14.846 1.19-14.846 0s14.85-1.19 14.85 0"/><path fill="#666" d="M101.12 74.258c-7.886 24.178-41.95 33.291-60.554 15.481 0 3.725 7.864 8.189 10.455 9.559 9.041 4.776 19.717 4.771 29.24 1.414 12.021-4.234 18.941-14.204 20.859-26.452m.46-1.982a4.4 4.4 0 0 0-.461 1.982c-.27.826.72-1.982.46-1.982"/><path fill="#7f7f7f" d="M90.129 90.213c-8.308 6.802-19.974 9.833-30.567 8.335 10.797 1.682 22.191-1.241 30.567-8.335"/><path fill="#e8e8e8" d="M35.812 60.705c0-9.224 8.177-18.148 16.011-21.707 8.522-3.872 17.985-3.937 26.437.105 1.084.518 13.452 7.704 11.891 9.714.415-.534-7.813-6.607-8.427-6.956-7.797-4.435-17.463-4.583-25.884-1.935-7.732 2.433-20.028 11.654-20.028 20.779"/><path fill="#e8e8e8" d="M29.221 60.477c0-11.246 10.8-22.154 20.227-26.36 10.268-4.583 21.688-4.81 31.842.146 3.762 1.836 7.336 4.222 10.343 7.144.161.158 3.231 3.874 2.678 3.895-.649.027-2.156-2.297-2.538-2.712-2.223-2.406-4.743-4.534-7.549-6.232-9.406-5.692-21.297-5.859-31.503-2.277-8.237 2.891-15.042 8.673-19.335 16.251-1.429 2.519-4.165 7.58-4.165 10.145M96.321 66.114c.076-.002-1.774 6.544-1.93 6.928-2.031 5.045-5.354 9.536-9.722 12.801-14.182 10.598-33.677 7.999-44.948-5.131 15.231 22.079 55.698 13.75 56.604-14.6"/><path fill="#e8e8e8" d="M87.782 85.129a30 30 0 0 1-2.729 2.329 26.5 26.5 0 0 0 2.729-2.329m-48.725-5.045c-.394 0 5.06 5.707 5.491 6.023-.937-.817-4.546-6.023-5.491-6.023"/><g class="SlideGroup" transform="translate(-10.177 -10.678)scale(.07224)"><g class="Slide" clip-path="url(#f)"><g class="Page"><g class="com.sun.star.drawing.CustomShape"><path fill="none" d="M910 919h1003v1003H910z" class="BoundingBox"/><path d="m1886 1420-1 31-3 31-5 30-7 31-9 29-11 29-13 29-15 27-16 27-18 25-20 24-21 23-23 21-24 20-25 18-27 16-27 15-29 13-29 11-29 9-31 7-30 5-31 3-31 1-32-1-31-3-30-5-31-7-29-9-29-11-29-13-27-15-27-16-25-18-24-20-23-21-21-23-20-24-18-25-16-27-15-27-13-29-11-29-9-29-7-31-5-30-3-31-1-31 1-32 3-31 5-30 7-31 9-29 11-29 13-29 15-27 16-27 18-25 20-24 21-23 23-21 24-20 25-18 27-16 27-15 29-13 29-11 29-9 31-7 30-5 31-3 31-1 32 1 31 3 30 5 31 7 29 9 29 11 29 13 27 15 27 16 25 18 24 20 23 21 21 23 20 24 18 25 16 27 15 27 13 29 11 29 9 29 7 31 5 30 3 31 1 31z" style="fill:url(#g)"/><path fill="none" stroke="#8d281e" stroke-linejoin="round" stroke-width="50" d="M1886 1420c0 83-22 165-64 237-41 73-101 133-174 174-72 42-154 64-237 64-84 0-166-22-238-64-73-41-133-101-174-174-42-72-64-154-64-237 0-84 22-166 64-238 41-73 101-133 174-174 72-42 154-64 237-64 84 0 166 22 238 64 73 41 133 101 174 174 42 72 64 154 64 237z"/></g><g class="com.sun.star.drawing.CustomShape"><path fill="none" d="M1088 1330h651v185h-651z" class="BoundingBox"/><path fill="#eee" d="M1088 1330h650v183h-650z"/></g></g></g></g></svg>
