<?xml version="1.0" encoding="utf-8"?><!-- Uploaded to: SVG Repo, www.svgrepo.com, Generator: SVG Repo Mixer Tools -->
<svg fill="#000000" width="800px" height="800px" viewBox="0 0 24 24" id="unlink-alt" data-name="Flat Line" xmlns="http://www.w3.org/2000/svg" class="icon flat-line"><path id="secondary" d="M3,18V12a1,1,0,0,1,1-1H9a1,1,0,0,1,1,1v6a1,1,0,0,1-1,1H4A1,1,0,0,1,3,18Zm12-5h5a1,1,0,0,0,1-1V6a1,1,0,0,0-1-1H15a1,1,0,0,0-1,1v6A1,1,0,0,0,15,13Z" style="fill: rgb(44, 169, 188); stroke-width: 2;"></path><path id="primary" d="M8,15h2m4-6h2" style="fill: none; stroke: rgb(0, 0, 0); stroke-linecap: round; stroke-linejoin: round; stroke-width: 2;"></path><path id="primary-2" data-name="primary" d="M10,12a1,1,0,0,0-1-1H4a1,1,0,0,0-1,1v6a1,1,0,0,0,1,1H9a1,1,0,0,0,1-1" style="fill: none; stroke: rgb(0, 0, 0); stroke-linecap: round; stroke-linejoin: round; stroke-width: 2;"></path><path id="primary-3" data-name="primary" d="M14,12a1,1,0,0,0,1,1h5a1,1,0,0,0,1-1V6a1,1,0,0,0-1-1H15a1,1,0,0,0-1,1" style="fill: none; stroke: rgb(0, 0, 0); stroke-linecap: round; stroke-linejoin: round; stroke-width: 2;"></path></svg>