<?xml version="1.0" encoding="UTF-8" standalone="no"?>
<svg
   xmlns:osb="http://www.openswatchbook.org/uri/2009/osb"
   xmlns:dc="http://purl.org/dc/elements/1.1/"
   xmlns:cc="http://creativecommons.org/ns#"
   xmlns:rdf="http://www.w3.org/1999/02/22-rdf-syntax-ns#"
   xmlns:svg="http://www.w3.org/2000/svg"
   xmlns="http://www.w3.org/2000/svg"
   xmlns:xlink="http://www.w3.org/1999/xlink"
   xmlns:sodipodi="http://sodipodi.sourceforge.net/DTD/sodipodi-0.dtd"
   xmlns:inkscape="http://www.inkscape.org/namespaces/inkscape"
   id="svg2"
   xml:space="preserve"
   overflow="visible"
   inkscape:export-ydpi="90.000000"
   viewBox="0 0 48 48"
   inkscape:export-xdpi="90.000000"
   version="1.0"
   inkscape:output_extension="org.inkscape.output.svg.inkscape"
   sodipodi:docname="erdeditor_line_straight.svg"
   inkscape:export-filename="/home/tigert/My Downloads/go-home.png"
   inkscape:version="1.0 (4035a4fb49, 2020-05-01)"
   sodipodi:version="0.32"
   enable-background="new 0 0 128 129.396"><defs
   id="defs365"><linearGradient
     inkscape:collect="always"
     id="linearGradient15885"><stop
       style="stop-color:#020050;stop-opacity:1"
       offset="0"
       id="stop15881" /><stop
       style="stop-color:#9d9bff;stop-opacity:1"
       offset="1"
       id="stop15883" /></linearGradient><marker
     inkscape:isstock="true"
     style="overflow:visible"
     id="marker14691"
     refX="0.0"
     refY="0.0"
     orient="auto"
     inkscape:stockid="DotS"><path
       transform="scale(0.2) translate(7.4, 1)"
       style="fill-rule:evenodd;stroke:#ffffff;stroke-width:1pt;stroke-opacity:0.698795;fill:#ffffff;fill-opacity:0.5"
       d="M -2.5,-1.0 C -2.5,1.7600000 -4.7400000,4.0 -7.5,4.0 C -10.260000,4.0 -12.5,1.7600000 -12.5,-1.0 C -12.5,-3.7600000 -10.260000,-6.0 -7.5,-6.0 C -4.7400000,-6.0 -2.5,-3.7600000 -2.5,-1.0 z "
       id="path14689" /></marker><marker
     inkscape:isstock="true"
     style="overflow:visible"
     id="marker14561"
     refX="0.0"
     refY="0.0"
     orient="auto"
     inkscape:stockid="DotS"><path
       transform="scale(0.2) translate(7.4, 1)"
       style="fill-rule:evenodd;stroke:#ffffff;stroke-width:1pt;stroke-opacity:0.698795;fill:#ffffff;fill-opacity:0.5"
       d="M -2.5,-1.0 C -2.5,1.7600000 -4.7400000,4.0 -7.5,4.0 C -10.260000,4.0 -12.5,1.7600000 -12.5,-1.0 C -12.5,-3.7600000 -10.260000,-6.0 -7.5,-6.0 C -4.7400000,-6.0 -2.5,-3.7600000 -2.5,-1.0 z "
       id="path14559" /></marker><marker
     inkscape:isstock="true"
     style="overflow:visible"
     id="marker14419"
     refX="0.0"
     refY="0.0"
     orient="auto"
     inkscape:stockid="DotS"><path
       transform="scale(0.2) translate(7.4, 1)"
       style="fill-rule:evenodd;stroke:#ffffff;stroke-width:1pt;stroke-opacity:0.698795;fill:#ffffff;fill-opacity:0.5"
       d="M -2.5,-1.0 C -2.5,1.7600000 -4.7400000,4.0 -7.5,4.0 C -10.260000,4.0 -12.5,1.7600000 -12.5,-1.0 C -12.5,-3.7600000 -10.260000,-6.0 -7.5,-6.0 C -4.7400000,-6.0 -2.5,-3.7600000 -2.5,-1.0 z "
       id="path14417" /></marker><marker
     inkscape:isstock="true"
     style="overflow:visible"
     id="marker14283"
     refX="0.0"
     refY="0.0"
     orient="auto"
     inkscape:stockid="DotS"><path
       transform="scale(0.2) translate(7.4, 1)"
       style="fill-rule:evenodd;stroke:#ffffff;stroke-width:1pt;stroke-opacity:0.5;fill:#ffffff;fill-opacity:0.5"
       d="M -2.5,-1.0 C -2.5,1.7600000 -4.7400000,4.0 -7.5,4.0 C -10.260000,4.0 -12.5,1.7600000 -12.5,-1.0 C -12.5,-3.7600000 -10.260000,-6.0 -7.5,-6.0 C -4.7400000,-6.0 -2.5,-3.7600000 -2.5,-1.0 z "
       id="path14281" /></marker><marker
     inkscape:isstock="true"
     style="overflow:visible"
     id="marker12605"
     refX="0.0"
     refY="0.0"
     orient="auto"
     inkscape:stockid="DotS"><path
       transform="scale(0.2) translate(7.4, 1)"
       style="fill-rule:evenodd;stroke:#ffffff;stroke-width:1pt;stroke-opacity:0.5;fill:#ffffff;fill-opacity:0.5"
       d="M -2.5,-1.0 C -2.5,1.7600000 -4.7400000,4.0 -7.5,4.0 C -10.260000,4.0 -12.5,1.7600000 -12.5,-1.0 C -12.5,-3.7600000 -10.260000,-6.0 -7.5,-6.0 C -4.7400000,-6.0 -2.5,-3.7600000 -2.5,-1.0 z "
       id="path12603" /></marker><marker
     inkscape:isstock="true"
     style="overflow:visible"
     id="marker12481"
     refX="0.0"
     refY="0.0"
     orient="auto"
     inkscape:stockid="DotS"><path
       transform="scale(0.2) translate(7.4, 1)"
       style="fill-rule:evenodd;stroke:#ffffff;stroke-width:1pt;stroke-opacity:0.5;fill:#ffffff;fill-opacity:0.5"
       d="M -2.5,-1.0 C -2.5,1.7600000 -4.7400000,4.0 -7.5,4.0 C -10.260000,4.0 -12.5,1.7600000 -12.5,-1.0 C -12.5,-3.7600000 -10.260000,-6.0 -7.5,-6.0 C -4.7400000,-6.0 -2.5,-3.7600000 -2.5,-1.0 z "
       id="path12479" /></marker><marker
     inkscape:isstock="true"
     style="overflow:visible"
     id="marker12363"
     refX="0.0"
     refY="0.0"
     orient="auto"
     inkscape:stockid="DotS"><path
       transform="scale(0.2) translate(7.4, 1)"
       style="fill-rule:evenodd;stroke:#ffffff;stroke-width:1pt;stroke-opacity:0.5;fill:#ffffff;fill-opacity:0.5"
       d="M -2.5,-1.0 C -2.5,1.7600000 -4.7400000,4.0 -7.5,4.0 C -10.260000,4.0 -12.5,1.7600000 -12.5,-1.0 C -12.5,-3.7600000 -10.260000,-6.0 -7.5,-6.0 C -4.7400000,-6.0 -2.5,-3.7600000 -2.5,-1.0 z "
       id="path12361" /></marker><marker
     inkscape:isstock="true"
     style="overflow:visible"
     id="marker11645"
     refX="0.0"
     refY="0.0"
     orient="auto"
     inkscape:stockid="DotS"><path
       transform="scale(0.2) translate(7.4, 1)"
       style="fill-rule:evenodd;stroke:#ffffff;stroke-width:1pt;stroke-opacity:0.5;fill:#ffffff;fill-opacity:1"
       d="M -2.5,-1.0 C -2.5,1.7600000 -4.7400000,4.0 -7.5,4.0 C -10.260000,4.0 -12.5,1.7600000 -12.5,-1.0 C -12.5,-3.7600000 -10.260000,-6.0 -7.5,-6.0 C -4.7400000,-6.0 -2.5,-3.7600000 -2.5,-1.0 z "
       id="path11643" /></marker><marker
     inkscape:stockid="DotS"
     orient="auto"
     refY="0.0"
     refX="0.0"
     id="marker11335"
     style="overflow:visible"
     inkscape:isstock="true"
     inkscape:collect="always"><path
       id="path11333"
       d="M -2.5,-1.0 C -2.5,1.7600000 -4.7400000,4.0 -7.5,4.0 C -10.260000,4.0 -12.5,1.7600000 -12.5,-1.0 C -12.5,-3.7600000 -10.260000,-6.0 -7.5,-6.0 C -4.7400000,-6.0 -2.5,-3.7600000 -2.5,-1.0 z "
       style="fill-rule:evenodd;stroke:#9d9bff;stroke-width:1pt;stroke-opacity:0.698795;fill:#9d9bff;fill-opacity:0.698795"
       transform="scale(0.2) translate(7.4, 1)" /></marker><linearGradient
     id="linearGradient5950"
     osb:paint="solid"><stop
       style="stop-color:#000000;stop-opacity:1;"
       offset="0"
       id="stop5948" /></linearGradient><marker
     inkscape:isstock="true"
     style="overflow:visible"
     id="marker3618"
     refX="0.0"
     refY="0.0"
     orient="auto"
     inkscape:stockid="DotS"><path
       transform="scale(0.2) translate(7.4, 1)"
       style="fill-rule:evenodd;stroke:#989898;stroke-width:1pt;stroke-opacity:1;fill:#ffffff;fill-opacity:1"
       d="M -2.5,-1.0 C -2.5,1.7600000 -4.7400000,4.0 -7.5,4.0 C -10.260000,4.0 -12.5,1.7600000 -12.5,-1.0 C -12.5,-3.7600000 -10.260000,-6.0 -7.5,-6.0 C -4.7400000,-6.0 -2.5,-3.7600000 -2.5,-1.0 z "
       id="path3616" /></marker><marker
     inkscape:isstock="true"
     style="overflow:visible"
     id="marker3518"
     refX="0.0"
     refY="0.0"
     orient="auto"
     inkscape:stockid="DotS"><path
       transform="scale(0.2) translate(7.4, 1)"
       style="fill-rule:evenodd;stroke:#989898;stroke-width:1pt;stroke-opacity:1;fill:#ffffff;fill-opacity:1"
       d="M -2.5,-1.0 C -2.5,1.7600000 -4.7400000,4.0 -7.5,4.0 C -10.260000,4.0 -12.5,1.7600000 -12.5,-1.0 C -12.5,-3.7600000 -10.260000,-6.0 -7.5,-6.0 C -4.7400000,-6.0 -2.5,-3.7600000 -2.5,-1.0 z "
       id="path3516" /></marker><marker
     inkscape:isstock="true"
     style="overflow:visible"
     id="marker3424"
     refX="0.0"
     refY="0.0"
     orient="auto"
     inkscape:stockid="DotS"><path
       transform="scale(0.2) translate(7.4, 1)"
       style="fill-rule:evenodd;stroke:#989898;stroke-width:1pt;stroke-opacity:1;fill:#ffffff;fill-opacity:1"
       d="M -2.5,-1.0 C -2.5,1.7600000 -4.7400000,4.0 -7.5,4.0 C -10.260000,4.0 -12.5,1.7600000 -12.5,-1.0 C -12.5,-3.7600000 -10.260000,-6.0 -7.5,-6.0 C -4.7400000,-6.0 -2.5,-3.7600000 -2.5,-1.0 z "
       id="path3422" /></marker><marker
     inkscape:stockid="DotM"
     orient="auto"
     refY="0.0"
     refX="0.0"
     id="DotM"
     style="overflow:visible"
     inkscape:isstock="true"><path
       id="path975"
       d="M -2.5,-1.0 C -2.5,1.7600000 -4.7400000,4.0 -7.5,4.0 C -10.260000,4.0 -12.5,1.7600000 -12.5,-1.0 C -12.5,-3.7600000 -10.260000,-6.0 -7.5,-6.0 C -4.7400000,-6.0 -2.5,-3.7600000 -2.5,-1.0 z "
       style="fill-rule:evenodd;stroke:#bcbcbc;stroke-width:1pt;stroke-opacity:1;fill:#bcbcbc;fill-opacity:1"
       transform="scale(0.4) translate(7.4, 1)" /></marker><marker
     inkscape:stockid="DiamondMend"
     orient="auto"
     refY="0.0"
     refX="0.0"
     id="DiamondMend"
     style="overflow:visible"
     inkscape:isstock="true"><path
       id="path1011"
       d="M 0,-7.0710768 L -7.0710894,0 L 0,7.0710589 L 7.0710462,0 L 0,-7.0710768 z "
       style="fill-rule:evenodd;stroke:#000000;stroke-width:1pt;stroke-opacity:1;fill:#000000;fill-opacity:1"
       transform="scale(0.4) translate(-6.5,0)" /></marker><marker
     inkscape:stockid="DotL"
     orient="auto"
     refY="0.0"
     refX="0.0"
     id="DotL"
     style="overflow:visible"
     inkscape:isstock="true"><path
       id="path972"
       d="M -2.5,-1.0 C -2.5,1.7600000 -4.7400000,4.0 -7.5,4.0 C -10.260000,4.0 -12.5,1.7600000 -12.5,-1.0 C -12.5,-3.7600000 -10.260000,-6.0 -7.5,-6.0 C -4.7400000,-6.0 -2.5,-3.7600000 -2.5,-1.0 z "
       style="fill-rule:evenodd;stroke:#000000;stroke-width:1pt;stroke-opacity:1;fill:#000000;fill-opacity:1"
       transform="scale(0.8) translate(7.4, 1)" /></marker><radialGradient
     id="XMLID_52_"
     gradientUnits="userSpaceOnUse"
     cy="23.333"
     cx="165.06"
     gradientTransform="matrix(1 0 0 1.0103 1.008e-18 -.15980)"
     r="7.2848"><stop
       id="stop812"
       style="stop-color:#EF3535"
       offset="0" /><stop
       id="stop2239"
       style="stop-color:#c91a1a"
       offset="0" /><stop
       id="stop814"
       style="stop-color:#ff4c4c"
       offset="1" /></radialGradient><linearGradient
     id="XMLID_897_"
     y2="10.711"
     gradientUnits="userSpaceOnUse"
     y1="4.7593"
     x2="296.94"
     x1="292.97"><stop
       id="stop45093"
       style="stop-color:#EEEEEC"
       offset="0" /><stop
       id="stop45095"
       style="stop-color:#ffffff"
       offset="1" /></linearGradient><linearGradient
     id="linearGradient2229"><stop
       id="stop2231"
       style="stop-color:#e2e2e2"
       offset="0" /><stop
       id="stop2233"
       style="stop-color:#d8d8d8"
       offset="1" /></linearGradient><linearGradient
     id="linearGradient7819"
     y2="318.69"
     gradientUnits="userSpaceOnUse"
     x2="185.48"
     gradientTransform="matrix(2.3454,2.3434,-2.3454,2.3434,888.99,-800.77)"
     y1="318.69"
     x1="148.7"><stop
       id="stop4256"
       stop-color="#ff9191"
       offset="0" /><stop
       id="stop4258"
       stop-color="#b55858"
       offset="1" /></linearGradient><linearGradient
     id="linearGradient7812"
     y2="437.79001"
     gradientUnits="userSpaceOnUse"
     x2="365.75"
     gradientTransform="matrix(2.5278,2.5256,-2.5278,2.5256,565.91,-1456.1)"
     y1="437.79001"
     x1="331.72"><stop
       id="stop3687"
       stop-color="#fff"
       offset="0" /><stop
       id="stop3711"
       stop-color="#ffdd7c"
       offset="1" /></linearGradient><linearGradient
     id="linearGradient7803"
     y2="414.35999"
     gradientUnits="userSpaceOnUse"
     x2="353.75"
     gradientTransform="matrix(2.5278,2.5256,-2.5278,2.5256,565.91,-1456.1)"
     y1="414.35999"
     x1="335.72"><stop
       id="stop3708"
       stop-color="#fff"
       stop-opacity=".82653"
       offset="0" /><stop
       id="stop3710"
       stop-color="#fff"
       stop-opacity="0"
       offset="1" /></linearGradient><filter
     id="filter3202"
     color-interpolation-filters="sRGB"><feGaussianBlur
       id="feGaussianBlur3204"
       stdDeviation="0.30313182"
       inkscape:collect="always" /></filter><linearGradient
     id="linearGradient6859"
     y2="8.8007002"
     xlink:href="#linearGradient32103"
     gradientUnits="userSpaceOnUse"
     x2="14.143"
     y1="14.623"
     x1="14.069" /><linearGradient
     id="linearGradient32103"><stop
       id="stop32105"
       style="stop-color:rgb(0, 0, 0);stop-opacity:.52344"
       offset="0" /><stop
       id="stop32107"
       style="stop-color:rgb(255, 255, 255);stop-opacity:.78039"
       offset="1" /></linearGradient><linearGradient
     id="linearGradient2256"
     y2="29.408001"
     xlink:href="#linearGradient22117"
     gradientUnits="userSpaceOnUse"
     x2="32.888"
     y1="22.379999"
     x1="35.687" /><linearGradient
     id="linearGradient22117"><stop
       id="stop22119"
       style="stop-color:rgb(255, 255, 253);stop-opacity:0"
       offset="0" /><stop
       id="stop30873"
       style="stop-color:rgb(255, 250, 179);stop-opacity:.84375"
       offset=".31646" /><stop
       id="stop22121"
       style="stop-color:rgb(255, 251, 251);stop-opacity:0"
       offset="1" /></linearGradient><linearGradient
     id="linearGradient6863"
     y2="43.595001"
     xlink:href="#linearGradient23119"
     gradientUnits="userSpaceOnUse"
     x2="48.452"
     gradientTransform="translate(-0.75,6.25)"
     y1="52.404999"
     x1="43.549" /><linearGradient
     id="linearGradient23119"><stop
       id="stop24106"
       style="stop-color:rgb(43, 43, 43);stop-opacity:.67188"
       offset="0" /><stop
       id="stop30885"
       style="stop-color:rgb(0, 0, 0);stop-opacity:.58594"
       offset=".28481" /><stop
       id="stop23123"
       style="stop-color:rgb(51, 51, 51);stop-opacity:0"
       offset="1" /></linearGradient><linearGradient
     id="linearGradient6861"
     y2="43.970001"
     xlink:href="#linearGradient22117"
     gradientUnits="userSpaceOnUse"
     x2="46.986"
     gradientTransform="translate(-0.75,6.25)"
     y1="39.783001"
     x1="53.164001" /><filter
     id="filter5747"
     width="1.8415999"
     y="-0.24656001"
     x="-0.42078999"
     height="1.4931"
     color-interpolation-filters="sRGB"><feGaussianBlur
       id="feGaussianBlur5749"
       stdDeviation="0.56224844"
       inkscape:collect="always" /></filter><marker
     inkscape:stockid="DotM"
     orient="auto"
     refY="0"
     refX="0"
     id="DotM-5"
     style="overflow:visible"
     inkscape:isstock="true"><path
       id="path975-3"
       d="m -2.5,-1 c 0,2.76 -2.24,5 -5,5 -2.76,0 -5,-2.24 -5,-5 0,-2.76 2.24,-5 5,-5 2.76,0 5,2.24 5,5 z"
       style="fill:#000000;fill-opacity:1;fill-rule:evenodd;stroke:#000000;stroke-width:1pt;stroke-opacity:1"
       transform="matrix(0.4,0,0,0.4,2.96,0.4)" /></marker><marker
     inkscape:stockid="DotM"
     orient="auto"
     refY="0"
     refX="0"
     id="marker1623"
     style="overflow:visible"
     inkscape:isstock="true"><path
       id="path1621"
       d="m -2.5,-1 c 0,2.76 -2.24,5 -5,5 -2.76,0 -5,-2.24 -5,-5 0,-2.76 2.24,-5 5,-5 2.76,0 5,2.24 5,5 z"
       style="fill:#000000;fill-opacity:1;fill-rule:evenodd;stroke:#000000;stroke-width:1pt;stroke-opacity:1"
       transform="matrix(0.4,0,0,0.4,2.96,0.4)" /></marker><marker
     inkscape:stockid="DotM"
     orient="auto"
     refY="0"
     refX="0"
     id="marker1627"
     style="overflow:visible"
     inkscape:isstock="true"><path
       id="path1625"
       d="m -2.5,-1 c 0,2.76 -2.24,5 -5,5 -2.76,0 -5,-2.24 -5,-5 0,-2.76 2.24,-5 5,-5 2.76,0 5,2.24 5,5 z"
       style="fill:#000000;fill-opacity:1;fill-rule:evenodd;stroke:#000000;stroke-width:1pt;stroke-opacity:1"
       transform="matrix(0.4,0,0,0.4,2.96,0.4)" /></marker><linearGradient
     inkscape:collect="always"
     xlink:href="#linearGradient15885"
     id="linearGradient15887"
     x1="7"
     y1="32"
     x2="33"
     y2="19"
     gradientUnits="userSpaceOnUse" /></defs><sodipodi:namedview
   id="base"
   bordercolor="#666666"
   inkscape:pageshadow="2"
   inkscape:window-y="30"
   pagecolor="#ffffff"
   inkscape:showpageshadow="false"
   inkscape:zoom="16"
   inkscape:window-x="253"
   stroke="#c4a000"
   borderopacity="0.21568627"
   inkscape:current-layer="svg2"
   inkscape:cx="22.082371"
   inkscape:cy="25.459442"
   inkscape:guide-bbox="true"
   inkscape:window-width="1181"
   showgrid="true"
   inkscape:pageopacity="0.0"
   inkscape:window-height="818"
   showguides="true"
   fill="#2e3436"
   inkscape:document-rotation="0"><inkscape:grid
     id="GridFromPre046Settings"
     opacity=".039216"
     visible="true"
     color="#3f3fff"
     enabled="true"
     originy="0"
     originx="0"
     empspacing="5"
     spacingy="1"
     spacingx="1"
     empopacity="0.10196078"
     type="xygrid"
     empcolor="#3f3fff" /></sodipodi:namedview>
<metadata
   id="metadata73"><rdf:RDF><cc:Work><dc:format>image/svg+xml</dc:format><dc:type
         rdf:resource="http://purl.org/dc/dcmitype/StillImage" /><cc:license
         rdf:resource="http://creativecommons.org/publicdomain/zero/1.0/" /><dc:publisher><cc:Agent
           rdf:about="http://openclipart.org/"><dc:title>Openclipart</dc:title></cc:Agent></dc:publisher><dc:title></dc:title><dc:date>2010-03-29T08:58:03</dc:date><dc:description>&quot;Accessories&quot; icon from &lt;a href=&quot;http://tango.freedesktop.org/Tango_Desktop_Project&quot;&gt; Tango Project &lt;/a&gt; 
\n&lt;br&gt;&lt;br&gt;
\nSince version 0.8.90 Tango Project icons are Public Domain: &lt;a href=&quot;http://tango.freedesktop.org/Frequently_Asked_Questions#Terms_of_Use.3F&quot;&gt; Tango Project FAQ &lt;/a&gt;</dc:description><dc:source>https://openclipart.org/detail/35365/tango-applications-accessories-by-warszawianka</dc:source><dc:creator><cc:Agent><dc:title>warszawianka</dc:title></cc:Agent></dc:creator><dc:subject><rdf:Bag><rdf:li>externalsource</rdf:li><rdf:li>icon</rdf:li><rdf:li>ruler</rdf:li><rdf:li>scissors</rdf:li><rdf:li>tango</rdf:li></rdf:Bag></dc:subject></cc:Work><cc:License
       rdf:about="http://creativecommons.org/publicdomain/zero/1.0/"><cc:permits
         rdf:resource="http://creativecommons.org/ns#Reproduction" /><cc:permits
         rdf:resource="http://creativecommons.org/ns#Distribution" /><cc:permits
         rdf:resource="http://creativecommons.org/ns#DerivativeWorks" /></cc:License></rdf:RDF></metadata><path
   style="fill:none;fill-opacity:1;stroke:url(#linearGradient15887);stroke-width:4;stroke-linecap:round;stroke-linejoin:miter;stroke-miterlimit:4;stroke-dasharray:none;stroke-opacity:0.698795;marker-start:url(#marker11335);marker-mid:url(#marker11335);marker-end:url(#marker11335)"
   d="M 8.3,8.3 40,40"
   id="path909-3"
   sodipodi:nodetypes="cc" /><g
   id="g11133"
   style="display:inline;fill:#ffffff;fill-opacity:1"><circle
     r="2"
     cy="8.3000002"
     cx="8.3000002"
     id="path8454"
     style="display:inline;fill:#ffffff;fill-opacity:1;stroke:none;stroke-width:2.66666;stroke-linecap:round;stroke-linejoin:round;stroke-miterlimit:4;stroke-dasharray:none;stroke-opacity:1;paint-order:markers fill stroke" /><circle
     r="2"
     cy="40"
     cx="40"
     id="path8454-3-0-2"
     style="display:inline;fill:#ffffff;fill-opacity:1;stroke:none;stroke-width:2.66666;stroke-linecap:round;stroke-linejoin:round;stroke-miterlimit:4;stroke-dasharray:none;stroke-opacity:1;paint-order:markers fill stroke" /></g></svg>
