<?xml version="1.0" encoding="utf8" standalone="no"?>
<svg viewBox="0 0 186.69325 206.07425" xmlns="http://www.w3.org/2000/svg" xmlns:xlink="http://www.w3.org/1999/xlink">
<defs>
<filter height="1.38554" id="filter6093" width="1.12851" x="-.06426" y="-.19277">
<feGaussianBlur stdDeviation=".8925"/>
</filter>
<linearGradient id="linearGradient6035">
<stop offset="0" stop-color="#fff"/>
<stop offset="1" stop-color="#fff" stop-opacity="0"/>
</linearGradient>
<linearGradient gradientUnits="userSpaceOnUse" id="linearGradient6110" spreadMethod="reflect" x1="288.40625" x2="308.09376">
<stop offset="0" stop-color="#c6c6c6"/>
<stop offset=".20485" stop-color="#e3e3e3"/>
<stop offset="1" stop-color="#a5a5a8"/>
</linearGradient>
<linearGradient gradientUnits="userSpaceOnUse" id="linearGradient6112" x1="282.35706" x2="286.6308" y1="518.55707" y2="527.33539">
<stop offset="0" stop-color="#e3e3e3"/>
<stop offset="1" stop-color="#a5a5a8"/>
</linearGradient>
<linearGradient gradientUnits="userSpaceOnUse" id="linearGradient6114" spreadMethod="reflect" x1="308.5" x2="327.78125" xlink:href="#linearGradient6035" y1="522.86218" y2="520.57812"/>
<linearGradient gradientUnits="userSpaceOnUse" id="linearGradient6116" spreadMethod="reflect" x1="308.5" x2="327.78125" xlink:href="#linearGradient6035" y1="534.61218" y2="532.32812"/>
<linearGradient gradientUnits="userSpaceOnUse" id="linearGradient6118" spreadMethod="reflect" x1="308.5" x2="327.78125" xlink:href="#linearGradient6035" y1="544.61218" y2="542.32812"/>
</defs>
<g transform="matrix(4.19923,0,0,4.19923,-1200.42284,-2144.4992)">
<path d="m303.29832,521.77954c0,3.06841-7.46231,5.55584-16.66752,5.55584s-16.66752-2.48743-16.66752-5.55584 7.4623-5.55584 16.66752-5.55584 16.66752,2.48744 16.66752,5.55584z" fill="#2e3436" filter="url(#filter6093)" transform="matrix(1.18182,0,0,1.18182,-30.64896,-65.9836)"/>
<path d="m288.40625,517.5v30.09191h.125c-.0806.24126-.125.47032-.125.71875 0,3.6263 8.80861,6.5625 19.6875,6.5625s19.6875-2.9362 19.6875-6.5625c0-.24879-.0442-.47715-.125-.71875h.125v-30.09191h-39.375z" fill="url(#linearGradient6110)"/>
<path d="m303.29832,521.77954c0,3.06841-7.46231,5.55584-16.66752,5.55584s-16.66752-2.48743-16.66752-5.55584 7.4623-5.55584 16.66752-5.55584 16.66752,2.48744 16.66752,5.55584z" fill="url(#linearGradient6112)" transform="matrix(1.18182,0,0,1.18182,-30.64896,-99.39439)"/>
<path d="m288.375,539.09375c.14735,3.58398 8.93182,6.46875 19.71875,6.46875 10.75628,0 19.4918-2.86766 19.6875-6.4375-3.45152,2.93589-10.95919,4.96875-19.6875,4.96875-8.74612,0-16.27686-2.05444-19.71875-5z" fill="#565656"/>
<path d="m288.375,517.34375c.14735,3.58398 8.93182,6.46875 19.71875,6.46875 10.75628,0 19.4918-2.86766 19.6875-6.4375-.21572.18349-.44078.35509-.6875.53125l-.0312.0312c-2.29214,2.77744-9.90349,4.8125-18.96875,4.8125-9.12203,0-16.78563-2.07074-19.03125-4.875l-.0625-.0625c-.21872-.15969-.43159-.30323-.625-.46875z" fill="url(#linearGradient6114)"/>
<g transform="translate(0,-.52315)">
<path d="m288.375,529.09375c.14735,3.58398 8.93182,6.46875 19.71875,6.46875 10.75628,0 19.4918-2.86766 19.6875-6.4375-3.45152,2.93589-10.95919,4.96875-19.6875,4.96875-8.74612,0-16.27686-2.05444-19.71875-5z" fill="#565656"/>
<path d="m288.375,529.09375c.14735,3.58398 8.93182,6.46875 19.71875,6.46875 10.75628,0 19.4918-2.86766 19.6875-6.4375l-.15625.125c-1.24216,3.22677-9.51064,5.71875-19.53125,5.71875-10.11275,0-18.46774-2.51121-19.59375-5.78125l-.125-.0937z" fill="url(#linearGradient6116)"/>
</g>
<path d="m288.375,539.09375c.14735,3.58398 8.93182,6.46875 19.71875,6.46875 10.75628,0 19.4918-2.86766 19.6875-6.4375l-.15625.125c-1.24216,3.22677-9.51064,5.71875-19.53125,5.71875-10.11275,0-18.46774-2.51121-19.59375-5.78125l-.125-.0937z" fill="url(#linearGradient6118)"/>
<path d="m288.5,549.9375c1.12601,3.27004 9.481,5.78125 19.59375,5.78125 10.02061,0 18.28909-2.49198 19.53125-5.71875-3.51634,2.86779-10.92856,4.84375-19.53125,4.84375-8.64783,0-16.10003-2.01374-19.59375-4.90625z" fill="#565656"/>
</g>
</svg>
