<?xml version="1.0" encoding="UTF-8" standalone="no"?>
<svg
   xmlns:dc="http://purl.org/dc/elements/1.1/"
   xmlns:cc="http://creativecommons.org/ns#"
   xmlns:rdf="http://www.w3.org/1999/02/22-rdf-syntax-ns#"
   xmlns:svg="http://www.w3.org/2000/svg"
   xmlns="http://www.w3.org/2000/svg"
   xmlns:sodipodi="http://sodipodi.sourceforge.net/DTD/sodipodi-0.dtd"
   xmlns:inkscape="http://www.inkscape.org/namespaces/inkscape"
   version="1.1"
   sodipodi:docname="android.svg"
   xml:space="preserve"
   viewBox="0 0 67.40029 67.400289"
   height="67.400291"
   width="67.400291"
   enable-background="new 0 0 780 650"
   y="0px"
   x="0px"
   inkscape:version="1.0 (4035a4fb49, 2020-05-01)"
   id="svg24"><defs
   id="defs26" /><sodipodi:namedview
   fit-margin-left="0"
   inkscape:zoom="6.3207448"
   borderopacity="1"
   inkscape:current-layer="svg24"
   inkscape:cx="-63.051552"
   inkscape:cy="22.978573"
   inkscape:window-maximized="0"
   showgrid="false"
   fit-margin-right="0"
   bordercolor="#666666"
   inkscape:window-x="0"
   guidetolerance="10"
   objecttolerance="10"
   inkscape:window-y="34"
   fit-margin-bottom="0"
   inkscape:window-width="1095"
   inkscape:pageopacity="0"
   inkscape:pageshadow="2"
   pagecolor="#ffffff"
   gridtolerance="10"
   inkscape:window-height="842"
   fit-margin-top="0"
   id="namedview2"
   inkscape:document-rotation="0" />
<g
   transform="translate(-179.52,-76.084006)"
   id="g20"><g
     fill="#00d400"
     transform="matrix(0.18361,0,0,0.18361,184.52,76.084)"
     id="g12"><path
       inkscape:connector-curvature="0"
       d="M 22.069,119.75 C 9.871,119.75 0,129.78 0,142.16 v 87.588 c 0,12.375 9.8711,22.423 22.069,22.423 12.1979,0 22.069,-10.048 22.069,-22.423 V 142.16 c 0,-12.383 -9.8791,-22.415 -22.069,-22.415 z"
       id="path4" /><path
       inkscape:connector-curvature="0"
       d="m 60.189,121.05 v 158.51 c 0,9.4216 7.6481,17.054 17.054,17.054 h 19.469 v 48.272 c 0,12.255 9.7988,22.198 21.869,22.198 12.0702,0 21.869,-9.9353 21.869,-22.198 v -48.272 h 34.027 v 48.272 c 0,12.255 9.7667,22.198 21.869,22.198 12.07,0 21.853,-9.9353 21.853,-22.198 v -48.272 h 19.485 c 9.4056,0 17.038,-7.64 17.038,-17.054 V 121.05 H 60.192 Z"
       id="path6" /><path
       inkscape:connector-curvature="0"
       d="m 292.84,119.72 c -12.182,0 -22.085,10.048 -22.085,22.431 v 87.62 c 0,12.383 9.9032,22.431 22.085,22.431 12.198,0 22.053,-10.048 22.053,-22.431 v -87.628 c 0,-12.383 -9.855,-22.423 -22.053,-22.423 z"
       id="path8" /><path
       inkscape:connector-curvature="0"
       d="m 208.46,39.703 18.482,-27.157 c 2.4958,-3.6595 1.5489,-8.6592 -2.1187,-11.155 -3.6675,-2.4959 -8.6673,-1.5408 -11.147,2.1267 l -20.15,29.613 c -11.179,-3.8682 -23.305,-6.0912 -36.082,-6.0912 -12.76,0 -24.894,2.215 -36.065,6.0831 l -20.16,-29.613 c -2.508,-3.6599 -7.491,-4.6069 -11.159,-2.119 -3.667,2.4878 -4.606,7.4955 -2.118,11.155 l 18.498,27.157 c -25.881,13.812 -43.857,37.655 -46.257,65.377 h 194.52 c -2.3835,-27.727 -20.344,-51.57 -46.225,-65.374 z m -92.034,38.473 c -5.9387,0 -10.77,-4.8232 -10.77,-10.762 0,-5.9387 4.8152,-10.762 10.77,-10.762 5.9387,0 10.754,4.8232 10.754,10.762 0,5.9387 -4.8152,10.762 -10.754,10.762 z m 83.398,0 c -5.9547,0 -10.754,-4.8232 -10.754,-10.762 0,-5.9387 4.7991,-10.762 10.754,-10.762 5.9387,0 10.77,4.8232 10.77,10.762 0,5.9387 -4.8312,10.762 -10.77,10.762 z"
       id="path10" /></g><path
     d="m 267.12,84.21 a 2.125,2.125 0 1 1 -4.25,0 2.125,2.125 0 1 1 4.25,0 z"
     inkscape:connector-curvature="0"
     transform="translate(-43.875,3.934)"
     fill="#ffffff"
     id="path16" /><path
     d="m 267.12,84.21 a 2.125,2.125 0 1 1 -4.25,0 2.125,2.125 0 1 1 4.25,0 z"
     inkscape:connector-curvature="0"
     transform="translate(-58.797,3.934)"
     fill="#ffffff"
     id="path18" /></g><metadata
   id="metadata22"><rdf:RDF><cc:Work><dc:format>image/svg+xml</dc:format><dc:type
         rdf:resource="http://purl.org/dc/dcmitype/StillImage" /><cc:license
         rdf:resource="http://creativecommons.org/publicdomain/zero/1.0/" /><dc:publisher><cc:Agent
           rdf:about="http://openclipart.org/"><dc:title>Openclipart</dc:title></cc:Agent></dc:publisher><dc:title></dc:title><dc:date>2013-11-23T15:31:08</dc:date><dc:description>Different stances of the android logo</dc:description><dc:source>https://openclipart.org/detail/189057/android-another-by-roshellin-189057</dc:source><dc:creator><cc:Agent><dc:title>roshellin</dc:title></cc:Agent></dc:creator><dc:subject><rdf:Bag><rdf:li>android</rdf:li><rdf:li>clipart_issue</rdf:li><rdf:li>roshellin</rdf:li></rdf:Bag></dc:subject></cc:Work><cc:License
       rdf:about="http://creativecommons.org/publicdomain/zero/1.0/"><cc:permits
         rdf:resource="http://creativecommons.org/ns#Reproduction" /><cc:permits
         rdf:resource="http://creativecommons.org/ns#Distribution" /><cc:permits
         rdf:resource="http://creativecommons.org/ns#DerivativeWorks" /></cc:License></rdf:RDF></metadata></svg>
